<svg xmlns="http://www.w3.org/2000/svg" xmlns:xlink="http://www.w3.org/1999/xlink" zoomAndPan="magnify" preserveAspectRatio="xMidYMid meet" version="1.0" viewBox="0.5 0 21.72 23.21"><defs><clipPath id="a706cdfa71"><path d="M 0.5 0 L 22.21875 0 L 22.21875 23.207031 L 0.5 23.207031 Z M 0.5 0 " clip-rule="nonzero"/></clipPath></defs><g clip-path="url(#a706cdfa71)"><path fill="#000000" d="M 21.792969 23.167969 C 21.691406 23.167969 21.59375 23.128906 21.519531 23.054688 L 20.632812 22.171875 L 19.746094 23.054688 C 19.597656 23.207031 19.351562 23.207031 19.203125 23.054688 L 18.316406 22.171875 L 17.429688 23.054688 C 17.277344 23.207031 17.035156 23.207031 16.882812 23.054688 L 15.996094 22.171875 L 15.109375 23.054688 C 14.957031 23.207031 14.714844 23.207031 14.5625 23.054688 L 13.675781 22.171875 L 12.789062 23.054688 C 12.640625 23.207031 12.394531 23.207031 12.246094 23.054688 L 11.359375 22.171875 L 10.472656 23.054688 C 10.320312 23.207031 10.078125 23.207031 9.925781 23.054688 L 9.039062 22.171875 L 8.152344 23.054688 C 8 23.207031 7.757812 23.207031 7.605469 23.054688 L 6.71875 22.171875 L 5.832031 23.054688 C 5.683594 23.207031 5.4375 23.207031 5.289062 23.054688 L 4.402344 22.171875 L 3.515625 23.054688 C 3.363281 23.207031 3.121094 23.207031 2.96875 23.054688 L 2.082031 22.171875 L 1.195312 23.054688 C 1.085938 23.164062 0.917969 23.199219 0.773438 23.136719 C 0.628906 23.078125 0.535156 22.9375 0.535156 22.78125 L 0.535156 0.414062 C 0.535156 0.257812 0.628906 0.117188 0.773438 0.0585938 C 0.917969 -0.00390625 1.085938 0.03125 1.195312 0.140625 L 2.082031 1.027344 L 2.96875 0.140625 C 3.121094 -0.0078125 3.363281 -0.0078125 3.515625 0.140625 L 4.402344 1.027344 L 5.289062 0.140625 C 5.4375 -0.0078125 5.683594 -0.0078125 5.832031 0.140625 L 6.71875 1.027344 L 7.605469 0.140625 C 7.757812 -0.0078125 8 -0.0078125 8.152344 0.140625 L 9.039062 1.027344 L 9.925781 0.140625 C 10.078125 -0.0078125 10.320312 -0.0078125 10.472656 0.140625 L 11.359375 1.027344 L 12.246094 0.140625 C 12.394531 -0.0078125 12.640625 -0.0078125 12.789062 0.140625 L 13.675781 1.027344 L 14.5625 0.140625 C 14.714844 -0.0078125 14.957031 -0.0078125 15.109375 0.140625 L 15.996094 1.027344 L 16.882812 0.140625 C 17.035156 -0.0078125 17.277344 -0.0078125 17.429688 0.140625 L 18.316406 1.027344 L 19.203125 0.140625 C 19.351562 -0.0078125 19.597656 -0.0078125 19.746094 0.140625 L 20.632812 1.027344 L 21.519531 0.140625 C 21.632812 0.03125 21.796875 -0.00390625 21.941406 0.0585938 C 22.085938 0.117188 22.179688 0.257812 22.179688 0.414062 L 22.179688 22.78125 C 22.179688 22.9375 22.085938 23.078125 21.941406 23.136719 C 21.894531 23.15625 21.84375 23.167969 21.792969 23.167969 Z M 18.316406 21.238281 C 18.414062 21.238281 18.511719 21.277344 18.589844 21.351562 L 19.476562 22.238281 L 20.359375 21.351562 C 20.511719 21.203125 20.757812 21.203125 20.90625 21.351562 L 21.40625 21.851562 L 21.40625 1.34375 L 20.90625 1.84375 C 20.757812 1.996094 20.511719 1.996094 20.359375 1.84375 L 19.476562 0.960938 L 18.589844 1.84375 C 18.4375 1.996094 18.191406 1.996094 18.042969 1.84375 L 17.15625 0.960938 L 16.269531 1.84375 C 16.117188 1.996094 15.875 1.996094 15.722656 1.84375 L 14.835938 0.960938 L 13.949219 1.84375 C 13.800781 1.996094 13.554688 1.996094 13.402344 1.84375 L 12.519531 0.960938 L 11.632812 1.84375 C 11.480469 1.996094 11.234375 1.996094 11.085938 1.84375 L 10.199219 0.960938 L 9.3125 1.84375 C 9.160156 1.996094 8.917969 1.996094 8.765625 1.84375 L 7.878906 0.960938 L 6.992188 1.84375 C 6.84375 1.996094 6.597656 1.996094 6.445312 1.84375 L 5.5625 0.960938 L 4.675781 1.84375 C 4.523438 1.996094 4.277344 1.996094 4.128906 1.84375 L 3.242188 0.960938 L 2.355469 1.84375 C 2.203125 1.996094 1.960938 1.996094 1.808594 1.84375 L 1.308594 1.34375 L 1.308594 21.851562 L 1.808594 21.351562 C 1.960938 21.203125 2.203125 21.203125 2.355469 21.351562 L 3.242188 22.238281 L 4.128906 21.351562 C 4.277344 21.203125 4.523438 21.203125 4.675781 21.351562 L 5.5625 22.238281 L 6.445312 21.351562 C 6.597656 21.203125 6.84375 21.203125 6.992188 21.351562 L 7.878906 22.238281 L 8.765625 21.351562 C 8.917969 21.203125 9.160156 21.203125 9.3125 21.351562 L 10.199219 22.238281 L 11.085938 21.351562 C 11.234375 21.203125 11.480469 21.203125 11.632812 21.351562 L 12.519531 22.238281 L 13.402344 21.351562 C 13.554688 21.203125 13.800781 21.203125 13.949219 21.351562 L 14.835938 22.238281 L 15.722656 21.351562 C 15.875 21.203125 16.117188 21.203125 16.269531 21.351562 L 17.15625 22.238281 L 18.042969 21.351562 C 18.117188 21.277344 18.214844 21.238281 18.316406 21.238281 Z M 18.316406 21.238281 " fill-opacity="1" fill-rule="nonzero"/></g><path fill="#000000" d="M 11.359375 19.3125 C 7.097656 19.3125 3.628906 15.851562 3.628906 11.597656 C 3.628906 7.34375 7.097656 3.886719 11.359375 3.886719 C 15.621094 3.886719 19.089844 7.34375 19.089844 11.597656 C 19.089844 15.851562 15.621094 19.3125 11.359375 19.3125 Z M 11.359375 4.65625 C 7.523438 4.65625 4.402344 7.769531 4.402344 11.597656 C 4.402344 15.425781 7.523438 18.539062 11.359375 18.539062 C 15.195312 18.539062 18.316406 15.425781 18.316406 11.597656 C 18.316406 7.769531 15.195312 4.65625 11.359375 4.65625 Z M 11.359375 4.65625 " fill-opacity="1" fill-rule="nonzero"/><path fill="#000000" d="M 5.945312 11.984375 C 5.734375 11.984375 5.5625 11.8125 5.5625 11.597656 C 5.5625 8.410156 8.160156 5.8125 11.359375 5.8125 C 11.570312 5.8125 11.746094 5.984375 11.746094 6.199219 C 11.746094 6.414062 11.570312 6.585938 11.359375 6.585938 C 8.585938 6.585938 6.332031 8.832031 6.332031 11.597656 C 6.332031 11.8125 6.160156 11.984375 5.945312 11.984375 Z M 5.945312 11.984375 " fill-opacity="1" fill-rule="nonzero"/><path fill="#000000" d="M 11.359375 17.382812 C 11.144531 17.382812 10.972656 17.210938 10.972656 16.996094 C 10.972656 16.785156 11.144531 16.613281 11.359375 16.613281 C 14.128906 16.613281 16.382812 14.363281 16.382812 11.597656 C 16.382812 11.386719 16.554688 11.210938 16.769531 11.210938 C 16.984375 11.210938 17.15625 11.386719 17.15625 11.597656 C 17.15625 14.789062 14.554688 17.382812 11.359375 17.382812 Z M 11.359375 17.382812 " fill-opacity="1" fill-rule="nonzero"/><path fill="#000000" d="M 11.359375 15.070312 C 9.441406 15.070312 7.878906 13.511719 7.878906 11.597656 C 7.878906 9.683594 9.441406 8.128906 11.359375 8.128906 C 11.570312 8.128906 11.746094 8.300781 11.746094 8.511719 C 11.746094 8.726562 11.570312 8.898438 11.359375 8.898438 C 9.867188 8.898438 8.652344 10.109375 8.652344 11.597656 C 8.652344 13.085938 9.867188 14.296875 11.359375 14.296875 C 12.851562 14.296875 14.0625 13.085938 14.0625 11.597656 C 14.0625 11.386719 14.238281 11.210938 14.449219 11.210938 C 14.664062 11.210938 14.835938 11.386719 14.835938 11.597656 C 14.835938 13.511719 13.277344 15.070312 11.359375 15.070312 Z M 11.359375 15.070312 " fill-opacity="1" fill-rule="nonzero"/></svg>