<svg xmlns="http://www.w3.org/2000/svg" xmlns:xlink="http://www.w3.org/1999/xlink" zoomAndPan="magnify" preserveAspectRatio="xMidYMid meet" version="1.0" viewBox="0 0 22.48 22.48"><defs><clipPath id="1c275761e6"><path d="M 2 20 L 5 20 L 5 22.476562 L 2 22.476562 Z M 2 20 " clip-rule="nonzero"/></clipPath><clipPath id="420e0646db"><path d="M 7 20 L 10 20 L 10 22.476562 L 7 22.476562 Z M 7 20 " clip-rule="nonzero"/></clipPath><clipPath id="70726826de"><path d="M 12 20 L 15 20 L 15 22.476562 L 12 22.476562 Z M 12 20 " clip-rule="nonzero"/></clipPath><clipPath id="6161f45ade"><path d="M 16 20 L 19 20 L 19 22.476562 L 16 22.476562 Z M 16 20 " clip-rule="nonzero"/></clipPath><clipPath id="cce7c1d332"><path d="M 0 5 L 22.476562 5 L 22.476562 12 L 0 12 Z M 0 5 " clip-rule="nonzero"/></clipPath><clipPath id="174a42d181"><path d="M 0 13 L 22.476562 13 L 22.476562 16 L 0 16 Z M 0 13 " clip-rule="nonzero"/></clipPath></defs><path fill="#000000" d="M 2.808594 17.792969 C 2.808594 18.054688 2.71875 18.273438 2.535156 18.457031 C 2.351562 18.640625 2.132812 18.730469 1.875 18.730469 C 1.613281 18.730469 1.394531 18.640625 1.210938 18.457031 C 1.027344 18.273438 0.9375 18.054688 0.9375 17.792969 C 0.9375 17.535156 1.027344 17.316406 1.210938 17.132812 C 1.394531 16.949219 1.613281 16.859375 1.875 16.859375 C 2.132812 16.859375 2.351562 16.949219 2.535156 17.132812 C 2.71875 17.316406 2.808594 17.535156 2.808594 17.792969 Z M 2.808594 17.792969 " fill-opacity="1" fill-rule="nonzero"/><path fill="#000000" d="M 7.492188 17.792969 C 7.492188 18.054688 7.402344 18.273438 7.21875 18.457031 C 7.035156 18.640625 6.816406 18.730469 6.554688 18.730469 C 6.296875 18.730469 6.078125 18.640625 5.894531 18.457031 C 5.710938 18.273438 5.621094 18.054688 5.621094 17.792969 C 5.621094 17.535156 5.710938 17.316406 5.894531 17.132812 C 6.078125 16.949219 6.296875 16.859375 6.554688 16.859375 C 6.816406 16.859375 7.035156 16.949219 7.21875 17.132812 C 7.402344 17.316406 7.492188 17.535156 7.492188 17.792969 Z M 7.492188 17.792969 " fill-opacity="1" fill-rule="nonzero"/><path fill="#000000" d="M 12.175781 17.792969 C 12.175781 18.054688 12.082031 18.273438 11.902344 18.457031 C 11.71875 18.640625 11.496094 18.730469 11.238281 18.730469 C 10.980469 18.730469 10.757812 18.640625 10.578125 18.457031 C 10.394531 18.273438 10.300781 18.054688 10.300781 17.792969 C 10.300781 17.535156 10.394531 17.316406 10.578125 17.132812 C 10.757812 16.949219 10.980469 16.859375 11.238281 16.859375 C 11.496094 16.859375 11.71875 16.949219 11.902344 17.132812 C 12.082031 17.316406 12.175781 17.535156 12.175781 17.792969 Z M 12.175781 17.792969 " fill-opacity="1" fill-rule="nonzero"/><path fill="#000000" d="M 16.859375 17.792969 C 16.859375 18.054688 16.765625 18.273438 16.582031 18.457031 C 16.402344 18.640625 16.179688 18.730469 15.921875 18.730469 C 15.664062 18.730469 15.441406 18.640625 15.257812 18.457031 C 15.078125 18.273438 14.984375 18.054688 14.984375 17.792969 C 14.984375 17.535156 15.078125 17.316406 15.257812 17.132812 C 15.441406 16.949219 15.664062 16.859375 15.921875 16.859375 C 16.179688 16.859375 16.402344 16.949219 16.582031 17.132812 C 16.765625 17.316406 16.859375 17.535156 16.859375 17.792969 Z M 16.859375 17.792969 " fill-opacity="1" fill-rule="nonzero"/><path fill="#000000" d="M 21.539062 17.792969 C 21.539062 18.054688 21.449219 18.273438 21.265625 18.457031 C 21.082031 18.640625 20.863281 18.730469 20.605469 18.730469 C 20.347656 18.730469 20.125 18.640625 19.941406 18.457031 C 19.757812 18.273438 19.667969 18.054688 19.667969 17.792969 C 19.667969 17.535156 19.757812 17.316406 19.941406 17.132812 C 20.125 16.949219 20.347656 16.859375 20.605469 16.859375 C 20.863281 16.859375 21.082031 16.949219 21.265625 17.132812 C 21.449219 17.316406 21.539062 17.535156 21.539062 17.792969 Z M 21.539062 17.792969 " fill-opacity="1" fill-rule="nonzero"/><g clip-path="url(#1c275761e6)"><path fill="#000000" d="M 4.683594 21.539062 C 4.683594 21.800781 4.589844 22.019531 4.410156 22.203125 C 4.226562 22.386719 4.003906 22.476562 3.746094 22.476562 C 3.488281 22.476562 3.265625 22.386719 3.085938 22.203125 C 2.902344 22.019531 2.808594 21.800781 2.808594 21.539062 C 2.808594 21.28125 2.902344 21.0625 3.085938 20.878906 C 3.265625 20.695312 3.488281 20.605469 3.746094 20.605469 C 4.003906 20.605469 4.226562 20.695312 4.410156 20.878906 C 4.589844 21.0625 4.683594 21.28125 4.683594 21.539062 Z M 4.683594 21.539062 " fill-opacity="1" fill-rule="nonzero"/></g><g clip-path="url(#420e0646db)"><path fill="#000000" d="M 9.367188 21.539062 C 9.367188 21.800781 9.273438 22.019531 9.089844 22.203125 C 8.910156 22.386719 8.6875 22.476562 8.429688 22.476562 C 8.171875 22.476562 7.949219 22.386719 7.765625 22.203125 C 7.582031 22.019531 7.492188 21.800781 7.492188 21.539062 C 7.492188 21.28125 7.582031 21.0625 7.765625 20.878906 C 7.949219 20.695312 8.171875 20.605469 8.429688 20.605469 C 8.6875 20.605469 8.910156 20.695312 9.089844 20.878906 C 9.273438 21.0625 9.367188 21.28125 9.367188 21.539062 Z M 9.367188 21.539062 " fill-opacity="1" fill-rule="nonzero"/></g><g clip-path="url(#70726826de)"><path fill="#000000" d="M 14.046875 21.539062 C 14.046875 21.800781 13.957031 22.019531 13.773438 22.203125 C 13.589844 22.386719 13.371094 22.476562 13.113281 22.476562 C 12.851562 22.476562 12.632812 22.386719 12.449219 22.203125 C 12.265625 22.019531 12.175781 21.800781 12.175781 21.539062 C 12.175781 21.28125 12.265625 21.0625 12.449219 20.878906 C 12.632812 20.695312 12.851562 20.605469 13.113281 20.605469 C 13.371094 20.605469 13.589844 20.695312 13.773438 20.878906 C 13.957031 21.0625 14.046875 21.28125 14.046875 21.539062 Z M 14.046875 21.539062 " fill-opacity="1" fill-rule="nonzero"/></g><g clip-path="url(#6161f45ade)"><path fill="#000000" d="M 18.730469 21.539062 C 18.730469 21.800781 18.640625 22.019531 18.457031 22.203125 C 18.273438 22.386719 18.054688 22.476562 17.792969 22.476562 C 17.535156 22.476562 17.316406 22.386719 17.132812 22.203125 C 16.949219 22.019531 16.859375 21.800781 16.859375 21.539062 C 16.859375 21.28125 16.949219 21.0625 17.132812 20.878906 C 17.316406 20.695312 17.535156 20.605469 17.792969 20.605469 C 18.054688 20.605469 18.273438 20.695312 18.457031 20.878906 C 18.640625 21.0625 18.730469 21.28125 18.730469 21.539062 Z M 18.730469 21.539062 " fill-opacity="1" fill-rule="nonzero"/></g><g clip-path="url(#cce7c1d332)"><path fill="#000000" d="M 0.46875 11.238281 L 7.023438 11.238281 C 8.429688 11.238281 8.726562 9.96875 8.964844 8.945312 C 9.261719 7.667969 9.519531 6.5625 11.238281 6.554688 C 11.242188 6.554688 11.246094 6.554688 11.25 6.554688 C 12.960938 6.554688 13.21875 7.660156 13.515625 8.941406 C 13.753906 9.964844 14.046875 11.238281 15.453125 11.238281 L 22.007812 11.238281 C 22.269531 11.238281 22.476562 11.027344 22.476562 10.769531 C 22.476562 10.511719 22.269531 10.300781 22.007812 10.300781 L 15.453125 10.300781 C 14.847656 10.300781 14.691406 9.871094 14.425781 8.730469 C 14.121094 7.417969 13.703125 5.621094 11.25 5.621094 C 11.246094 5.621094 11.242188 5.621094 11.238281 5.621094 C 8.773438 5.625 8.355469 7.421875 8.050781 8.734375 C 7.785156 9.871094 7.628906 10.300781 7.023438 10.300781 L 0.46875 10.300781 C 0.210938 10.300781 0 10.511719 0 10.769531 C 0 11.027344 0.210938 11.238281 0.46875 11.238281 Z M 0.46875 11.238281 " fill-opacity="1" fill-rule="nonzero"/></g><g clip-path="url(#174a42d181)"><path fill="#000000" d="M 22.007812 13.113281 C 20.839844 13.113281 20.371094 13.734375 20 14.234375 C 19.660156 14.6875 19.433594 14.984375 18.730469 14.984375 C 17.988281 14.984375 17.636719 14.632812 17.191406 14.183594 C 16.710938 13.707031 16.117188 13.113281 14.984375 13.113281 C 13.855469 13.113281 13.257812 13.707031 12.78125 14.183594 C 12.335938 14.632812 11.980469 14.984375 11.238281 14.984375 C 10.496094 14.984375 10.144531 14.632812 9.695312 14.183594 C 9.21875 13.707031 8.621094 13.113281 7.492188 13.113281 C 6.363281 13.113281 5.765625 13.707031 5.289062 14.183594 C 4.84375 14.632812 4.488281 14.984375 3.746094 14.984375 C 3.042969 14.984375 2.820312 14.6875 2.480469 14.234375 C 2.105469 13.734375 1.640625 13.113281 0.46875 13.113281 C 0.210938 13.113281 0 13.320312 0 13.582031 C 0 13.839844 0.210938 14.046875 0.46875 14.046875 C 1.171875 14.046875 1.394531 14.347656 1.734375 14.796875 C 2.109375 15.296875 2.574219 15.921875 3.746094 15.921875 C 4.875 15.921875 5.472656 15.324219 5.949219 14.847656 C 6.398438 14.402344 6.75 14.046875 7.492188 14.046875 C 8.234375 14.046875 8.589844 14.402344 9.035156 14.847656 C 9.511719 15.324219 10.109375 15.921875 11.238281 15.921875 C 12.371094 15.921875 12.964844 15.324219 13.445312 14.847656 C 13.890625 14.402344 14.242188 14.046875 14.984375 14.046875 C 15.726562 14.046875 16.082031 14.402344 16.527344 14.847656 C 17.003906 15.324219 17.601562 15.921875 18.730469 15.921875 C 19.902344 15.921875 20.371094 15.296875 20.746094 14.796875 C 21.085938 14.347656 21.308594 14.046875 22.007812 14.046875 C 22.269531 14.046875 22.476562 13.839844 22.476562 13.582031 C 22.476562 13.320312 22.269531 13.113281 22.007812 13.113281 Z M 22.007812 13.113281 " fill-opacity="1" fill-rule="nonzero"/></g><path fill="#000000" d="M 11.238281 2.808594 C 11.496094 2.808594 11.707031 2.601562 11.707031 2.339844 L 11.707031 0.46875 C 11.707031 0.210938 11.496094 0 11.238281 0 C 10.980469 0 10.769531 0.210938 10.769531 0.46875 L 10.769531 2.339844 C 10.769531 2.601562 10.980469 2.808594 11.238281 2.808594 Z M 11.238281 2.808594 " fill-opacity="1" fill-rule="nonzero"/><path fill="#000000" d="M 7.265625 4.183594 C 7.359375 4.273438 7.476562 4.320312 7.597656 4.320312 C 7.71875 4.320312 7.835938 4.273438 7.929688 4.183594 C 8.113281 4 8.113281 3.703125 7.929688 3.519531 L 6.601562 2.195312 C 6.421875 2.011719 6.125 2.011719 5.941406 2.195312 C 5.757812 2.378906 5.757812 2.675781 5.941406 2.855469 Z M 7.265625 4.183594 " fill-opacity="1" fill-rule="nonzero"/><path fill="#000000" d="M 4.214844 7.960938 L 6.085938 7.960938 C 6.347656 7.960938 6.554688 7.75 6.554688 7.492188 C 6.554688 7.234375 6.347656 7.023438 6.085938 7.023438 L 4.214844 7.023438 C 3.957031 7.023438 3.746094 7.234375 3.746094 7.492188 C 3.746094 7.75 3.957031 7.960938 4.214844 7.960938 Z M 4.214844 7.960938 " fill-opacity="1" fill-rule="nonzero"/><path fill="#000000" d="M 15.921875 7.492188 C 15.921875 7.75 16.132812 7.960938 16.390625 7.960938 L 18.261719 7.960938 C 18.519531 7.960938 18.730469 7.75 18.730469 7.492188 C 18.730469 7.234375 18.519531 7.023438 18.261719 7.023438 L 16.390625 7.023438 C 16.132812 7.023438 15.921875 7.234375 15.921875 7.492188 Z M 15.921875 7.492188 " fill-opacity="1" fill-rule="nonzero"/><path fill="#000000" d="M 14.882812 4.320312 C 15 4.320312 15.121094 4.273438 15.210938 4.183594 L 16.539062 2.855469 C 16.71875 2.675781 16.71875 2.378906 16.539062 2.195312 C 16.355469 2.011719 16.058594 2.011719 15.875 2.195312 L 14.550781 3.519531 C 14.367188 3.703125 14.367188 4 14.550781 4.183594 C 14.640625 4.273438 14.761719 4.320312 14.882812 4.320312 Z M 14.882812 4.320312 " fill-opacity="1" fill-rule="nonzero"/></svg>