<svg xmlns="http://www.w3.org/2000/svg" xmlns:xlink="http://www.w3.org/1999/xlink" zoomAndPan="magnify" preserveAspectRatio="xMidYMid meet" version="1.0" viewBox="0.03 0 22.45 22.48"><defs><clipPath id="dbcf5183c4"><path d="M 7 0 L 22.476562 0 L 22.476562 22.476562 L 7 22.476562 Z M 7 0 " clip-rule="nonzero"/></clipPath></defs><path fill="#000000" d="M 17.605469 7.917969 C 17.605469 8.015625 17.570312 8.097656 17.503906 8.167969 C 17.433594 8.238281 17.347656 8.273438 17.25 8.273438 C 17.152344 8.273438 17.070312 8.238281 17 8.167969 C 16.929688 8.097656 16.894531 8.015625 16.894531 7.917969 C 16.894531 7.816406 16.929688 7.734375 17 7.664062 C 17.070312 7.59375 17.152344 7.558594 17.25 7.558594 C 17.347656 7.558594 17.433594 7.59375 17.503906 7.664062 C 17.570312 7.734375 17.605469 7.816406 17.605469 7.917969 Z M 17.605469 7.917969 " fill-opacity="1" fill-rule="nonzero"/><path fill="#000000" d="M 16.632812 15.253906 C 16.632812 15.371094 16.574219 15.429688 16.453125 15.429688 C 16.335938 15.429688 16.277344 15.371094 16.277344 15.253906 C 16.277344 15.132812 16.335938 15.074219 16.453125 15.074219 C 16.574219 15.074219 16.632812 15.132812 16.632812 15.253906 Z M 16.632812 15.253906 " fill-opacity="1" fill-rule="nonzero"/><path fill="#000000" d="M 16.074219 14.414062 C 16.074219 14.53125 16.011719 14.589844 15.894531 14.589844 C 15.777344 14.589844 15.714844 14.53125 15.714844 14.414062 C 15.714844 14.292969 15.777344 14.234375 15.894531 14.234375 C 16.011719 14.234375 16.074219 14.292969 16.074219 14.414062 Z M 16.074219 14.414062 " fill-opacity="1" fill-rule="nonzero"/><path fill="#000000" d="M 15.714844 15.175781 C 15.714844 15.296875 15.65625 15.355469 15.539062 15.355469 C 15.417969 15.355469 15.359375 15.296875 15.359375 15.175781 C 15.359375 15.058594 15.417969 15 15.539062 15 C 15.65625 15 15.714844 15.058594 15.714844 15.175781 Z M 15.714844 15.175781 " fill-opacity="1" fill-rule="nonzero"/><path fill="#000000" d="M 14.046875 7.917969 C 14.046875 8.015625 14.011719 8.097656 13.941406 8.167969 C 13.875 8.238281 13.789062 8.273438 13.691406 8.273438 C 13.59375 8.273438 13.507812 8.238281 13.441406 8.167969 C 13.371094 8.097656 13.335938 8.015625 13.335938 7.917969 C 13.335938 7.816406 13.371094 7.734375 13.441406 7.664062 C 13.507812 7.59375 13.59375 7.558594 13.691406 7.558594 C 13.789062 7.558594 13.875 7.59375 13.941406 7.664062 C 14.011719 7.734375 14.046875 7.816406 14.046875 7.917969 Z M 14.046875 7.917969 " fill-opacity="1" fill-rule="nonzero"/><path fill="#000000" d="M 10.722656 18.863281 C 10.722656 18.980469 10.664062 19.039062 10.542969 19.039062 C 10.425781 19.039062 10.367188 18.980469 10.367188 18.863281 C 10.367188 18.742188 10.425781 18.683594 10.542969 18.683594 C 10.664062 18.683594 10.722656 18.742188 10.722656 18.863281 Z M 10.722656 18.863281 " fill-opacity="1" fill-rule="nonzero"/><path fill="#000000" d="M 10.621094 20.714844 C 10.621094 20.832031 10.5625 20.890625 10.441406 20.890625 C 10.324219 20.890625 10.265625 20.832031 10.265625 20.714844 C 10.265625 20.59375 10.324219 20.535156 10.441406 20.535156 C 10.5625 20.535156 10.621094 20.59375 10.621094 20.714844 Z M 10.621094 20.714844 " fill-opacity="1" fill-rule="nonzero"/><path fill="#000000" d="M 10.441406 21.566406 C 10.441406 21.683594 10.382812 21.742188 10.265625 21.742188 C 10.148438 21.742188 10.085938 21.683594 10.085938 21.566406 C 10.085938 21.445312 10.148438 21.386719 10.265625 21.386719 C 10.382812 21.386719 10.441406 21.445312 10.441406 21.566406 Z M 10.441406 21.566406 " fill-opacity="1" fill-rule="nonzero"/><path fill="#000000" d="M 10.042969 18.367188 C 10.042969 18.484375 9.984375 18.542969 9.863281 18.542969 C 9.746094 18.542969 9.6875 18.484375 9.6875 18.367188 C 9.6875 18.246094 9.746094 18.1875 9.863281 18.1875 C 9.984375 18.1875 10.042969 18.246094 10.042969 18.367188 Z M 10.042969 18.367188 " fill-opacity="1" fill-rule="nonzero"/><path fill="#000000" d="M 10.042969 20.074219 C 10.042969 20.191406 9.984375 20.25 9.863281 20.25 C 9.746094 20.25 9.6875 20.191406 9.6875 20.074219 C 9.6875 19.953125 9.746094 19.894531 9.863281 19.894531 C 9.984375 19.894531 10.042969 19.953125 10.042969 20.074219 Z M 10.042969 20.074219 " fill-opacity="1" fill-rule="nonzero"/><path fill="#000000" d="M 9.488281 21.167969 C 9.488281 21.285156 9.429688 21.347656 9.3125 21.347656 C 9.191406 21.347656 9.132812 21.285156 9.132812 21.167969 C 9.132812 21.050781 9.191406 20.988281 9.3125 20.988281 C 9.429688 20.988281 9.488281 21.050781 9.488281 21.167969 Z M 9.488281 21.167969 " fill-opacity="1" fill-rule="nonzero"/><path fill="#000000" d="M 9.417969 19.125 C 9.417969 19.246094 9.359375 19.304688 9.242188 19.304688 C 9.125 19.304688 9.0625 19.246094 9.0625 19.125 C 9.0625 19.007812 9.125 18.949219 9.242188 18.949219 C 9.359375 18.949219 9.417969 19.007812 9.417969 19.125 Z M 9.417969 19.125 " fill-opacity="1" fill-rule="nonzero"/><path fill="#000000" d="M 14.007812 6.007812 C 13.925781 5.953125 13.816406 5.976562 13.761719 6.058594 C 13.582031 6.339844 13.324219 6.472656 12.949219 6.460938 C 12.851562 6.457031 12.769531 6.535156 12.769531 6.632812 C 12.765625 6.734375 12.84375 6.8125 12.941406 6.816406 C 12.957031 6.816406 12.972656 6.816406 12.984375 6.816406 C 13.460938 6.816406 13.820312 6.628906 14.0625 6.253906 C 14.113281 6.167969 14.089844 6.058594 14.007812 6.007812 Z M 14.007812 6.007812 " fill-opacity="1" fill-rule="nonzero"/><path fill="#000000" d="M 17.957031 6.816406 C 17.96875 6.816406 17.984375 6.816406 18 6.816406 C 18.097656 6.8125 18.175781 6.730469 18.175781 6.632812 C 18.171875 6.535156 18.089844 6.460938 17.992188 6.460938 C 17.621094 6.472656 17.359375 6.339844 17.179688 6.058594 C 17.125 5.976562 17.015625 5.953125 16.933594 6.007812 C 16.851562 6.058594 16.828125 6.167969 16.878906 6.253906 C 17.121094 6.628906 17.484375 6.816406 17.957031 6.816406 Z M 17.957031 6.816406 " fill-opacity="1" fill-rule="nonzero"/><path fill="#000000" d="M 14.710938 9.175781 C 14.808594 9.175781 14.886719 9.09375 14.886719 8.996094 C 14.886719 8.675781 15.148438 8.414062 15.472656 8.414062 C 15.792969 8.414062 16.054688 8.675781 16.054688 8.996094 C 16.054688 9.09375 16.132812 9.175781 16.230469 9.175781 C 16.332031 9.175781 16.410156 9.09375 16.410156 8.996094 C 16.410156 8.476562 15.988281 8.058594 15.472656 8.058594 C 14.953125 8.058594 14.53125 8.476562 14.53125 8.996094 C 14.53125 9.09375 14.609375 9.175781 14.710938 9.175781 Z M 14.710938 9.175781 " fill-opacity="1" fill-rule="nonzero"/><g clip-path="url(#dbcf5183c4)"><path fill="#000000" d="M 22.128906 20.84375 C 21.128906 17.207031 19.140625 15.53125 17.648438 14.765625 C 17.34375 14.609375 17.027344 14.476562 16.714844 14.371094 L 16.714844 13.203125 C 17.835938 12.792969 18.757812 11.921875 19.183594 11.210938 C 19.285156 11.042969 19.382812 10.832031 19.472656 10.582031 C 19.996094 10.578125 20.492188 10.195312 20.707031 9.613281 C 20.867188 9.167969 20.835938 8.683594 20.625 8.3125 C 20.828125 7.976562 20.933594 7.609375 20.941406 7.21875 C 21.316406 7.238281 21.558594 7.21875 21.570312 7.214844 C 21.644531 7.210938 21.707031 7.160156 21.730469 7.085938 C 21.75 7.015625 21.722656 6.9375 21.664062 6.894531 C 21.003906 6.414062 20.90625 5.390625 20.800781 4.304688 C 20.703125 3.292969 20.601562 2.242188 20.023438 1.527344 C 19.375 0.710938 18.28125 0.152344 17.175781 0.0664062 C 16.246094 -0.0078125 15.386719 0.25 14.738281 0.789062 C 14.398438 0.601562 13.414062 0.226562 11.984375 1.144531 C 11.039062 1.753906 10.789062 2.996094 10.519531 4.308594 C 10.292969 5.433594 10.054688 6.597656 9.375 7.449219 C 9.332031 7.5 9.324219 7.574219 9.351562 7.636719 C 9.378906 7.695312 9.441406 7.738281 9.507812 7.738281 C 9.535156 7.738281 9.558594 7.738281 9.585938 7.738281 C 9.878906 7.738281 10.148438 7.691406 10.398438 7.601562 C 10.429688 7.75 10.472656 7.894531 10.53125 8.042969 C 10.144531 8.40625 10.019531 9.027344 10.234375 9.613281 C 10.449219 10.195312 10.945312 10.578125 11.46875 10.582031 C 11.5625 10.832031 11.65625 11.042969 11.757812 11.210938 C 12.183594 11.921875 13.105469 12.792969 14.226562 13.203125 L 14.226562 14.371094 C 13.921875 14.472656 13.609375 14.605469 13.292969 14.765625 C 12.898438 14.96875 12.519531 15.210938 12.160156 15.488281 L 12.160156 14.539062 C 12.160156 14.382812 12.097656 14.234375 11.988281 14.121094 C 11.878906 14.011719 11.726562 13.953125 11.570312 13.953125 C 11.488281 13.953125 11.410156 13.96875 11.339844 14 L 11.339844 13.757812 C 11.339844 13.601562 11.28125 13.457031 11.167969 13.339844 C 11.054688 13.230469 10.90625 13.167969 10.753906 13.167969 C 10.628906 13.167969 10.515625 13.207031 10.417969 13.273438 C 10.398438 13.242188 10.375 13.210938 10.347656 13.183594 C 10.234375 13.074219 10.085938 13.015625 9.933594 13.015625 C 9.816406 13.015625 9.710938 13.050781 9.621094 13.105469 C 9.597656 13.058594 9.566406 13.015625 9.527344 12.976562 C 9.414062 12.863281 9.269531 12.800781 9.113281 12.800781 C 8.789062 12.800781 8.523438 13.066406 8.523438 13.390625 L 8.523438 14.753906 C 8.386719 14.460938 8.0625 14.285156 7.734375 14.347656 C 7.394531 14.414062 7.148438 14.710938 7.148438 15.054688 C 7.148438 15.097656 7.152344 15.140625 7.160156 15.183594 L 7.605469 17.683594 C 7.648438 17.910156 7.753906 18.113281 7.917969 18.277344 L 8.128906 18.484375 C 8.269531 18.628906 8.351562 18.824219 8.351562 19.023438 L 8.351562 22.300781 C 8.351562 22.398438 8.429688 22.476562 8.53125 22.476562 L 22.273438 22.476562 C 22.324219 22.476562 22.375 22.453125 22.410156 22.414062 C 22.441406 22.375 22.457031 22.320312 22.449219 22.269531 C 22.363281 21.785156 22.253906 21.304688 22.128906 20.84375 Z M 14.578125 14.496094 L 14.582031 14.496094 L 14.582031 13.3125 C 14.878906 13.390625 15.179688 13.433594 15.472656 13.433594 C 15.765625 13.433594 16.0625 13.390625 16.359375 13.3125 L 16.359375 14.496094 L 16.363281 14.496094 C 16.363281 14.574219 16.410156 14.644531 16.484375 14.667969 C 16.765625 14.757812 17.050781 14.871094 17.328125 15.003906 C 17.160156 15.289062 16.660156 15.90625 15.46875 15.90625 C 14.273438 15.90625 13.777344 15.292969 13.613281 15.007812 C 13.898438 14.867188 14.183594 14.753906 14.457031 14.667969 C 14.53125 14.644531 14.578125 14.574219 14.578125 14.496094 Z M 20.371094 9.488281 C 20.230469 9.875 19.925781 10.148438 19.597656 10.210938 C 19.769531 9.640625 19.90625 8.933594 19.992188 8.171875 C 20.101562 8.226562 20.195312 8.308594 20.269531 8.414062 C 20.472656 8.699219 20.511719 9.113281 20.371094 9.488281 Z M 20.585938 7.1875 C 20.585938 7.480469 20.515625 7.757812 20.382812 8.015625 C 20.289062 7.929688 20.183594 7.859375 20.066406 7.8125 C 20.054688 7.808594 20.042969 7.804688 20.03125 7.800781 L 20.09375 7.117188 C 20.257812 7.144531 20.421875 7.167969 20.585938 7.1875 Z M 10.871094 4.378906 C 11.121094 3.140625 11.359375 1.972656 12.179688 1.445312 C 13.703125 0.464844 14.609375 1.125 14.644531 1.152344 C 14.710938 1.203125 14.808594 1.199219 14.875 1.144531 C 15.460938 0.609375 16.265625 0.351562 17.144531 0.421875 C 18.160156 0.5 19.15625 1.007812 19.746094 1.75 C 20.257812 2.382812 20.351562 3.378906 20.445312 4.339844 C 20.535156 5.277344 20.628906 6.242188 21.125 6.867188 C 21.023438 6.867188 20.90625 6.859375 20.773438 6.847656 C 20.511719 6.832031 20.234375 6.789062 19.96875 6.730469 C 19.679688 6.667969 19.410156 6.582031 19.164062 6.476562 C 18.628906 6.25 18.210938 5.492188 17.808594 4.765625 L 17.71875 4.597656 C 17.296875 3.839844 16.902344 3.195312 16.34375 3.007812 C 15.863281 2.847656 15.472656 3.003906 15.199219 3.230469 C 15.246094 3.039062 15.332031 2.828125 15.5 2.667969 C 15.898438 2.273438 16.488281 2.410156 16.496094 2.414062 C 16.589844 2.4375 16.6875 2.378906 16.710938 2.285156 C 16.734375 2.1875 16.675781 2.09375 16.582031 2.066406 C 16.550781 2.058594 15.792969 1.878906 15.25 2.414062 C 15.050781 2.609375 14.933594 2.851562 14.871094 3.078125 C 14.703125 2.824219 14.445312 2.574219 14.050781 2.484375 C 13.167969 2.285156 12.683594 2.796875 12.664062 2.820312 C 12.597656 2.890625 12.601562 3.003906 12.671875 3.070312 C 12.742188 3.136719 12.855469 3.132812 12.921875 3.0625 C 12.9375 3.046875 13.296875 2.679688 13.972656 2.832031 C 14.277344 2.902344 14.476562 3.109375 14.601562 3.316406 C 14.183594 3.121094 13.621094 3.042969 13.101562 3.457031 C 12.5 3.933594 12.234375 5.195312 12.042969 6.113281 L 12.035156 6.148438 C 11.945312 6.589844 11.851562 7.046875 11.761719 7.175781 C 11.4375 7.664062 11.082031 7.757812 11.0625 7.761719 C 10.996094 7.773438 10.933594 7.789062 10.878906 7.8125 C 10.863281 7.820312 10.847656 7.828125 10.832031 7.835938 C 10.785156 7.703125 10.753906 7.570312 10.730469 7.441406 C 11.152344 7.1875 11.496094 6.777344 11.753906 6.210938 C 11.796875 6.121094 11.757812 6.015625 11.667969 5.976562 C 11.578125 5.933594 11.472656 5.972656 11.429688 6.0625 C 11.183594 6.605469 10.855469 6.984375 10.453125 7.1875 C 10.277344 7.28125 10.082031 7.339844 9.871094 7.367188 C 10.441406 6.496094 10.65625 5.421875 10.871094 4.378906 Z M 16.882812 3.914062 C 16.6875 3.78125 16.484375 3.664062 16.3125 3.609375 C 16.023438 3.515625 15.667969 3.515625 15.382812 3.539062 C 15.570312 3.371094 15.851562 3.21875 16.230469 3.34375 C 16.464844 3.421875 16.675781 3.632812 16.882812 3.914062 Z M 14.582031 3.710938 C 13.792969 3.976562 13.148438 4.421875 12.664062 5.042969 C 12.820312 4.488281 13.03125 3.96875 13.324219 3.734375 C 13.792969 3.359375 14.285156 3.535156 14.582031 3.710938 Z M 10.570312 9.488281 C 10.394531 9.007812 10.511719 8.480469 10.851562 8.230469 C 10.878906 8.210938 10.914062 8.191406 10.949219 8.171875 C 11.035156 8.933594 11.171875 9.640625 11.34375 10.210938 C 11.015625 10.148438 10.710938 9.875 10.570312 9.488281 Z M 12.0625 11.027344 C 11.957031 10.851562 11.855469 10.621094 11.757812 10.34375 C 11.550781 9.742188 11.386719 8.933594 11.292969 8.054688 C 11.472656 7.972656 11.785156 7.789062 12.058594 7.375 C 12.179688 7.195312 12.257812 6.835938 12.386719 6.21875 L 12.386719 6.203125 C 12.898438 5.015625 13.757812 4.277344 15.015625 3.949219 C 15.019531 3.949219 15.023438 3.945312 15.027344 3.945312 C 15.390625 3.878906 15.882812 3.84375 16.199219 3.945312 C 16.574219 4.070312 17.191406 4.585938 17.421875 4.796875 L 17.5 4.9375 C 17.929688 5.71875 18.375 6.527344 19.023438 6.804688 C 19.246094 6.898438 19.488281 6.972656 19.742188 7.039062 L 19.664062 7.917969 C 19.570312 8.84375 19.402344 9.699219 19.1875 10.328125 C 19.1875 10.332031 19.183594 10.332031 19.183594 10.335938 C 19.183594 10.335938 19.183594 10.339844 19.183594 10.34375 C 19.085938 10.621094 18.984375 10.851562 18.878906 11.027344 C 18.484375 11.683594 17.566406 12.550781 16.484375 12.910156 C 15.800781 13.132812 15.140625 13.132812 14.457031 12.90625 C 13.375 12.550781 12.457031 11.683594 12.0625 11.027344 Z M 11.378906 21.730469 C 11.496094 21.734375 11.613281 21.742188 11.734375 21.742188 L 11.734375 22.121094 L 11.378906 22.121094 Z M 8.378906 18.234375 L 8.171875 18.027344 C 8.058594 17.914062 7.984375 17.773438 7.957031 17.621094 L 7.511719 15.121094 C 7.507812 15.101562 7.503906 15.078125 7.503906 15.054688 C 7.503906 14.878906 7.628906 14.730469 7.800781 14.695312 C 7.996094 14.660156 8.1875 14.785156 8.230469 14.980469 L 8.527344 16.382812 C 8.53125 16.390625 8.535156 16.394531 8.535156 16.398438 C 8.539062 16.410156 8.542969 16.421875 8.550781 16.433594 C 8.554688 16.441406 8.5625 16.449219 8.566406 16.457031 C 8.574219 16.46875 8.585938 16.476562 8.59375 16.484375 C 8.601562 16.492188 8.609375 16.496094 8.617188 16.5 C 8.628906 16.507812 8.640625 16.511719 8.65625 16.515625 C 8.664062 16.519531 8.675781 16.519531 8.683594 16.519531 C 8.691406 16.523438 8.695312 16.523438 8.703125 16.523438 C 8.710938 16.523438 8.714844 16.519531 8.722656 16.519531 C 8.726562 16.519531 8.734375 16.523438 8.738281 16.519531 C 8.746094 16.519531 8.75 16.515625 8.753906 16.515625 C 8.765625 16.511719 8.777344 16.503906 8.789062 16.5 C 8.796875 16.496094 8.808594 16.488281 8.816406 16.480469 C 8.824219 16.472656 8.832031 16.464844 8.839844 16.457031 C 8.847656 16.449219 8.851562 16.4375 8.859375 16.429688 C 8.863281 16.417969 8.867188 16.410156 8.871094 16.398438 C 8.875 16.386719 8.875 16.375 8.878906 16.363281 C 8.878906 16.355469 8.878906 16.351562 8.878906 16.347656 L 8.878906 13.390625 C 8.878906 13.261719 8.984375 13.15625 9.113281 13.15625 C 9.171875 13.15625 9.230469 13.183594 9.273438 13.226562 C 9.304688 13.257812 9.34375 13.3125 9.34375 13.390625 L 9.34375 15.992188 C 9.34375 16.089844 9.421875 16.167969 9.523438 16.167969 C 9.621094 16.167969 9.699219 16.089844 9.699219 15.992188 L 9.699219 13.601562 C 9.699219 13.476562 9.804688 13.371094 9.933594 13.371094 C 9.996094 13.371094 10.054688 13.394531 10.09375 13.4375 C 10.140625 13.480469 10.164062 13.542969 10.164062 13.601562 L 10.164062 15.992188 C 10.164062 16.089844 10.242188 16.167969 10.34375 16.167969 C 10.441406 16.167969 10.519531 16.089844 10.519531 15.992188 L 10.519531 13.757812 C 10.519531 13.628906 10.625 13.527344 10.753906 13.527344 C 10.8125 13.527344 10.875 13.550781 10.917969 13.589844 C 10.960938 13.636719 10.984375 13.695312 10.984375 13.757812 L 10.984375 15.992188 C 10.984375 16.089844 11.0625 16.167969 11.164062 16.167969 C 11.261719 16.167969 11.339844 16.089844 11.339844 15.992188 L 11.339844 14.539062 C 11.339844 14.410156 11.445312 14.308594 11.570312 14.308594 C 11.632812 14.308594 11.695312 14.332031 11.738281 14.375 C 11.78125 14.417969 11.804688 14.476562 11.804688 14.539062 L 11.804688 17.5 C 11.804688 17.789062 11.726562 18.066406 11.574219 18.3125 L 11.308594 18.734375 C 11.121094 19.035156 11.023438 19.378906 11.023438 19.734375 L 11.023438 22.121094 L 8.707031 22.121094 L 8.707031 19.023438 C 8.707031 18.726562 8.589844 18.445312 8.378906 18.234375 Z M 19.210938 22.121094 L 19.210938 21.742188 C 20.203125 21.730469 21.085938 21.53125 21.839844 21.152344 C 21.921875 21.46875 21.996094 21.792969 22.058594 22.121094 Z M 19.210938 22.121094 " fill-opacity="1" fill-rule="nonzero"/></g><path fill="#000000" d="M 8.191406 7.289062 L 8.191406 7.269531 C 8.265625 6.855469 8.175781 6.4375 7.933594 6.089844 C 7.691406 5.746094 7.332031 5.515625 6.917969 5.441406 L 2.789062 4.707031 C 2.375 4.632812 1.957031 4.726562 1.613281 4.964844 C 1.265625 5.207031 1.035156 5.566406 0.964844 5.976562 L 0.957031 6.007812 C 0.804688 6.863281 1.378906 7.683594 2.234375 7.835938 L 6.359375 8.570312 C 6.453125 8.589844 6.546875 8.597656 6.640625 8.597656 C 6.957031 8.597656 7.269531 8.5 7.539062 8.3125 C 7.882812 8.070312 8.117188 7.710938 8.191406 7.289062 Z M 1.304688 6.078125 L 1.3125 6.042969 C 1.371094 5.722656 1.546875 5.445312 1.816406 5.257812 C 2.023438 5.113281 2.261719 5.039062 2.511719 5.039062 C 2.582031 5.039062 2.65625 5.042969 2.726562 5.058594 L 4.617188 5.394531 L 4.183594 7.824219 L 2.292969 7.488281 C 1.632812 7.367188 1.1875 6.734375 1.304688 6.078125 Z M 1.304688 6.078125 " fill-opacity="1" fill-rule="nonzero"/><path fill="#000000" d="M 8.160156 11.382812 C 8.207031 11.382812 8.253906 11.363281 8.285156 11.328125 C 8.335938 11.277344 8.351562 11.207031 8.328125 11.140625 L 7.828125 9.8125 C 8.675781 8.953125 9.140625 7.820312 9.140625 6.609375 C 9.140625 4.097656 7.097656 2.050781 4.585938 2.050781 C 2.070312 2.050781 0.0273438 4.097656 0.0273438 6.609375 C 0.0273438 9.125 2.070312 11.167969 4.585938 11.167969 C 5.226562 11.167969 5.851562 11.035156 6.4375 10.777344 L 8.101562 11.371094 C 8.121094 11.378906 8.140625 11.382812 8.160156 11.382812 Z M 6.488281 10.417969 C 6.46875 10.410156 6.449219 10.40625 6.429688 10.40625 C 6.402344 10.40625 6.378906 10.410156 6.351562 10.421875 C 5.796875 10.679688 5.199219 10.8125 4.585938 10.8125 C 2.269531 10.8125 0.382812 8.925781 0.382812 6.609375 C 0.382812 4.292969 2.269531 2.410156 4.585938 2.410156 C 6.902344 2.410156 8.785156 4.292969 8.785156 6.609375 C 8.785156 7.761719 8.328125 8.839844 7.496094 9.636719 C 7.445312 9.6875 7.429688 9.761719 7.453125 9.828125 L 7.859375 10.90625 Z M 6.488281 10.417969 " fill-opacity="1" fill-rule="nonzero"/></svg>