<svg xmlns="http://www.w3.org/2000/svg" xmlns:xlink="http://www.w3.org/1999/xlink" zoomAndPan="magnify" preserveAspectRatio="xMidYMid meet" version="1.0" viewBox="0 -0.01 22.48 21.73"><defs><clipPath id="684661dd38"><path d="M 15 15 L 22.476562 15 L 22.476562 19 L 15 19 Z M 15 15 " clip-rule="nonzero"/></clipPath><clipPath id="5a600b9265"><path d="M 0 19 L 21 19 L 21 21.726562 L 0 21.726562 Z M 0 19 " clip-rule="nonzero"/></clipPath></defs><path fill="#100f0d" d="M 7.347656 11.675781 C 7.265625 11.675781 7.191406 11.617188 7.171875 11.53125 C 6.785156 10.003906 6.898438 8.777344 6.902344 8.726562 C 6.902344 8.714844 6.90625 8.707031 6.90625 8.695312 C 7.074219 8.039062 7.621094 7.582031 8.257812 7.558594 C 9.449219 7.558594 9.933594 7.152344 9.9375 6.160156 C 9.9375 6.097656 9.910156 6.03125 9.867188 5.984375 L 9.308594 5.414062 C 9.28125 5.386719 9.261719 5.347656 9.253906 5.308594 C 9.085938 4.265625 8.203125 3.730469 7.792969 3.6875 C 7.734375 3.679688 7.683594 3.644531 7.652344 3.59375 L 6.792969 2.113281 C 6.5625 2.355469 6.144531 2.871094 6.097656 3.476562 C 6.09375 3.539062 6.058594 3.597656 6.003906 3.628906 C 5.234375 4.085938 4.925781 4.742188 4.503906 5.648438 C 4.261719 6.160156 3.992188 6.738281 3.585938 7.402344 L 2.324219 9.582031 C 2.273438 9.671875 2.160156 9.699219 2.074219 9.644531 C 1.984375 9.589844 1.957031 9.472656 2.011719 9.378906 L 3.273438 7.199219 C 3.671875 6.546875 3.9375 5.976562 4.171875 5.476562 C 4.597656 4.574219 4.933594 3.855469 5.742188 3.34375 C 5.867188 2.386719 6.683594 1.691406 6.71875 1.664062 C 6.757812 1.628906 6.8125 1.613281 6.867188 1.625 C 6.917969 1.632812 6.960938 1.664062 6.992188 1.710938 L 7.921875 3.316406 C 8.535156 3.433594 9.402344 4.109375 9.605469 5.179688 L 10.121094 5.710938 C 10.238281 5.828125 10.304688 5.992188 10.304688 6.164062 C 10.300781 7.375 9.652344 7.941406 8.265625 7.941406 C 7.800781 7.960938 7.398438 8.296875 7.265625 8.78125 C 7.253906 8.925781 7.179688 10.066406 7.527344 11.433594 C 7.550781 11.535156 7.492188 11.640625 7.394531 11.667969 C 7.378906 11.671875 7.363281 11.675781 7.347656 11.675781 " fill-opacity="1" fill-rule="nonzero"/><path fill="#100f0d" d="M 6.144531 0.378906 C 2.964844 0.378906 0.382812 3.09375 0.382812 6.429688 C 0.382812 9.769531 2.964844 12.484375 6.144531 12.484375 C 9.324219 12.484375 11.910156 9.769531 11.910156 6.429688 C 11.910156 3.09375 9.324219 0.378906 6.144531 0.378906 Z M 6.144531 12.867188 C 2.765625 12.867188 0.0117188 9.980469 0.0117188 6.429688 C 0.0117188 2.878906 2.765625 -0.0078125 6.144531 -0.0078125 C 9.523438 -0.0078125 12.273438 2.878906 12.273438 6.429688 C 12.273438 9.980469 9.523438 12.867188 6.144531 12.867188 " fill-opacity="1" fill-rule="nonzero"/><path fill="#100f0d" d="M 9.34375 10.589844 C 9.296875 10.589844 9.25 10.570312 9.214844 10.53125 L 8.15625 9.421875 C 8.082031 9.347656 8.082031 9.222656 8.15625 9.148438 C 8.226562 9.074219 8.34375 9.074219 8.414062 9.148438 L 9.472656 10.261719 C 9.542969 10.335938 9.542969 10.457031 9.472656 10.53125 C 9.4375 10.570312 9.390625 10.589844 9.34375 10.589844 " fill-opacity="1" fill-rule="nonzero"/><path fill="#100f0d" d="M 3.816406 4.785156 C 3.769531 4.785156 3.722656 4.765625 3.683594 4.726562 L 2.585938 3.574219 C 2.515625 3.5 2.515625 3.378906 2.585938 3.300781 C 2.660156 3.226562 2.773438 3.226562 2.847656 3.300781 L 3.945312 4.457031 C 4.015625 4.53125 4.015625 4.652344 3.945312 4.726562 C 3.910156 4.765625 3.863281 4.785156 3.816406 4.785156 " fill-opacity="1" fill-rule="nonzero"/><path fill="#100f0d" d="M 20.148438 16.378906 L 15.539062 16.378906 C 15.4375 16.378906 15.355469 16.292969 15.355469 16.183594 C 15.355469 16.078125 15.4375 15.992188 15.539062 15.992188 L 20.148438 15.992188 C 20.515625 15.992188 20.8125 15.679688 20.8125 15.296875 C 20.8125 14.910156 20.515625 14.597656 20.148438 14.597656 L 14.152344 14.597656 C 14.050781 14.597656 13.96875 14.511719 13.96875 14.40625 C 13.96875 14.300781 14.050781 14.214844 14.152344 14.214844 L 20.148438 14.214844 C 20.71875 14.214844 21.179688 14.699219 21.179688 15.296875 C 21.179688 15.890625 20.71875 16.378906 20.148438 16.378906 " fill-opacity="1" fill-rule="nonzero"/><g clip-path="url(#684661dd38)"><path fill="#100f0d" d="M 21.433594 18.15625 L 15.539062 18.15625 C 15.4375 18.15625 15.355469 18.070312 15.355469 17.964844 C 15.355469 17.855469 15.4375 17.769531 15.539062 17.769531 L 21.433594 17.769531 C 21.800781 17.769531 22.097656 17.457031 22.097656 17.074219 C 22.097656 16.691406 21.800781 16.378906 21.433594 16.378906 L 20.148438 16.378906 C 20.046875 16.378906 19.964844 16.292969 19.964844 16.183594 C 19.964844 16.078125 20.046875 15.992188 20.148438 15.992188 L 21.433594 15.992188 C 22 15.992188 22.464844 16.476562 22.464844 17.074219 C 22.464844 17.671875 22 18.15625 21.433594 18.15625 " fill-opacity="1" fill-rule="nonzero"/></g><path fill="#100f0d" d="M 20.148438 19.933594 L 15.539062 19.933594 C 15.4375 19.933594 15.355469 19.847656 15.355469 19.742188 C 15.355469 19.636719 15.4375 19.550781 15.539062 19.550781 L 20.148438 19.550781 C 20.515625 19.550781 20.8125 19.238281 20.8125 18.851562 C 20.8125 18.46875 20.515625 18.15625 20.148438 18.15625 C 20.046875 18.15625 19.964844 18.070312 19.964844 17.964844 C 19.964844 17.855469 20.046875 17.769531 20.148438 17.769531 C 20.71875 17.769531 21.179688 18.257812 21.179688 18.851562 C 21.179688 19.449219 20.71875 19.933594 20.148438 19.933594 " fill-opacity="1" fill-rule="nonzero"/><g clip-path="url(#5a600b9265)"><path fill="#100f0d" d="M 18.988281 21.714844 L 16.742188 21.714844 L 14.65625 21.707031 C 13.015625 21.664062 11.410156 21.378906 9.875 20.859375 C 9.398438 20.695312 9.019531 20.617188 9.015625 20.617188 C 9.007812 20.613281 8.449219 20.492188 6.945312 20.527344 L 0.195312 20.527344 C 0.0976562 20.527344 0.0117188 20.441406 0.0117188 20.335938 C 0.0117188 20.226562 0.0976562 20.140625 0.195312 20.140625 L 6.941406 20.140625 C 8.5 20.105469 9.066406 20.234375 9.089844 20.238281 C 9.101562 20.242188 9.492188 20.324219 9.988281 20.492188 C 11.488281 21 13.0625 21.277344 14.660156 21.320312 L 16.742188 21.328125 L 18.988281 21.328125 C 19.355469 21.328125 19.652344 21.015625 19.652344 20.632812 C 19.652344 20.246094 19.355469 19.933594 18.988281 19.933594 C 18.890625 19.933594 18.808594 19.847656 18.808594 19.742188 C 18.808594 19.636719 18.890625 19.550781 18.988281 19.550781 C 19.558594 19.550781 20.019531 20.035156 20.019531 20.632812 C 20.019531 21.226562 19.558594 21.714844 18.988281 21.714844 " fill-opacity="1" fill-rule="nonzero"/></g><path fill="#100f0d" d="M 6.941406 14.929688 L 0.195312 14.929688 C 0.0976562 14.929688 0.0117188 14.84375 0.0117188 14.734375 C 0.0117188 14.628906 0.0976562 14.542969 0.195312 14.542969 L 6.941406 14.542969 C 7.878906 14.542969 8.914062 13.710938 8.925781 13.703125 C 9.28125 13.390625 9.710938 13.054688 10.191406 12.707031 C 10.847656 12.234375 11.648438 12.03125 12.453125 12.144531 C 13.632812 12.304688 14.550781 12.046875 15.113281 11.804688 C 15.433594 11.664062 15.765625 11.632812 16.074219 11.707031 C 16.105469 11.714844 16.136719 11.722656 16.164062 11.730469 C 16.5 11.839844 16.859375 12.175781 16.859375 12.808594 C 16.859375 13.171875 16.710938 13.515625 16.449219 13.753906 C 16.371094 13.824219 16.253906 13.8125 16.1875 13.734375 C 16.125 13.652344 16.132812 13.53125 16.207031 13.460938 C 16.390625 13.296875 16.492188 13.058594 16.492188 12.808594 C 16.492188 12.28125 16.160156 12.132812 16.058594 12.101562 C 16.039062 12.09375 16.015625 12.089844 15.992188 12.082031 C 15.757812 12.023438 15.5 12.050781 15.253906 12.160156 C 14.648438 12.421875 13.664062 12.699219 12.40625 12.527344 C 11.695312 12.425781 10.980469 12.605469 10.398438 13.027344 C 9.925781 13.367188 9.507812 13.695312 9.152344 14.003906 C 9.101562 14.042969 8.003906 14.929688 6.941406 14.929688 " fill-opacity="1" fill-rule="nonzero"/><path fill="#100f0d" d="M 13.15625 16.382812 C 13.109375 16.382812 13.0625 16.363281 13.027344 16.324219 C 12.953125 16.25 12.953125 16.128906 13.027344 16.054688 C 13.074219 16 13.101562 15.933594 13.101562 15.863281 C 13.101562 15.789062 13.074219 15.722656 13.027344 15.671875 C 12.925781 15.566406 12.761719 15.566406 12.660156 15.671875 C 12.589844 15.746094 12.472656 15.746094 12.402344 15.671875 C 12.332031 15.59375 12.332031 15.472656 12.402344 15.398438 C 12.644531 15.140625 13.042969 15.140625 13.285156 15.398438 C 13.53125 15.652344 13.53125 16.070312 13.285156 16.324219 C 13.25 16.363281 13.203125 16.382812 13.15625 16.382812 " fill-opacity="1" fill-rule="nonzero"/><path fill="#100f0d" d="M 14.386719 18.183594 C 14.339844 18.183594 14.292969 18.164062 14.257812 18.125 C 14.183594 18.050781 14.183594 17.925781 14.257812 17.851562 C 14.304688 17.800781 14.332031 17.734375 14.332031 17.660156 C 14.332031 17.589844 14.304688 17.519531 14.257812 17.46875 C 14.15625 17.363281 13.992188 17.363281 13.890625 17.46875 C 13.820312 17.542969 13.703125 17.542969 13.632812 17.46875 C 13.5625 17.394531 13.5625 17.273438 13.632812 17.195312 C 13.875 16.941406 14.273438 16.941406 14.515625 17.195312 C 14.632812 17.320312 14.699219 17.484375 14.699219 17.660156 C 14.699219 17.835938 14.632812 18 14.515625 18.125 C 14.480469 18.164062 14.433594 18.183594 14.386719 18.183594 " fill-opacity="1" fill-rule="nonzero"/><path fill="#100f0d" d="M 11.191406 15.484375 C 11.148438 15.484375 11.097656 15.464844 11.0625 15.425781 C 10.992188 15.351562 10.992188 15.230469 11.0625 15.152344 C 11.164062 15.050781 11.164062 14.878906 11.0625 14.773438 C 10.964844 14.667969 10.800781 14.667969 10.699219 14.773438 C 10.628906 14.847656 10.511719 14.847656 10.441406 14.773438 C 10.367188 14.695312 10.367188 14.574219 10.441406 14.5 C 10.683594 14.242188 11.078125 14.242188 11.324219 14.5 C 11.566406 14.753906 11.566406 15.171875 11.324219 15.425781 C 11.285156 15.464844 11.242188 15.484375 11.191406 15.484375 " fill-opacity="1" fill-rule="nonzero"/><path fill="#100f0d" d="M 12.617188 18.402344 C 12.570312 18.402344 12.523438 18.382812 12.488281 18.34375 C 12.417969 18.269531 12.417969 18.144531 12.488281 18.070312 C 12.589844 17.964844 12.589844 17.792969 12.488281 17.6875 C 12.390625 17.585938 12.222656 17.585938 12.125 17.6875 C 12.050781 17.765625 11.9375 17.765625 11.863281 17.6875 C 11.792969 17.613281 11.792969 17.492188 11.863281 17.414062 C 11.980469 17.292969 12.140625 17.222656 12.304688 17.222656 C 12.472656 17.222656 12.628906 17.292969 12.746094 17.414062 C 12.992188 17.671875 12.992188 18.089844 12.746094 18.34375 C 12.710938 18.382812 12.664062 18.402344 12.617188 18.402344 " fill-opacity="1" fill-rule="nonzero"/><path fill="#100f0d" d="M 11.121094 19.316406 C 11.078125 19.316406 11.027344 19.296875 10.992188 19.257812 C 10.921875 19.183594 10.921875 19.0625 10.992188 18.984375 C 11.09375 18.878906 11.09375 18.707031 10.992188 18.601562 C 10.894531 18.496094 10.730469 18.496094 10.628906 18.601562 C 10.558594 18.679688 10.441406 18.679688 10.371094 18.601562 C 10.296875 18.527344 10.296875 18.40625 10.371094 18.332031 C 10.613281 18.074219 11.007812 18.074219 11.253906 18.332031 C 11.496094 18.585938 11.496094 19.003906 11.253906 19.257812 C 11.21875 19.296875 11.171875 19.316406 11.121094 19.316406 " fill-opacity="1" fill-rule="nonzero"/><path fill="#100f0d" d="M 10.992188 17.347656 C 10.941406 17.347656 10.894531 17.328125 10.859375 17.289062 C 10.789062 17.214844 10.789062 17.09375 10.859375 17.015625 C 10.960938 16.910156 10.960938 16.742188 10.859375 16.632812 C 10.761719 16.53125 10.59375 16.53125 10.496094 16.632812 C 10.425781 16.710938 10.308594 16.710938 10.238281 16.632812 C 10.164062 16.558594 10.164062 16.4375 10.238281 16.363281 C 10.480469 16.105469 10.875 16.105469 11.121094 16.363281 C 11.363281 16.617188 11.363281 17.035156 11.121094 17.289062 C 11.085938 17.328125 11.035156 17.347656 10.992188 17.347656 " fill-opacity="1" fill-rule="nonzero"/></svg>