<svg xmlns="http://www.w3.org/2000/svg" xmlns:xlink="http://www.w3.org/1999/xlink" zoomAndPan="magnify" preserveAspectRatio="xMidYMid meet" version="1.0" viewBox="0.01 0.04 21.71 23.19"><defs><clipPath id="658280e13d"><path d="M 14 18 L 19 18 L 19 23.226562 L 14 23.226562 Z M 14 18 " clip-rule="nonzero"/></clipPath><clipPath id="80480b294b"><path d="M 19 3 L 21.722656 3 L 21.722656 5 L 19 5 Z M 19 3 " clip-rule="nonzero"/></clipPath></defs><g clip-path="url(#658280e13d)"><path fill="#100f0d" d="M 17.832031 22.453125 C 16.484375 22.453125 15.355469 21.445312 15.203125 20.105469 L 15.164062 19.75 L 15.636719 19.75 C 16.386719 19.75 17.121094 19.605469 17.8125 19.316406 C 18.011719 19.234375 18.105469 19.007812 18.019531 18.8125 C 17.9375 18.613281 17.710938 18.519531 17.515625 18.601562 C 16.917969 18.851562 16.285156 18.976562 15.636719 18.976562 L 14.730469 18.976562 C 14.621094 18.976562 14.515625 19.023438 14.441406 19.105469 C 14.371094 19.1875 14.332031 19.296875 14.347656 19.40625 L 14.433594 20.191406 C 14.628906 21.921875 16.085938 23.226562 17.832031 23.226562 C 18.042969 23.226562 18.21875 23.054688 18.21875 22.839844 C 18.21875 22.628906 18.042969 22.453125 17.832031 22.453125 " fill-opacity="1" fill-rule="nonzero"/></g><path fill="#100f0d" d="M 19.433594 17.433594 L 17.535156 17.164062 C 16.960938 17.078125 16.378906 17.085938 15.800781 17.183594 L 15.03125 17.308594 L 15.1875 16.996094 C 15.277344 16.828125 15.320312 16.640625 15.320312 16.4375 C 15.320312 16.105469 15.191406 15.796875 14.957031 15.5625 C 14.652344 15.257812 14.199219 15.132812 13.78125 15.238281 L 13.339844 15.347656 C 13.019531 15.425781 12.695312 15.375 12.433594 15.214844 C 12.15625 15.050781 11.964844 14.789062 11.886719 14.476562 C 11.8125 14.164062 11.867188 13.847656 12.039062 13.574219 L 13.675781 10.953125 C 14.128906 10.230469 14.398438 9.402344 14.457031 8.5625 C 14.472656 8.347656 14.3125 8.160156 14.097656 8.148438 C 13.890625 8.136719 13.699219 8.292969 13.683594 8.507812 C 13.636719 9.222656 13.40625 9.925781 13.019531 10.542969 L 11.378906 13.164062 C 11.097656 13.613281 11.011719 14.144531 11.136719 14.65625 C 11.257812 15.171875 11.578125 15.605469 12.03125 15.878906 C 12.464844 16.140625 12.996094 16.226562 13.523438 16.101562 L 13.96875 15.988281 C 14.128906 15.949219 14.292969 15.992188 14.410156 16.109375 C 14.5 16.195312 14.546875 16.3125 14.546875 16.4375 C 14.546875 16.515625 14.53125 16.582031 14.496094 16.644531 L 13.996094 17.644531 C 13.933594 17.773438 13.945312 17.929688 14.03125 18.046875 C 14.117188 18.160156 14.261719 18.222656 14.40625 18.195312 L 15.925781 17.945312 C 16.425781 17.863281 16.929688 17.855469 17.421875 17.929688 L 19.324219 18.199219 C 19.34375 18.203125 19.363281 18.203125 19.378906 18.203125 C 19.570312 18.203125 19.734375 18.0625 19.761719 17.871094 C 19.792969 17.660156 19.644531 17.464844 19.433594 17.433594 " fill-opacity="1" fill-rule="nonzero"/><path fill="#100f0d" d="M 13.558594 7.078125 C 13.601562 7.257812 13.761719 7.378906 13.9375 7.378906 C 13.96875 7.378906 13.996094 7.375 14.027344 7.367188 C 14.234375 7.316406 14.363281 7.109375 14.3125 6.902344 C 14.246094 6.609375 14.140625 6.3125 14.007812 6.011719 C 13.503906 4.910156 13.472656 3.636719 13.925781 2.511719 L 14.703125 0.570312 C 14.78125 0.371094 14.6875 0.144531 14.488281 0.0664062 C 14.289062 -0.0117188 14.0625 0.0820312 13.984375 0.28125 L 13.207031 2.226562 C 12.675781 3.542969 12.710938 5.042969 13.300781 6.332031 C 13.414062 6.585938 13.503906 6.835938 13.558594 7.078125 " fill-opacity="1" fill-rule="nonzero"/><path fill="#100f0d" d="M 13.292969 13.851562 L 13.007812 13.992188 C 12.816406 14.085938 12.738281 14.320312 12.835938 14.511719 C 12.902344 14.644531 13.039062 14.722656 13.179688 14.722656 C 13.242188 14.722656 13.300781 14.710938 13.355469 14.683594 L 13.640625 14.542969 C 13.785156 14.46875 13.957031 14.496094 14.070312 14.609375 C 14.222656 14.761719 14.464844 14.761719 14.617188 14.609375 C 14.769531 14.460938 14.769531 14.214844 14.617188 14.066406 C 14.269531 13.714844 13.738281 13.628906 13.292969 13.851562 " fill-opacity="1" fill-rule="nonzero"/><path fill="#100f0d" d="M 19.535156 6.6875 C 18.71875 7.296875 17.628906 7.351562 16.757812 6.828125 L 16.480469 6.664062 C 16.296875 6.554688 16.058594 6.613281 15.949219 6.796875 C 15.839844 6.980469 15.898438 7.21875 16.082031 7.324219 L 16.359375 7.492188 C 16.878906 7.804688 17.460938 7.957031 18.039062 7.957031 C 18.730469 7.957031 19.417969 7.738281 20 7.304688 C 20.171875 7.175781 20.207031 6.933594 20.078125 6.761719 C 19.949219 6.59375 19.707031 6.558594 19.535156 6.6875 " fill-opacity="1" fill-rule="nonzero"/><path fill="#100f0d" d="M 14.84375 4.5625 C 14.921875 4.636719 15.019531 4.675781 15.117188 4.675781 C 15.21875 4.675781 15.316406 4.636719 15.390625 4.5625 L 16.554688 3.402344 C 16.707031 3.253906 16.707031 3.007812 16.554688 2.855469 C 16.402344 2.707031 16.160156 2.707031 16.007812 2.855469 L 14.84375 4.015625 C 14.691406 4.167969 14.691406 4.410156 14.84375 4.5625 " fill-opacity="1" fill-rule="nonzero"/><path fill="#100f0d" d="M 16.347656 4.503906 C 16.421875 4.617188 16.542969 4.675781 16.667969 4.675781 C 16.742188 4.675781 16.816406 4.65625 16.882812 4.613281 L 18.046875 3.839844 C 18.222656 3.71875 18.273438 3.480469 18.152344 3.300781 C 18.035156 3.125 17.792969 3.074219 17.617188 3.195312 L 16.453125 3.96875 C 16.273438 4.085938 16.226562 4.324219 16.347656 4.503906 " fill-opacity="1" fill-rule="nonzero"/><path fill="#100f0d" d="M 18.605469 4.675781 C 18.679688 4.675781 18.753906 4.65625 18.820312 4.613281 L 19.984375 3.839844 C 20.160156 3.71875 20.210938 3.480469 20.089844 3.300781 C 19.972656 3.125 19.730469 3.074219 19.550781 3.195312 L 18.390625 3.96875 C 18.210938 4.085938 18.164062 4.324219 18.28125 4.503906 C 18.355469 4.617188 18.480469 4.675781 18.605469 4.675781 " fill-opacity="1" fill-rule="nonzero"/><g clip-path="url(#80480b294b)"><path fill="#100f0d" d="M 21.316406 3.902344 L 20.15625 3.902344 C 19.941406 3.902344 19.765625 4.078125 19.765625 4.289062 C 19.765625 4.503906 19.941406 4.675781 20.15625 4.675781 L 21.316406 4.675781 C 21.53125 4.675781 21.703125 4.503906 21.703125 4.289062 C 21.703125 4.078125 21.53125 3.902344 21.316406 3.902344 " fill-opacity="1" fill-rule="nonzero"/></g><path fill="#100f0d" d="M 15.230469 14.996094 C 15.308594 15.074219 15.40625 15.109375 15.507812 15.109375 C 15.605469 15.109375 15.703125 15.074219 15.78125 14.996094 C 16.359375 14.421875 16.359375 13.480469 15.78125 12.90625 C 15.628906 12.753906 15.382812 12.753906 15.230469 12.90625 C 15.082031 13.054688 15.082031 13.300781 15.230469 13.453125 C 15.507812 13.726562 15.507812 14.175781 15.230469 14.453125 C 15.082031 14.601562 15.082031 14.847656 15.230469 14.996094 " fill-opacity="1" fill-rule="nonzero"/><path fill="#100f0d" d="M 10.46875 20.90625 L 9.308594 20.90625 L 9.308594 17.816406 L 10.46875 17.816406 Z M 10.855469 17.042969 L 9.308594 17.042969 C 9.308594 16.832031 9.132812 16.65625 8.921875 16.65625 L 7.863281 16.65625 L 6.980469 10.035156 C 6.953125 9.84375 6.789062 9.699219 6.59375 9.699219 L 6.074219 9.699219 L 5.75 7.425781 C 5.722656 7.210938 5.527344 7.0625 5.3125 7.097656 L 3.441406 7.359375 C 3.230469 7.386719 3.082031 7.582031 3.113281 7.796875 C 3.140625 8.007812 3.332031 8.152344 3.550781 8.125 L 5.039062 7.914062 L 5.300781 9.761719 C 4.585938 9.871094 3.886719 10.144531 3.25 10.558594 C 2.746094 10.886719 2.179688 11.101562 1.585938 11.195312 L 1.203125 8.453125 L 2.019531 8.335938 C 2.234375 8.308594 2.378906 8.109375 2.347656 7.898438 C 2.320312 7.6875 2.125 7.539062 1.910156 7.570312 L 0.710938 7.742188 C 0.5 7.769531 0.351562 7.964844 0.382812 8.175781 L 0.8125 11.246094 L 0.398438 11.246094 C 0.285156 11.246094 0.175781 11.296875 0.101562 11.378906 C 0.0273438 11.464844 -0.00390625 11.578125 0.015625 11.691406 L 0.726562 16.328125 C 0.761719 16.539062 0.957031 16.683594 1.171875 16.652344 C 1.382812 16.617188 1.527344 16.421875 1.492188 16.210938 L 0.847656 12.019531 L 0.9375 12.019531 C 1.910156 12.019531 2.859375 11.738281 3.675781 11.207031 C 4.410156 10.726562 5.230469 10.472656 6.054688 10.472656 L 6.257812 10.472656 L 6.417969 11.691406 L 5.945312 11.757812 C 5.734375 11.789062 5.585938 11.984375 5.617188 12.195312 C 5.644531 12.390625 5.808594 12.527344 6 12.527344 C 6.015625 12.527344 6.035156 12.527344 6.054688 12.523438 L 6.519531 12.457031 L 6.625 13.226562 L 6.164062 13.289062 C 5.949219 13.320312 5.800781 13.515625 5.832031 13.726562 C 5.859375 13.917969 6.023438 14.058594 6.214844 14.058594 C 6.234375 14.058594 6.25 14.058594 6.269531 14.054688 L 6.726562 13.992188 L 6.828125 14.757812 L 6.378906 14.820312 C 6.164062 14.851562 6.015625 15.046875 6.046875 15.257812 C 6.074219 15.449219 6.242188 15.589844 6.429688 15.589844 C 6.449219 15.589844 6.46875 15.589844 6.484375 15.585938 L 6.929688 15.523438 L 7.140625 17.09375 C 7.167969 17.285156 7.332031 17.429688 7.527344 17.429688 L 8.53125 17.429688 L 8.53125 21.292969 L 3.273438 21.292969 C 2.699219 21.292969 2.214844 20.878906 2.128906 20.3125 L 1.730469 17.738281 C 1.699219 17.527344 1.5 17.382812 1.289062 17.417969 C 1.078125 17.449219 0.933594 17.644531 0.964844 17.855469 L 1.359375 20.429688 C 1.507812 21.378906 2.3125 22.066406 3.273438 22.066406 L 8.921875 22.066406 C 9.132812 22.066406 9.308594 21.894531 9.308594 21.679688 L 10.855469 21.679688 C 11.070312 21.679688 11.246094 21.507812 11.246094 21.292969 L 11.246094 17.429688 C 11.246094 17.21875 11.070312 17.042969 10.855469 17.042969 " fill-opacity="1" fill-rule="nonzero"/><path fill="#100f0d" d="M 12.40625 18.203125 C 12.507812 18.203125 12.605469 18.164062 12.679688 18.089844 L 13.066406 17.703125 C 13.21875 17.550781 13.21875 17.308594 13.066406 17.15625 C 12.917969 17.003906 12.671875 17.003906 12.519531 17.15625 L 12.132812 17.542969 C 11.980469 17.695312 11.980469 17.9375 12.132812 18.089844 C 12.207031 18.164062 12.308594 18.203125 12.40625 18.203125 " fill-opacity="1" fill-rule="nonzero"/><path fill="#100f0d" d="M 13.179688 18.976562 L 12.40625 18.976562 C 12.191406 18.976562 12.019531 19.148438 12.019531 19.363281 C 12.019531 19.574219 12.191406 19.75 12.40625 19.75 L 13.179688 19.75 C 13.394531 19.75 13.570312 19.574219 13.570312 19.363281 C 13.570312 19.148438 13.394531 18.976562 13.179688 18.976562 " fill-opacity="1" fill-rule="nonzero"/><path fill="#100f0d" d="M 13.355469 20.949219 L 12.582031 20.5625 C 12.386719 20.46875 12.15625 20.542969 12.058594 20.734375 C 11.964844 20.925781 12.042969 21.160156 12.234375 21.253906 L 13.007812 21.640625 C 13.0625 21.667969 13.121094 21.679688 13.179688 21.679688 C 13.324219 21.679688 13.460938 21.601562 13.527344 21.46875 C 13.625 21.277344 13.546875 21.042969 13.355469 20.949219 " fill-opacity="1" fill-rule="nonzero"/></svg>