<svg xmlns="http://www.w3.org/2000/svg" xmlns:xlink="http://www.w3.org/1999/xlink" zoomAndPan="magnify" preserveAspectRatio="xMidYMid meet" version="1.0" viewBox="-0.05 -0.05 22.53 22.53"><defs><clipPath id="3996b44dfd"><path d="M 0 0 L 22.476562 0 L 22.476562 22.476562 L 0 22.476562 Z M 0 0 " clip-rule="nonzero"/></clipPath></defs><g clip-path="url(#3996b44dfd)"><path fill="#000000" d="M 11.1875 -0.0507812 C 4.984375 -0.0507812 -0.0507812 4.984375 -0.0507812 11.1875 C -0.0507812 17.390625 4.984375 22.425781 11.1875 22.425781 C 17.390625 22.425781 22.425781 17.390625 22.425781 11.1875 C 22.425781 4.984375 17.390625 -0.0507812 11.1875 -0.0507812 Z M 11.1875 1.515625 C 16.523438 1.515625 20.855469 5.847656 20.855469 11.1875 C 20.855469 16.523438 16.523438 20.855469 11.1875 20.855469 C 5.847656 20.855469 1.515625 16.523438 1.515625 11.1875 C 1.515625 5.847656 5.847656 1.515625 11.1875 1.515625 Z M 11.1875 1.515625 " fill-opacity="1" fill-rule="evenodd"/></g><path fill="#000000" d="M 17.027344 9.441406 L 15.292969 8.574219 C 15.292969 8.574219 17.027344 7.707031 17.027344 7.707031 C 17.414062 7.511719 17.570312 7.042969 17.375 6.65625 C 17.183594 6.265625 16.710938 6.109375 16.324219 6.304688 L 13.1875 7.871094 C 12.921875 8.003906 12.753906 8.277344 12.753906 8.574219 C 12.753906 8.871094 12.921875 9.140625 13.1875 9.273438 L 16.324219 10.84375 C 16.710938 11.035156 17.183594 10.878906 17.375 10.492188 C 17.570312 10.105469 17.414062 9.632812 17.027344 9.441406 Z M 17.027344 9.441406 " fill-opacity="1" fill-rule="evenodd"/><path fill="#000000" d="M 6.046875 10.84375 L 9.183594 9.273438 C 9.449219 9.140625 9.617188 8.871094 9.617188 8.574219 C 9.617188 8.277344 9.449219 8.003906 9.183594 7.871094 L 6.046875 6.304688 C 5.660156 6.109375 5.191406 6.265625 4.996094 6.65625 C 4.804688 7.042969 4.960938 7.511719 5.347656 7.707031 L 7.082031 8.574219 C 7.082031 8.574219 5.347656 9.441406 5.347656 9.441406 C 4.960938 9.632812 4.804688 10.105469 4.996094 10.492188 C 5.191406 10.878906 5.660156 11.035156 6.046875 10.84375 Z M 6.046875 10.84375 " fill-opacity="1" fill-rule="evenodd"/><path fill="#000000" d="M 7.355469 16.59375 L 9.09375 15.722656 C 9.09375 15.722656 10.835938 16.59375 10.835938 16.59375 C 11.058594 16.703125 11.316406 16.703125 11.535156 16.59375 L 13.277344 15.722656 C 13.277344 15.722656 15.019531 16.59375 15.019531 16.59375 C 15.40625 16.785156 15.875 16.628906 16.070312 16.242188 C 16.261719 15.855469 16.105469 15.382812 15.71875 15.191406 L 13.628906 14.144531 C 13.40625 14.035156 13.148438 14.035156 12.925781 14.144531 L 11.1875 15.015625 C 11.1875 15.015625 9.445312 14.144531 9.445312 14.144531 C 9.226562 14.035156 8.964844 14.035156 8.746094 14.144531 L 6.65625 15.191406 C 6.265625 15.382812 6.109375 15.855469 6.304688 16.242188 C 6.496094 16.628906 6.96875 16.785156 7.355469 16.59375 Z M 7.355469 16.59375 " fill-opacity="1" fill-rule="evenodd"/></svg>