<svg xmlns="http://www.w3.org/2000/svg" xmlns:xlink="http://www.w3.org/1999/xlink" zoomAndPan="magnify" preserveAspectRatio="xMidYMid meet" version="1.0" viewBox="0 -0.02 22.48 21.73"><defs><clipPath id="f382de6337"><path d="M 0 0 L 22.476562 0 L 22.476562 21.714844 L 0 21.714844 Z M 0 0 " clip-rule="nonzero"/></clipPath></defs><path fill="#000000" d="M 9.449219 7.328125 C 10.628906 7.328125 11.742188 7.675781 12.664062 8.289062 C 12.820312 8.183594 12.976562 8.0625 13.117188 7.957031 C 13.148438 7.921875 13.203125 7.886719 13.253906 7.851562 C 12.175781 7.082031 10.875 6.628906 9.449219 6.628906 C 6.808594 6.628906 4.53125 8.203125 3.472656 10.457031 L 4.339844 10.300781 C 5.363281 8.535156 7.257812 7.328125 9.449219 7.328125 Z M 9.449219 7.328125 " fill-opacity="1" fill-rule="nonzero"/><path fill="#000000" d="M 15.199219 14.898438 C 15.183594 14.898438 15.167969 14.878906 15.148438 14.878906 C 14.4375 17.378906 12.160156 19.214844 9.449219 19.214844 C 8.648438 19.214844 7.886719 19.058594 7.191406 18.761719 L 6.441406 19.179688 C 7.347656 19.652344 8.371094 19.914062 9.464844 19.914062 C 12.472656 19.914062 15.011719 17.886719 15.808594 15.125 C 15.617188 15.070312 15.425781 15 15.253906 14.914062 C 15.21875 14.914062 15.21875 14.914062 15.199219 14.898438 Z M 15.199219 14.898438 " fill-opacity="1" fill-rule="nonzero"/><g clip-path="url(#f382de6337)"><path fill="#000000" d="M 21.734375 0.300781 C 21.507812 0.0390625 21.265625 -0.015625 21.09375 -0.015625 C 20.03125 -0.015625 19.667969 0.859375 19.371094 1.578125 C 19.320312 1.714844 19.25 1.839844 19.199219 1.980469 C 18.832031 2.746094 18.328125 3.726562 17.738281 4.566406 C 17.214844 5.300781 14.316406 7.90625 13.550781 8.5 C 13.011719 8.917969 12.4375 9.304688 11.863281 9.652344 L 0.34375 11.734375 C 0.152344 11.769531 0.03125 11.941406 0.0664062 12.136719 C 0.0976562 12.328125 0.273438 12.449219 0.464844 12.414062 L 12.039062 10.316406 C 12.074219 10.316406 12.125 10.300781 12.160156 10.28125 C 12.769531 9.914062 13.375 9.511719 13.96875 9.058594 C 14.820312 8.410156 17.738281 5.789062 18.328125 4.949219 C 18.9375 4.078125 19.457031 3.0625 19.839844 2.257812 C 19.910156 2.117188 19.960938 1.980469 20.03125 1.839844 C 20.328125 1.121094 20.554688 0.683594 21.109375 0.683594 C 21.125 0.683594 21.160156 0.683594 21.214844 0.753906 C 21.648438 1.261719 21.664062 3.238281 21.578125 3.78125 L 21.578125 3.8125 C 21.472656 4.425781 21.335938 5.351562 20.953125 5.789062 C 20.9375 5.808594 20.917969 5.84375 20.902344 5.859375 C 20.832031 6 19.265625 9.144531 18.953125 10.578125 C 18.953125 10.597656 18.953125 10.632812 18.953125 10.648438 C 18.953125 11.3125 18.761719 13.167969 17.910156 13.691406 C 17.355469 14.039062 16.433594 13.933594 15.808594 13.636719 C 15.671875 13.570312 14.417969 12.992188 12.976562 13.953125 L 0.238281 21.015625 C 0.0664062 21.101562 0.0117188 21.3125 0.0976562 21.488281 C 0.1875 21.644531 0.414062 21.714844 0.570312 21.625 L 13.324219 14.566406 C 13.324219 14.566406 13.339844 14.546875 13.339844 14.546875 C 14.488281 13.777344 15.460938 14.25 15.496094 14.269531 C 15.496094 14.269531 15.515625 14.269531 15.515625 14.269531 C 16.3125 14.632812 17.476562 14.773438 18.277344 14.269531 C 19.546875 13.464844 19.632812 11.035156 19.632812 10.667969 C 19.929688 9.355469 21.316406 6.523438 21.492188 6.175781 C 21.960938 5.578125 22.132812 4.566406 22.238281 3.882812 L 22.238281 3.847656 C 22.308594 3.640625 22.464844 1.15625 21.734375 0.300781 Z M 21.734375 0.300781 " fill-opacity="1" fill-rule="nonzero"/></g><path fill="#000000" d="M 5.242188 12.292969 C 5.050781 12.292969 4.894531 12.449219 4.894531 12.640625 C 4.894531 14.53125 3.523438 15.386719 2.6875 15.734375 C 1.957031 16.015625 1.210938 16.3125 0.464844 16.609375 C 0.289062 16.679688 0.203125 16.890625 0.257812 17.066406 C 0.308594 17.203125 0.445312 17.292969 0.585938 17.292969 C 0.621094 17.292969 0.671875 17.292969 0.707031 17.273438 C 3.246094 16.296875 5.644531 15.332031 7.695312 14.496094 C 7.519531 14.792969 7.378906 15.160156 7.3125 15.613281 C 7.292969 15.804688 7.414062 15.980469 7.605469 16.015625 C 7.625 16.015625 7.640625 16.015625 7.660156 16.015625 C 7.832031 16.015625 7.972656 15.894531 8.007812 15.71875 C 8.109375 14.984375 8.457031 14.582031 8.804688 14.179688 C 8.859375 14.128906 8.910156 14.058594 8.945312 14.003906 C 8.945312 14.003906 8.945312 13.988281 8.960938 13.988281 C 9.222656 13.882812 9.484375 13.777344 9.746094 13.671875 C 11.203125 13.078125 12.265625 12.640625 12.734375 12.46875 C 13.339844 12.238281 13.933594 12.046875 14.558594 12.082031 C 14.785156 12.101562 14.992188 12.152344 15.234375 12.203125 C 15.792969 12.34375 16.417969 12.503906 17.042969 12.066406 C 17.824219 11.523438 17.84375 10.578125 17.859375 9.828125 C 17.859375 9.757812 17.859375 9.6875 17.859375 9.617188 C 17.859375 9.617188 17.859375 9.617188 17.859375 9.601562 C 18.085938 8.988281 18.554688 8.867188 19.023438 8.742188 L 19.109375 8.726562 C 19.300781 8.675781 19.40625 8.480469 19.355469 8.308594 C 19.300781 8.113281 19.109375 8.007812 18.9375 8.0625 L 18.867188 8.078125 C 18.660156 8.132812 18.398438 8.203125 18.15625 8.324219 C 18.242188 8.113281 18.347656 7.90625 18.46875 7.675781 C 18.570312 7.503906 18.503906 7.292969 18.347656 7.207031 C 18.171875 7.101562 17.964844 7.171875 17.878906 7.328125 C 17.425781 8.097656 17.214844 8.796875 17.183594 9.601562 C 17.183594 9.671875 17.183594 9.738281 17.183594 9.808594 C 17.164062 10.457031 17.148438 11.136719 16.660156 11.488281 C 16.296875 11.734375 15.949219 11.664062 15.410156 11.523438 C 15.148438 11.453125 14.886719 11.402344 14.609375 11.382812 C 14.503906 11.382812 14.402344 11.382812 14.316406 11.382812 C 14.628906 11.070312 14.886719 10.683594 15.078125 10.210938 C 15.148438 10.039062 15.0625 9.828125 14.886719 9.757812 C 14.714844 9.6875 14.503906 9.773438 14.4375 9.949219 C 14.035156 10.945312 13.148438 11.523438 12.472656 11.820312 C 11.96875 12.011719 10.925781 12.433594 9.5 13.007812 C 8.214844 13.535156 6.652344 14.179688 4.949219 14.863281 C 5.332031 14.300781 5.609375 13.585938 5.609375 12.660156 C 5.589844 12.449219 5.433594 12.292969 5.242188 12.292969 Z M 5.242188 12.292969 " fill-opacity="1" fill-rule="nonzero"/></svg>