<svg xmlns="http://www.w3.org/2000/svg" xmlns:xlink="http://www.w3.org/1999/xlink" zoomAndPan="magnify" preserveAspectRatio="xMidYMid meet" version="1.0" viewBox="0 0 22.48 21.72"><defs><clipPath id="e665db5fce"><path d="M 0 0.00390625 L 22.472656 0.00390625 L 22.472656 21.726562 L 0 21.726562 Z M 0 0.00390625 " clip-rule="nonzero"/></clipPath></defs><path fill="#000000" d="M 1.382812 5.453125 C 1.199219 6.796875 1.03125 8.355469 0.933594 10.039062 C 1.839844 10.460938 7.230469 12.875 11.167969 12.875 C 15.453125 12.875 21.460938 10.011719 21.53125 9.976562 C 21.433594 8.300781 21.265625 6.75 21.082031 5.414062 C 17.398438 6.214844 13.96875 6.484375 11.027344 6.484375 C 5.933594 6.484375 2.3125 5.683594 1.382812 5.453125 " fill-opacity="1" fill-rule="nonzero"/><g clip-path="url(#e665db5fce)"><path fill="#000000" d="M 21.320312 20.441406 C 21.300781 20.539062 21.210938 20.609375 21.113281 20.609375 C 20.976562 20.609375 20.878906 20.484375 20.90625 20.351562 C 21.605469 17.035156 21.707031 13.542969 21.554688 10.433594 C 20.574219 10.894531 15.394531 13.21875 11.378906 13.296875 L 11.378906 21.082031 C 11.378906 21.199219 11.285156 21.292969 11.167969 21.292969 C 11.050781 21.292969 10.953125 21.199219 10.953125 21.082031 L 10.953125 13.296875 C 7.09375 13.21875 2.164062 11.074219 0.910156 10.496094 C 0.761719 13.589844 0.867188 17.058594 1.566406 20.351562 C 1.59375 20.484375 1.492188 20.609375 1.355469 20.609375 C 1.257812 20.609375 1.171875 20.539062 1.148438 20.441406 C 0.425781 17.007812 0.332031 13.390625 0.503906 10.199219 C 0.5 10.171875 0.5 10.144531 0.507812 10.121094 C 0.605469 8.300781 0.789062 6.625 0.988281 5.203125 C 0.988281 5.179688 0.988281 5.15625 0.996094 5.128906 C 0.996094 5.125 1 5.121094 1 5.117188 C 1.382812 2.410156 1.820312 0.640625 1.832031 0.597656 C 1.859375 0.484375 1.976562 0.414062 2.089844 0.441406 C 2.203125 0.472656 2.269531 0.585938 2.242188 0.699219 C 2.230469 0.742188 1.816406 2.433594 1.441406 5.03125 C 2.738281 5.355469 10.917969 7.203125 21.023438 4.992188 C 20.652344 2.417969 20.238281 0.742188 20.226562 0.699219 C 20.199219 0.585938 20.269531 0.472656 20.382812 0.441406 C 20.492188 0.414062 20.609375 0.484375 20.640625 0.597656 C 20.664062 0.703125 23.265625 11.234375 21.320312 20.441406 Z M 20.433594 0.00390625 C 20.015625 0.00390625 19.707031 0.398438 19.808594 0.804688 C 19.8125 0.820312 20.183594 2.316406 20.539062 4.65625 C 17.445312 5.304688 14.246094 5.632812 11.019531 5.632812 C 6.503906 5.632812 3.140625 4.976562 1.925781 4.703125 C 2.28125 2.339844 2.65625 0.820312 2.660156 0.804688 C 2.761719 0.402344 2.457031 0.00390625 2.035156 0.00390625 C 1.742188 0.00390625 1.484375 0.203125 1.414062 0.492188 C 1.40625 0.507812 0.96875 2.285156 0.578125 5.011719 C 0.5625 5.066406 0.554688 5.121094 0.554688 5.179688 C 0.324219 6.828125 0.164062 8.472656 0.0742188 10.066406 C 0.0703125 10.113281 0.0664062 10.160156 0.0703125 10.207031 C -0.132812 14.035156 0.0898438 17.507812 0.726562 20.527344 C 0.789062 20.824219 1.054688 21.039062 1.355469 21.039062 C 1.769531 21.039062 2.070312 20.660156 1.988281 20.261719 C 1.421875 17.582031 1.195312 14.519531 1.316406 11.152344 C 3.128906 11.945312 7.128906 13.523438 10.523438 13.710938 L 10.523438 21.082031 C 10.523438 21.4375 10.8125 21.726562 11.167969 21.726562 C 11.523438 21.726562 11.808594 21.4375 11.808594 21.082031 L 11.808594 13.714844 C 15.304688 13.519531 19.46875 11.832031 21.152344 11.09375 C 21.277344 14.484375 21.050781 17.566406 20.484375 20.261719 C 20.398438 20.660156 20.703125 21.039062 21.113281 21.039062 C 21.417969 21.039062 21.679688 20.824219 21.742188 20.527344 C 23.710938 11.210938 21.085938 0.597656 21.058594 0.492188 C 20.984375 0.203125 20.726562 0.00390625 20.433594 0.00390625 " fill-opacity="1" fill-rule="nonzero"/></g><path fill="#000000" d="M 9.652344 14.664062 C 9.574219 14.710938 7.757812 15.808594 4.234375 15.835938 C 4.230469 15.835938 4.230469 15.835938 4.230469 15.835938 C 4.113281 15.835938 4.019531 15.742188 4.019531 15.625 C 4.019531 15.511719 4.113281 15.414062 4.230469 15.414062 C 7.625 15.382812 9.410156 14.316406 9.429688 14.304688 C 9.527344 14.242188 9.660156 14.273438 9.71875 14.375 C 9.78125 14.472656 9.75 14.605469 9.652344 14.664062 Z M 9.207031 13.933594 C 9.191406 13.945312 7.457031 14.953125 4.226562 14.980469 C 3.871094 14.984375 3.582031 15.273438 3.585938 15.628906 C 3.589844 15.980469 3.878906 16.269531 4.230469 16.269531 L 4.234375 16.269531 C 4.234375 16.269531 4.234375 16.269531 4.238281 16.269531 C 7.890625 16.238281 9.800781 15.082031 9.875 15.03125 C 10.179688 14.847656 10.273438 14.449219 10.085938 14.148438 C 9.894531 13.832031 9.492188 13.757812 9.207031 13.933594 " fill-opacity="1" fill-rule="nonzero"/><path fill="#000000" d="M 18.101562 15.835938 C 14.578125 15.808594 12.757812 14.710938 12.683594 14.664062 C 12.582031 14.605469 12.550781 14.472656 12.613281 14.375 C 12.671875 14.273438 12.804688 14.242188 12.902344 14.304688 C 12.921875 14.316406 14.710938 15.382812 18.105469 15.414062 C 18.21875 15.414062 18.316406 15.511719 18.3125 15.625 C 18.3125 15.738281 18.222656 15.835938 18.101562 15.835938 Z M 18.105469 14.980469 C 14.875 14.953125 13.144531 13.945312 13.128906 13.9375 C 12.832031 13.753906 12.4375 13.835938 12.246094 14.148438 C 12.058594 14.449219 12.152344 14.847656 12.453125 15.03125 C 12.535156 15.082031 14.441406 16.238281 18.101562 16.269531 C 18.453125 16.269531 18.742188 15.980469 18.746094 15.628906 C 18.75 15.273438 18.460938 14.984375 18.105469 14.980469 " fill-opacity="1" fill-rule="nonzero"/></svg>