<svg xmlns="http://www.w3.org/2000/svg" xmlns:xlink="http://www.w3.org/1999/xlink" zoomAndPan="magnify" preserveAspectRatio="xMidYMid meet" version="1.0" viewBox="0 0 23 21.72"><defs><clipPath id="2ed0f6a7a0"><path d="M 0 0 L 23 0 L 23 21.722656 L 0 21.722656 Z M 0 0 " clip-rule="nonzero"/></clipPath></defs><g clip-path="url(#2ed0f6a7a0)"><path fill="#4d4d4d" d="M 16.59375 6.671875 C 14.886719 7.609375 12.703125 9.519531 11.613281 13.328125 C 10.527344 9.519531 8.34375 7.609375 6.632812 6.671875 C 5.125 5.84375 3.757812 5.613281 3.136719 5.550781 C 3.289062 5.105469 3.441406 4.632812 3.585938 4.128906 C 5.46875 3.226562 11.390625 3.214844 11.609375 3.214844 C 11.613281 3.214844 11.613281 3.214844 11.621094 3.214844 C 11.839844 3.214844 17.761719 3.226562 19.644531 4.128906 C 19.785156 4.632812 19.9375 5.105469 20.09375 5.550781 C 19.472656 5.613281 18.105469 5.84375 16.59375 6.671875 Z M 22.300781 10.375 C 21.945312 9.078125 21.542969 8.007812 21.152344 6.972656 C 20.441406 5.085938 19.773438 3.300781 19.367188 0.234375 C 19.347656 0.09375 19.21875 -0.0078125 19.082031 0.0117188 C 18.941406 0.03125 18.84375 0.160156 18.863281 0.300781 C 19.027344 1.539062 19.238281 2.582031 19.472656 3.507812 C 17.167969 2.699219 11.855469 2.699219 11.613281 2.699219 C 11.375 2.699219 6.058594 2.699219 3.753906 3.507812 C 3.992188 2.582031 4.203125 1.539062 4.363281 0.300781 C 4.382812 0.160156 4.285156 0.03125 4.148438 0.0117188 C 4.007812 -0.0078125 3.878906 0.09375 3.859375 0.234375 C 3.457031 3.300781 2.785156 5.085938 2.074219 6.972656 C 1.683594 8.007812 1.28125 9.078125 0.929688 10.375 C 0.00390625 13.765625 0.765625 16.183594 1.503906 18.527344 C 1.800781 19.480469 2.113281 20.464844 2.3125 21.511719 C 2.335938 21.636719 2.441406 21.722656 2.558594 21.722656 C 2.574219 21.722656 2.59375 21.71875 2.609375 21.714844 C 2.746094 21.691406 2.835938 21.554688 2.808594 21.414062 C 2.605469 20.335938 2.289062 19.335938 1.988281 18.371094 C 1.238281 15.996094 0.535156 13.753906 1.417969 10.515625 C 1.765625 9.242188 2.164062 8.183594 2.550781 7.15625 C 2.6875 6.796875 2.824219 6.429688 2.957031 6.054688 C 3.441406 6.09375 4.847656 6.277344 6.390625 7.125 C 8.132812 8.082031 10.390625 10.101562 11.335938 14.296875 C 11.328125 14.308594 11.316406 14.320312 11.304688 14.332031 C 10.914062 14.785156 9.886719 15.980469 6.179688 15.980469 C 6.132812 15.980469 6.089844 15.980469 6.042969 15.980469 C 5.902344 15.980469 5.789062 16.09375 5.789062 16.234375 C 5.789062 16.378906 5.898438 16.496094 6.039062 16.496094 C 6.085938 16.496094 6.132812 16.496094 6.175781 16.496094 C 8.050781 16.496094 9.289062 16.195312 10.121094 15.828125 C 10.746094 17.828125 10.574219 21.414062 10.574219 21.449219 C 10.566406 21.59375 10.675781 21.714844 10.816406 21.722656 C 10.820312 21.722656 10.824219 21.722656 10.828125 21.722656 C 10.960938 21.722656 11.074219 21.613281 11.082031 21.476562 C 11.089844 21.316406 11.261719 17.675781 10.582031 15.597656 C 11.113281 15.292969 11.421875 14.976562 11.613281 14.757812 C 11.804688 14.976562 12.113281 15.292969 12.648438 15.597656 C 11.964844 17.675781 12.140625 21.316406 12.148438 21.476562 C 12.152344 21.613281 12.265625 21.722656 12.402344 21.722656 C 12.40625 21.722656 12.410156 21.722656 12.414062 21.722656 C 12.554688 21.714844 12.660156 21.59375 12.65625 21.449219 C 12.652344 21.414062 12.484375 17.828125 13.105469 15.828125 C 13.941406 16.195312 15.179688 16.496094 17.050781 16.496094 C 17.097656 16.496094 17.140625 16.496094 17.1875 16.496094 C 17.328125 16.496094 17.441406 16.378906 17.441406 16.234375 C 17.4375 16.09375 17.324219 15.980469 17.1875 15.980469 C 17.183594 15.980469 17.183594 15.980469 17.183594 15.980469 C 13.371094 16.007812 12.316406 14.789062 11.921875 14.332031 C 11.914062 14.320312 11.902344 14.308594 11.894531 14.300781 C 12.648438 10.9375 14.304688 8.523438 16.816406 7.136719 C 18.363281 6.28125 19.785156 6.09375 20.269531 6.054688 C 20.40625 6.429688 20.542969 6.796875 20.679688 7.15625 C 21.066406 8.183594 21.464844 9.242188 21.8125 10.515625 C 22.695312 13.753906 21.988281 15.996094 21.242188 18.371094 C 20.9375 19.335938 20.625 20.335938 20.417969 21.414062 C 20.390625 21.554688 20.480469 21.691406 20.621094 21.714844 C 20.636719 21.71875 20.652344 21.722656 20.667969 21.722656 C 20.789062 21.722656 20.894531 21.636719 20.917969 21.511719 C 21.117188 20.464844 21.425781 19.480469 21.726562 18.527344 C 22.464844 16.183594 23.226562 13.765625 22.300781 10.375 " fill-opacity="1" fill-rule="nonzero"/></g><path fill="#4d4d4d" d="M 6.203125 13.964844 C 6.132812 13.839844 5.976562 13.796875 5.855469 13.867188 C 5.699219 13.957031 5.539062 14.039062 5.371094 14.117188 C 5.246094 14.171875 5.1875 14.324219 5.246094 14.457031 C 5.285156 14.550781 5.378906 14.609375 5.476562 14.609375 C 5.511719 14.609375 5.546875 14.601562 5.582031 14.585938 C 5.761719 14.503906 5.9375 14.414062 6.105469 14.316406 C 6.226562 14.246094 6.269531 14.085938 6.203125 13.964844 " fill-opacity="1" fill-rule="nonzero"/><path fill="#4d4d4d" d="M 8.132812 11.925781 C 8.230469 11.925781 8.324219 11.867188 8.367188 11.769531 C 8.441406 11.589844 8.507812 11.398438 8.566406 11.207031 C 8.605469 11.070312 8.53125 10.925781 8.398438 10.882812 C 8.265625 10.84375 8.121094 10.917969 8.082031 11.054688 C 8.027344 11.230469 7.964844 11.402344 7.898438 11.566406 C 7.84375 11.699219 7.902344 11.851562 8.03125 11.90625 C 8.066406 11.921875 8.097656 11.925781 8.132812 11.925781 " fill-opacity="1" fill-rule="nonzero"/><path fill="#4d4d4d" d="M 4.136719 14.523438 C 3.820312 14.59375 3.613281 14.609375 3.609375 14.609375 C 3.46875 14.621094 3.363281 14.742188 3.375 14.886719 C 3.382812 15.019531 3.496094 15.125 3.628906 15.125 C 3.632812 15.125 3.640625 15.125 3.644531 15.125 C 3.65625 15.121094 3.882812 15.105469 4.242188 15.027344 C 4.378906 15 4.464844 14.863281 4.4375 14.722656 C 4.40625 14.582031 4.273438 14.496094 4.136719 14.523438 " fill-opacity="1" fill-rule="nonzero"/><path fill="#4d4d4d" d="M 7.238281 13.453125 C 7.382812 13.3125 7.515625 13.164062 7.640625 13.007812 C 7.726562 12.894531 7.710938 12.734375 7.601562 12.644531 C 7.492188 12.554688 7.332031 12.574219 7.242188 12.683594 C 7.132812 12.824219 7.011719 12.957031 6.882812 13.085938 C 6.785156 13.183594 6.78125 13.347656 6.878906 13.449219 C 6.929688 13.5 6.996094 13.527344 7.0625 13.527344 C 7.125 13.527344 7.191406 13.503906 7.238281 13.453125 " fill-opacity="1" fill-rule="nonzero"/><path fill="#4d4d4d" d="M 17.855469 14.117188 C 17.691406 14.039062 17.527344 13.957031 17.375 13.867188 C 17.25 13.796875 17.097656 13.839844 17.027344 13.964844 C 16.957031 14.085938 17 14.246094 17.121094 14.316406 C 17.289062 14.414062 17.46875 14.503906 17.648438 14.585938 C 17.683594 14.601562 17.71875 14.609375 17.753906 14.609375 C 17.847656 14.609375 17.941406 14.550781 17.984375 14.457031 C 18.042969 14.324219 17.984375 14.171875 17.855469 14.117188 " fill-opacity="1" fill-rule="nonzero"/><path fill="#4d4d4d" d="M 19.621094 14.609375 C 19.617188 14.609375 19.414062 14.59375 19.09375 14.523438 C 18.957031 14.496094 18.820312 14.582031 18.792969 14.722656 C 18.761719 14.863281 18.851562 15 18.988281 15.027344 C 19.34375 15.105469 19.574219 15.121094 19.582031 15.125 C 19.589844 15.125 19.59375 15.125 19.601562 15.125 C 19.734375 15.125 19.84375 15.019531 19.855469 14.886719 C 19.863281 14.742188 19.757812 14.621094 19.621094 14.609375 " fill-opacity="1" fill-rule="nonzero"/><path fill="#4d4d4d" d="M 14.832031 10.882812 C 14.695312 10.925781 14.621094 11.070312 14.664062 11.207031 C 14.71875 11.398438 14.789062 11.589844 14.863281 11.769531 C 14.90625 11.867188 15 11.925781 15.097656 11.925781 C 15.128906 11.925781 15.164062 11.921875 15.195312 11.90625 C 15.324219 11.851562 15.386719 11.699219 15.332031 11.566406 C 15.261719 11.402344 15.199219 11.230469 15.148438 11.054688 C 15.109375 10.921875 14.964844 10.84375 14.832031 10.882812 " fill-opacity="1" fill-rule="nonzero"/><path fill="#4d4d4d" d="M 15.628906 12.644531 C 15.519531 12.734375 15.5 12.894531 15.589844 13.007812 C 15.714844 13.164062 15.847656 13.3125 15.988281 13.453125 C 16.039062 13.503906 16.101562 13.527344 16.167969 13.527344 C 16.234375 13.527344 16.296875 13.5 16.347656 13.449219 C 16.445312 13.347656 16.445312 13.183594 16.34375 13.085938 C 16.21875 12.957031 16.097656 12.824219 15.984375 12.683594 C 15.898438 12.574219 15.738281 12.554688 15.628906 12.644531 " fill-opacity="1" fill-rule="nonzero"/></svg>