<svg xmlns="http://www.w3.org/2000/svg" xmlns:xlink="http://www.w3.org/1999/xlink" zoomAndPan="magnify" preserveAspectRatio="xMidYMid meet" version="1.0" viewBox="0.5 0 22.46 23.9"><defs><clipPath id="3415dce8be"><path d="M 0.5 0 L 22.964844 0 L 22.964844 23.214844 L 0.5 23.214844 Z M 0.5 0 " clip-rule="nonzero"/></clipPath><clipPath id="a84516d94c"><path d="M 8 20 L 10 20 L 10 23.214844 L 8 23.214844 Z M 8 20 " clip-rule="nonzero"/></clipPath></defs><path fill="#040606" d="M 10.496094 5.078125 C 10.433594 5.078125 10.367188 5.046875 10.328125 4.992188 L 9.296875 3.5625 C 9.226562 3.464844 9.25 3.332031 9.34375 3.261719 C 9.4375 3.195312 9.570312 3.214844 9.636719 3.308594 L 10.667969 4.738281 C 10.734375 4.832031 10.714844 4.96875 10.621094 5.035156 C 10.585938 5.0625 10.539062 5.078125 10.496094 5.078125 " fill-opacity="1" fill-rule="nonzero"/><path fill="#040606" d="M 8.9375 12.121094 C 8.878906 12.121094 8.820312 12.097656 8.777344 12.050781 C 8.703125 11.960938 8.707031 11.828125 8.796875 11.75 L 9.859375 10.789062 C 9.945312 10.710938 10.078125 10.71875 10.15625 10.808594 C 10.234375 10.894531 10.226562 11.03125 10.140625 11.109375 L 9.078125 12.066406 C 9.035156 12.105469 8.984375 12.121094 8.9375 12.121094 " fill-opacity="1" fill-rule="nonzero"/><path fill="#040606" d="M 18.496094 8.484375 L 16.933594 8.484375 C 16.816406 8.484375 16.722656 8.390625 16.722656 8.269531 C 16.722656 8.152344 16.816406 8.058594 16.933594 8.058594 L 18.496094 8.058594 C 18.613281 8.058594 18.707031 8.152344 18.707031 8.269531 C 18.707031 8.390625 18.613281 8.484375 18.496094 8.484375 " fill-opacity="1" fill-rule="nonzero"/><path fill="#040606" d="M 15.71875 5.214844 C 15.679688 5.214844 15.636719 5.203125 15.601562 5.179688 C 15.507812 5.117188 15.476562 4.984375 15.542969 4.886719 L 16.363281 3.621094 C 16.425781 3.519531 16.554688 3.492188 16.652344 3.558594 C 16.75 3.621094 16.777344 3.753906 16.714844 3.851562 L 15.894531 5.117188 C 15.855469 5.183594 15.789062 5.214844 15.71875 5.214844 " fill-opacity="1" fill-rule="nonzero"/><path fill="#040606" d="M 18.496094 10.710938 C 18.480469 10.710938 18.460938 10.710938 18.445312 10.707031 L 16.5 10.210938 C 16.386719 10.179688 16.316406 10.0625 16.347656 9.949219 C 16.375 9.835938 16.488281 9.765625 16.601562 9.792969 L 18.546875 10.292969 C 18.660156 10.320312 18.730469 10.4375 18.699219 10.550781 C 18.675781 10.648438 18.589844 10.710938 18.496094 10.710938 " fill-opacity="1" fill-rule="nonzero"/><path fill="#040606" d="M 13.027344 14.222656 C 12.910156 14.222656 12.816406 14.128906 12.816406 14.011719 L 12.792969 12.421875 C 12.792969 12.304688 12.886719 12.207031 13 12.207031 C 13 12.207031 13.003906 12.207031 13.003906 12.207031 C 13.121094 12.207031 13.214844 12.300781 13.214844 12.417969 L 13.238281 14.007812 C 13.238281 14.125 13.144531 14.222656 13.027344 14.222656 " fill-opacity="1" fill-rule="nonzero"/><path fill="#040606" d="M 8.914062 8.484375 L 7.890625 8.484375 C 7.773438 8.484375 7.679688 8.390625 7.679688 8.269531 C 7.679688 8.152344 7.773438 8.058594 7.890625 8.058594 L 8.914062 8.058594 C 9.03125 8.058594 9.128906 8.152344 9.128906 8.269531 C 9.128906 8.390625 9.03125 8.484375 8.914062 8.484375 " fill-opacity="1" fill-rule="nonzero"/><path fill="#040606" d="M 18.53125 13.523438 C 18.484375 13.523438 18.441406 13.511719 18.402344 13.480469 L 15.589844 11.316406 C 15.5 11.242188 15.480469 11.109375 15.550781 11.015625 C 15.621094 10.921875 15.753906 10.902344 15.847656 10.972656 L 18.660156 13.140625 C 18.75 13.210938 18.769531 13.347656 18.699219 13.441406 C 18.65625 13.496094 18.59375 13.523438 18.53125 13.523438 " fill-opacity="1" fill-rule="nonzero"/><path fill="#040606" d="M 12.351562 7.351562 C 12.054688 7.351562 11.636719 7.175781 11.089844 6.539062 C 11.015625 6.449219 11.023438 6.316406 11.113281 6.238281 C 11.199219 6.160156 11.332031 6.167969 11.410156 6.257812 C 11.832031 6.75 12.222656 6.992188 12.445312 6.90625 C 12.671875 6.820312 12.804688 6.390625 12.804688 5.75 C 12.804688 5.628906 12.898438 5.535156 13.015625 5.535156 C 13.132812 5.535156 13.226562 5.628906 13.226562 5.75 C 13.226562 6.839844 12.882812 7.199219 12.59375 7.308594 C 12.527344 7.332031 12.445312 7.351562 12.351562 7.351562 " fill-opacity="1" fill-rule="nonzero"/><path fill="#040606" d="M 10.636719 10.132812 C 10.566406 10.132812 10.496094 10.097656 10.457031 10.03125 C 10.398438 9.933594 10.429688 9.800781 10.527344 9.738281 C 11.105469 9.378906 11.421875 9.023438 11.375 8.78125 C 11.328125 8.546875 10.917969 8.351562 10.28125 8.257812 C 10.164062 8.242188 10.085938 8.132812 10.101562 8.015625 C 10.117188 7.898438 10.226562 7.820312 10.339844 7.835938 C 11.425781 7.996094 11.726562 8.390625 11.785156 8.695312 C 11.847656 9.003906 11.71875 9.5 10.746094 10.105469 C 10.714844 10.125 10.675781 10.132812 10.636719 10.132812 " fill-opacity="1" fill-rule="nonzero"/><path fill="#040606" d="M 13.953125 11.359375 C 13.867188 11.359375 13.785156 11.304688 13.753906 11.214844 C 13.488281 10.453125 13.199219 10.179688 13.015625 10.179688 C 12.832031 10.179688 12.539062 10.453125 12.273438 11.214844 C 12.238281 11.328125 12.113281 11.386719 12.003906 11.347656 C 11.894531 11.308594 11.839844 11.183594 11.875 11.074219 C 12.257812 9.984375 12.707031 9.753906 13.015625 9.753906 C 13.324219 9.753906 13.773438 9.984375 14.152344 11.074219 C 14.191406 11.183594 14.132812 11.308594 14.023438 11.347656 C 14 11.355469 13.976562 11.359375 13.953125 11.359375 " fill-opacity="1" fill-rule="nonzero"/><path fill="#040606" d="M 15.167969 8.304688 C 14.492188 8.304688 14.203125 8.070312 14.082031 7.847656 C 13.9375 7.578125 13.914062 7.082031 14.621094 6.257812 C 14.699219 6.167969 14.832031 6.160156 14.917969 6.238281 C 15.007812 6.316406 15.015625 6.449219 14.9375 6.539062 C 14.523438 7.023438 14.34375 7.433594 14.453125 7.644531 C 14.570312 7.859375 15.03125 7.933594 15.6875 7.835938 C 15.804688 7.820312 15.910156 7.898438 15.925781 8.015625 C 15.945312 8.132812 15.863281 8.242188 15.75 8.257812 C 15.53125 8.289062 15.335938 8.304688 15.167969 8.304688 " fill-opacity="1" fill-rule="nonzero"/><path fill="#040606" d="M 8.914062 6.246094 C 8.878906 6.246094 8.84375 6.238281 8.8125 6.21875 L 6.773438 5.050781 C 6.671875 4.992188 6.636719 4.863281 6.691406 4.757812 C 6.75 4.65625 6.878906 4.621094 6.980469 4.679688 L 9.019531 5.847656 C 9.121094 5.90625 9.15625 6.035156 9.101562 6.136719 C 9.0625 6.207031 8.988281 6.246094 8.914062 6.246094 " fill-opacity="1" fill-rule="nonzero"/><path fill="#040606" d="M 13.1875 4.046875 C 13.070312 4.046875 12.976562 3.949219 12.976562 3.832031 L 12.992188 2.113281 C 12.996094 2 13.089844 1.902344 13.203125 1.902344 C 13.203125 1.902344 13.207031 1.902344 13.207031 1.902344 C 13.324219 1.90625 13.414062 2 13.414062 2.121094 L 13.398438 3.835938 C 13.398438 3.953125 13.304688 4.046875 13.1875 4.046875 " fill-opacity="1" fill-rule="nonzero"/><path fill="#040606" d="M 16.835938 6.535156 C 16.769531 6.535156 16.703125 6.503906 16.664062 6.441406 C 16.597656 6.34375 16.621094 6.210938 16.71875 6.144531 L 18.203125 5.113281 C 18.300781 5.046875 18.429688 5.074219 18.496094 5.167969 C 18.5625 5.265625 18.535156 5.402344 18.441406 5.464844 L 16.957031 6.496094 C 16.917969 6.523438 16.878906 6.535156 16.835938 6.535156 " fill-opacity="1" fill-rule="nonzero"/><path fill="#040606" d="M 15.71875 15.417969 C 15.628906 15.417969 15.546875 15.359375 15.519531 15.269531 L 14.910156 13.378906 C 14.871094 13.265625 14.933594 13.144531 15.042969 13.109375 C 15.152344 13.070312 15.273438 13.132812 15.308594 13.246094 L 15.917969 15.136719 C 15.957031 15.25 15.894531 15.371094 15.785156 15.40625 C 15.761719 15.414062 15.742188 15.417969 15.71875 15.417969 " fill-opacity="1" fill-rule="nonzero"/><g clip-path="url(#3415dce8be)"><path fill="#040606" d="M 21.234375 23.902344 C 21.148438 23.902344 21.070312 23.851562 21.035156 23.765625 C 21.035156 23.765625 19.601562 20.082031 19.59375 20.058594 C 18.703125 17.761719 19.691406 15.839844 20.644531 13.980469 C 20.898438 13.480469 21.164062 12.964844 21.390625 12.453125 C 22.527344 9.839844 22.304688 6.769531 20.804688 4.4375 C 19.160156 1.878906 16.179688 0.46875 12.410156 0.46875 C 7.222656 0.46875 3.003906 4.679688 3.003906 9.859375 C 3.003906 10.480469 2.820312 11.078125 2.464844 11.589844 L 1.214844 13.398438 C 0.953125 13.773438 0.964844 14.277344 1.238281 14.625 C 1.527344 14.988281 1.933594 15.261719 2.453125 15.433594 C 2.539062 15.464844 2.597656 15.546875 2.597656 15.636719 L 2.597656 19.273438 C 2.597656 19.875 3.023438 20.378906 3.613281 20.46875 C 5.441406 20.753906 8.839844 20.925781 11.058594 18.859375 C 11.144531 18.78125 11.277344 18.789062 11.355469 18.875 C 11.4375 18.960938 11.429688 19.097656 11.34375 19.175781 C 8.996094 21.359375 5.453125 21.191406 3.550781 20.890625 C 2.753906 20.769531 2.171875 20.085938 2.171875 19.273438 L 2.171875 15.789062 C 1.648438 15.585938 1.222656 15.285156 0.910156 14.890625 C 0.519531 14.398438 0.5 13.683594 0.867188 13.15625 L 2.121094 11.34375 C 2.421875 10.90625 2.582031 10.394531 2.582031 9.859375 C 2.582031 7.21875 3.609375 4.746094 5.46875 2.898438 C 7.320312 1.054688 9.785156 0.0390625 12.410156 0.0390625 C 16.328125 0.0390625 19.433594 1.519531 21.160156 4.207031 C 22.734375 6.65625 22.972656 9.882812 21.773438 12.625 C 21.542969 13.152344 21.277344 13.671875 21.019531 14.175781 C 20.066406 16.03125 19.167969 17.789062 19.988281 19.902344 C 19.988281 19.902344 20.019531 19.988281 21.429688 23.609375 C 21.472656 23.71875 21.417969 23.84375 21.308594 23.886719 C 21.285156 23.898438 21.257812 23.902344 21.234375 23.902344 " fill-opacity="1" fill-rule="nonzero"/></g><g clip-path="url(#a84516d94c)"><path fill="#040606" d="M 9.449219 23.902344 C 9.367188 23.902344 9.285156 23.851562 9.253906 23.765625 L 8.046875 20.660156 C 8.003906 20.550781 8.054688 20.425781 8.164062 20.382812 C 8.273438 20.339844 8.394531 20.394531 8.4375 20.503906 L 9.644531 23.609375 C 9.6875 23.71875 9.636719 23.84375 9.527344 23.886719 C 9.5 23.898438 9.476562 23.902344 9.449219 23.902344 " fill-opacity="1" fill-rule="nonzero"/></g></svg>