<svg xmlns="http://www.w3.org/2000/svg" xmlns:xlink="http://www.w3.org/1999/xlink" zoomAndPan="magnify" preserveAspectRatio="xMidYMid meet" version="1.0" viewBox="0 0 19.75 25.47"><defs><clipPath id="ba5f446cea"><path d="M 0 0 L 16 0 L 16 25.472656 L 0 25.472656 Z M 0 0 " clip-rule="nonzero"/></clipPath></defs><path fill="#000000" d="M 18.820312 5.488281 C 18.714844 5.59375 18.503906 5.589844 18.386719 5.578125 L 18.304688 6.421875 C 18.371094 6.429688 18.4375 6.433594 18.5 6.433594 C 18.964844 6.433594 19.25 6.25 19.414062 6.089844 C 20.175781 5.320312 19.601562 3.585938 18.078125 2.050781 L 17.484375 2.648438 C 18.75 3.925781 19.121094 5.183594 18.820312 5.488281 Z M 18.820312 5.488281 " fill-opacity="1" fill-rule="nonzero"/><path fill="#000000" d="M 16.246094 1.777344 L 17.085938 1.777344 L 17.085938 1.355469 L 17.507812 1.355469 L 17.507812 0.507812 L 17.085938 0.507812 L 17.085938 0.0859375 L 16.246094 0.0859375 L 16.246094 0.507812 L 15.828125 0.507812 L 15.828125 1.355469 L 16.246094 1.355469 Z M 16.246094 1.777344 " fill-opacity="1" fill-rule="nonzero"/><path fill="#000000" d="M 16.246094 8.125 L 17.085938 8.125 L 17.085938 7.703125 L 17.507812 7.703125 L 17.507812 6.855469 L 17.085938 6.855469 L 17.085938 6.433594 L 16.246094 6.433594 L 16.246094 6.855469 L 15.828125 6.855469 L 15.828125 7.703125 L 16.246094 7.703125 Z M 16.246094 8.125 " fill-opacity="1" fill-rule="nonzero"/><g clip-path="url(#ba5f446cea)"><path fill="#000000" d="M 1.941406 17.597656 C 1.984375 17.597656 2.019531 17.597656 2.046875 17.597656 C 2.175781 17.589844 4.378906 17.464844 6.402344 17.277344 L 6.167969 25.039062 C 6.164062 25.152344 6.207031 25.265625 6.285156 25.347656 C 6.363281 25.429688 6.472656 25.472656 6.585938 25.472656 L 14.988281 25.472656 C 15.21875 25.472656 15.40625 25.285156 15.40625 25.050781 L 15.40625 14.191406 C 15.40625 12.148438 14.179688 10.375 12.398438 9.691406 C 13.15625 8.914062 13.644531 7.871094 13.710938 6.714844 C 14.082031 6.710938 14.390625 6.597656 14.617188 6.371094 C 15.019531 5.964844 15.066406 5.292969 14.75 4.472656 C 14.476562 3.769531 13.957031 3.011719 13.28125 2.332031 C 13.113281 2.160156 12.933594 1.996094 12.753906 1.84375 L 12.214844 2.492188 C 12.375 2.628906 12.535156 2.773438 12.6875 2.929688 C 13.28125 3.527344 13.738281 4.1875 13.96875 4.78125 C 14.144531 5.238281 14.167969 5.625 14.023438 5.769531 C 13.957031 5.835938 13.835938 5.863281 13.6875 5.863281 C 13.40625 3.5625 11.460938 1.777344 9.105469 1.777344 C 9.042969 1.777344 8.980469 1.785156 8.917969 1.785156 C 8.359375 1.171875 7.742188 0.675781 7.148438 0.382812 C 6.367188 -0.0078125 5.699219 -0.015625 5.265625 0.355469 C 4.730469 0.808594 4.699219 1.691406 5.175781 2.78125 L 5.945312 2.441406 C 5.605469 1.660156 5.632812 1.148438 5.804688 1.003906 C 5.960938 0.871094 6.34375 0.925781 6.777344 1.140625 C 7.144531 1.320312 7.523438 1.601562 7.890625 1.945312 C 6.148438 2.425781 4.816406 3.910156 4.542969 5.742188 C 4.472656 5.703125 4.398438 5.667969 4.316406 5.640625 C 3.917969 5.507812 3.480469 5.542969 3.113281 5.746094 C 2.75 5.949219 2.480469 6.296875 2.378906 6.707031 C 2.128906 7.710938 1.855469 8.738281 1.589844 9.730469 C 1.0625 11.683594 0.519531 13.707031 0.136719 15.71875 C 0.03125 16.261719 0.121094 16.75 0.386719 17.089844 C 0.742188 17.546875 1.566406 17.597656 1.941406 17.597656 Z M 8.570312 2.667969 C 8.683594 2.808594 8.796875 2.949219 8.894531 3.09375 L 9.527344 2.648438 C 11.136719 2.828125 12.441406 4.03125 12.792969 5.597656 C 12.269531 5.34375 11.714844 4.941406 11.203125 4.425781 C 10.851562 4.070312 10.539062 3.683594 10.296875 3.300781 L 9.589844 3.757812 C 9.867188 4.195312 10.210938 4.621094 10.609375 5.023438 C 11.285156 5.703125 12.039062 6.230469 12.738281 6.503906 C 12.785156 6.523438 12.832031 6.539062 12.878906 6.554688 C 12.816406 8.597656 11.148438 10.242188 9.105469 10.242188 C 7.023438 10.242188 5.328125 8.53125 5.328125 6.433594 C 5.328125 4.515625 6.738281 2.929688 8.570312 2.667969 Z M 7.5 10.792969 C 7.164062 11.136719 6.875 11.527344 6.660156 11.957031 C 6.246094 12.78125 5.574219 13.253906 4.65625 13.371094 L 5.148438 8.820312 C 5.683594 9.71875 6.511719 10.421875 7.5 10.792969 Z M 0.960938 15.878906 C 1.339844 13.898438 1.878906 11.890625 2.398438 9.949219 C 2.667969 8.953125 2.941406 7.925781 3.195312 6.914062 C 3.238281 6.730469 3.355469 6.578125 3.519531 6.488281 C 3.683594 6.398438 3.871094 6.382812 4.050781 6.441406 C 4.355469 6.546875 4.542969 6.90625 4.472656 7.292969 L 3.652344 14.847656 L 4.484375 14.941406 L 4.5625 14.226562 C 5.855469 14.121094 6.839844 13.476562 7.410156 12.335938 C 7.664062 11.832031 8.035156 11.386719 8.484375 11.039062 C 8.6875 11.066406 8.894531 11.085938 9.105469 11.085938 C 10.03125 11.085938 10.886719 10.808594 11.609375 10.339844 C 13.304688 10.730469 14.566406 12.355469 14.566406 14.191406 L 14.566406 24.628906 L 7.019531 24.628906 L 7.246094 17.195312 C 7.808594 17.136719 8.328125 17.074219 8.75 17.007812 L 8.621094 16.171875 C 6.582031 16.492188 2.042969 16.75 2.011719 16.753906 C 1.605469 16.761719 1.132812 16.671875 1.046875 16.566406 C 0.933594 16.425781 0.902344 16.171875 0.960938 15.878906 Z M 0.960938 15.878906 " fill-opacity="1" fill-rule="nonzero"/></g><path fill="#000000" d="M 11.625 0.507812 L 12.464844 0.507812 L 12.464844 1.355469 L 11.625 1.355469 Z M 11.625 0.507812 " fill-opacity="1" fill-rule="nonzero"/></svg>