<svg xmlns="http://www.w3.org/2000/svg" xmlns:xlink="http://www.w3.org/1999/xlink" zoomAndPan="magnify" preserveAspectRatio="xMidYMid meet" version="1.0" viewBox="0 0 22.48 22.48"><defs><clipPath id="2aa277b16f"><path d="M 0 0 L 22.476562 0 L 22.476562 22.476562 L 0 22.476562 Z M 0 0 " clip-rule="nonzero"/></clipPath></defs><g clip-path="url(#2aa277b16f)"><path fill="#000000" d="M 19.183594 3.292969 C 17.058594 1.167969 14.242188 0 11.238281 0 C 8.234375 0 5.414062 1.167969 3.292969 3.292969 C 1.167969 5.417969 0 8.234375 0 11.238281 C 0 14.242188 1.167969 17.066406 3.292969 19.183594 C 5.417969 21.308594 8.234375 22.476562 11.238281 22.476562 C 14.242188 22.476562 17.066406 21.308594 19.183594 19.183594 C 21.308594 17.058594 22.476562 14.242188 22.476562 11.238281 C 22.476562 8.234375 21.308594 5.414062 19.183594 3.292969 Z M 11.238281 22.125 C 5.238281 22.125 0.351562 17.238281 0.351562 11.238281 C 0.351562 5.238281 5.238281 0.351562 11.238281 0.351562 C 17.238281 0.351562 22.125 5.238281 22.125 11.238281 C 22.125 17.238281 17.238281 22.125 11.238281 22.125 Z M 1.386719 8.648438 C 1.367188 8.726562 1.296875 8.78125 1.214844 8.78125 C 1.203125 8.78125 1.183594 8.78125 1.171875 8.777344 C 1.078125 8.75 1.023438 8.65625 1.042969 8.5625 C 2.257812 3.933594 6.449219 0.703125 11.238281 0.703125 C 11.335938 0.703125 11.414062 0.78125 11.414062 0.878906 C 11.414062 0.976562 11.335938 1.054688 11.238281 1.054688 C 6.613281 1.054688 2.558594 4.175781 1.386719 8.648438 Z M 1.183594 9.597656 C 1.097656 10.132812 1.054688 10.6875 1.054688 11.238281 C 1.054688 11.335938 0.976562 11.414062 0.878906 11.414062 C 0.78125 11.414062 0.703125 11.335938 0.703125 11.238281 C 0.703125 10.667969 0.746094 10.097656 0.839844 9.542969 C 0.855469 9.449219 0.945312 9.382812 1.039062 9.398438 C 1.136719 9.414062 1.203125 9.503906 1.183594 9.597656 Z M 18.003906 4.472656 C 16.199219 2.664062 13.792969 1.667969 11.238281 1.667969 C 8.683594 1.667969 6.277344 2.664062 4.472656 4.472656 C 2.667969 6.28125 1.667969 8.683594 1.667969 11.238281 C 1.667969 13.792969 2.664062 16.199219 4.472656 18.003906 C 6.28125 19.808594 8.683594 20.808594 11.238281 20.808594 C 13.792969 20.808594 16.199219 19.8125 18.003906 18.003906 C 19.808594 16.195312 20.808594 13.792969 20.808594 11.238281 C 20.808594 8.683594 19.8125 6.277344 18.003906 4.472656 Z M 11.238281 20.457031 C 6.15625 20.457031 2.019531 16.324219 2.019531 11.238281 C 2.019531 6.15625 6.15625 2.019531 11.238281 2.019531 C 16.324219 2.019531 20.457031 6.15625 20.457031 11.238281 C 20.457031 16.324219 16.324219 20.457031 11.238281 20.457031 Z M 16.988281 11.628906 C 16.988281 11.53125 16.910156 11.453125 16.8125 11.453125 L 15.960938 11.453125 C 15.691406 10.835938 15.070312 10.40625 14.355469 10.40625 C 13.636719 10.40625 13.015625 10.839844 12.75 11.457031 L 11.898438 11.457031 C 11.800781 11.457031 11.722656 11.539062 11.722656 11.632812 C 11.722656 11.730469 11.800781 11.808594 11.898438 11.808594 L 12.636719 11.808594 C 12.613281 11.921875 12.601562 12.042969 12.601562 12.160156 L 12.601562 12.773438 L 11.898438 12.773438 C 11.800781 12.773438 11.722656 12.855469 11.722656 12.949219 C 11.722656 13.046875 11.800781 13.125 11.898438 13.125 L 12.601562 13.125 L 12.601562 14.09375 L 11.898438 14.09375 C 11.800781 14.09375 11.722656 14.171875 11.722656 14.269531 C 11.722656 14.363281 11.800781 14.445312 11.898438 14.445312 L 12.601562 14.445312 L 12.601562 15.410156 L 11.898438 15.410156 C 11.800781 15.410156 11.722656 15.488281 11.722656 15.585938 C 11.722656 15.679688 11.800781 15.761719 11.898438 15.761719 L 12.601562 15.761719 L 12.601562 16.375 C 12.601562 16.492188 12.613281 16.613281 12.636719 16.726562 L 11.898438 16.726562 C 11.800781 16.726562 11.722656 16.804688 11.722656 16.902344 C 11.722656 17 11.800781 17.078125 11.898438 17.078125 L 12.75 17.078125 C 13.019531 17.695312 13.640625 18.132812 14.355469 18.132812 C 15.074219 18.132812 15.695312 17.695312 15.96875 17.074219 L 16.8125 17.074219 C 16.910156 17.074219 16.988281 16.996094 16.988281 16.898438 C 16.988281 16.800781 16.910156 16.722656 16.8125 16.722656 L 16.078125 16.722656 C 16.097656 16.609375 16.113281 16.492188 16.113281 16.375 L 16.113281 15.757812 L 16.8125 15.757812 C 16.910156 15.757812 16.988281 15.675781 16.988281 15.582031 C 16.988281 15.484375 16.910156 15.40625 16.8125 15.40625 L 16.113281 15.40625 L 16.113281 14.4375 L 16.8125 14.4375 C 16.910156 14.4375 16.988281 14.359375 16.988281 14.261719 C 16.988281 14.167969 16.910156 14.089844 16.8125 14.089844 L 16.113281 14.089844 L 16.113281 13.121094 L 16.8125 13.121094 C 16.910156 13.121094 16.988281 13.042969 16.988281 12.945312 C 16.988281 12.851562 16.910156 12.769531 16.8125 12.769531 L 16.113281 12.769531 L 16.113281 12.160156 C 16.113281 12.039062 16.097656 11.917969 16.078125 11.804688 L 16.8125 11.804688 C 16.910156 11.804688 16.988281 11.730469 16.988281 11.628906 Z M 14.355469 17.78125 C 13.582031 17.78125 12.949219 17.148438 12.949219 16.375 L 12.949219 12.160156 C 12.949219 11.386719 13.582031 10.753906 14.355469 10.753906 C 15.128906 10.753906 15.761719 11.386719 15.761719 12.160156 L 15.761719 16.375 C 15.761719 17.148438 15.128906 17.78125 14.355469 17.78125 Z M 14.53125 11.28125 C 14.53125 11.378906 14.453125 11.457031 14.355469 11.457031 C 13.96875 11.457031 13.652344 11.773438 13.652344 12.160156 L 13.652344 15.410156 C 13.652344 15.507812 13.574219 15.585938 13.476562 15.585938 C 13.382812 15.585938 13.300781 15.507812 13.300781 15.410156 L 13.300781 12.160156 C 13.300781 11.582031 13.777344 11.105469 14.355469 11.105469 C 14.453125 11.105469 14.53125 11.1875 14.53125 11.28125 Z M 10.722656 6.875 C 10.800781 6.671875 10.839844 6.457031 10.839844 6.234375 C 10.839844 5.765625 10.65625 5.324219 10.324219 4.992188 C 9.816406 4.480469 9.074219 4.351562 8.441406 4.601562 L 7.839844 4 C 7.769531 3.929688 7.660156 3.929688 7.589844 4 C 7.519531 4.070312 7.519531 4.179688 7.589844 4.25 L 8.113281 4.773438 C 8.015625 4.839844 7.925781 4.914062 7.839844 4.996094 L 7.40625 5.429688 L 6.910156 4.933594 C 6.839844 4.863281 6.730469 4.863281 6.660156 4.933594 C 6.589844 5.003906 6.589844 5.113281 6.660156 5.183594 L 7.15625 5.679688 L 6.472656 6.367188 L 5.976562 5.871094 C 5.90625 5.800781 5.796875 5.800781 5.726562 5.871094 C 5.65625 5.941406 5.65625 6.050781 5.726562 6.121094 L 6.222656 6.617188 L 5.535156 7.300781 L 5.046875 6.796875 C 4.976562 6.726562 4.867188 6.726562 4.796875 6.796875 C 4.726562 6.867188 4.726562 6.976562 4.796875 7.046875 L 5.292969 7.542969 L 4.859375 7.976562 C 4.777344 8.058594 4.703125 8.152344 4.636719 8.25 L 4.117188 7.726562 C 4.046875 7.65625 3.9375 7.65625 3.867188 7.726562 C 3.796875 7.796875 3.796875 7.90625 3.867188 7.976562 L 4.46875 8.578125 C 4.390625 8.78125 4.347656 8.996094 4.347656 9.21875 C 4.347656 9.6875 4.53125 10.128906 4.859375 10.460938 C 5.203125 10.804688 5.648438 10.976562 6.101562 10.976562 C 6.320312 10.976562 6.542969 10.9375 6.746094 10.851562 L 7.347656 11.453125 C 7.382812 11.488281 7.429688 11.507812 7.472656 11.507812 C 7.515625 11.507812 7.558594 11.488281 7.59375 11.453125 C 7.664062 11.382812 7.664062 11.273438 7.59375 11.203125 L 7.074219 10.679688 C 7.167969 10.621094 7.261719 10.546875 7.34375 10.457031 L 7.78125 10.023438 L 8.277344 10.519531 C 8.308594 10.554688 8.355469 10.570312 8.398438 10.570312 C 8.441406 10.570312 8.484375 10.554688 8.519531 10.519531 C 8.589844 10.449219 8.589844 10.339844 8.519531 10.269531 L 8.023438 9.773438 L 8.710938 9.085938 L 9.207031 9.582031 C 9.242188 9.617188 9.285156 9.636719 9.328125 9.636719 C 9.371094 9.636719 9.417969 9.617188 9.453125 9.582031 C 9.523438 9.511719 9.523438 9.402344 9.453125 9.332031 L 8.957031 8.835938 L 9.640625 8.152344 L 10.136719 8.648438 C 10.171875 8.683594 10.214844 8.703125 10.257812 8.703125 C 10.304688 8.703125 10.347656 8.683594 10.382812 8.648438 C 10.453125 8.578125 10.453125 8.46875 10.382812 8.398438 L 9.886719 7.902344 L 10.320312 7.46875 C 10.40625 7.382812 10.480469 7.292969 10.546875 7.191406 L 11.066406 7.714844 C 11.101562 7.75 11.148438 7.765625 11.191406 7.765625 C 11.234375 7.765625 11.277344 7.75 11.3125 7.714844 C 11.382812 7.644531 11.382812 7.535156 11.3125 7.464844 Z M 10.078125 7.230469 L 7.097656 10.210938 C 6.550781 10.761719 5.660156 10.761719 5.109375 10.210938 C 4.5625 9.664062 4.5625 8.773438 5.109375 8.222656 L 8.085938 5.246094 C 8.359375 4.972656 8.71875 4.832031 9.078125 4.832031 C 9.4375 4.832031 9.796875 4.96875 10.070312 5.246094 C 10.625 5.789062 10.625 6.683594 10.078125 7.230469 Z M 9.828125 5.492188 C 9.898438 5.5625 9.898438 5.671875 9.828125 5.742188 C 9.757812 5.8125 9.648438 5.8125 9.578125 5.742188 C 9.308594 5.46875 8.859375 5.46875 8.585938 5.742188 L 6.292969 8.039062 C 6.257812 8.074219 6.210938 8.089844 6.167969 8.089844 C 6.125 8.089844 6.082031 8.074219 6.046875 8.039062 C 5.976562 7.96875 5.976562 7.859375 6.046875 7.789062 L 8.339844 5.492188 C 8.75 5.078125 9.421875 5.078125 9.828125 5.492188 Z M 5.925781 13.214844 C 5.105469 13.214844 4.433594 13.886719 4.433594 14.707031 C 4.433594 15.527344 5.105469 16.199219 5.925781 16.199219 C 6.746094 16.199219 7.417969 15.527344 7.417969 14.707031 C 7.417969 13.886719 6.746094 13.214844 5.925781 13.214844 Z M 5.925781 15.847656 C 5.300781 15.847656 4.785156 15.335938 4.785156 14.707031 C 4.785156 14.078125 5.300781 13.566406 5.925781 13.566406 C 6.554688 13.566406 7.066406 14.078125 7.066406 14.707031 C 7.066406 15.335938 6.554688 15.847656 5.925781 15.847656 Z M 6.101562 14.09375 C 6.101562 14.1875 6.023438 14.269531 5.925781 14.269531 C 5.683594 14.269531 5.488281 14.464844 5.488281 14.707031 C 5.488281 14.804688 5.410156 14.882812 5.3125 14.882812 C 5.214844 14.882812 5.136719 14.804688 5.136719 14.707031 C 5.136719 14.273438 5.492188 13.917969 5.925781 13.917969 C 6.023438 13.917969 6.101562 13.996094 6.101562 14.09375 Z M 9.351562 16.464844 C 8.820312 16.464844 8.386719 16.898438 8.386719 17.429688 C 8.386719 17.960938 8.820312 18.394531 9.351562 18.394531 C 9.882812 18.394531 10.316406 17.960938 10.316406 17.429688 C 10.316406 16.898438 9.882812 16.464844 9.351562 16.464844 Z M 9.351562 18.042969 C 9.011719 18.042969 8.738281 17.765625 8.738281 17.429688 C 8.738281 17.089844 9.011719 16.8125 9.351562 16.8125 C 9.6875 16.8125 9.964844 17.089844 9.964844 17.429688 C 9.964844 17.765625 9.6875 18.042969 9.351562 18.042969 Z M 12.425781 5.398438 C 12.957031 5.398438 13.390625 4.964844 13.390625 4.433594 C 13.390625 3.902344 12.957031 3.46875 12.425781 3.46875 C 11.894531 3.46875 11.457031 3.902344 11.457031 4.433594 C 11.457031 4.964844 11.894531 5.398438 12.425781 5.398438 Z M 12.425781 3.820312 C 12.761719 3.820312 13.039062 4.097656 13.039062 4.433594 C 13.039062 4.773438 12.761719 5.046875 12.425781 5.046875 C 12.085938 5.046875 11.808594 4.773438 11.808594 4.433594 C 11.808594 4.097656 12.085938 3.820312 12.425781 3.820312 Z M 17.066406 5.867188 L 15.867188 5.167969 C 15.667969 5.054688 15.425781 5.035156 15.21875 5.125 C 14.855469 5.273438 14.675781 5.679688 14.808594 6.050781 L 15.203125 7.148438 C 15.320312 7.480469 15.171875 7.84375 14.855469 8 C 14.613281 8.117188 14.433594 8.320312 14.347656 8.578125 C 14.257812 8.835938 14.28125 9.105469 14.410156 9.347656 C 14.585938 9.683594 14.921875 9.882812 15.285156 9.882812 C 15.390625 9.882812 15.496094 9.863281 15.601562 9.828125 L 16.699219 9.464844 C 17.460938 9.210938 17.992188 8.535156 18.046875 7.734375 C 18.101562 6.976562 17.71875 6.242188 17.066406 5.867188 Z M 17.695312 7.699219 C 17.648438 8.359375 17.210938 8.917969 16.585938 9.128906 L 15.488281 9.492188 C 15.191406 9.59375 14.863281 9.460938 14.71875 9.179688 C 14.640625 9.027344 14.628906 8.851562 14.679688 8.683594 C 14.734375 8.515625 14.851562 8.386719 15.011719 8.3125 C 15.488281 8.078125 15.710938 7.523438 15.535156 7.023438 L 15.140625 5.925781 C 15.070312 5.734375 15.167969 5.523438 15.355469 5.445312 C 15.464844 5.398438 15.59375 5.410156 15.695312 5.464844 L 16.894531 6.164062 C 17.425781 6.480469 17.742188 7.082031 17.695312 7.699219 Z M 17.695312 7.699219 " fill-opacity="1" fill-rule="nonzero"/></g></svg>