<svg xmlns="http://www.w3.org/2000/svg" xmlns:xlink="http://www.w3.org/1999/xlink" zoomAndPan="magnify" preserveAspectRatio="xMidYMid meet" version="1.0" viewBox="0 0 22.48 22.48"><defs><clipPath id="7cfa3d65d0"><path d="M 0 0 L 22.476562 0 L 22.476562 22.476562 L 0 22.476562 Z M 0 0 " clip-rule="nonzero"/></clipPath></defs><path fill="#000000" d="M 10.890625 14.605469 L 10.164062 13.878906 L 9.652344 14.390625 L 10.378906 15.117188 L 10.890625 14.605469 " fill-opacity="1" fill-rule="nonzero"/><path fill="#000000" d="M 5.226562 11.113281 C 5.53125 10.808594 6.066406 10.808594 6.375 11.113281 L 8.9375 13.675781 L 9.453125 13.164062 L 6.886719 10.601562 C 6.597656 10.3125 6.210938 10.152344 5.800781 10.152344 C 5.390625 10.152344 5.003906 10.3125 4.714844 10.601562 L 3.953125 11.363281 L 4.464844 11.875 L 5.226562 11.113281 " fill-opacity="1" fill-rule="nonzero"/><g clip-path="url(#7cfa3d65d0)"><path fill="#000000" d="M 21.753906 9.0625 C 21.753906 9.664062 21.265625 10.152344 20.664062 10.152344 L 11.238281 10.152344 C 10.636719 10.152344 10.152344 9.664062 10.152344 9.0625 L 10.152344 1.8125 C 10.152344 1.210938 10.636719 0.726562 11.238281 0.726562 L 20.664062 0.726562 C 21.265625 0.726562 21.753906 1.210938 21.753906 1.8125 Z M 9.0625 4.714844 C 8.863281 4.714844 8.699219 4.550781 8.699219 4.351562 L 8.699219 2.898438 C 8.699219 2.699219 8.863281 2.539062 9.0625 2.539062 L 9.425781 2.539062 L 9.425781 4.714844 Z M 1.449219 7.058594 C 1.449219 8.164062 2.050781 9.1875 3.011719 9.730469 L 3.347656 9.917969 L 2.8125 10.449219 L 2.65625 10.363281 C 1.464844 9.691406 0.726562 8.425781 0.726562 7.058594 C 0.726562 4.964844 2.425781 3.261719 4.519531 3.261719 L 7.976562 3.261719 L 7.976562 3.988281 L 4.519531 3.988281 C 2.828125 3.988281 1.449219 5.363281 1.449219 7.058594 Z M 5.800781 9.425781 C 6.40625 9.425781 6.972656 9.660156 7.402344 10.089844 L 13.167969 15.855469 L 14.121094 16.75 C 13.917969 16.816406 13.738281 16.929688 13.582031 17.082031 L 10.664062 20.003906 C 10.234375 20.429688 9.667969 20.664062 9.0625 20.664062 C 8.457031 20.664062 7.890625 20.429688 7.464844 20.003906 L 6.675781 19.214844 L 7.039062 18.851562 L 3.625 15.4375 L 3.261719 15.800781 L 2.476562 15.015625 C 2.046875 14.585938 1.8125 14.019531 1.8125 13.414062 C 1.8125 12.808594 2.046875 12.242188 2.476562 11.8125 L 4.199219 10.089844 C 4.628906 9.660156 5.195312 9.425781 5.800781 9.425781 Z M 14.949219 17.527344 L 14.976562 17.550781 L 14.976562 17.546875 C 15.128906 17.667969 15.226562 17.855469 15.226562 18.066406 C 15.226562 18.238281 15.15625 18.410156 15.03125 18.535156 L 12.945312 20.621094 C 12.433594 21.128906 11.554688 21.148438 11.027344 20.664062 L 14.09375 17.597656 C 14.320312 17.371094 14.707031 17.351562 14.949219 17.527344 Z M 6.375 21.089844 L 5.589844 20.300781 L 6.164062 19.726562 L 6.949219 20.515625 C 7.515625 21.078125 8.265625 21.390625 9.0625 21.390625 C 9.113281 21.390625 9.164062 21.386719 9.214844 21.382812 C 8.851562 21.625 8.421875 21.753906 7.976562 21.753906 C 7.371094 21.753906 6.804688 21.515625 6.375 21.089844 Z M 5.074219 19.789062 L 2.6875 17.402344 L 3.625 16.464844 L 6.011719 18.851562 Z M 0.726562 14.5 C 0.726562 14.054688 0.855469 13.628906 1.09375 13.261719 C 1.09375 13.3125 1.085938 13.363281 1.085938 13.414062 C 1.085938 14.210938 1.398438 14.960938 1.960938 15.527344 L 2.75 16.3125 L 2.175781 16.890625 L 1.386719 16.101562 C 0.960938 15.675781 0.726562 15.105469 0.726562 14.5 Z M 20.664062 0 L 11.238281 0 C 10.238281 0 9.425781 0.8125 9.425781 1.8125 L 9.0625 1.8125 C 8.59375 1.8125 8.191406 2.117188 8.042969 2.539062 L 4.519531 2.539062 C 2.027344 2.539062 0 4.566406 0 7.058594 C 0 8.679688 0.875 10.179688 2.28125 10.984375 L 0.875 12.390625 C 0.3125 12.953125 0 13.703125 0 14.5 C 0 15.300781 0.3125 16.050781 0.875 16.613281 L 5.863281 21.601562 C 6.425781 22.164062 7.175781 22.476562 7.976562 22.476562 C 8.773438 22.476562 9.523438 22.164062 10.089844 21.601562 L 10.515625 21.175781 C 10.90625 21.546875 11.421875 21.753906 11.964844 21.753906 C 12.527344 21.753906 13.058594 21.53125 13.457031 21.132812 L 15.546875 19.046875 C 15.808594 18.785156 15.953125 18.4375 15.953125 18.066406 C 15.953125 17.621094 15.742188 17.226562 15.421875 16.972656 L 13.671875 15.332031 L 7.914062 9.578125 C 7.351562 9.011719 6.597656 8.699219 5.800781 8.699219 C 5.09375 8.699219 4.425781 8.945312 3.890625 9.390625 L 3.367188 9.097656 C 2.632812 8.683594 2.175781 7.902344 2.175781 7.058594 C 2.175781 5.765625 3.226562 4.714844 4.519531 4.714844 L 8.042969 4.714844 C 8.191406 5.132812 8.59375 5.4375 9.0625 5.4375 L 9.425781 5.4375 L 9.425781 9.0625 C 9.425781 10.0625 10.238281 10.875 11.238281 10.875 L 20.664062 10.875 C 21.664062 10.875 22.476562 10.0625 22.476562 9.0625 L 22.476562 1.8125 C 22.476562 0.8125 21.664062 0 20.664062 0 " fill-opacity="1" fill-rule="nonzero"/></g><path fill="#000000" d="M 11.601562 5.800781 L 11.601562 4.351562 L 12.539062 4.351562 L 13.511719 5.324219 L 14.238281 3.875 L 14.714844 4.351562 L 16.890625 4.351562 L 17.765625 5.226562 L 18.640625 4.351562 L 20.300781 4.351562 L 20.300781 5.800781 Z M 20.300781 2.175781 L 20.300781 3.625 L 18.339844 3.625 L 17.765625 4.199219 L 17.191406 3.625 L 15.015625 3.625 L 14.039062 2.652344 L 13.316406 4.101562 L 12.839844 3.625 L 11.601562 3.625 L 11.601562 2.175781 Z M 20.300781 1.449219 L 11.601562 1.449219 C 11.203125 1.449219 10.875 1.777344 10.875 2.175781 L 10.875 5.800781 C 10.875 6.199219 11.203125 6.527344 11.601562 6.527344 L 20.300781 6.527344 C 20.703125 6.527344 21.027344 6.199219 21.027344 5.800781 L 21.027344 2.175781 C 21.027344 1.777344 20.703125 1.449219 20.300781 1.449219 " fill-opacity="1" fill-rule="nonzero"/><path fill="#000000" d="M 19.941406 8.699219 L 18.851562 8.699219 L 18.851562 7.976562 L 19.941406 7.976562 C 20.140625 7.976562 20.300781 8.140625 20.300781 8.339844 C 20.300781 8.539062 20.140625 8.699219 19.941406 8.699219 Z M 19.941406 7.25 L 18.128906 7.25 L 18.128906 9.425781 L 19.941406 9.425781 C 20.539062 9.425781 21.027344 8.9375 21.027344 8.339844 C 21.027344 7.738281 20.539062 7.25 19.941406 7.25 " fill-opacity="1" fill-rule="nonzero"/><path fill="#000000" d="M 16.675781 8.699219 L 15.589844 8.699219 C 15.390625 8.699219 15.226562 8.539062 15.226562 8.339844 C 15.226562 8.140625 15.390625 7.976562 15.589844 7.976562 L 16.675781 7.976562 Z M 14.5 8.339844 C 14.5 8.9375 14.988281 9.425781 15.589844 9.425781 L 17.402344 9.425781 L 17.402344 7.25 L 15.589844 7.25 C 14.988281 7.25 14.5 7.738281 14.5 8.339844 " fill-opacity="1" fill-rule="nonzero"/><path fill="#000000" d="M 11.964844 8.699219 C 11.765625 8.699219 11.601562 8.539062 11.601562 8.339844 C 11.601562 8.140625 11.765625 7.976562 11.964844 7.976562 C 12.164062 7.976562 12.328125 8.140625 12.328125 8.339844 C 12.328125 8.539062 12.164062 8.699219 11.964844 8.699219 Z M 11.964844 7.25 C 11.363281 7.25 10.875 7.738281 10.875 8.339844 C 10.875 8.9375 11.363281 9.425781 11.964844 9.425781 C 12.5625 9.425781 13.050781 8.9375 13.050781 8.339844 C 13.050781 7.738281 12.5625 7.25 11.964844 7.25 " fill-opacity="1" fill-rule="nonzero"/></svg>