<svg xmlns="http://www.w3.org/2000/svg" xmlns:xlink="http://www.w3.org/1999/xlink" zoomAndPan="magnify" preserveAspectRatio="xMidYMid meet" version="1.0" viewBox="0 -0.06 21 24.79"><defs><clipPath id="06957e008f"><path d="M 0 0 L 20.976562 0 L 20.976562 24.726562 L 0 24.726562 Z M 0 0 " clip-rule="nonzero"/></clipPath><clipPath id="504303ff18"><path d="M 5 0 L 20.976562 0 L 20.976562 15 L 5 15 Z M 5 0 " clip-rule="nonzero"/></clipPath></defs><g clip-path="url(#06957e008f)"><path fill="#000000" d="M 2.355469 9.429688 C 2.355469 4.191406 6.527344 -0.0585938 11.675781 -0.0585938 C 16.820312 -0.0585938 20.996094 4.191406 20.996094 9.429688 C 20.996094 12.101562 19.910156 14.515625 18.164062 16.238281 L 18.675781 20.902344 C 18.753906 21.625 18.289062 22.296875 17.59375 22.460938 L 16.367188 22.753906 C 15.910156 22.863281 15.457031 22.578125 15.347656 22.113281 C 15.242188 21.648438 15.523438 21.183594 15.980469 21.078125 L 16.964844 20.839844 L 16.464844 16.292969 C 16.414062 15.824219 16.597656 15.375 16.910156 15.074219 C 18.382812 13.65625 19.300781 11.652344 19.300781 9.429688 C 19.300781 5.144531 15.886719 1.667969 11.675781 1.667969 C 7.464844 1.667969 4.050781 5.144531 4.050781 9.429688 C 4.050781 9.601562 4.054688 9.769531 4.066406 9.9375 C 4.078125 10.136719 4.023438 10.328125 3.921875 10.480469 L 2.125 14.59375 L 3.542969 14.953125 C 4.171875 15.113281 4.613281 15.6875 4.613281 16.347656 L 4.613281 19.207031 C 4.613281 19.363281 4.742188 19.492188 4.894531 19.492188 L 7.460938 19.492188 C 8.191406 19.492188 8.800781 20.058594 8.867188 20.800781 L 9.039062 22.738281 L 11.492188 22.152344 C 11.945312 22.042969 12.402344 22.328125 12.507812 22.792969 C 12.617188 23.257812 12.335938 23.722656 11.878906 23.832031 L 9.113281 24.492188 C 8.277344 24.695312 7.460938 24.09375 7.382812 23.222656 L 7.203125 21.21875 L 4.894531 21.21875 C 3.804688 21.21875 2.917969 20.316406 2.917969 19.207031 L 2.917969 16.574219 L 1.390625 16.183594 C 0.539062 15.964844 0.0859375 15.019531 0.441406 14.203125 L 2.363281 9.804688 C 2.355469 9.679688 2.355469 9.554688 2.355469 9.429688 Z M 2.355469 9.429688 " fill-opacity="1" fill-rule="evenodd"/></g><g clip-path="url(#504303ff18)"><path fill="#000000" d="M 12.238281 -0.0585938 C 12.707031 -0.0585938 13.085938 0.328125 13.085938 0.804688 L 13.085938 5.980469 C 13.085938 6.457031 12.707031 6.84375 12.238281 6.84375 L 10.34375 6.84375 C 10.136719 6.84375 9.9375 6.765625 9.785156 6.625 C 9.535156 6.402344 9.207031 6.269531 8.851562 6.269531 C 8.070312 6.269531 7.4375 6.910156 7.4375 7.707031 C 7.4375 8.5 8.070312 9.144531 8.851562 9.144531 C 9.207031 9.144531 9.535156 9.007812 9.785156 8.785156 C 9.9375 8.644531 10.136719 8.566406 10.34375 8.566406 L 12.238281 8.566406 C 12.707031 8.566406 13.085938 8.953125 13.085938 9.429688 L 13.085938 12.59375 L 14.332031 12.59375 C 14.257812 12.320312 14.214844 12.027344 14.214844 11.730469 C 14.214844 9.984375 15.605469 8.566406 17.324219 8.566406 L 20.148438 8.566406 C 20.613281 8.566406 20.996094 8.953125 20.996094 9.429688 C 20.996094 9.90625 20.613281 10.292969 20.148438 10.292969 L 17.324219 10.292969 C 16.542969 10.292969 15.910156 10.9375 15.910156 11.730469 C 15.910156 12.160156 16.09375 12.542969 16.390625 12.808594 C 16.652344 13.046875 16.746094 13.425781 16.621094 13.761719 C 16.496094 14.097656 16.179688 14.316406 15.828125 14.316406 L 12.238281 14.316406 C 11.769531 14.316406 11.390625 13.929688 11.390625 13.457031 L 11.390625 10.292969 L 10.636719 10.292969 C 10.132812 10.65625 9.515625 10.867188 8.851562 10.867188 C 7.132812 10.867188 5.742188 9.453125 5.742188 7.707031 C 5.742188 5.957031 7.132812 4.542969 8.851562 4.542969 C 9.515625 4.542969 10.132812 4.753906 10.636719 5.117188 L 11.390625 5.117188 L 11.390625 0.804688 C 11.390625 0.328125 11.769531 -0.0585938 12.238281 -0.0585938 Z M 12.238281 -0.0585938 " fill-opacity="1" fill-rule="evenodd"/></g></svg>