<svg xmlns="http://www.w3.org/2000/svg" xmlns:xlink="http://www.w3.org/1999/xlink" zoomAndPan="magnify" preserveAspectRatio="xMidYMid meet" version="1.0" viewBox="0 0 22.48 22.48"><defs><clipPath id="7db2f6567b"><path d="M 0 0 L 22.476562 0 L 22.476562 22.476562 L 0 22.476562 Z M 0 0 " clip-rule="nonzero"/></clipPath></defs><g clip-path="url(#7db2f6567b)"><path fill="#000000" d="M 0.746094 6.785156 C 0.746094 5.675781 1.554688 4.757812 2.609375 4.582031 L 2.609375 9.765625 C 2.609375 9.972656 2.777344 10.140625 2.980469 10.140625 C 3.1875 10.140625 3.355469 9.972656 3.355469 9.765625 L 3.355469 2.375 C 3.355469 1.769531 3.796875 1.253906 4.363281 1.199219 C 4.679688 1.167969 4.988281 1.269531 5.222656 1.484375 C 5.457031 1.695312 5.589844 1.996094 5.589844 2.3125 C 5.589844 2.515625 5.757812 2.683594 5.964844 2.683594 C 6.167969 2.683594 6.335938 2.515625 6.335938 2.3125 L 6.335938 1.9375 C 6.335938 1.625 6.472656 1.320312 6.703125 1.109375 C 6.941406 0.894531 7.246094 0.796875 7.5625 0.824219 C 8.128906 0.878906 8.574219 1.398438 8.574219 2 L 8.574219 2.683594 C 8.574219 2.890625 8.742188 3.058594 8.945312 3.058594 C 9.152344 3.058594 9.320312 2.890625 9.320312 2.683594 C 9.320312 2.371094 9.453125 2.066406 9.6875 1.855469 C 9.921875 1.640625 10.230469 1.539062 10.546875 1.570312 C 11.113281 1.625 11.554688 2.140625 11.554688 2.746094 L 11.554688 3.429688 C 11.554688 3.632812 11.722656 3.800781 11.929688 3.800781 C 12.132812 3.800781 12.300781 3.632812 12.300781 3.429688 C 12.300781 3.113281 12.433594 2.8125 12.667969 2.601562 C 12.902344 2.386719 13.210938 2.285156 13.527344 2.316406 C 14.09375 2.371094 14.539062 2.886719 14.539062 3.492188 L 14.539062 5.15625 C 13.9375 5.007812 13.316406 4.921875 12.675781 4.921875 C 8.359375 4.921875 4.847656 8.433594 4.847656 12.75 C 4.847656 17.0625 8.359375 20.578125 12.675781 20.578125 C 12.800781 20.578125 12.921875 20.5625 13.046875 20.558594 L 13.046875 21.320312 C 13.046875 21.527344 12.878906 21.695312 12.675781 21.695312 L 5.21875 21.695312 C 5.011719 21.695312 4.847656 21.527344 4.847656 21.320312 L 4.847656 18.378906 C 4.847656 17.554688 4.5625 16.734375 4.050781 16.078125 L 1.382812 12.6875 C 0.972656 12.160156 0.746094 11.503906 0.746094 10.84375 Z M 19.757812 12.75 C 19.757812 16.652344 16.578125 19.832031 12.675781 19.832031 C 8.769531 19.832031 5.589844 16.652344 5.589844 12.75 C 5.589844 8.84375 8.769531 5.664062 12.675781 5.664062 C 16.578125 5.664062 19.757812 8.84375 19.757812 12.75 Z M 19.09375 18.328125 L 18.253906 19.167969 L 17.765625 18.679688 C 18.066406 18.421875 18.347656 18.140625 18.605469 17.84375 Z M 21.542969 21.160156 L 21.082031 21.617188 C 20.980469 21.722656 20.804688 21.722656 20.703125 21.617188 L 18.78125 19.695312 L 19.621094 18.855469 L 21.539062 20.773438 C 21.644531 20.878906 21.644531 21.054688 21.542969 21.160156 Z M 3.464844 16.539062 C 3.875 17.0625 4.101562 17.71875 4.101562 18.378906 L 4.101562 21.320312 C 4.101562 21.9375 4.601562 22.441406 5.21875 22.441406 L 12.675781 22.441406 C 13.292969 22.441406 13.792969 21.9375 13.792969 21.320312 L 13.792969 20.488281 C 15.039062 20.308594 16.191406 19.839844 17.175781 19.140625 L 20.175781 22.144531 C 20.375 22.339844 20.632812 22.4375 20.894531 22.4375 C 21.152344 22.4375 21.414062 22.339844 21.609375 22.144531 L 22.070312 21.6875 C 22.460938 21.292969 22.464844 20.648438 22.070312 20.25 L 19.066406 17.25 C 19.96875 15.976562 20.5 14.425781 20.5 12.75 C 20.5 9.347656 18.320312 6.457031 15.285156 5.378906 L 15.285156 3.492188 C 15.285156 2.507812 14.542969 1.664062 13.601562 1.574219 C 13.078125 1.523438 12.558594 1.695312 12.171875 2.042969 C 11.917969 1.386719 11.328125 0.898438 10.617188 0.828125 C 10.09375 0.777344 9.578125 0.949219 9.1875 1.300781 C 8.9375 0.640625 8.34375 0.152344 7.636719 0.0820312 C 7.113281 0.0351562 6.589844 0.207031 6.203125 0.558594 C 6.050781 0.695312 5.925781 0.855469 5.828125 1.03125 C 5.796875 0.996094 5.761719 0.960938 5.726562 0.929688 C 5.339844 0.578125 4.816406 0.40625 4.292969 0.457031 C 3.347656 0.546875 2.609375 1.390625 2.609375 2.375 L 2.609375 3.824219 C 1.140625 4.007812 0 5.265625 0 6.785156 L 0 10.84375 C 0 11.671875 0.28125 12.488281 0.796875 13.144531 L 3.464844 16.539062 " fill-opacity="1" fill-rule="nonzero"/></g><path fill="#000000" d="M 13.792969 16.363281 C 13.792969 15.996094 13.871094 15.632812 14.019531 15.304688 L 14.992188 13.105469 C 15.183594 12.6875 15.285156 12.214844 15.285156 11.742188 L 15.285156 7.804688 C 17.085938 8.757812 18.265625 10.640625 18.265625 12.75 C 18.265625 15.449219 16.339844 17.707031 13.792969 18.226562 Z M 6.335938 12.75 C 6.335938 16.242188 9.179688 19.085938 12.675781 19.085938 C 16.167969 19.085938 19.011719 16.242188 19.011719 12.75 C 19.011719 9.859375 17.058594 7.335938 14.257812 6.613281 C 14.058594 6.558594 13.855469 6.679688 13.804688 6.878906 C 13.753906 7.078125 13.871094 7.28125 14.070312 7.332031 C 14.230469 7.375 14.386719 7.421875 14.539062 7.476562 L 14.539062 11.742188 C 14.539062 12.109375 14.460938 12.476562 14.3125 12.800781 L 13.335938 15 C 13.148438 15.421875 13.046875 15.890625 13.046875 16.363281 L 13.046875 18.320312 C 12.921875 18.328125 12.800781 18.339844 12.675781 18.339844 C 9.589844 18.339844 7.082031 15.832031 7.082031 12.75 C 7.082031 9.664062 9.589844 7.15625 12.675781 7.15625 C 12.878906 7.15625 13.046875 6.988281 13.046875 6.785156 C 13.046875 6.578125 12.878906 6.410156 12.675781 6.410156 C 9.179688 6.410156 6.335938 9.253906 6.335938 12.75 " fill-opacity="1" fill-rule="nonzero"/><path fill="#000000" d="M 11.929688 15.730469 C 11.722656 15.730469 11.554688 15.898438 11.554688 16.101562 L 11.554688 16.476562 C 11.554688 16.679688 11.722656 16.847656 11.929688 16.847656 C 12.132812 16.847656 12.300781 16.679688 12.300781 16.476562 L 12.300781 16.101562 C 12.300781 15.898438 12.132812 15.730469 11.929688 15.730469 " fill-opacity="1" fill-rule="nonzero"/><path fill="#000000" d="M 12.300781 14.238281 C 12.300781 14.035156 12.132812 13.867188 11.929688 13.867188 C 11.722656 13.867188 11.554688 14.035156 11.554688 14.238281 L 11.554688 14.613281 C 11.554688 14.816406 11.722656 14.984375 11.929688 14.984375 C 12.132812 14.984375 12.300781 14.816406 12.300781 14.613281 L 12.300781 14.238281 " fill-opacity="1" fill-rule="nonzero"/><path fill="#000000" d="M 12.300781 12.375 C 12.300781 12.171875 12.132812 12.003906 11.929688 12.003906 C 11.722656 12.003906 11.554688 12.171875 11.554688 12.375 L 11.554688 12.75 C 11.554688 12.953125 11.722656 13.121094 11.929688 13.121094 C 12.132812 13.121094 12.300781 12.953125 12.300781 12.75 L 12.300781 12.375 " fill-opacity="1" fill-rule="nonzero"/><path fill="#000000" d="M 12.300781 10.511719 C 12.300781 10.304688 12.132812 10.140625 11.929688 10.140625 C 11.722656 10.140625 11.554688 10.304688 11.554688 10.511719 L 11.554688 10.882812 C 11.554688 11.089844 11.722656 11.257812 11.929688 11.257812 C 12.132812 11.257812 12.300781 11.089844 12.300781 10.882812 L 12.300781 10.511719 " fill-opacity="1" fill-rule="nonzero"/><path fill="#000000" d="M 12.300781 8.648438 C 12.300781 8.441406 12.132812 8.273438 11.929688 8.273438 C 11.722656 8.273438 11.554688 8.441406 11.554688 8.648438 L 11.554688 9.019531 C 11.554688 9.226562 11.722656 9.394531 11.929688 9.394531 C 12.132812 9.394531 12.300781 9.226562 12.300781 9.019531 L 12.300781 8.648438 " fill-opacity="1" fill-rule="nonzero"/><path fill="#000000" d="M 13.417969 11.628906 C 13.214844 11.628906 13.046875 11.796875 13.046875 12.003906 L 13.046875 12.375 C 13.046875 12.582031 13.214844 12.75 13.417969 12.75 C 13.625 12.75 13.792969 12.582031 13.792969 12.375 L 13.792969 12.003906 C 13.792969 11.796875 13.625 11.628906 13.417969 11.628906 " fill-opacity="1" fill-rule="nonzero"/><path fill="#000000" d="M 13.792969 10.140625 C 13.792969 9.933594 13.625 9.765625 13.417969 9.765625 C 13.214844 9.765625 13.046875 9.933594 13.046875 10.140625 L 13.046875 10.511719 C 13.046875 10.71875 13.214844 10.882812 13.417969 10.882812 C 13.625 10.882812 13.792969 10.71875 13.792969 10.511719 L 13.792969 10.140625 " fill-opacity="1" fill-rule="nonzero"/><path fill="#000000" d="M 13.046875 8.648438 C 13.046875 8.851562 13.214844 9.019531 13.417969 9.019531 C 13.625 9.019531 13.792969 8.851562 13.792969 8.648438 L 13.792969 8.273438 C 13.792969 8.070312 13.625 7.902344 13.417969 7.902344 C 13.214844 7.902344 13.046875 8.070312 13.046875 8.273438 L 13.046875 8.648438 " fill-opacity="1" fill-rule="nonzero"/><path fill="#000000" d="M 10.808594 13.121094 C 10.808594 12.914062 10.644531 12.75 10.4375 12.75 C 10.230469 12.75 10.066406 12.914062 10.066406 13.121094 L 10.066406 13.492188 C 10.066406 13.699219 10.230469 13.867188 10.4375 13.867188 C 10.644531 13.867188 10.808594 13.699219 10.808594 13.492188 L 10.808594 13.121094 " fill-opacity="1" fill-rule="nonzero"/><path fill="#000000" d="M 10.4375 14.613281 C 10.230469 14.613281 10.066406 14.78125 10.066406 14.984375 L 10.066406 15.359375 C 10.066406 15.5625 10.230469 15.730469 10.4375 15.730469 C 10.644531 15.730469 10.808594 15.5625 10.808594 15.359375 L 10.808594 14.984375 C 10.808594 14.78125 10.644531 14.613281 10.4375 14.613281 " fill-opacity="1" fill-rule="nonzero"/><path fill="#000000" d="M 10.808594 11.257812 C 10.808594 11.050781 10.644531 10.882812 10.4375 10.882812 C 10.230469 10.882812 10.066406 11.050781 10.066406 11.257812 L 10.066406 11.628906 C 10.066406 11.835938 10.230469 12.003906 10.4375 12.003906 C 10.644531 12.003906 10.808594 11.835938 10.808594 11.628906 L 10.808594 11.257812 " fill-opacity="1" fill-rule="nonzero"/><path fill="#000000" d="M 9.320312 12.75 C 9.320312 12.542969 9.152344 12.375 8.945312 12.375 C 8.742188 12.375 8.574219 12.542969 8.574219 12.75 L 8.574219 13.121094 C 8.574219 13.328125 8.742188 13.492188 8.945312 13.492188 C 9.152344 13.492188 9.320312 13.328125 9.320312 13.121094 L 9.320312 12.75 " fill-opacity="1" fill-rule="nonzero"/><path fill="#000000" d="M 8.945312 14.238281 C 8.742188 14.238281 8.574219 14.40625 8.574219 14.613281 L 8.574219 14.984375 C 8.574219 15.191406 8.742188 15.359375 8.945312 15.359375 C 9.152344 15.359375 9.320312 15.191406 9.320312 14.984375 L 9.320312 14.613281 C 9.320312 14.40625 9.152344 14.238281 8.945312 14.238281 " fill-opacity="1" fill-rule="nonzero"/><path fill="#000000" d="M 9.320312 10.882812 C 9.320312 10.679688 9.152344 10.511719 8.945312 10.511719 C 8.742188 10.511719 8.574219 10.679688 8.574219 10.882812 L 8.574219 11.257812 C 8.574219 11.460938 8.742188 11.628906 8.945312 11.628906 C 9.152344 11.628906 9.320312 11.460938 9.320312 11.257812 L 9.320312 10.882812 " fill-opacity="1" fill-rule="nonzero"/><path fill="#000000" d="M 10.808594 9.394531 C 10.808594 9.1875 10.644531 9.019531 10.4375 9.019531 C 10.230469 9.019531 10.066406 9.1875 10.066406 9.394531 L 10.066406 9.765625 C 10.066406 9.972656 10.230469 10.140625 10.4375 10.140625 C 10.644531 10.140625 10.808594 9.972656 10.808594 9.765625 L 10.808594 9.394531 " fill-opacity="1" fill-rule="nonzero"/></svg>