<svg xmlns="http://www.w3.org/2000/svg" xmlns:xlink="http://www.w3.org/1999/xlink" zoomAndPan="magnify" preserveAspectRatio="xMidYMid meet" version="1.0" viewBox="0 -0.02 22.48 23.22"><defs><clipPath id="d2f8847f90"><path d="M 0 0 L 22.476562 0 L 22.476562 23.203125 L 0 23.203125 Z M 0 0 " clip-rule="nonzero"/></clipPath></defs><g clip-path="url(#d2f8847f90)"><path fill="#100f0d" d="M 22.078125 -0.0195312 C 21.859375 -0.0195312 21.679688 0.15625 21.679688 0.371094 L 21.679688 22.417969 L 0.398438 22.417969 C 0.179688 22.417969 0 22.59375 0 22.808594 C 0 23.023438 0.179688 23.199219 0.398438 23.199219 L 22.078125 23.199219 C 22.296875 23.199219 22.476562 23.023438 22.476562 22.808594 L 22.476562 0.371094 C 22.476562 0.15625 22.296875 -0.0195312 22.078125 -0.0195312 " fill-opacity="1" fill-rule="nonzero"/></g><path fill="#100f0d" d="M 13.339844 13.769531 C 14.167969 13.515625 15.007812 13.226562 15.84375 12.90625 L 15.84375 15.503906 Z M 7.671875 11.816406 C 12.933594 11.199219 17.941406 8.578125 18.035156 8.535156 C 18.074219 8.515625 18.113281 8.5 18.15625 8.484375 C 18.191406 8.472656 18.226562 8.460938 18.265625 8.453125 C 18.300781 8.445312 18.335938 8.4375 18.375 8.433594 C 18.417969 8.425781 18.460938 8.421875 18.503906 8.417969 C 18.503906 8.417969 18.503906 8.417969 18.507812 8.417969 C 18.527344 8.417969 18.59375 8.421875 18.609375 8.417969 C 18.652344 8.421875 18.695312 8.425781 18.738281 8.433594 C 18.773438 8.4375 18.808594 8.445312 18.847656 8.453125 C 18.886719 8.460938 18.921875 8.476562 18.960938 8.488281 C 18.996094 8.5 19.027344 8.511719 19.066406 8.53125 C 19.101562 8.546875 19.136719 8.566406 19.167969 8.585938 C 19.199219 8.605469 19.230469 8.621094 19.261719 8.644531 C 19.292969 8.667969 19.324219 8.691406 19.355469 8.71875 C 19.382812 8.746094 19.410156 8.769531 19.433594 8.796875 C 19.460938 8.824219 19.484375 8.851562 19.507812 8.886719 C 19.535156 8.917969 19.554688 8.949219 19.574219 8.984375 C 19.582031 8.996094 19.621094 9.066406 19.628906 9.074219 C 19.644531 9.113281 19.664062 9.15625 19.675781 9.191406 C 19.6875 9.226562 19.703125 9.261719 19.710938 9.304688 C 19.722656 9.339844 19.726562 9.375 19.730469 9.40625 C 19.738281 9.449219 19.742188 9.492188 19.746094 9.535156 C 19.746094 9.539062 19.753906 9.582031 19.753906 9.585938 L 19.753906 19.773438 C 19.753906 20.214844 19.503906 20.613281 19.105469 20.816406 C 18.707031 21.015625 18.230469 20.984375 17.863281 20.730469 L 11.898438 16.597656 C 11.777344 16.515625 11.617188 16.503906 11.484375 16.570312 C 11.351562 16.636719 11.269531 16.773438 11.269531 16.917969 L 11.269531 19.960938 C 11.269531 20.605469 10.730469 21.132812 10.070312 21.132812 C 9.410156 21.132812 8.875 20.605469 8.875 19.960938 L 8.875 14.8125 C 9.488281 14.71875 10.84375 14.484375 12.371094 14.054688 L 16.015625 16.578125 C 16.082031 16.625 16.164062 16.652344 16.246094 16.652344 C 16.308594 16.652344 16.371094 16.636719 16.425781 16.605469 C 16.558594 16.539062 16.644531 16.40625 16.644531 16.257812 L 16.644531 12.582031 L 17.855469 12.03125 C 18.054688 11.941406 18.140625 11.710938 18.050781 11.515625 C 17.957031 11.316406 17.71875 11.230469 17.519531 11.324219 L 16.09375 11.972656 C 14.828125 12.472656 13.5625 12.902344 12.332031 13.25 C 12.328125 13.25 12.324219 13.253906 12.324219 13.257812 C 10.441406 13.804688 8.753906 14.039062 8.480469 14.078125 C 8.480469 14.078125 8.476562 14.078125 8.476562 14.078125 C 8.457031 14.078125 8.4375 14.078125 8.417969 14.078125 L 8.246094 14.105469 C 8.152344 14.121094 8.054688 14.132812 7.957031 14.144531 C 7.296875 14.226562 6.703125 13.757812 6.625 13.121094 C 6.546875 12.480469 7.015625 11.894531 7.671875 11.816406 Z M 13.179688 5.46875 C 13.179688 3.921875 14.46875 2.664062 16.050781 2.664062 C 17.628906 2.664062 18.917969 3.921875 18.917969 5.46875 C 18.917969 7.019531 17.628906 8.277344 16.050781 8.277344 C 14.46875 8.277344 13.179688 7.019531 13.179688 5.46875 Z M 8.050781 14.921875 C 8.058594 14.917969 8.066406 14.917969 8.078125 14.917969 L 8.078125 19.960938 C 8.078125 21.035156 8.972656 21.914062 10.070312 21.914062 C 11.171875 21.914062 12.066406 21.035156 12.066406 19.960938 L 12.066406 17.671875 L 17.402344 21.367188 C 18.015625 21.792969 18.808594 21.847656 19.472656 21.507812 C 20.136719 21.171875 20.550781 20.507812 20.550781 19.773438 L 20.550781 9.585938 C 20.550781 9.570312 20.546875 9.515625 20.542969 9.492188 C 20.539062 9.425781 20.53125 9.359375 20.523438 9.289062 C 20.511719 9.226562 20.5 9.167969 20.484375 9.109375 C 20.46875 9.050781 20.453125 8.992188 20.429688 8.925781 C 20.40625 8.863281 20.378906 8.800781 20.351562 8.746094 C 20.339844 8.71875 20.328125 8.691406 20.3125 8.660156 C 20.304688 8.640625 20.273438 8.597656 20.261719 8.582031 C 20.226562 8.523438 20.1875 8.46875 20.144531 8.414062 C 20.105469 8.363281 20.066406 8.3125 20.019531 8.265625 C 19.976562 8.222656 19.933594 8.179688 19.886719 8.140625 C 19.839844 8.09375 19.789062 8.050781 19.730469 8.011719 C 19.683594 7.976562 19.632812 7.945312 19.582031 7.914062 C 19.523438 7.882812 19.464844 7.851562 19.40625 7.824219 C 19.351562 7.796875 19.292969 7.773438 19.230469 7.753906 C 19.167969 7.730469 19.105469 7.710938 19.042969 7.695312 C 19.003906 7.6875 18.960938 7.679688 18.921875 7.671875 C 19.410156 7.0625 19.714844 6.304688 19.714844 5.46875 C 19.714844 3.492188 18.070312 1.882812 16.050781 1.882812 C 14.027344 1.882812 12.382812 3.492188 12.382812 5.46875 C 12.382812 7.164062 13.589844 8.578125 15.207031 8.953125 C 13.296875 9.734375 10.472656 10.703125 7.574219 11.042969 C 6.484375 11.171875 5.703125 12.144531 5.832031 13.214844 C 5.960938 14.273438 6.964844 15.050781 8.050781 14.921875 " fill-opacity="1" fill-rule="nonzero"/><path fill="#100f0d" d="M 9.40625 3.398438 C 9.628906 3.398438 9.804688 3.222656 9.804688 3.007812 L 9.804688 0.371094 C 9.804688 0.15625 9.628906 -0.0195312 9.40625 -0.0195312 C 9.1875 -0.0195312 9.007812 0.15625 9.007812 0.371094 L 9.007812 3.007812 C 9.007812 3.222656 9.1875 3.398438 9.40625 3.398438 " fill-opacity="1" fill-rule="nonzero"/><path fill="#100f0d" d="M 7.042969 6.726562 C 7.261719 6.726562 7.441406 6.550781 7.441406 6.335938 L 7.441406 0.371094 C 7.441406 0.15625 7.261719 -0.0195312 7.042969 -0.0195312 C 6.824219 -0.0195312 6.644531 0.15625 6.644531 0.371094 L 6.644531 6.335938 C 6.644531 6.550781 6.824219 6.726562 7.042969 6.726562 " fill-opacity="1" fill-rule="nonzero"/><path fill="#100f0d" d="M 4.679688 4.699219 C 4.898438 4.699219 5.078125 4.527344 5.078125 4.308594 L 5.078125 0.371094 C 5.078125 0.15625 4.898438 -0.0195312 4.679688 -0.0195312 C 4.457031 -0.0195312 4.277344 0.15625 4.277344 0.371094 L 4.277344 4.308594 C 4.277344 4.527344 4.457031 4.699219 4.679688 4.699219 " fill-opacity="1" fill-rule="nonzero"/><path fill="#100f0d" d="M 2.3125 9.402344 C 2.535156 9.402344 2.710938 9.226562 2.710938 9.011719 L 2.710938 0.371094 C 2.710938 0.15625 2.535156 -0.0195312 2.3125 -0.0195312 C 2.09375 -0.0195312 1.914062 0.15625 1.914062 0.371094 L 1.914062 9.011719 C 1.914062 9.226562 2.09375 9.402344 2.3125 9.402344 " fill-opacity="1" fill-rule="nonzero"/></svg>