<svg xmlns="http://www.w3.org/2000/svg" xmlns:xlink="http://www.w3.org/1999/xlink" zoomAndPan="magnify" preserveAspectRatio="xMidYMid meet" version="1.0" viewBox="0 0 22.48 22.48"><defs><clipPath id="3c57418b04"><path d="M 0 0 L 22.476562 0 L 22.476562 22.476562 L 0 22.476562 Z M 0 0 " clip-rule="nonzero"/></clipPath></defs><g clip-path="url(#3c57418b04)"><path fill="#000000" d="M 21.601562 15.851562 C 21.390625 15.429688 20.933594 15.183594 20.339844 15.148438 L 19.917969 10.941406 C 20.09375 11.152344 20.375 11.292969 20.6875 11.292969 L 21.390625 11.292969 C 21.601562 11.292969 21.742188 11.152344 21.742188 10.941406 L 21.742188 7.75 C 21.742188 6.976562 21.25 6.3125 20.550781 6.101562 L 20.480469 6.066406 C 19.742188 5.820312 19.007812 5.644531 18.234375 5.574219 L 14.902344 5.191406 L 16.128906 0.492188 C 16.164062 0.316406 16.058594 0.105469 15.886719 0.0703125 C 15.710938 0.0351562 15.5 0.140625 15.464844 0.316406 L 14.203125 5.085938 L 13.570312 5.015625 C 13.429688 5.015625 13.289062 4.875 13.253906 4.734375 L 12.695312 1.367188 C 13.042969 1.191406 13.324219 0.839844 13.324219 0.386719 C 13.324219 0.175781 13.183594 0.0351562 12.972656 0.0351562 C 12.765625 0.0351562 12.625 0.175781 12.625 0.386719 C 12.625 0.597656 12.484375 0.738281 12.273438 0.738281 L 8.414062 0.738281 L 8.414062 0.386719 C 8.414062 0.175781 8.277344 0.0351562 8.066406 0.0351562 C 7.855469 0.0351562 7.714844 0.175781 7.714844 0.386719 L 7.714844 0.738281 C 7.714844 1.121094 8.03125 1.4375 8.414062 1.4375 L 8.519531 1.4375 L 10.167969 5.574219 L 6.207031 6.171875 C 6.101562 6.207031 5.960938 6.136719 5.890625 6.066406 C 5.820312 5.996094 5.785156 5.855469 5.785156 5.75 L 7.011719 0.457031 C 7.046875 0.28125 6.941406 0.0703125 6.734375 0.0351562 C 6.558594 0 6.347656 0.105469 6.3125 0.316406 L 5.121094 5.609375 C 5.050781 5.960938 5.15625 6.3125 5.363281 6.558594 C 5.503906 6.699219 5.679688 6.804688 5.890625 6.871094 L 5.609375 8.730469 C 5.609375 8.765625 5.609375 8.765625 5.609375 8.800781 C 5.609375 9.785156 6.066406 10.660156 6.804688 11.257812 L 0.703125 11.257812 L 0.703125 3.542969 L 2.453125 3.542969 C 2.664062 3.542969 2.804688 3.402344 2.804688 3.191406 C 2.804688 2.980469 2.664062 2.839844 2.453125 2.839844 L 0.703125 2.839844 L 0.703125 1.085938 C 0.703125 0.875 0.839844 0.738281 1.050781 0.738281 L 3.15625 0.738281 C 3.367188 0.738281 3.507812 0.875 3.507812 1.085938 L 3.507812 10.203125 C 3.507812 10.414062 3.648438 10.554688 3.855469 10.554688 C 4.066406 10.554688 4.207031 10.414062 4.207031 10.203125 L 4.207031 1.085938 C 4.207031 0.492188 3.753906 0.0351562 3.15625 0.0351562 L 1.050781 0.0351562 C 0.457031 0.0351562 0 0.492188 0 1.085938 L 0 15.113281 C 0 17.359375 1.4375 19.355469 3.578125 20.09375 C 3.753906 20.164062 3.855469 20.339844 3.820312 20.515625 L 3.507812 22.058594 C 3.472656 22.230469 3.578125 22.441406 3.789062 22.476562 C 3.820312 22.476562 3.820312 22.476562 3.855469 22.476562 C 4.03125 22.476562 4.171875 22.371094 4.207031 22.195312 L 4.523438 20.652344 C 4.628906 20.128906 4.3125 19.636719 3.820312 19.460938 C 1.964844 18.796875 0.703125 17.078125 0.703125 15.113281 L 0.703125 11.957031 L 14.378906 11.957031 C 14.972656 11.957031 15.429688 12.414062 15.429688 13.007812 L 15.429688 15.113281 C 15.429688 17.042969 14.203125 18.761719 12.378906 19.425781 C 11.886719 19.601562 11.398438 19.671875 10.871094 19.671875 L 8.765625 19.671875 C 8.554688 19.671875 8.414062 19.8125 8.414062 20.023438 C 8.414062 20.234375 8.554688 20.375 8.765625 20.375 L 10.871094 20.375 C 11.328125 20.375 11.78125 20.304688 12.238281 20.199219 L 12.625 22.195312 C 12.660156 22.371094 12.800781 22.476562 12.972656 22.476562 C 13.007812 22.476562 13.007812 22.476562 13.042969 22.476562 C 13.21875 22.441406 13.359375 22.265625 13.324219 22.058594 L 12.90625 19.953125 C 14.832031 19.144531 16.128906 17.253906 16.128906 15.113281 L 16.128906 14.726562 L 16.550781 16.550781 C 15.605469 17.359375 15.21875 18.304688 15.570312 18.972656 C 15.605469 19.007812 15.605469 19.042969 15.640625 19.074219 L 16.867188 22.265625 C 16.9375 22.40625 17.042969 22.476562 17.183594 22.476562 C 17.21875 22.476562 17.253906 22.476562 17.324219 22.441406 C 17.5 22.371094 17.601562 22.160156 17.53125 21.988281 L 16.621094 19.601562 C 16.761719 19.636719 16.9375 19.636719 17.113281 19.636719 C 17.253906 19.636719 17.429688 19.636719 17.566406 19.601562 C 18.164062 19.53125 18.832031 19.320312 19.460938 19.007812 C 19.847656 18.796875 20.234375 18.585938 20.515625 18.304688 C 20.722656 18.128906 20.933594 17.953125 21.074219 17.777344 L 21.742188 22.195312 C 21.777344 22.371094 21.917969 22.476562 22.089844 22.476562 C 22.125 22.476562 22.125 22.476562 22.160156 22.476562 C 22.335938 22.441406 22.476562 22.265625 22.441406 22.089844 L 21.636719 16.902344 C 21.777344 16.515625 21.777344 16.164062 21.601562 15.851562 Z M 11.957031 1.4375 L 12.519531 4.875 C 12.625 5.296875 12.972656 5.644531 13.429688 5.714844 L 18.128906 6.242188 C 18.832031 6.3125 19.53125 6.488281 20.234375 6.699219 L 20.304688 6.734375 C 20.722656 6.871094 21.039062 7.292969 21.039062 7.714844 L 21.039062 10.554688 L 20.6875 10.554688 C 20.480469 10.554688 20.339844 10.414062 20.339844 10.203125 L 20.339844 9.503906 C 20.339844 8.519531 19.566406 7.75 18.585938 7.75 L 13.007812 7.75 C 12.273438 7.75 11.640625 7.328125 11.398438 6.664062 L 9.292969 1.4375 Z M 16.164062 18.621094 C 16.023438 18.339844 16.234375 17.8125 16.691406 17.324219 L 17.078125 18.972656 C 16.621094 18.972656 16.304688 18.832031 16.164062 18.621094 Z M 19.109375 18.410156 C 18.65625 18.65625 18.199219 18.796875 17.777344 18.902344 L 16.410156 12.90625 C 16.199219 11.921875 15.359375 11.257812 14.34375 11.257812 L 8.765625 11.257812 C 7.433594 11.257812 6.3125 10.167969 6.3125 8.835938 L 6.628906 6.839844 L 10.449219 6.242188 L 10.695312 6.90625 C 11.082031 7.855469 11.957031 8.449219 12.972656 8.449219 L 18.585938 8.449219 C 18.621094 8.449219 18.65625 8.449219 18.726562 8.449219 C 18.902344 8.625 19.039062 8.835938 19.039062 9.117188 L 19.917969 17.917969 C 19.671875 18.09375 19.425781 18.269531 19.109375 18.410156 Z M 20.550781 17.324219 L 20.410156 15.851562 C 20.6875 15.886719 20.898438 16.023438 20.96875 16.164062 C 21.144531 16.445312 20.96875 16.867188 20.550781 17.324219 Z M 20.550781 17.324219 " fill-opacity="1" fill-rule="nonzero"/></g></svg>