<svg xmlns="http://www.w3.org/2000/svg" xmlns:xlink="http://www.w3.org/1999/xlink" zoomAndPan="magnify" preserveAspectRatio="xMidYMid meet" version="1.0" viewBox="0 0 22.48 22.48"><defs><clipPath id="cf74622858"><path d="M 0 0 L 11 0 L 11 22.476562 L 0 22.476562 Z M 0 0 " clip-rule="nonzero"/></clipPath><clipPath id="a85705f78c"><path d="M 12 0 L 22.476562 0 L 22.476562 22.476562 L 12 22.476562 Z M 12 0 " clip-rule="nonzero"/></clipPath></defs><g clip-path="url(#cf74622858)"><path fill="#040606" d="M 10.269531 22.476562 C 10.160156 22.476562 10.070312 22.390625 10.070312 22.28125 C 10.070312 22.097656 10.0625 21.910156 10.046875 21.71875 C 9.855469 19.128906 8.582031 17.089844 6.453125 15.988281 C 4.109375 14.773438 2.554688 12.703125 2.289062 10.453125 C 2.191406 9.609375 1.933594 8.78125 1.527344 7.988281 C 0.0429688 5.097656 0.425781 1.1875 0.441406 1.023438 C 0.453125 0.914062 0.554688 0.835938 0.660156 0.847656 C 0.773438 0.859375 0.851562 0.953125 0.839844 1.0625 C 0.835938 1.101562 0.453125 5.023438 1.882812 7.8125 C 2.3125 8.644531 2.582031 9.519531 2.6875 10.40625 C 2.9375 12.53125 4.414062 14.488281 6.636719 15.640625 C 8.894531 16.808594 10.246094 18.960938 10.445312 21.691406 C 10.460938 21.890625 10.46875 22.085938 10.46875 22.28125 C 10.46875 22.390625 10.378906 22.476562 10.269531 22.476562 " fill-opacity="1" fill-rule="nonzero"/></g><path fill="#040606" d="M 3.742188 5.703125 C 3.679688 5.703125 3.609375 5.699219 3.542969 5.683594 C 3.210938 5.621094 2.9375 5.394531 2.816406 5.082031 C 1.984375 2.929688 2.355469 0.300781 2.371094 0.191406 C 2.386719 0.0820312 2.488281 0.0078125 2.59375 0.0234375 C 2.703125 0.0390625 2.78125 0.140625 2.765625 0.246094 C 2.761719 0.273438 2.394531 2.886719 3.191406 4.945312 C 3.265625 5.132812 3.421875 5.261719 3.621094 5.300781 C 3.832031 5.339844 4.042969 5.273438 4.191406 5.121094 C 5.90625 3.339844 8.46875 2.3125 11.226562 2.300781 C 11.339844 2.300781 11.425781 2.386719 11.429688 2.496094 C 11.429688 2.601562 11.339844 2.691406 11.230469 2.691406 C 8.582031 2.703125 6.121094 3.6875 4.484375 5.390625 C 4.289062 5.59375 4.019531 5.703125 3.742188 5.703125 " fill-opacity="1" fill-rule="nonzero"/><g clip-path="url(#a85705f78c)"><path fill="#040606" d="M 12.207031 22.476562 C 12.097656 22.476562 12.007812 22.390625 12.007812 22.28125 C 12.007812 22.085938 12.015625 21.890625 12.03125 21.691406 C 12.230469 18.960938 13.582031 16.808594 15.839844 15.640625 C 18.0625 14.488281 19.539062 12.53125 19.789062 10.40625 C 19.894531 9.519531 20.164062 8.644531 20.59375 7.8125 C 22.023438 5.023438 21.640625 1.101562 21.636719 1.0625 C 21.625 0.953125 21.707031 0.859375 21.816406 0.847656 C 21.921875 0.835938 22.023438 0.914062 22.035156 1.023438 C 22.050781 1.1875 22.433594 5.097656 20.949219 7.988281 C 20.542969 8.78125 20.289062 9.609375 20.1875 10.453125 C 19.921875 12.703125 18.367188 14.773438 16.027344 15.988281 C 13.898438 17.089844 12.621094 19.128906 12.429688 21.71875 C 12.417969 21.910156 12.410156 22.097656 12.40625 22.28125 C 12.40625 22.390625 12.320312 22.476562 12.207031 22.476562 " fill-opacity="1" fill-rule="nonzero"/></g><path fill="#040606" d="M 18.734375 5.703125 C 18.457031 5.703125 18.191406 5.59375 17.996094 5.390625 C 16.355469 3.6875 13.898438 2.703125 11.25 2.691406 C 11.136719 2.691406 11.050781 2.601562 11.050781 2.496094 C 11.050781 2.386719 11.140625 2.300781 11.25 2.300781 C 14.007812 2.3125 16.570312 3.339844 18.285156 5.121094 C 18.433594 5.273438 18.644531 5.34375 18.855469 5.300781 C 19.054688 5.261719 19.214844 5.132812 19.285156 4.945312 C 20.085938 2.886719 19.714844 0.273438 19.710938 0.246094 C 19.695312 0.140625 19.773438 0.0390625 19.882812 0.0234375 C 19.992188 0.0078125 20.09375 0.0820312 20.109375 0.191406 C 20.125 0.300781 20.492188 2.929688 19.660156 5.082031 C 19.539062 5.394531 19.265625 5.621094 18.933594 5.683594 C 18.867188 5.699219 18.800781 5.703125 18.734375 5.703125 " fill-opacity="1" fill-rule="nonzero"/><path fill="#040606" d="M 10.765625 14.382812 C 10.742188 14.382812 10.714844 14.378906 10.695312 14.371094 C 10.589844 14.332031 10.539062 14.21875 10.574219 14.117188 L 12.246094 9.710938 L 9.613281 10.980469 C 9.539062 11.015625 9.453125 11.003906 9.390625 10.949219 C 9.332031 10.898438 9.308594 10.8125 9.335938 10.738281 L 11.230469 5.597656 C 11.269531 5.496094 11.382812 5.441406 11.488281 5.480469 C 11.589844 5.515625 11.644531 5.628906 11.605469 5.730469 L 9.878906 10.414062 L 12.519531 9.140625 C 12.59375 9.105469 12.679688 9.117188 12.742188 9.171875 C 12.800781 9.226562 12.824219 9.308594 12.796875 9.382812 L 10.949219 14.253906 C 10.921875 14.332031 10.84375 14.382812 10.765625 14.382812 " fill-opacity="1" fill-rule="nonzero"/><path fill="#040606" d="M 15.515625 11.683594 C 15.476562 11.683594 15.441406 11.671875 15.40625 11.652344 C 15.210938 11.53125 15.078125 11.339844 15.027344 11.121094 C 14.980469 10.898438 15.019531 10.671875 15.144531 10.484375 C 15.269531 10.292969 15.460938 10.160156 15.6875 10.113281 C 15.910156 10.0625 16.140625 10.105469 16.335938 10.222656 C 16.429688 10.285156 16.457031 10.40625 16.398438 10.496094 C 16.339844 10.585938 16.214844 10.613281 16.121094 10.554688 C 16.015625 10.488281 15.894531 10.46875 15.773438 10.496094 C 15.652344 10.519531 15.546875 10.589844 15.480469 10.695312 C 15.414062 10.796875 15.394531 10.917969 15.417969 11.035156 C 15.445312 11.15625 15.519531 11.257812 15.621094 11.320312 C 15.714844 11.378906 15.742188 11.5 15.683594 11.59375 C 15.644531 11.652344 15.582031 11.683594 15.515625 11.683594 " fill-opacity="1" fill-rule="nonzero"/><path fill="#040606" d="M 18.171875 11.320312 C 18.136719 11.320312 18.097656 11.308594 18.066406 11.289062 C 17.871094 11.167969 17.738281 10.980469 17.6875 10.757812 C 17.636719 10.535156 17.679688 10.3125 17.804688 10.121094 C 17.925781 9.929688 18.121094 9.796875 18.34375 9.75 C 18.570312 9.699219 18.800781 9.742188 18.996094 9.863281 C 19.089844 9.921875 19.117188 10.042969 19.054688 10.132812 C 18.996094 10.222656 18.875 10.25 18.78125 10.191406 C 18.675781 10.128906 18.550781 10.105469 18.429688 10.132812 C 18.308594 10.15625 18.207031 10.226562 18.140625 10.332031 C 18.003906 10.542969 18.066406 10.824219 18.28125 10.957031 C 18.375 11.015625 18.402344 11.136719 18.339844 11.230469 C 18.304688 11.289062 18.238281 11.320312 18.171875 11.320312 " fill-opacity="1" fill-rule="nonzero"/><path fill="#040606" d="M 15.925781 14.726562 C 15.890625 14.726562 15.851562 14.71875 15.820312 14.695312 C 15.300781 14.371094 15.148438 13.691406 15.480469 13.183594 C 15.8125 12.671875 16.503906 12.523438 17.023438 12.847656 C 17.117188 12.90625 17.144531 13.027344 17.085938 13.121094 C 17.027344 13.210938 16.902344 13.238281 16.808594 13.179688 C 16.472656 12.96875 16.027344 13.066406 15.816406 13.394531 C 15.601562 13.722656 15.699219 14.15625 16.035156 14.367188 C 16.128906 14.425781 16.15625 14.546875 16.097656 14.636719 C 16.058594 14.695312 15.992188 14.726562 15.925781 14.726562 " fill-opacity="1" fill-rule="nonzero"/></svg>