<svg xmlns="http://www.w3.org/2000/svg" xmlns:xlink="http://www.w3.org/1999/xlink" zoomAndPan="magnify" preserveAspectRatio="xMidYMid meet" version="1.0" viewBox="0 0 22.48 22.48"><defs><clipPath id="a1b260866d"><path d="M 0 0 L 22.476562 0 L 22.476562 22.476562 L 0 22.476562 Z M 0 0 " clip-rule="nonzero"/></clipPath></defs><g clip-path="url(#a1b260866d)"><path fill="#000000" d="M 21.492188 9.769531 L 17.765625 13.492188 C 17.644531 13.617188 17.472656 13.6875 17.300781 13.6875 C 16.9375 13.6875 16.640625 13.390625 16.640625 13.027344 C 16.640625 12.855469 16.710938 12.683594 16.835938 12.5625 L 20.5625 8.835938 C 20.683594 8.714844 20.851562 8.644531 21.027344 8.644531 C 21.390625 8.644531 21.683594 8.9375 21.683594 9.300781 C 21.683594 9.476562 21.617188 9.644531 21.492188 9.769531 Z M 15.140625 15.347656 L 12.503906 15.875 L 11.238281 17.140625 L 7.425781 13.328125 L 9.046875 11.707031 L 9.5625 9.382812 C 9.695312 8.78125 9.996094 8.234375 10.433594 7.796875 L 11.703125 6.527344 C 11.960938 6.269531 12.316406 6.121094 12.679688 6.121094 C 13.042969 6.121094 13.398438 6.269531 13.65625 6.527344 L 16.089844 8.960938 C 16.210938 9.085938 16.28125 9.25 16.28125 9.425781 C 16.28125 9.789062 15.984375 10.085938 15.625 10.085938 C 15.449219 10.085938 15.28125 10.015625 15.15625 9.890625 L 12.679688 7.414062 L 11.960938 8.132812 L 11.960938 9.3125 C 11.960938 10.179688 11.621094 10.992188 11.007812 11.605469 L 10.445312 12.171875 L 10.953125 12.679688 L 11.519531 12.113281 C 12.265625 11.367188 12.679688 10.371094 12.679688 9.3125 L 12.679688 8.433594 L 13.433594 9.183594 C 13.179688 9.445312 13.039062 9.785156 13.039062 10.148438 C 13.039062 10.90625 13.660156 11.527344 14.417969 11.527344 C 14.441406 11.527344 14.464844 11.519531 14.488281 11.519531 C 14.484375 11.542969 14.480469 11.5625 14.480469 11.585938 C 14.480469 12.347656 15.101562 12.964844 15.859375 12.964844 C 15.882812 12.964844 15.90625 12.960938 15.929688 12.960938 C 15.925781 12.984375 15.921875 13.003906 15.921875 13.027344 C 15.921875 13.652344 16.34375 14.175781 16.914062 14.34375 L 16.796875 14.460938 C 16.34375 14.917969 15.769531 15.222656 15.140625 15.347656 Z M 10.878906 18.941406 L 7.171875 15.234375 L 6.660156 15.742188 L 10.371094 19.449219 L 8.355469 21.460938 L 3.101562 16.207031 L 5.113281 14.195312 L 6.300781 15.382812 L 6.8125 14.871094 L 5.625 13.6875 L 6.195312 13.117188 L 11.449219 18.371094 Z M 17.722656 3.601562 C 18.320312 3.601562 18.804688 3.117188 18.804688 2.519531 C 18.804688 2.355469 18.761719 2.199219 18.695312 2.058594 L 19.839844 0.910156 C 19.960938 0.789062 20.132812 0.71875 20.304688 0.71875 C 20.667969 0.71875 20.964844 1.015625 20.964844 1.378906 C 20.964844 1.554688 20.894531 1.71875 20.773438 1.84375 L 15.382812 7.234375 L 14.449219 6.300781 L 17.152344 3.601562 Z M 13.761719 2.160156 L 17.722656 2.160156 C 17.921875 2.160156 18.082031 2.320312 18.082031 2.519531 C 18.082031 2.71875 17.921875 2.878906 17.722656 2.878906 L 13.761719 2.878906 Z M 13.039062 4.320312 L 12.320312 4.320312 L 12.320312 0.71875 L 13.039062 0.71875 Z M 0.792969 2.519531 C 0.792969 1.527344 1.601562 0.71875 2.59375 0.71875 L 11.597656 0.71875 L 11.597656 4.320312 L 2.59375 4.320312 C 1.601562 4.320312 0.792969 3.511719 0.792969 2.519531 Z M 18.144531 5.761719 C 18.507812 5.761719 18.804688 6.058594 18.804688 6.421875 C 18.804688 6.597656 18.734375 6.761719 18.609375 6.886719 L 16.792969 8.703125 C 16.738281 8.613281 16.675781 8.527344 16.597656 8.449219 L 15.890625 7.742188 L 17.679688 5.953125 C 17.800781 5.832031 17.972656 5.761719 18.144531 5.761719 Z M 13.941406 9.695312 L 14.648438 10.402344 C 14.722656 10.476562 14.808594 10.539062 14.898438 10.597656 L 14.882812 10.613281 C 14.761719 10.734375 14.59375 10.804688 14.417969 10.804688 C 14.054688 10.804688 13.761719 10.507812 13.761719 10.148438 C 13.761719 9.976562 13.824219 9.816406 13.941406 9.695312 Z M 19.585938 7.203125 C 19.949219 7.203125 20.246094 7.5 20.246094 7.863281 C 20.246094 8.039062 20.175781 8.203125 20.050781 8.328125 L 16.324219 12.054688 C 16.203125 12.175781 16.03125 12.246094 15.859375 12.246094 C 15.496094 12.246094 15.199219 11.949219 15.199219 11.585938 C 15.199219 11.410156 15.269531 11.246094 15.394531 11.121094 L 15.71875 10.796875 C 16.402344 10.746094 16.945312 10.203125 16.992188 9.523438 L 19.121094 7.394531 C 19.242188 7.273438 19.414062 7.203125 19.585938 7.203125 Z M 21.027344 7.921875 C 21.003906 7.921875 20.980469 7.929688 20.957031 7.929688 C 20.957031 7.90625 20.964844 7.886719 20.964844 7.863281 C 20.964844 7.101562 20.34375 6.484375 19.585938 6.484375 C 19.5625 6.484375 19.539062 6.488281 19.515625 6.488281 C 19.519531 6.464844 19.523438 6.445312 19.523438 6.421875 C 19.523438 5.792969 19.101562 5.269531 18.53125 5.105469 L 21.28125 2.351562 C 21.542969 2.09375 21.683594 1.746094 21.683594 1.378906 C 21.683594 0.617188 21.066406 0 20.304688 0 C 19.9375 0 19.589844 0.140625 19.332031 0.402344 L 18.1875 1.546875 C 18.042969 1.480469 17.890625 1.441406 17.722656 1.441406 L 13.761719 1.441406 L 13.761719 0 L 2.59375 0 C 1.203125 0 0.0703125 1.128906 0.0703125 2.519531 C 0.0703125 3.910156 1.203125 5.042969 2.59375 5.042969 L 13.761719 5.042969 L 13.761719 3.601562 L 16.132812 3.601562 L 13.921875 5.8125 C 13.5625 5.550781 13.125 5.402344 12.679688 5.402344 C 12.125 5.402344 11.585938 5.625 11.195312 6.015625 L 9.925781 7.289062 C 9.390625 7.820312 9.023438 8.492188 8.859375 9.226562 L 8.386719 11.34375 L 6.917969 12.816406 L 6.195312 12.097656 L 2.085938 16.207031 L 8.355469 22.480469 L 12.46875 18.371094 L 11.75 17.648438 L 12.855469 16.539062 L 15.28125 16.054688 C 16.050781 15.902344 16.75 15.527344 17.308594 14.972656 L 22 10.277344 C 22.261719 10.015625 22.40625 9.671875 22.40625 9.300781 C 22.40625 8.542969 21.785156 7.921875 21.027344 7.921875 " fill-opacity="1" fill-rule="nonzero"/></g><path fill="#000000" d="M 12.234375 14.460938 L 12.375 15.167969 L 13.082031 15.027344 L 12.941406 14.320312 L 12.234375 14.460938 " fill-opacity="1" fill-rule="nonzero"/><path fill="#000000" d="M 13.644531 14.179688 L 13.789062 14.882812 L 14.496094 14.742188 L 14.355469 14.039062 L 13.644531 14.179688 " fill-opacity="1" fill-rule="nonzero"/><path fill="#000000" d="M 10.15625 2.878906 L 9.4375 2.878906 L 9.4375 2.160156 L 10.15625 2.160156 Z M 5.113281 2.160156 L 5.835938 2.160156 L 5.835938 2.878906 L 5.113281 2.878906 Z M 7.277344 2.878906 L 6.554688 2.878906 L 6.554688 2.160156 L 7.277344 2.160156 Z M 7.996094 2.160156 L 8.71875 2.160156 L 8.71875 2.878906 L 7.996094 2.878906 Z M 4.394531 1.441406 L 4.394531 3.601562 L 10.878906 3.601562 L 10.878906 1.441406 L 4.394531 1.441406 " fill-opacity="1" fill-rule="nonzero"/><path fill="#000000" d="M 2.59375 2.878906 C 2.394531 2.878906 2.234375 2.71875 2.234375 2.519531 C 2.234375 2.320312 2.394531 2.160156 2.59375 2.160156 C 2.792969 2.160156 2.953125 2.320312 2.953125 2.519531 C 2.953125 2.71875 2.792969 2.878906 2.59375 2.878906 Z M 2.59375 1.441406 C 1.996094 1.441406 1.511719 1.921875 1.511719 2.519531 C 1.511719 3.117188 1.996094 3.601562 2.59375 3.601562 C 3.191406 3.601562 3.675781 3.117188 3.675781 2.519531 C 3.675781 1.921875 3.191406 1.441406 2.59375 1.441406 " fill-opacity="1" fill-rule="nonzero"/></svg>