<svg xmlns="http://www.w3.org/2000/svg" xmlns:xlink="http://www.w3.org/1999/xlink" zoomAndPan="magnify" preserveAspectRatio="xMidYMid meet" version="1.0" viewBox="0 0 22.48 22.48"><defs><clipPath id="d78ee0f616"><path d="M 0 0 L 22.476562 0 L 22.476562 22.476562 L 0 22.476562 Z M 0 0 " clip-rule="nonzero"/></clipPath></defs><g clip-path="url(#d78ee0f616)"><path fill="#000000" d="M 13.324219 17.835938 L 13.042969 17.882812 C 13 18.410156 12.644531 18.972656 11.839844 19.296875 L 11.882812 19.394531 C 12.085938 19.832031 11.425781 20.132812 11.226562 19.699219 L 11.132812 19.496094 C 10.84375 19.546875 10.519531 19.578125 10.152344 19.578125 C 9.949219 19.578125 9.746094 19.5625 9.539062 19.539062 L 9.539062 19.730469 C 9.539062 20.207031 8.816406 20.207031 8.816406 19.730469 L 8.816406 19.417969 C 8.308594 19.300781 7.8125 19.125 7.34375 18.894531 L 7.332031 18.929688 C 7.148438 19.375 6.476562 19.097656 6.660156 18.65625 L 6.707031 18.535156 C 6.523438 18.417969 6.347656 18.296875 6.179688 18.164062 C 6.027344 18.035156 6 17.808594 6.128906 17.652344 C 6.253906 17.496094 6.480469 17.472656 6.636719 17.597656 C 7.59375 18.371094 8.941406 18.851562 10.152344 18.851562 C 11.472656 18.851562 12.328125 18.425781 12.328125 17.765625 C 12.328125 17.324219 11.511719 17.082031 10.726562 16.847656 C 9.398438 16.453125 9.367188 16.34375 8.578125 15.804688 C 8.414062 15.691406 8.371094 15.464844 8.484375 15.300781 C 8.597656 15.136719 8.824219 15.09375 8.988281 15.207031 C 9.097656 15.28125 9.199219 15.351562 9.296875 15.421875 C 9.328125 15.441406 9.351562 15.457031 9.382812 15.480469 L 9.480469 15.320312 C 9.734375 14.917969 10.351562 15.300781 10.097656 15.707031 L 10.011719 15.84375 C 10.285156 15.957031 10.609375 16.054688 10.933594 16.152344 C 11.070312 16.191406 11.207031 16.234375 11.34375 16.277344 L 11.414062 16.09375 C 11.589844 15.644531 12.261719 15.90625 12.089844 16.355469 L 12.023438 16.527344 C 12.390625 16.6875 12.699219 16.890625 12.882812 17.175781 L 13.199219 17.121094 C 13.675781 17.039062 13.792969 17.753906 13.324219 17.835938 Z M 17.039062 14.863281 C 15.839844 14.863281 14.863281 13.886719 14.863281 12.6875 C 14.863281 11.488281 15.839844 10.515625 17.039062 10.515625 C 18.238281 10.515625 19.214844 11.488281 19.214844 12.6875 C 19.214844 13.886719 18.238281 14.863281 17.039062 14.863281 Z M 20.664062 12.328125 L 19.914062 12.328125 C 19.847656 11.796875 19.640625 11.3125 19.328125 10.914062 L 19.859375 10.382812 C 20 10.242188 20 10.011719 19.859375 9.871094 C 19.71875 9.726562 19.488281 9.726562 19.347656 9.871094 L 18.816406 10.402344 C 18.414062 10.089844 17.929688 9.878906 17.402344 9.8125 L 17.402344 9.0625 C 17.402344 8.863281 17.238281 8.699219 17.039062 8.699219 C 16.839844 8.699219 16.675781 8.863281 16.675781 9.0625 L 16.675781 9.8125 C 16.148438 9.878906 15.664062 10.089844 15.261719 10.402344 L 14.734375 9.871094 C 14.589844 9.726562 14.363281 9.726562 14.21875 9.871094 C 14.078125 10.011719 14.078125 10.242188 14.21875 10.382812 L 14.75 10.914062 C 14.4375 11.3125 14.230469 11.796875 14.164062 12.328125 L 13.414062 12.328125 C 13.214844 12.328125 13.050781 12.488281 13.050781 12.6875 C 13.050781 12.886719 13.214844 13.050781 13.414062 13.050781 L 14.164062 13.050781 C 14.230469 13.578125 14.4375 14.0625 14.75 14.464844 L 14.21875 14.996094 C 13.878906 15.339844 14.398438 15.84375 14.734375 15.507812 L 15.261719 14.976562 C 15.664062 15.289062 16.148438 15.496094 16.675781 15.5625 L 16.675781 16.3125 C 16.675781 16.792969 17.402344 16.792969 17.402344 16.3125 L 17.402344 15.5625 C 17.929688 15.496094 18.414062 15.289062 18.816406 14.976562 L 19.347656 15.507812 C 19.683594 15.84375 20.199219 15.335938 19.859375 14.996094 L 19.328125 14.464844 C 19.640625 14.0625 19.847656 13.578125 19.914062 13.050781 L 20.664062 13.050781 C 21.144531 13.050781 21.144531 12.328125 20.664062 12.328125 Z M 2.898438 14.140625 C 2.5 14.140625 2.175781 13.816406 2.175781 13.414062 C 2.175781 13.011719 2.5 12.6875 2.898438 12.6875 C 3.300781 12.6875 3.625 13.011719 3.625 13.414062 C 3.625 13.816406 3.300781 14.140625 2.898438 14.140625 Z M 16.34375 12.460938 C 16.46875 12.679688 16.394531 12.957031 16.179688 13.082031 C 15.960938 13.207031 15.683594 13.132812 15.558594 12.914062 C 15.433594 12.699219 15.507812 12.421875 15.726562 12.296875 C 15.941406 12.171875 16.21875 12.246094 16.34375 12.460938 Z M 7.523438 17.039062 C 7.523438 16.789062 7.726562 16.585938 7.976562 16.585938 C 8.226562 16.585938 8.429688 16.789062 8.429688 17.039062 C 8.429688 17.289062 8.226562 17.492188 7.976562 17.492188 C 7.726562 17.492188 7.523438 17.289062 7.523438 17.039062 Z M 10.152344 18.128906 C 9.953125 18.128906 9.789062 17.964844 9.789062 17.765625 C 9.789062 17.566406 9.953125 17.402344 10.152344 17.402344 C 10.351562 17.402344 10.515625 17.566406 10.515625 17.765625 C 10.515625 17.964844 10.351562 18.128906 10.152344 18.128906 Z M 18.128906 11.601562 C 18.128906 11.800781 17.964844 11.964844 17.765625 11.964844 C 17.566406 11.964844 17.402344 11.800781 17.402344 11.601562 C 17.402344 11.402344 17.566406 11.238281 17.765625 11.238281 C 17.964844 11.238281 18.128906 11.402344 18.128906 11.601562 Z M 7.976562 5.4375 C 7.976562 5.238281 8.140625 5.074219 8.339844 5.074219 C 8.539062 5.074219 8.699219 5.238281 8.699219 5.4375 C 8.699219 5.636719 8.539062 5.800781 8.339844 5.800781 C 8.140625 5.800781 7.976562 5.636719 7.976562 5.4375 Z M 7.25 8.339844 C 7.25 8.539062 7.089844 8.699219 6.886719 8.699219 C 6.6875 8.699219 6.527344 8.539062 6.527344 8.339844 C 6.527344 8.140625 6.6875 7.976562 6.886719 7.976562 C 7.089844 7.976562 7.25 8.140625 7.25 8.339844 Z M 5.800781 9.246094 C 5.800781 9.546875 5.558594 9.789062 5.257812 9.789062 C 4.957031 9.789062 4.714844 9.546875 4.714844 9.246094 C 4.714844 8.945312 4.957031 8.699219 5.257812 8.699219 C 5.558594 8.699219 5.800781 8.945312 5.800781 9.246094 Z M 6.164062 6.34375 C 6.164062 6.042969 6.40625 5.800781 6.707031 5.800781 C 7.007812 5.800781 7.25 6.042969 7.25 6.34375 C 7.25 6.644531 7.007812 6.886719 6.707031 6.886719 C 6.40625 6.886719 6.164062 6.644531 6.164062 6.34375 Z M 18.128906 13.59375 C 18.128906 13.894531 17.882812 14.140625 17.582031 14.140625 C 17.28125 14.140625 17.039062 13.894531 17.039062 13.59375 C 17.039062 13.296875 17.28125 13.050781 17.582031 13.050781 C 17.882812 13.050781 18.128906 13.296875 18.128906 13.59375 Z M 9.789062 5.621094 C 9.789062 5.320312 10.03125 5.074219 10.332031 5.074219 C 10.632812 5.074219 10.875 5.320312 10.875 5.621094 C 10.875 5.917969 10.632812 6.164062 10.332031 6.164062 C 10.03125 6.164062 9.789062 5.917969 9.789062 5.621094 Z M 18.128906 7.25 C 18.128906 6.851562 18.453125 6.527344 18.851562 6.527344 C 19.253906 6.527344 19.578125 6.851562 19.578125 7.25 C 19.578125 7.652344 19.253906 7.976562 18.851562 7.976562 C 18.453125 7.976562 18.128906 7.652344 18.128906 7.25 Z M 15.769531 18.851562 C 15.46875 18.851562 15.226562 18.609375 15.226562 18.308594 C 15.226562 18.007812 15.46875 17.765625 15.769531 17.765625 C 16.070312 17.765625 16.3125 18.007812 16.3125 18.308594 C 16.3125 18.609375 16.070312 18.851562 15.769531 18.851562 Z M 15.769531 17.039062 C 15.070312 17.039062 14.5 17.609375 14.5 18.308594 C 14.5 19.007812 15.070312 19.578125 15.769531 19.578125 C 16.46875 19.578125 17.039062 19.007812 17.039062 18.308594 C 17.039062 17.609375 16.46875 17.039062 15.769531 17.039062 Z M 14.683594 3.261719 C 14.984375 3.261719 15.226562 3.507812 15.226562 3.808594 C 15.226562 4.105469 14.984375 4.351562 14.683594 4.351562 C 14.382812 4.351562 14.140625 4.105469 14.140625 3.808594 C 14.140625 3.507812 14.382812 3.261719 14.683594 3.261719 Z M 14.683594 5.074219 C 15.382812 5.074219 15.953125 4.507812 15.953125 3.808594 C 15.953125 3.105469 15.382812 2.539062 14.683594 2.539062 C 13.984375 2.539062 13.414062 3.105469 13.414062 3.808594 C 13.414062 4.507812 13.984375 5.074219 14.683594 5.074219 Z M 11.601562 5.4375 C 11.601562 6.265625 10.597656 6.726562 9.625 7.175781 C 8.101562 7.878906 7.949219 8.09375 7.292969 9.207031 C 6.8125 10.027344 6.308594 10.875 5.4375 10.875 C 4.703125 10.875 4.351562 10.605469 4.351562 9.0625 C 4.351562 8.167969 5.671875 3.988281 9.425781 3.988281 C 10.066406 3.988281 11.601562 4.40625 11.601562 5.4375 Z M 3.367188 10.039062 L 3.675781 9.972656 C 3.777344 10.679688 4.09375 11.425781 5.074219 11.574219 L 5.074219 11.964844 C 5.074219 12.445312 5.800781 12.445312 5.800781 11.964844 L 5.800781 11.566406 C 6.304688 11.476562 6.703125 11.203125 7.035156 10.847656 L 7.316406 11.089844 C 7.675781 11.398438 8.15625 10.851562 7.789062 10.539062 L 7.484375 10.28125 C 7.644531 10.046875 7.785156 9.804688 7.921875 9.574219 C 8.105469 9.261719 8.28125 8.964844 8.460938 8.746094 L 8.769531 9.039062 C 9.113281 9.367188 9.617188 8.84375 9.269531 8.515625 L 9.027344 8.285156 C 9.289062 8.132812 9.601562 7.988281 9.929688 7.835938 C 10.21875 7.703125 10.515625 7.5625 10.800781 7.410156 L 11.035156 7.734375 C 11.316406 8.125 11.90625 7.699219 11.625 7.308594 L 11.417969 7.027344 C 11.945312 6.636719 12.328125 6.140625 12.328125 5.4375 C 12.328125 5.339844 12.316406 5.242188 12.300781 5.152344 L 12.667969 5.046875 C 13.128906 4.914062 12.929688 4.21875 12.46875 4.347656 L 12.03125 4.472656 C 11.714844 4.003906 11.183594 3.683594 10.640625 3.492188 L 10.839844 2.929688 C 10.90625 2.742188 10.808594 2.535156 10.621094 2.46875 C 10.429688 2.402344 10.222656 2.5 10.15625 2.6875 L 9.9375 3.308594 C 9.753906 3.28125 9.578125 3.261719 9.425781 3.261719 C 8.9375 3.261719 8.488281 3.324219 8.074219 3.433594 L 7.898438 2.917969 C 7.738281 2.460938 7.054688 2.703125 7.210938 3.15625 L 7.386719 3.664062 C 6.789062 3.914062 6.269531 4.265625 5.828125 4.671875 L 5.511719 4.363281 C 5.167969 4.027344 4.660156 4.546875 5.003906 4.882812 L 5.328125 5.195312 C 4.886719 5.707031 4.546875 6.265625 4.285156 6.800781 L 3.753906 6.59375 C 3.308594 6.421875 3.046875 7.097656 3.496094 7.273438 L 4 7.464844 C 3.742188 8.148438 3.625 8.738281 3.625 9.0625 C 3.625 9.117188 3.625 9.179688 3.625 9.242188 L 3.21875 9.328125 C 2.75 9.429688 2.898438 10.136719 3.367188 10.039062 Z M 11.238281 21.753906 C 8.46875 21.753906 5.949219 20.675781 4.070312 18.921875 L 18.921875 4.070312 C 20.675781 5.949219 21.753906 8.46875 21.753906 11.238281 C 21.753906 17.035156 17.035156 21.753906 11.238281 21.753906 Z M 5.617188 16.347656 C 5.140625 15.285156 5.527344 14.566406 6.972656 14.992188 Z M 11.238281 0.726562 C 14.007812 0.726562 16.527344 1.804688 18.40625 3.558594 L 7.542969 14.421875 C 7.195312 14.285156 6.855469 14.195312 6.527344 14.160156 L 6.527344 13.882812 C 6.527344 13.683594 6.363281 13.519531 6.164062 13.519531 C 5.964844 13.519531 5.800781 13.683594 5.800781 13.882812 L 5.800781 14.179688 C 5.226562 14.300781 4.832031 14.714844 4.738281 15.304688 L 4.546875 15.304688 C 4.347656 15.304688 4.183594 15.464844 4.183594 15.664062 C 4.183594 15.867188 4.347656 16.027344 4.546875 16.027344 L 4.757812 16.027344 C 4.8125 16.316406 4.921875 16.605469 5.078125 16.886719 L 3.558594 18.40625 C 1.804688 16.527344 0.726562 14.007812 0.726562 11.238281 C 0.726562 5.441406 5.441406 0.726562 11.238281 0.726562 Z M 11.238281 0 C 5.042969 0 0 5.042969 0 11.238281 C 0 17.40625 5.011719 22.476562 11.238281 22.476562 C 17.4375 22.476562 22.476562 17.4375 22.476562 11.238281 C 22.476562 5.027344 17.421875 0 11.238281 0 " fill-opacity="1" fill-rule="nonzero"/></g></svg>