<svg xmlns="http://www.w3.org/2000/svg" xmlns:xlink="http://www.w3.org/1999/xlink" zoomAndPan="magnify" preserveAspectRatio="xMidYMid meet" version="1.0" viewBox="0 0 22.48 22.48"><defs><clipPath id="260c44f2d8"><path d="M 0 0 L 22.476562 0 L 22.476562 22.476562 L 0 22.476562 Z M 0 0 " clip-rule="nonzero"/></clipPath></defs><g clip-path="url(#260c44f2d8)"><path fill="#000000" d="M 19.464844 10.613281 C 18.351562 9.457031 17.058594 8.550781 15.589844 7.902344 C 14.121094 7.25 12.582031 6.902344 10.976562 6.851562 C 5.574219 6.753906 2.238281 10.398438 1.761719 10.9375 C 1.644531 11.078125 1.523438 11.214844 1.40625 11.355469 C 1.527344 11.492188 1.699219 11.691406 1.921875 11.914062 C 3.441406 13.4375 6.632812 15.792969 10.976562 15.691406 C 12.582031 15.640625 14.121094 15.292969 15.589844 14.644531 C 17.058594 13.992188 18.351562 13.089844 19.464844 11.933594 C 19.679688 11.722656 19.890625 11.507812 20.101562 11.296875 C 19.890625 11.070312 19.679688 10.839844 19.464844 10.613281 Z M 2.996094 11.269531 C 3.867188 10.410156 4.851562 9.714844 5.953125 9.179688 C 7.050781 8.644531 8.207031 8.300781 9.421875 8.144531 C 8.792969 8.410156 8.292969 8.828125 7.917969 9.394531 C 7.542969 9.964844 7.355469 10.589844 7.355469 11.269531 C 7.351562 11.949219 7.539062 12.574219 7.914062 13.144531 C 8.289062 13.710938 8.789062 14.128906 9.417969 14.398438 C 8.203125 14.242188 7.046875 13.898438 5.949219 13.363281 C 4.851562 12.828125 3.867188 12.128906 2.996094 11.269531 Z M 10.757812 13.460938 C 10.464844 13.460938 10.1875 13.40625 9.917969 13.296875 C 9.648438 13.183594 9.414062 13.027344 9.207031 12.820312 C 9 12.617188 8.84375 12.378906 8.730469 12.113281 C 8.621094 11.84375 8.566406 11.5625 8.566406 11.273438 C 8.566406 10.984375 8.621094 10.703125 8.730469 10.4375 C 8.84375 10.167969 9 9.929688 9.207031 9.726562 C 9.410156 9.519531 9.648438 9.363281 9.917969 9.25 C 10.183594 9.140625 10.464844 9.082031 10.753906 9.082031 C 11.046875 9.082031 11.324219 9.140625 11.59375 9.25 C 11.863281 9.363281 12.097656 9.519531 12.304688 9.726562 C 12.507812 9.929688 12.667969 10.167969 12.777344 10.4375 C 12.886719 10.707031 12.945312 10.984375 12.945312 11.273438 C 12.941406 11.566406 12.886719 11.84375 12.777344 12.113281 C 12.664062 12.378906 12.507812 12.617188 12.300781 12.820312 C 12.097656 13.027344 11.859375 13.183594 11.59375 13.292969 C 11.324219 13.40625 11.046875 13.460938 10.757812 13.460938 Z M 12.113281 14.390625 C 12.734375 14.121094 13.226562 13.703125 13.597656 13.136719 C 13.96875 12.570312 14.15625 11.949219 14.152344 11.273438 C 14.152344 10.59375 13.96875 9.972656 13.597656 9.40625 C 13.226562 8.84375 12.730469 8.425781 12.109375 8.15625 C 13.300781 8.320312 14.4375 8.667969 15.515625 9.203125 C 16.59375 9.734375 17.5625 10.425781 18.414062 11.269531 C 17.5625 12.117188 16.59375 12.808594 15.515625 13.339844 C 14.4375 13.875 13.304688 14.222656 12.113281 14.390625 Z M 0.242188 4.515625 C 0.140625 4.394531 0.09375 4.257812 0.101562 4.097656 C 0.113281 3.941406 0.175781 3.808594 0.292969 3.703125 C 0.40625 3.589844 0.542969 3.527344 0.703125 3.527344 C 0.863281 3.523438 1.003906 3.574219 1.121094 3.6875 C 1.582031 4.132812 2.035156 4.585938 2.476562 5.046875 C 2.558594 5.167969 2.625 5.292969 2.667969 5.429688 C 2.648438 5.695312 2.515625 5.882812 2.273438 5.996094 C 2.042969 6.125 1.832031 6.097656 1.640625 5.914062 C 1.164062 5.457031 0.699219 4.992188 0.242188 4.515625 Z M 10.71875 2.433594 C 10.71875 2.128906 10.71875 1.824219 10.71875 1.519531 C 10.71875 1.214844 10.714844 0.910156 10.71875 0.605469 C 10.71875 0.4375 10.78125 0.292969 10.898438 0.175781 C 11.015625 0.0585938 11.160156 -0.00390625 11.328125 -0.00390625 C 11.496094 -0.00390625 11.636719 0.0585938 11.753906 0.175781 C 11.875 0.292969 11.933594 0.4375 11.933594 0.605469 C 11.941406 1.21875 11.941406 1.835938 11.933594 2.453125 C 11.929688 2.621094 11.871094 2.761719 11.75 2.878906 C 11.628906 2.996094 11.484375 3.054688 11.316406 3.050781 C 11.148438 3.046875 11.007812 2.988281 10.890625 2.867188 C 10.773438 2.746094 10.71875 2.601562 10.71875 2.433594 Z M 19.953125 6.042969 C 19.824219 5.789062 19.859375 5.566406 20.066406 5.367188 C 20.375 5.046875 20.695312 4.734375 21.007812 4.421875 C 21.132812 4.296875 21.257812 4.167969 21.386719 4.046875 C 21.503906 3.933594 21.644531 3.875 21.808594 3.871094 C 21.972656 3.871094 22.113281 3.925781 22.230469 4.039062 C 22.351562 4.15625 22.414062 4.296875 22.417969 4.464844 C 22.421875 4.632812 22.367188 4.777344 22.25 4.898438 C 21.8125 5.347656 21.371094 5.792969 20.914062 6.226562 C 20.816406 6.304688 20.707031 6.359375 20.585938 6.398438 C 20.289062 6.433594 20.078125 6.316406 19.953125 6.042969 Z M 2.667969 17.050781 C 2.625 17.1875 2.558594 17.3125 2.476562 17.429688 C 2.035156 17.894531 1.582031 18.34375 1.121094 18.792969 C 1.003906 18.902344 0.863281 18.957031 0.703125 18.953125 C 0.542969 18.949219 0.40625 18.890625 0.292969 18.777344 C 0.175781 18.667969 0.113281 18.535156 0.101562 18.378906 C 0.09375 18.222656 0.140625 18.082031 0.242188 17.964844 C 0.699219 17.484375 1.164062 17.019531 1.640625 16.5625 C 1.832031 16.382812 2.042969 16.355469 2.273438 16.484375 C 2.515625 16.59375 2.648438 16.785156 2.667969 17.050781 Z M 11.933594 20.027344 C 11.941406 20.644531 11.941406 21.257812 11.933594 21.875 C 11.933594 22.042969 11.875 22.1875 11.757812 22.304688 C 11.636719 22.421875 11.496094 22.480469 11.328125 22.480469 C 11.160156 22.480469 11.019531 22.421875 10.898438 22.304688 C 10.78125 22.1875 10.722656 22.042969 10.722656 21.875 C 10.714844 21.570312 10.722656 21.265625 10.722656 20.960938 C 10.722656 20.65625 10.71875 20.351562 10.722656 20.046875 C 10.71875 19.878906 10.777344 19.734375 10.894531 19.613281 C 11.011719 19.496094 11.152344 19.433594 11.320312 19.429688 C 11.488281 19.429688 11.632812 19.484375 11.75 19.601562 C 11.871094 19.71875 11.933594 19.863281 11.9375 20.03125 Z M 22.25 17.582031 C 22.367188 17.699219 22.425781 17.84375 22.425781 18.011719 C 22.421875 18.179688 22.363281 18.320312 22.242188 18.4375 C 22.125 18.554688 21.980469 18.613281 21.8125 18.613281 C 21.644531 18.609375 21.503906 18.550781 21.386719 18.429688 C 21.257812 18.308594 21.132812 18.183594 21.007812 18.058594 C 20.695312 17.742188 20.375 17.429688 20.066406 17.109375 C 19.859375 16.914062 19.824219 16.6875 19.953125 16.433594 C 20.078125 16.164062 20.289062 16.042969 20.585938 16.078125 C 20.707031 16.117188 20.816406 16.175781 20.914062 16.25 C 21.371094 16.683594 21.8125 17.132812 22.25 17.582031 Z M 22.25 17.582031 " fill-opacity="1" fill-rule="nonzero"/></g></svg>