<svg xmlns="http://www.w3.org/2000/svg" xmlns:xlink="http://www.w3.org/1999/xlink" zoomAndPan="magnify" preserveAspectRatio="xMidYMid meet" version="1.0" viewBox="0 0 22.48 22.48"><defs><clipPath id="acca926d78"><path d="M 0 0 L 22.476562 0 L 22.476562 22.476562 L 0 22.476562 Z M 0 0 " clip-rule="nonzero"/></clipPath></defs><path fill="#000000" d="M 6.769531 4.964844 C 7.425781 4.90625 8.089844 4.90625 8.746094 4.964844 C 9.363281 5.019531 9.980469 5.128906 10.582031 5.285156 C 10.488281 6.625 11.019531 7.660156 11.351562 8.167969 C 11.386719 8.222656 11.445312 8.25 11.5 8.25 C 11.535156 8.25 11.570312 8.242188 11.597656 8.222656 C 11.679688 8.167969 11.703125 8.054688 11.652344 7.972656 C 11.332031 7.488281 10.8125 6.476562 10.949219 5.167969 C 11.019531 4.488281 11.261719 3.824219 11.648438 3.242188 C 11.703125 3.160156 11.683594 3.050781 11.601562 2.996094 C 11.519531 2.941406 11.40625 2.960938 11.351562 3.042969 C 10.972656 3.613281 10.71875 4.261719 10.621094 4.925781 C 10.015625 4.769531 9.398438 4.664062 8.777344 4.609375 C 8.101562 4.546875 7.414062 4.546875 6.738281 4.609375 C 6.640625 4.617188 6.570312 4.703125 6.578125 4.800781 C 6.585938 4.898438 6.671875 4.972656 6.769531 4.964844 Z M 6.769531 4.964844 " fill-opacity="1" fill-rule="nonzero"/><path fill="#000000" d="M 12.828125 6.164062 C 12.855469 6.242188 12.925781 6.289062 13 6.289062 C 13.015625 6.289062 13.035156 6.285156 13.054688 6.28125 C 13.148438 6.25 13.199219 6.152344 13.167969 6.058594 L 12.621094 4.316406 C 12.59375 4.222656 12.492188 4.171875 12.398438 4.199219 C 12.304688 4.230469 12.253906 4.328125 12.28125 4.421875 Z M 12.828125 6.164062 " fill-opacity="1" fill-rule="nonzero"/><path fill="#000000" d="M 13.640625 5.820312 C 13.664062 5.898438 13.734375 5.945312 13.808594 5.945312 C 13.828125 5.945312 13.847656 5.945312 13.863281 5.9375 C 13.957031 5.910156 14.007812 5.808594 13.980469 5.714844 L 13.480469 4.132812 C 13.453125 4.039062 13.351562 3.988281 13.257812 4.015625 C 13.164062 4.046875 13.113281 4.148438 13.140625 4.242188 Z M 13.640625 5.820312 " fill-opacity="1" fill-rule="nonzero"/><path fill="#000000" d="M 14.445312 5.464844 C 14.46875 5.539062 14.539062 5.589844 14.617188 5.589844 C 14.632812 5.589844 14.652344 5.585938 14.667969 5.582031 C 14.761719 5.550781 14.816406 5.453125 14.785156 5.359375 L 14.347656 3.964844 C 14.316406 3.871094 14.21875 3.820312 14.125 3.847656 C 14.03125 3.878906 13.976562 3.976562 14.007812 4.070312 Z M 14.445312 5.464844 " fill-opacity="1" fill-rule="nonzero"/><g clip-path="url(#acca926d78)"><path fill="#000000" d="M 22.386719 16.507812 L 18.535156 13.261719 C 18.242188 13.015625 18.128906 12.625 18.246094 12.265625 C 18.585938 11.214844 18.847656 10.132812 19.023438 9.042969 C 19.109375 8.515625 19.175781 7.984375 19.222656 7.449219 C 19.292969 7.46875 19.359375 7.496094 19.417969 7.53125 C 19.566406 7.609375 19.640625 7.699219 19.726562 7.804688 C 19.828125 7.925781 19.941406 8.0625 20.167969 8.171875 C 20.347656 8.253906 20.46875 8.261719 20.589844 8.265625 C 20.6875 8.269531 20.777344 8.273438 20.921875 8.320312 C 21.152344 8.394531 21.359375 8.527344 21.546875 8.71875 C 21.582031 8.757812 21.628906 8.773438 21.675781 8.773438 C 21.71875 8.773438 21.765625 8.757812 21.800781 8.722656 C 21.871094 8.65625 21.871094 8.542969 21.804688 8.472656 C 21.574219 8.238281 21.316406 8.074219 21.03125 7.980469 C 20.839844 7.917969 20.710938 7.914062 20.605469 7.910156 C 20.5 7.90625 20.433594 7.902344 20.320312 7.847656 C 20.164062 7.777344 20.09375 7.6875 20.003906 7.578125 C 19.90625 7.460938 19.796875 7.328125 19.589844 7.214844 C 19.484375 7.160156 19.371094 7.117188 19.253906 7.089844 C 19.296875 6.480469 19.3125 5.867188 19.308594 5.253906 C 19.4375 5.269531 19.566406 5.300781 19.683594 5.351562 C 19.824219 5.40625 19.898438 5.464844 19.972656 5.523438 C 20.070312 5.597656 20.167969 5.671875 20.355469 5.722656 C 20.597656 5.789062 20.773438 5.753906 20.929688 5.726562 C 21.0625 5.703125 21.175781 5.679688 21.339844 5.714844 C 21.539062 5.753906 21.726562 5.863281 21.902344 6.035156 C 21.9375 6.066406 21.980469 6.085938 22.027344 6.085938 C 22.070312 6.085938 22.117188 6.066406 22.152344 6.03125 C 22.222656 5.960938 22.222656 5.847656 22.148438 5.777344 C 21.925781 5.558594 21.675781 5.421875 21.414062 5.367188 C 21.179688 5.320312 21.011719 5.347656 20.867188 5.375 C 20.722656 5.402344 20.613281 5.421875 20.445312 5.378906 C 20.328125 5.347656 20.273438 5.304688 20.191406 5.242188 C 20.109375 5.175781 20.003906 5.097656 19.820312 5.019531 C 19.65625 4.953125 19.480469 4.910156 19.300781 4.894531 C 19.289062 4.519531 19.269531 4.144531 19.238281 3.769531 C 19.359375 3.742188 19.480469 3.730469 19.601562 3.730469 C 19.753906 3.734375 19.839844 3.761719 19.933594 3.789062 C 20.023438 3.820312 20.117188 3.847656 20.253906 3.847656 C 20.285156 3.847656 20.320312 3.847656 20.359375 3.84375 C 20.609375 3.816406 20.761719 3.722656 20.898438 3.640625 C 21.015625 3.570312 21.113281 3.511719 21.277344 3.484375 C 21.476562 3.453125 21.691406 3.488281 21.914062 3.582031 C 22.007812 3.625 22.109375 3.582031 22.148438 3.492188 C 22.1875 3.402344 22.148438 3.296875 22.058594 3.257812 C 21.769531 3.132812 21.488281 3.089844 21.222656 3.132812 C 20.988281 3.171875 20.84375 3.257812 20.714844 3.335938 C 20.589844 3.410156 20.492188 3.46875 20.320312 3.488281 C 20.199219 3.5 20.136719 3.480469 20.035156 3.449219 C 19.9375 3.417969 19.808594 3.378906 19.609375 3.375 C 19.476562 3.371094 19.339844 3.382812 19.207031 3.410156 C 19.121094 2.5 18.980469 1.589844 18.78125 0.679688 C 18.695312 0.28125 18.320312 0 17.914062 0.0273438 L 17.902344 0.03125 C 17.605469 0.0507812 17.351562 0.222656 17.222656 0.480469 C 17.074219 0.421875 16.90625 0.402344 16.738281 0.4375 L 16.726562 0.4375 C 16.5 0.484375 16.300781 0.617188 16.171875 0.808594 C 16.042969 1.003906 16 1.238281 16.046875 1.464844 C 16.082031 1.628906 16.109375 1.785156 16.140625 1.9375 C 16.011719 1.90625 15.875 1.898438 15.738281 1.925781 L 15.71875 1.929688 C 15.246094 2.023438 14.929688 2.472656 15 2.953125 C 15.316406 5.113281 15 7.101562 14.078125 8.691406 L 14.078125 8.699219 C 14.074219 8.699219 14.074219 8.703125 14.074219 8.703125 C 13.992188 8.84375 13.910156 8.992188 13.832031 9.144531 C 13.820312 9.152344 13.8125 9.160156 13.800781 9.171875 C 13.445312 9.515625 12.953125 9.96875 12.320312 10.375 C 11.296875 11.03125 10.226562 11.363281 9.128906 11.363281 C 8.039062 11.363281 6.972656 11.035156 5.957031 10.386719 C 5.953125 10.386719 5.949219 10.382812 5.945312 10.382812 C 5.941406 10.378906 5.9375 10.375 5.933594 10.375 C 5.195312 9.898438 4.652344 9.363281 4.324219 9.039062 C 1.3125 6.074219 1.570312 1.835938 1.722656 0.609375 C 1.734375 0.511719 1.664062 0.421875 1.566406 0.410156 C 1.46875 0.398438 1.378906 0.46875 1.367188 0.566406 C 1.230469 1.675781 1.257812 2.90625 1.445312 4.027344 C 1.796875 6.148438 2.683594 7.921875 4.078125 9.296875 C 4.402344 9.617188 4.933594 10.140625 5.664062 10.621094 L 5.664062 13.75 C 5.664062 14.078125 5.523438 14.382812 5.273438 14.597656 C 5.125 14.722656 4.945312 14.8125 4.75 14.847656 C 3.703125 15.042969 2.519531 15.261719 1.453125 15.457031 L 0.148438 15.699219 C 0.0664062 15.714844 0.00390625 15.789062 0.00390625 15.875 L 0.00390625 22.292969 C 0.00390625 22.394531 0.0859375 22.472656 0.183594 22.472656 L 19.023438 22.480469 C 19.089844 22.480469 19.148438 22.445312 19.179688 22.386719 C 19.210938 22.332031 19.207031 22.261719 19.171875 22.207031 C 17.675781 19.84375 16.175781 17.484375 14.675781 15.121094 L 13.898438 13.894531 C 13.363281 13.054688 13.207031 12.019531 13.472656 11.058594 C 13.574219 10.679688 13.703125 10.304688 13.855469 9.941406 C 13.933594 9.757812 14.019531 9.570312 14.109375 9.390625 C 14.195312 9.214844 14.289062 9.042969 14.378906 8.886719 L 14.382812 8.878906 C 14.382812 8.878906 14.386719 8.875 14.386719 8.875 C 15.347656 7.210938 15.679688 5.144531 15.351562 2.898438 C 15.308594 2.609375 15.5 2.335938 15.789062 2.277344 L 15.804688 2.273438 C 16.089844 2.21875 16.371094 2.394531 16.445312 2.675781 C 16.570312 3.160156 16.664062 3.652344 16.71875 4.144531 C 16.84375 5.234375 16.796875 6.335938 16.578125 7.417969 C 16.558594 7.511719 16.621094 7.609375 16.71875 7.628906 C 16.8125 7.644531 16.910156 7.585938 16.929688 7.488281 C 17.152344 6.367188 17.203125 5.230469 17.074219 4.105469 C 17.015625 3.597656 16.921875 3.085938 16.789062 2.582031 C 16.746094 2.417969 16.65625 2.277344 16.542969 2.164062 C 16.5 1.914062 16.453125 1.667969 16.394531 1.394531 C 16.367188 1.257812 16.394531 1.121094 16.46875 1.007812 C 16.546875 0.890625 16.660156 0.816406 16.796875 0.789062 L 16.808594 0.785156 C 17.082031 0.730469 17.351562 0.90625 17.410156 1.179688 C 17.5625 1.910156 17.683594 2.660156 17.761719 3.402344 C 17.90625 4.753906 17.925781 6.128906 17.824219 7.488281 C 17.816406 7.585938 17.890625 7.671875 17.988281 7.679688 C 17.992188 7.679688 17.996094 7.679688 18 7.679688 C 18.09375 7.679688 18.171875 7.609375 18.179688 7.515625 C 18.285156 6.132812 18.261719 4.738281 18.117188 3.367188 C 18.035156 2.609375 17.914062 1.847656 17.757812 1.105469 C 17.722656 0.9375 17.640625 0.789062 17.523438 0.675781 C 17.59375 0.511719 17.746094 0.398438 17.925781 0.386719 L 17.941406 0.382812 C 18.171875 0.367188 18.382812 0.527344 18.433594 0.753906 C 19.03125 3.507812 19.113281 6.277344 18.671875 8.988281 C 18.5 10.054688 18.242188 11.121094 17.90625 12.15625 C 17.746094 12.652344 17.902344 13.191406 18.304688 13.53125 L 22.15625 16.78125 C 22.191406 16.808594 22.230469 16.824219 22.273438 16.824219 C 22.324219 16.824219 22.375 16.800781 22.410156 16.757812 C 22.472656 16.683594 22.460938 16.570312 22.386719 16.507812 Z M 9.128906 17.386719 C 7.511719 17.386719 6.074219 16.324219 5.59375 14.785156 C 5.867188 14.511719 6.019531 14.140625 6.019531 13.75 L 6.019531 10.84375 C 7.015625 11.421875 8.0625 11.71875 9.128906 11.71875 C 10.195312 11.71875 11.242188 11.421875 12.234375 10.84375 L 12.234375 13.722656 C 12.234375 14.117188 12.390625 14.496094 12.664062 14.773438 C 12.191406 16.316406 10.75 17.386719 9.128906 17.386719 Z M 13.128906 10.964844 C 12.839844 12.023438 13.007812 13.160156 13.597656 14.085938 L 14.15625 14.96875 L 13.535156 14.851562 C 13.328125 14.816406 13.140625 14.722656 12.984375 14.585938 C 12.734375 14.367188 12.59375 14.054688 12.59375 13.722656 L 12.59375 10.621094 C 12.921875 10.40625 13.210938 10.179688 13.464844 9.964844 C 13.335938 10.289062 13.222656 10.625 13.128906 10.964844 Z M 13.128906 10.964844 " fill-opacity="1" fill-rule="nonzero"/></g></svg>