<svg xmlns="http://www.w3.org/2000/svg" xmlns:xlink="http://www.w3.org/1999/xlink" zoomAndPan="magnify" preserveAspectRatio="xMidYMid meet" version="1.0" viewBox="0.02 -0.01 21.69 23.23"><defs><clipPath id="17e54c7296"><path d="M 0.0234375 0 L 21.710938 0 L 21.710938 23.21875 L 0.0234375 23.21875 Z M 0.0234375 0 " clip-rule="nonzero"/></clipPath></defs><path fill="#100f0d" d="M 11.644531 16.304688 C 11.644531 16.890625 12.246094 17.367188 12.992188 17.371094 C 12.996094 17.371094 12.996094 17.371094 13 17.371094 C 13.007812 17.371094 13.011719 17.371094 13.019531 17.371094 C 13.757812 17.363281 14.355469 16.886719 14.355469 16.304688 C 14.355469 15.9375 13.726562 14.769531 13.027344 13.6875 C 12.300781 14.769531 11.644531 15.9375 11.644531 16.304688 " fill-opacity="1" fill-rule="nonzero"/><path fill="#100f0d" d="M 9.273438 15.058594 C 9.257812 15.21875 9.242188 15.371094 9.214844 15.546875 C 9.214844 15.554688 9.214844 15.5625 9.214844 15.570312 C 9.160156 15.929688 9.230469 16.210938 9.441406 16.453125 C 9.703125 16.757812 10.179688 16.992188 10.820312 17.148438 C 10.691406 16.890625 10.613281 16.605469 10.613281 16.304688 C 10.613281 15.925781 10.855469 15.347656 11.175781 14.75 C 11.660156 13.835938 12.332031 12.871094 12.617188 12.476562 C 12.714844 12.339844 12.878906 12.253906 13.039062 12.261719 C 13.113281 12.261719 13.179688 12.28125 13.246094 12.308594 C 13.328125 12.347656 13.40625 12.40625 13.460938 12.484375 C 13.914062 13.136719 15.386719 15.347656 15.386719 16.304688 C 15.386719 16.601562 15.316406 16.882812 15.1875 17.136719 C 15.914062 16.964844 16.453125 16.703125 16.683594 16.375 C 16.773438 16.246094 16.878906 16.03125 16.734375 15.640625 C 16.339844 14.558594 16.410156 13.675781 16.609375 13.03125 C 16.050781 13.261719 15.757812 13.464844 15.65625 13.542969 C 15.492188 13.667969 15.265625 13.683594 15.085938 13.582031 C 14.773438 13.40625 14.804688 13.09375 14.832031 12.816406 C 14.878906 12.308594 14.980469 11.246094 14.230469 10.757812 C 14.027344 10.621094 13.84375 10.488281 13.675781 10.347656 C 13.480469 10.191406 13.3125 10.027344 13.167969 9.867188 C 12.941406 9.605469 12.777344 9.339844 12.675781 9.070312 C 12.617188 8.917969 12.574219 8.765625 12.558594 8.609375 C 12.554688 8.578125 12.550781 8.546875 12.550781 8.515625 C 12.382812 8.605469 12.214844 8.707031 12.066406 8.828125 C 11.921875 8.945312 11.796875 9.074219 11.703125 9.21875 C 11.609375 9.371094 11.546875 9.539062 11.546875 9.726562 C 11.546875 10.578125 11.546875 10.757812 11.546875 10.914062 L 11.542969 11.539062 C 11.542969 11.554688 11.375 13.332031 10.90625 13.585938 C 10.730469 13.679688 10.511719 13.667969 10.351562 13.546875 C 10.128906 13.378906 9.738281 13.167969 9.207031 12.960938 C 9.292969 13.359375 9.34375 13.886719 9.316406 14.527344 C 9.308594 14.695312 9.292969 14.871094 9.273438 15.058594 " fill-opacity="1" fill-rule="nonzero"/><path fill="#100f0d" d="M 4.824219 5.6875 L 4.3125 5.734375 C 4.117188 5.75 3.949219 5.871094 3.878906 6.050781 C 3.804688 6.234375 3.839844 6.4375 3.972656 6.582031 L 5.6875 8.488281 C 5.789062 8.601562 5.929688 8.660156 6.070312 8.660156 C 6.191406 8.660156 6.3125 8.617188 6.414062 8.53125 C 6.625 8.339844 6.644531 8.019531 6.453125 7.808594 L 5.425781 6.664062 L 5.9375 6.621094 C 6.132812 6.605469 6.300781 6.480469 6.371094 6.300781 C 6.445312 6.121094 6.40625 5.914062 6.277344 5.769531 L 4.5625 3.863281 C 4.375 3.652344 4.046875 3.636719 3.835938 3.824219 C 3.625 4.011719 3.605469 4.335938 3.796875 4.546875 L 4.824219 5.6875 " fill-opacity="1" fill-rule="nonzero"/><g clip-path="url(#17e54c7296)"><path fill="#100f0d" d="M 21.644531 9.832031 C 21.078125 5.105469 17.550781 4.59375 16.0625 4.59375 C 15.1875 4.59375 14.277344 4.832031 13.625 5.234375 C 12.964844 5.640625 12.128906 5.667969 11.445312 5.296875 C 10.804688 4.949219 10.414062 4.320312 10.398438 3.605469 L 10.398438 -0.0078125 L 9.371094 -0.0078125 L 9.371094 3.570312 C 9.371094 4.898438 10.277344 6.839844 11.585938 7.90625 C 12.320312 7.390625 13.171875 7.179688 13.234375 7.164062 C 13.457031 7.109375 13.6875 7.210938 13.804688 7.410156 C 13.914062 7.609375 13.878906 7.859375 13.71875 8.019531 C 13.71875 8.019531 13.546875 8.214844 13.585938 8.519531 C 13.636719 8.9375 14.070312 9.429688 14.796875 9.902344 C 15.714844 10.5 15.886719 11.496094 15.894531 12.226562 C 16.363281 12.007812 16.933594 11.808594 17.550781 11.648438 C 17.773438 11.589844 18.011719 11.6875 18.125 11.890625 C 18.242188 12.089844 18.207031 12.339844 18.042969 12.503906 C 17.996094 12.550781 17.0625 13.539062 17.703125 15.292969 C 17.988281 16.0625 17.765625 16.625 17.527344 16.960938 C 16.625 18.242188 14.09375 18.390625 13.003906 18.394531 C 13.003906 18.394531 13 18.394531 13 18.394531 C 13 18.394531 13 18.394531 12.996094 18.394531 C 12.988281 18.394531 12.972656 18.394531 12.964844 18.394531 C 11.5 18.394531 9.566406 18.171875 8.65625 17.117188 C 8.253906 16.644531 8.09375 16.046875 8.199219 15.386719 C 8.207031 15.335938 8.210938 15.289062 8.21875 15.238281 C 7.496094 15.007812 6.550781 14.816406 5.253906 14.816406 C 3.625 14.816406 2.421875 15.257812 1.472656 16.199219 C 0.1875 17.476562 0.078125 18.792969 0.078125 19.929688 L 0.078125 22.996094 C 0.078125 23.074219 0.0546875 23.148438 0.0234375 23.21875 L 1.679688 23.21875 C 1.644531 23.148438 1.621094 23.074219 1.621094 22.996094 L 1.621094 20.4375 C 1.621094 17.617188 3.257812 16.859375 4.222656 16.859375 C 5.257812 16.863281 6.226562 17.328125 6.898438 18.128906 C 8.097656 19.566406 10.34375 21.082031 14.238281 20.148438 C 19.03125 19.003906 22.214844 14.566406 21.644531 9.832031 " fill-opacity="1" fill-rule="nonzero"/></g><path fill="#100f0d" d="M 0.800781 11.308594 L 2.273438 10.855469 L 2.101562 11.339844 C 2.035156 11.519531 2.078125 11.722656 2.214844 11.863281 C 2.3125 11.964844 2.449219 12.023438 2.585938 12.023438 C 2.636719 12.023438 2.6875 12.015625 2.738281 12 L 5.199219 11.246094 C 5.46875 11.164062 5.621094 10.875 5.539062 10.605469 C 5.453125 10.335938 5.164062 10.183594 4.894531 10.269531 L 3.417969 10.71875 L 3.589844 10.238281 C 3.65625 10.058594 3.613281 9.851562 3.480469 9.714844 C 3.34375 9.574219 3.140625 9.523438 2.957031 9.578125 L 0.496094 10.332031 C 0.222656 10.414062 0.0742188 10.699219 0.15625 10.972656 C 0.238281 11.242188 0.527344 11.390625 0.800781 11.308594 " fill-opacity="1" fill-rule="nonzero"/></svg>