<svg xmlns="http://www.w3.org/2000/svg" xmlns:xlink="http://www.w3.org/1999/xlink" zoomAndPan="magnify" preserveAspectRatio="xMidYMid meet" version="1.0" viewBox="0.02 0 20.95 31.47"><defs><clipPath id="25d9e34817"><path d="M 12.847656 0 L 20.96875 0 L 20.96875 22.25 L 12.847656 22.25 Z M 12.847656 0 " clip-rule="nonzero"/></clipPath><clipPath id="4dc3297598"><path d="M 11.035156 25.121094 L 15.738281 25.121094 L 15.738281 31.46875 L 11.035156 31.46875 Z M 11.035156 25.121094 " clip-rule="nonzero"/></clipPath></defs><path fill="#000000" d="M 10.492188 20.496094 C 9.671875 20.496094 8.851562 20.136719 7.636719 19.417969 C 6.90625 18.988281 6.082031 18.894531 5.308594 19.15625 C 5.046875 19.246094 4.761719 19.101562 4.671875 18.835938 C 4.582031 18.570312 4.722656 18.285156 4.988281 18.195312 C 6.039062 17.835938 7.160156 17.960938 8.144531 18.542969 C 9.472656 19.328125 10.011719 19.484375 10.492188 19.484375 C 10.976562 19.484375 11.515625 19.328125 12.84375 18.542969 C 13.828125 17.960938 14.949219 17.835938 16 18.195312 C 16.265625 18.285156 16.40625 18.570312 16.316406 18.835938 C 16.226562 19.101562 15.941406 19.246094 15.679688 19.15625 C 14.90625 18.894531 14.082031 18.988281 13.351562 19.417969 C 12.136719 20.136719 11.316406 20.496094 10.492188 20.496094 " fill-opacity="1" fill-rule="nonzero"/><path fill="#000000" d="M 3.210938 22.222656 C 2.722656 22.222656 2.234375 22.101562 1.78125 21.851562 C 0.71875 21.269531 0.0585938 20.105469 0.0234375 18.738281 C -0.00390625 17.753906 0.234375 16.742188 0.730469 15.726562 C 1.15625 14.859375 1.773438 13.996094 2.519531 13.230469 C 3.015625 12.722656 4.289062 11.277344 5.363281 8.902344 C 6.519531 6.351562 7.101562 3.527344 7.101562 0.507812 C 7.101562 0.226562 7.328125 0 7.605469 0 C 7.886719 0 8.109375 0.226562 8.109375 0.507812 C 8.109375 3.675781 7.496094 6.640625 6.28125 9.324219 C 5.179688 11.753906 3.902344 13.261719 3.238281 13.941406 C 1.792969 15.425781 0.988281 17.164062 1.027344 18.710938 C 1.058594 19.726562 1.507812 20.546875 2.261719 20.960938 C 2.886719 21.300781 3.613281 21.289062 4.210938 20.921875 C 4.453125 20.773438 4.691406 20.671875 4.96875 20.5625 C 5.230469 20.464844 5.519531 20.59375 5.621094 20.855469 C 5.71875 21.117188 5.589844 21.410156 5.328125 21.511719 C 5.09375 21.601562 4.914062 21.679688 4.734375 21.789062 C 4.261719 22.078125 3.738281 22.222656 3.210938 22.222656 " fill-opacity="1" fill-rule="nonzero"/><g clip-path="url(#25d9e34817)"><path fill="#000000" d="M 17.777344 22.222656 C 17.25 22.222656 16.726562 22.078125 16.253906 21.789062 C 16.070312 21.675781 15.875 21.585938 15.679688 21.519531 C 15.414062 21.429688 15.273438 21.140625 15.363281 20.875 C 15.449219 20.609375 15.738281 20.46875 16 20.558594 C 16.269531 20.648438 16.53125 20.773438 16.777344 20.921875 C 17.375 21.289062 18.101562 21.300781 18.726562 20.960938 C 19.480469 20.546875 19.929688 19.726562 19.960938 18.710938 C 20 17.164062 19.195312 15.425781 17.75 13.941406 C 17.085938 13.261719 15.804688 11.753906 14.707031 9.324219 C 13.492188 6.640625 12.878906 3.675781 12.878906 0.507812 C 12.878906 0.226562 13.101562 0 13.378906 0 C 13.660156 0 13.882812 0.226562 13.882812 0.507812 C 13.882812 3.527344 14.46875 6.351562 15.625 8.902344 C 16.699219 11.277344 17.972656 12.722656 18.46875 13.230469 C 19.214844 13.996094 19.832031 14.859375 20.257812 15.726562 C 20.753906 16.742188 20.992188 17.753906 20.964844 18.738281 C 20.929688 20.105469 20.269531 21.269531 19.207031 21.851562 C 18.753906 22.101562 18.265625 22.222656 17.777344 22.222656 " fill-opacity="1" fill-rule="nonzero"/></g><path fill="#000000" d="M 7.609375 23.914062 C 7.480469 24.101562 7.332031 24.324219 7.183594 24.558594 C 6.476562 25.699219 6.421875 26.132812 6.421875 26.238281 C 6.421875 26.914062 6.953125 27.460938 7.605469 27.460938 C 8.261719 27.460938 8.792969 26.914062 8.792969 26.238281 C 8.792969 25.808594 8.179688 24.75 7.609375 23.914062 Z M 7.605469 28.476562 C 6.398438 28.476562 5.414062 27.472656 5.414062 26.238281 C 5.414062 26.054688 5.414062 25.496094 6.335938 24.015625 C 6.765625 23.324219 7.1875 22.765625 7.207031 22.742188 C 7.300781 22.613281 7.449219 22.539062 7.605469 22.539062 C 7.765625 22.539062 7.914062 22.613281 8.007812 22.742188 C 8.027344 22.765625 8.449219 23.324219 8.878906 24.015625 C 9.800781 25.496094 9.800781 26.054688 9.800781 26.238281 C 9.800781 27.472656 8.816406 28.476562 7.605469 28.476562 " fill-opacity="1" fill-rule="nonzero"/><g clip-path="url(#4dc3297598)"><path fill="#000000" d="M 13.382812 26.5 C 13.234375 26.714844 13.058594 26.972656 12.886719 27.25 C 12.113281 28.492188 12.054688 28.972656 12.054688 29.089844 C 12.054688 29.839844 12.648438 30.453125 13.378906 30.453125 C 14.113281 30.453125 14.707031 29.839844 14.707031 29.089844 C 14.707031 28.96875 14.648438 28.488281 13.871094 27.242188 C 13.699219 26.96875 13.527344 26.710938 13.382812 26.5 Z M 13.378906 31.46875 C 12.09375 31.46875 11.046875 30.402344 11.046875 29.089844 C 11.046875 28.890625 11.046875 28.296875 12.039062 26.703125 C 12.503906 25.957031 12.960938 25.351562 12.980469 25.328125 C 13.074219 25.203125 13.222656 25.128906 13.378906 25.128906 C 13.539062 25.128906 13.6875 25.203125 13.78125 25.328125 C 13.800781 25.351562 14.257812 25.957031 14.722656 26.703125 C 15.714844 28.296875 15.714844 28.890625 15.714844 29.089844 C 15.714844 30.402344 14.667969 31.46875 13.378906 31.46875 " fill-opacity="1" fill-rule="nonzero"/></g></svg>