<svg xmlns="http://www.w3.org/2000/svg" xmlns:xlink="http://www.w3.org/1999/xlink" zoomAndPan="magnify" preserveAspectRatio="xMidYMid meet" version="1.0" viewBox="0 0 22.48 22.48"><defs><clipPath id="35c71842d8"><path d="M 0 0 L 22.476562 0 L 22.476562 22.476562 L 0 22.476562 Z M 0 0 " clip-rule="nonzero"/></clipPath></defs><g clip-path="url(#35c71842d8)"><path fill="#000000" d="M 19.855469 0 L 2.621094 0 C 1.175781 0 0 1.175781 0 2.621094 L 0 19.855469 C 0 21.300781 1.175781 22.476562 2.621094 22.476562 L 19.855469 22.476562 C 21.300781 22.476562 22.476562 21.300781 22.476562 19.855469 L 22.476562 2.621094 C 22.476562 1.175781 21.300781 0 19.855469 0 Z M 21.726562 19.855469 C 21.726562 20.886719 20.886719 21.726562 19.855469 21.726562 L 2.621094 21.726562 C 1.589844 21.726562 0.75 20.886719 0.75 19.855469 L 0.75 2.621094 C 0.75 1.589844 1.589844 0.75 2.621094 0.75 L 19.855469 0.75 C 20.886719 0.75 21.726562 1.589844 21.726562 2.621094 Z M 21.726562 19.855469 " fill-opacity="1" fill-rule="nonzero"/></g><path fill="#000000" d="M 5.621094 7.867188 L 16.859375 7.867188 C 17.269531 7.867188 17.605469 7.53125 17.605469 7.117188 L 17.605469 2.246094 C 17.605469 1.835938 17.269531 1.5 16.859375 1.5 L 5.621094 1.5 C 5.207031 1.5 4.871094 1.835938 4.871094 2.246094 L 4.871094 7.117188 C 4.871094 7.53125 5.207031 7.867188 5.621094 7.867188 Z M 11.417969 7.117188 L 10.03125 5.386719 L 9.449219 5.851562 L 10.457031 7.117188 L 5.621094 7.117188 L 5.621094 6.546875 C 6.175781 6.117188 8.453125 4.496094 11.238281 4.496094 C 14.015625 4.496094 16.300781 6.117188 16.859375 6.550781 L 16.859375 7.117188 Z M 16.859375 2.246094 L 16.859375 5.621094 C 15.867188 4.9375 13.773438 3.746094 11.238281 3.746094 C 8.707031 3.746094 6.613281 4.9375 5.621094 5.621094 L 5.621094 2.246094 Z M 16.859375 2.246094 " fill-opacity="1" fill-rule="nonzero"/><path fill="#000000" d="M 19.105469 1.125 L 18.355469 1.125 C 18.148438 1.125 17.980469 1.292969 17.980469 1.5 L 17.980469 8.242188 L 4.496094 8.242188 L 4.496094 1.5 C 4.496094 1.292969 4.328125 1.125 4.121094 1.125 L 3.371094 1.125 C 2.132812 1.125 1.125 2.132812 1.125 3.371094 L 1.125 19.105469 C 1.125 20.34375 2.132812 21.355469 3.371094 21.355469 L 19.105469 21.355469 C 20.34375 21.355469 21.355469 20.34375 21.355469 19.105469 L 21.355469 3.371094 C 21.355469 2.132812 20.34375 1.125 19.105469 1.125 Z M 20.605469 19.105469 C 20.605469 19.933594 19.933594 20.605469 19.105469 20.605469 L 3.371094 20.605469 C 2.546875 20.605469 1.875 19.933594 1.875 19.105469 L 1.875 3.371094 C 1.875 2.546875 2.546875 1.875 3.371094 1.875 L 3.746094 1.875 L 3.746094 8.242188 C 3.746094 8.65625 4.082031 8.992188 4.496094 8.992188 L 17.980469 8.992188 C 18.394531 8.992188 18.730469 8.65625 18.730469 8.242188 L 18.730469 1.875 L 19.105469 1.875 C 19.933594 1.875 20.605469 2.546875 20.605469 3.371094 Z M 20.605469 19.105469 " fill-opacity="1" fill-rule="nonzero"/><path fill="#000000" d="M 10.863281 2.621094 L 11.613281 2.621094 L 11.613281 3.371094 L 10.863281 3.371094 Z M 10.863281 2.621094 " fill-opacity="1" fill-rule="nonzero"/><path fill="#000000" d="M 13.488281 2.996094 L 14.234375 2.996094 L 14.234375 3.746094 L 13.488281 3.746094 Z M 13.488281 2.996094 " fill-opacity="1" fill-rule="nonzero"/><path fill="#000000" d="M 15.734375 3.746094 L 16.484375 3.746094 L 16.484375 4.496094 L 15.734375 4.496094 Z M 15.734375 3.746094 " fill-opacity="1" fill-rule="nonzero"/><path fill="#000000" d="M 8.242188 2.996094 L 8.992188 2.996094 L 8.992188 3.746094 L 8.242188 3.746094 Z M 8.242188 2.996094 " fill-opacity="1" fill-rule="nonzero"/><path fill="#000000" d="M 5.992188 3.746094 L 6.742188 3.746094 L 6.742188 4.496094 L 5.992188 4.496094 Z M 5.992188 3.746094 " fill-opacity="1" fill-rule="nonzero"/></svg>