<svg xmlns="http://www.w3.org/2000/svg" xmlns:xlink="http://www.w3.org/1999/xlink" zoomAndPan="magnify" preserveAspectRatio="xMidYMid meet" version="1.0" viewBox="0 0.15 22.48 22.32"><defs><clipPath id="e2af845667"><path d="M 0 7 L 22.476562 7 L 22.476562 22.472656 L 0 22.472656 Z M 0 7 " clip-rule="nonzero"/></clipPath></defs><g clip-path="url(#e2af845667)"><path fill="#000000" d="M 22.292969 10.617188 C 22.175781 10.453125 22.007812 10.339844 21.824219 10.28125 L 22.050781 10.125 C 22.238281 9.996094 22.363281 9.800781 22.402344 9.582031 C 22.441406 9.363281 22.390625 9.144531 22.265625 8.964844 C 22 8.589844 21.472656 8.5 21.089844 8.765625 L 20.464844 9.195312 C 20.472656 8.992188 20.417969 8.792969 20.304688 8.632812 C 20.039062 8.257812 19.511719 8.167969 19.128906 8.433594 L 15.722656 10.789062 L 16.371094 9.023438 C 16.460938 8.796875 16.441406 8.550781 16.316406 8.324219 C 16.179688 8.066406 15.921875 7.875 15.640625 7.820312 C 14.78125 7.648438 14.441406 8.65625 14.292969 9.089844 C 14.058594 9.78125 13.734375 10.191406 13.25 10.664062 C 12.71875 11.179688 11.75 12.128906 11.8125 13.726562 C 11.179688 14.089844 3.148438 18.6875 0.113281 20.207031 C 0.0273438 20.253906 -0.0078125 20.355469 0.0351562 20.441406 C 0.0664062 20.503906 0.128906 20.539062 0.191406 20.539062 C 0.21875 20.539062 0.246094 20.53125 0.273438 20.519531 C 3.308594 18.996094 11.339844 14.398438 11.988281 14.027344 C 11.988281 14.03125 11.992188 14.03125 11.992188 14.03125 C 12 14.03125 12.003906 14.03125 12.007812 14.03125 C 12.105469 14.023438 12.175781 13.9375 12.167969 13.84375 C 12.058594 12.4375 12.796875 11.59375 13.496094 10.910156 C 14.003906 10.414062 14.371094 9.957031 14.625 9.199219 C 14.902344 8.382812 15.175781 8.082031 15.574219 8.160156 C 15.75 8.195312 15.917969 8.320312 16.011719 8.488281 C 16.082031 8.621094 16.09375 8.765625 16.042969 8.898438 L 15.351562 10.785156 C 15.265625 11.019531 15.335938 11.136719 15.410156 11.191406 C 15.484375 11.25 15.617188 11.285156 15.824219 11.140625 L 19.328125 8.71875 C 19.554688 8.5625 19.863281 8.613281 20.015625 8.832031 C 20.101562 8.953125 20.136719 9.117188 20.109375 9.269531 C 20.089844 9.390625 20.027344 9.492188 19.941406 9.558594 L 16.539062 11.910156 C 16.457031 11.964844 16.4375 12.074219 16.496094 12.152344 C 16.550781 12.230469 16.660156 12.25 16.738281 12.195312 L 20.125 9.851562 C 20.128906 9.851562 20.128906 9.851562 20.132812 9.851562 C 20.136719 9.847656 20.136719 9.84375 20.140625 9.84375 L 21.289062 9.050781 C 21.515625 8.894531 21.824219 8.945312 21.976562 9.164062 C 22.050781 9.265625 22.078125 9.394531 22.058594 9.519531 C 22.035156 9.652344 21.960938 9.765625 21.851562 9.839844 L 21.128906 10.339844 C 21.113281 10.347656 21.09375 10.355469 21.078125 10.367188 C 21.066406 10.375 21.0625 10.382812 21.054688 10.390625 L 17.300781 12.988281 C 17.21875 13.042969 17.199219 13.152344 17.257812 13.230469 C 17.289062 13.277344 17.34375 13.304688 17.398438 13.304688 C 17.433594 13.304688 17.46875 13.292969 17.5 13.273438 L 21.324219 10.628906 C 21.539062 10.519531 21.851562 10.601562 22.003906 10.816406 C 22.078125 10.921875 22.105469 11.046875 22.085938 11.171875 C 22.0625 11.304688 21.988281 11.417969 21.878906 11.492188 L 20.59375 12.378906 C 20.59375 12.382812 20.589844 12.386719 20.589844 12.386719 C 20.523438 12.410156 20.460938 12.441406 20.398438 12.484375 L 18.078125 14.089844 C 18 14.144531 17.980469 14.25 18.035156 14.332031 C 18.089844 14.410156 18.199219 14.429688 18.277344 14.375 L 20.601562 12.769531 C 20.824219 12.613281 21.132812 12.664062 21.289062 12.882812 C 21.363281 12.984375 21.390625 13.113281 21.367188 13.238281 C 21.34375 13.367188 21.269531 13.484375 21.160156 13.558594 C 21.160156 13.558594 18.675781 15.296875 18.488281 15.433594 C 17.898438 15.863281 17.292969 16.304688 16.617188 16.582031 C 16.003906 16.832031 15.257812 16.894531 14.40625 16.773438 L 14.355469 16.746094 C 13.101562 15.980469 13.453125 14.921875 13.46875 14.875 C 13.5 14.785156 13.453125 14.6875 13.363281 14.65625 C 13.269531 14.621094 13.171875 14.667969 13.136719 14.761719 C 13.132812 14.773438 12.714844 15.992188 13.964844 16.902344 C 13.316406 17.394531 11.03125 19.128906 7.042969 22.089844 C 6.964844 22.148438 6.949219 22.253906 7.007812 22.332031 C 7.039062 22.378906 7.09375 22.402344 7.148438 22.402344 C 7.183594 22.402344 7.21875 22.390625 7.25 22.367188 C 11.464844 19.238281 13.777344 17.480469 14.269531 17.109375 C 14.59375 17.15625 14.902344 17.183594 15.195312 17.183594 C 15.769531 17.183594 16.289062 17.089844 16.75 16.902344 C 17.464844 16.613281 18.089844 16.15625 18.695312 15.714844 C 18.886719 15.574219 19.078125 15.433594 19.273438 15.300781 L 21.363281 13.84375 C 21.550781 13.714844 21.671875 13.519531 21.714844 13.300781 C 21.75 13.082031 21.703125 12.863281 21.574219 12.683594 C 21.476562 12.542969 21.34375 12.445312 21.195312 12.390625 L 22.078125 11.777344 C 22.265625 11.648438 22.390625 11.457031 22.429688 11.234375 C 22.46875 11.015625 22.417969 10.796875 22.292969 10.617188 Z M 22.292969 10.617188 " fill-opacity="1" fill-rule="nonzero"/></g><path fill="#000000" d="M 13.683594 14.058594 C 13.683594 14.175781 13.625 14.230469 13.507812 14.230469 C 13.390625 14.230469 13.332031 14.175781 13.332031 14.058594 C 13.332031 13.941406 13.390625 13.882812 13.507812 13.882812 C 13.625 13.882812 13.683594 13.941406 13.683594 14.058594 Z M 13.683594 14.058594 " fill-opacity="1" fill-rule="nonzero"/><path fill="#000000" d="M 17.535156 8.667969 C 17.535156 8.785156 17.480469 8.84375 17.363281 8.84375 C 17.246094 8.84375 17.1875 8.785156 17.1875 8.667969 C 17.1875 8.554688 17.246094 8.496094 17.363281 8.496094 C 17.480469 8.496094 17.535156 8.554688 17.535156 8.667969 Z M 17.535156 8.667969 " fill-opacity="1" fill-rule="nonzero"/><path fill="#000000" d="M 9.203125 13.035156 C 9.449219 13.25 9.761719 13.492188 10.214844 13.695312 C 10.238281 13.707031 10.261719 13.710938 10.289062 13.710938 C 10.355469 13.710938 10.417969 13.671875 10.449219 13.609375 C 10.488281 13.519531 10.449219 13.417969 10.359375 13.378906 C 9.949219 13.195312 9.660156 12.96875 9.429688 12.773438 C 7.855469 11.421875 8.078125 9.15625 8.8125 7.492188 L 8.910156 7.269531 C 9.132812 6.773438 9.324219 6.339844 9.449219 5.671875 C 9.503906 5.363281 9.535156 5.097656 9.550781 4.898438 C 9.65625 5.203125 9.777344 5.609375 9.859375 5.898438 C 10.164062 6.9375 10.214844 7.074219 10.382812 7.097656 C 10.460938 7.105469 10.53125 7.070312 10.570312 7.007812 C 10.578125 7 10.582031 6.992188 10.585938 6.980469 C 11.257812 5.40625 11.59375 3.824219 11.554688 2.40625 C 11.542969 2.003906 11.476562 1.605469 11.417969 1.222656 C 11.378906 0.996094 11.339844 0.761719 11.316406 0.527344 C 11.316406 0.515625 11.320312 0.507812 11.324219 0.5 C 11.5 0.539062 11.984375 0.972656 13.28125 2.75 L 13.347656 2.847656 C 13.976562 3.707031 14.875 5.429688 15.0625 5.976562 C 15.070312 6.058594 15.105469 6.117188 15.164062 6.148438 C 15.222656 6.175781 15.296875 6.171875 15.351562 6.136719 C 15.53125 6.019531 15.726562 5.074219 15.695312 4.625 C 15.667969 4.222656 15.550781 3.855469 15.46875 3.640625 C 15.757812 3.800781 16.144531 4.195312 16.277344 4.359375 C 17.359375 5.726562 17.410156 7.105469 17.34375 7.808594 C 17.332031 7.90625 17.402344 7.988281 17.5 8 C 17.597656 8.011719 17.683594 7.9375 17.691406 7.84375 C 17.761719 7.089844 17.710938 5.605469 16.550781 4.144531 C 16.546875 4.136719 15.820312 3.261719 15.300781 3.226562 C 15.226562 3.21875 15.160156 3.246094 15.113281 3.296875 C 15.054688 3.363281 15.039062 3.449219 15.058594 3.5625 C 15.0625 3.578125 15.066406 3.589844 15.074219 3.605469 C 15.074219 3.609375 15.308594 4.101562 15.347656 4.648438 C 15.363281 4.902344 15.308594 5.238281 15.246094 5.5 C 14.90625 4.738281 14.183594 3.394531 13.632812 2.640625 L 13.5625 2.546875 C 12.210938 0.691406 11.597656 0.0664062 11.222656 0.160156 C 11.140625 0.179688 11 0.25 10.964844 0.5 C 10.964844 0.515625 10.964844 0.527344 10.964844 0.542969 C 10.992188 0.789062 11.03125 1.039062 11.070312 1.277344 C 11.128906 1.652344 11.191406 2.035156 11.203125 2.414062 C 11.238281 3.679688 10.964844 5.082031 10.40625 6.492188 C 10.34375 6.292969 10.265625 6.03125 10.199219 5.804688 C 9.789062 4.414062 9.683594 4.171875 9.460938 4.171875 C 9.460938 4.171875 9.457031 4.171875 9.453125 4.171875 C 9.371094 4.171875 9.269531 4.214844 9.226562 4.410156 C 9.222656 4.421875 9.21875 4.4375 9.21875 4.453125 C 9.21875 4.457031 9.230469 4.90625 9.101562 5.613281 C 8.988281 6.238281 8.804688 6.652344 8.589844 7.128906 L 8.492188 7.351562 C 7.707031 9.132812 7.484375 11.5625 9.203125 13.035156 Z M 9.203125 13.035156 " fill-opacity="1" fill-rule="nonzero"/><path fill="#000000" d="M 12.503906 6.539062 C 12.695312 5.902344 12.726562 5.28125 12.597656 4.683594 C 12.578125 4.589844 12.484375 4.53125 12.390625 4.550781 C 12.292969 4.570312 12.234375 4.664062 12.253906 4.757812 C 12.371094 5.296875 12.34375 5.859375 12.167969 6.4375 C 11.984375 7.046875 11.65625 7.617188 11.34375 8.167969 C 10.679688 9.328125 9.992188 10.527344 10.683594 12.042969 C 10.714844 12.109375 10.777344 12.148438 10.84375 12.148438 C 10.867188 12.148438 10.894531 12.140625 10.917969 12.132812 C 11.003906 12.089844 11.042969 11.988281 11.003906 11.902344 C 10.382812 10.546875 10.996094 9.472656 11.648438 8.339844 C 11.972656 7.769531 12.308594 7.183594 12.503906 6.539062 Z M 12.503906 6.539062 " fill-opacity="1" fill-rule="nonzero"/><path fill="#000000" d="M 11.378906 15.183594 C 11.328125 15.101562 11.222656 15.074219 11.140625 15.125 L 2.730469 20.167969 C 2.648438 20.21875 2.621094 20.324219 2.671875 20.40625 C 2.703125 20.460938 2.761719 20.488281 2.820312 20.488281 C 2.851562 20.488281 2.882812 20.480469 2.910156 20.464844 L 11.320312 15.421875 C 11.402344 15.375 11.429688 15.265625 11.378906 15.183594 Z M 11.378906 15.183594 " fill-opacity="1" fill-rule="nonzero"/></svg>