<svg xmlns="http://www.w3.org/2000/svg" xmlns:xlink="http://www.w3.org/1999/xlink" zoomAndPan="magnify" preserveAspectRatio="xMidYMid meet" version="1.0" viewBox="0 0 20.23 26.97"><defs><clipPath id="a230fc4362"><path d="M 0 0 L 18 0 L 18 26.972656 L 0 26.972656 Z M 0 0 " clip-rule="nonzero"/></clipPath><clipPath id="34b18f0cb1"><path d="M 12 10 L 20.226562 10 L 20.226562 19 L 12 19 Z M 12 10 " clip-rule="nonzero"/></clipPath></defs><path fill="#100f0d" d="M 6.402344 19.28125 C 6.347656 19.28125 6.296875 19.261719 6.253906 19.222656 C 3.519531 16.777344 1.964844 12.976562 2.203125 9.300781 C 2.367188 6.789062 3.289062 4.75 4.804688 3.554688 C 5.878906 2.707031 7.179688 2.34375 8.378906 2.558594 C 9.96875 2.839844 11.011719 4.074219 11.5625 6.328125 C 12.0625 8.371094 11.730469 10.457031 10.628906 12.207031 C 10.5625 12.308594 10.425781 12.339844 10.320312 12.273438 C 10.21875 12.207031 10.1875 12.070312 10.253906 11.964844 C 11.289062 10.320312 11.601562 8.355469 11.132812 6.433594 C 10.625 4.371094 9.699219 3.246094 8.304688 2.996094 C 7.230469 2.804688 6.054688 3.136719 5.078125 3.90625 C 3.664062 5.023438 2.800781 6.949219 2.648438 9.328125 C 2.417969 12.871094 3.914062 16.535156 6.550781 18.890625 C 6.640625 18.972656 6.648438 19.113281 6.566406 19.207031 C 6.523438 19.253906 6.460938 19.28125 6.402344 19.28125 " fill-opacity="1" fill-rule="nonzero"/><g clip-path="url(#a230fc4362)"><path fill="#100f0d" d="M 11.417969 26.867188 C 11.328125 26.867188 11.238281 26.863281 11.148438 26.859375 C 10.257812 26.785156 9.445312 26.367188 8.859375 25.679688 C 8.460938 25.214844 8.203125 24.664062 7.957031 24.132812 C 7.78125 23.761719 7.605469 23.382812 7.382812 23.042969 C 6.925781 22.339844 6.253906 21.773438 5.605469 21.230469 C 5.398438 21.050781 5.179688 20.867188 4.96875 20.683594 C 1.796875 17.84375 -0.00390625 13.4375 0.273438 9.171875 C 0.613281 3.917969 3.601562 1.351562 6.285156 0.703125 C 8.746094 0.109375 11.105469 1.03125 12.296875 3.046875 C 12.367188 3.152344 14.066406 5.878906 13.832031 10.898438 C 13.828125 11.023438 13.71875 11.117188 13.601562 11.113281 C 13.480469 11.105469 13.382812 11.003906 13.390625 10.878906 C 13.617188 6.011719 11.9375 3.308594 11.917969 3.28125 C 10.828125 1.429688 8.65625 0.589844 6.386719 1.140625 C 3.859375 1.75 1.039062 4.1875 0.714844 9.203125 C 0.445312 13.328125 2.191406 17.601562 5.261719 20.347656 C 5.46875 20.53125 5.683594 20.710938 5.890625 20.886719 C 6.5625 21.453125 7.257812 22.039062 7.753906 22.796875 C 7.992188 23.164062 8.175781 23.558594 8.355469 23.945312 C 8.601562 24.472656 8.835938 24.972656 9.191406 25.390625 C 9.703125 25.988281 10.410156 26.347656 11.183594 26.410156 C 12.015625 26.476562 12.816406 26.1875 13.378906 25.605469 C 13.925781 25.050781 14.183594 24.308594 14.105469 23.519531 C 14.097656 23.433594 13.878906 21.320312 15.078125 19.976562 C 15.699219 19.273438 16.589844 18.917969 17.722656 18.917969 C 17.84375 18.917969 17.941406 19.019531 17.941406 19.140625 C 17.941406 19.265625 17.84375 19.363281 17.722656 19.363281 C 16.722656 19.363281 15.945312 19.671875 15.40625 20.273438 C 14.34375 21.464844 14.546875 23.453125 14.546875 23.472656 C 14.636719 24.398438 14.335938 25.265625 13.699219 25.917969 C 13.101562 26.53125 12.28125 26.867188 11.417969 26.867188 " fill-opacity="1" fill-rule="nonzero"/></g><path fill="#100f0d" d="M 11.378906 18.007812 C 11.339844 18.007812 11.300781 18.003906 11.261719 18 C 10.8125 17.933594 10.558594 17.535156 10.335938 17.183594 C 10.199219 16.972656 10.074219 16.773438 9.925781 16.667969 C 9.632812 16.457031 9.222656 16.5 8.789062 16.542969 C 8.660156 16.558594 8.53125 16.570312 8.40625 16.578125 C 7.105469 16.644531 5.996094 16.058594 5.359375 14.964844 C 4.703125 13.835938 4.710938 12.417969 5.378906 11.351562 C 5.835938 10.625 7.003906 9.441406 9.71875 9.679688 C 9.839844 9.6875 9.929688 9.796875 9.921875 9.917969 C 9.910156 10.042969 9.800781 10.132812 9.679688 10.121094 C 7.84375 9.960938 6.449219 10.484375 5.753906 11.589844 C 5.171875 12.515625 5.167969 13.753906 5.742188 14.738281 C 6.292969 15.683594 7.253906 16.191406 8.382812 16.128906 C 8.5 16.125 8.617188 16.113281 8.742188 16.101562 C 9.21875 16.050781 9.753906 15.996094 10.1875 16.308594 C 10.402344 16.460938 10.558594 16.707031 10.707031 16.941406 C 10.898438 17.238281 11.078125 17.519531 11.324219 17.554688 C 11.539062 17.585938 11.835938 17.4375 12.207031 17.117188 C 12.28125 17.050781 12.371094 16.964844 12.472656 16.871094 L 12.546875 16.800781 C 12.632812 16.71875 12.773438 16.722656 12.859375 16.8125 C 12.941406 16.902344 12.9375 17.042969 12.847656 17.125 L 12.773438 17.195312 C 12.667969 17.296875 12.574219 17.382812 12.496094 17.453125 C 12.070312 17.824219 11.703125 18.007812 11.378906 18.007812 " fill-opacity="1" fill-rule="nonzero"/><g clip-path="url(#34b18f0cb1)"><path fill="#100f0d" d="M 14.640625 16.015625 C 14.867188 16.015625 15.09375 16.089844 15.273438 16.234375 C 15.5 16.414062 15.644531 16.683594 15.664062 16.976562 L 15.699219 17.535156 L 16.023438 17.078125 C 16.191406 16.839844 16.449219 16.683594 16.738281 16.648438 C 17.023438 16.613281 17.3125 16.703125 17.53125 16.894531 L 17.953125 17.261719 L 17.859375 16.710938 C 17.808594 16.421875 17.882812 16.125 18.0625 15.898438 C 18.238281 15.667969 18.507812 15.527344 18.796875 15.507812 L 19.351562 15.46875 L 18.898438 15.144531 C 18.660156 14.976562 18.503906 14.714844 18.46875 14.425781 C 18.4375 14.136719 18.527344 13.84375 18.714844 13.625 L 19.082031 13.203125 L 18.53125 13.296875 C 18.246094 13.347656 17.953125 13.273438 17.726562 13.09375 C 17.5 12.914062 17.355469 12.644531 17.335938 12.351562 L 17.300781 11.792969 L 16.976562 12.25 C 16.808594 12.488281 16.550781 12.644531 16.261719 12.679688 C 15.976562 12.714844 15.6875 12.625 15.46875 12.433594 L 15.046875 12.066406 L 15.144531 12.617188 C 15.191406 12.90625 15.117188 13.203125 14.941406 13.429688 C 14.761719 13.660156 14.492188 13.800781 14.203125 13.820312 L 13.648438 13.859375 L 14.101562 14.183594 C 14.339844 14.351562 14.496094 14.613281 14.53125 14.902344 C 14.5625 15.191406 14.472656 15.484375 14.285156 15.703125 L 13.917969 16.125 L 14.46875 16.03125 C 14.527344 16.019531 14.582031 16.015625 14.640625 16.015625 Z M 15.523438 18.398438 C 15.503906 18.398438 15.484375 18.398438 15.464844 18.390625 C 15.371094 18.367188 15.308594 18.285156 15.300781 18.191406 L 15.21875 17.003906 C 15.210938 16.839844 15.128906 16.691406 15 16.585938 C 14.871094 16.484375 14.707031 16.441406 14.542969 16.46875 L 13.378906 16.671875 C 13.289062 16.6875 13.195312 16.644531 13.148438 16.5625 C 13.101562 16.480469 13.113281 16.375 13.175781 16.304688 L 13.949219 15.410156 C 14.058594 15.28125 14.109375 15.121094 14.089844 14.957031 C 14.070312 14.789062 13.984375 14.644531 13.847656 14.546875 L 12.882812 13.863281 C 12.804688 13.808594 12.773438 13.710938 12.796875 13.621094 C 12.824219 13.53125 12.902344 13.464844 12.996094 13.457031 L 14.175781 13.375 C 14.339844 13.363281 14.488281 13.285156 14.589844 13.15625 C 14.691406 13.023438 14.734375 12.859375 14.707031 12.695312 L 14.503906 11.523438 C 14.488281 11.429688 14.535156 11.335938 14.617188 11.289062 C 14.699219 11.246094 14.800781 11.253906 14.867188 11.316406 L 15.761719 12.097656 C 15.886719 12.207031 16.042969 12.257812 16.210938 12.238281 C 16.375 12.21875 16.519531 12.132812 16.613281 11.996094 L 17.296875 11.023438 C 17.351562 10.945312 17.445312 10.910156 17.539062 10.9375 C 17.628906 10.960938 17.691406 11.042969 17.699219 11.136719 L 17.78125 12.324219 C 17.792969 12.488281 17.871094 12.636719 18 12.742188 C 18.132812 12.84375 18.292969 12.886719 18.457031 12.859375 L 19.621094 12.65625 C 19.714844 12.640625 19.804688 12.683594 19.851562 12.765625 C 19.898438 12.847656 19.886719 12.953125 19.824219 13.023438 L 19.050781 13.917969 C 18.941406 14.046875 18.890625 14.207031 18.910156 14.371094 C 18.929688 14.539062 19.015625 14.683594 19.152344 14.78125 L 20.117188 15.464844 C 20.195312 15.519531 20.230469 15.617188 20.203125 15.707031 C 20.175781 15.796875 20.097656 15.863281 20.003906 15.871094 L 18.828125 15.953125 C 18.660156 15.964844 18.511719 16.042969 18.410156 16.175781 C 18.308594 16.304688 18.265625 16.46875 18.292969 16.632812 L 18.496094 17.804688 C 18.511719 17.898438 18.464844 17.992188 18.382812 18.039062 C 18.304688 18.082031 18.203125 18.074219 18.132812 18.011719 L 17.242188 17.230469 C 17.113281 17.121094 16.957031 17.070312 16.789062 17.089844 C 16.625 17.109375 16.480469 17.195312 16.386719 17.332031 L 15.703125 18.304688 C 15.664062 18.367188 15.59375 18.398438 15.523438 18.398438 " fill-opacity="1" fill-rule="nonzero"/></g></svg>