<svg xmlns="http://www.w3.org/2000/svg" xmlns:xlink="http://www.w3.org/1999/xlink" zoomAndPan="magnify" preserveAspectRatio="xMidYMid meet" version="1.0" viewBox="0 0 20.98 23.98"><defs><clipPath id="647714a940"><path d="M 0 0 L 20.980469 0 L 20.980469 23.976562 L 0 23.976562 Z M 0 0 " clip-rule="nonzero"/></clipPath></defs><path fill="#000000" d="M 15.675781 13.566406 C 15.675781 14.046875 15.28125 14.4375 14.792969 14.4375 L 7.15625 14.4375 C 6.667969 14.4375 6.273438 14.046875 6.273438 13.566406 L 6.273438 6.0625 C 6.273438 5.582031 6.667969 5.195312 7.15625 5.195312 L 14.792969 5.195312 C 15.28125 5.195312 15.675781 5.582031 15.675781 6.0625 Z M 11.941406 1.804688 C 7.792969 1.5625 4.25 4.542969 3.867188 8.589844 C 3.808594 9.199219 3.667969 9.792969 3.445312 10.355469 L 1.886719 14.265625 C 1.851562 14.359375 1.886719 14.433594 1.914062 14.46875 C 1.933594 14.5 1.992188 14.566406 2.101562 14.566406 L 2.773438 14.566406 C 3.390625 14.566406 3.835938 14.964844 3.835938 15.507812 L 3.835938 18.8125 C 3.835938 19.292969 4.234375 19.6875 4.726562 19.6875 L 5.574219 19.6875 C 6.074219 19.6875 6.59375 19.65625 7.117188 19.597656 C 7.421875 19.5625 7.722656 19.65625 7.949219 19.859375 C 8.179688 20.058594 8.308594 20.347656 8.308594 20.648438 L 8.308594 22.1875 L 15.890625 22.1875 L 15.890625 18.710938 C 15.890625 16.710938 16.421875 15.773438 17.4375 14.15625 C 17.644531 13.828125 17.835938 13.496094 18.007812 13.15625 C 18.230469 12.789062 18.398438 12.460938 18.535156 12.132812 C 18.539062 12.121094 18.542969 12.113281 18.546875 12.105469 C 19.011719 10.972656 19.1875 9.785156 19.070312 8.570312 C 18.714844 4.929688 15.648438 2.023438 11.941406 1.804688 " fill-opacity="1" fill-rule="nonzero"/><g clip-path="url(#647714a940)"><path fill="#000000" d="M 19.367188 12.378906 C 19.359375 12.40625 19.347656 12.433594 19.335938 12.457031 C 19.183594 12.820312 18.996094 13.1875 18.765625 13.566406 C 18.59375 13.898438 18.390625 14.257812 18.175781 14.601562 C 17.214844 16.125 16.753906 16.9375 16.753906 18.710938 L 16.753906 22.609375 C 16.753906 22.847656 16.5625 23.035156 16.324219 23.035156 L 7.878906 23.035156 C 7.640625 23.035156 7.445312 22.847656 7.445312 22.609375 L 7.445312 20.648438 C 7.445312 20.566406 7.402344 20.515625 7.375 20.492188 C 7.351562 20.46875 7.296875 20.433594 7.21875 20.441406 C 6.660156 20.507812 6.109375 20.539062 5.574219 20.539062 L 4.726562 20.539062 C 3.757812 20.539062 2.972656 19.765625 2.972656 18.8125 L 2.972656 15.507812 C 2.972656 15.421875 2.792969 15.417969 2.773438 15.417969 L 2.101562 15.417969 C 1.742188 15.417969 1.402344 15.242188 1.199219 14.949219 C 0.996094 14.65625 0.953125 14.28125 1.085938 13.953125 L 2.640625 10.046875 C 2.832031 9.558594 2.957031 9.042969 3.007812 8.511719 C 3.433594 4.003906 7.382812 0.679688 11.992188 0.957031 C 16.121094 1.199219 19.535156 4.4375 19.929688 8.488281 C 20.0625 9.824219 19.871094 11.132812 19.367188 12.378906 Z M 20.824219 8.402344 C 20.386719 3.921875 16.613281 0.34375 12.046875 0.0742188 C 11.851562 0.0625 11.652344 0.0546875 11.457031 0.0546875 C 6.582031 0.0546875 2.5625 3.65625 2.113281 8.429688 C 2.070312 8.878906 1.964844 9.3125 1.804688 9.722656 L 0.246094 13.632812 C 0.0078125 14.234375 0.0859375 14.914062 0.453125 15.445312 C 0.820312 15.972656 1.425781 16.289062 2.070312 16.300781 L 2.070312 18.8125 C 2.070312 20.25 3.261719 21.421875 4.726562 21.421875 L 5.574219 21.421875 C 5.894531 21.421875 6.21875 21.410156 6.546875 21.390625 L 6.546875 22.609375 C 6.546875 23.332031 7.144531 23.921875 7.878906 23.921875 L 16.324219 23.921875 C 17.058594 23.921875 17.65625 23.332031 17.65625 22.609375 L 17.65625 18.710938 C 17.65625 17.171875 18.027344 16.519531 18.941406 15.066406 C 19.164062 14.710938 19.375 14.339844 19.554688 13.992188 C 19.792969 13.589844 19.992188 13.207031 20.160156 12.8125 C 20.179688 12.769531 20.199219 12.71875 20.214844 12.671875 C 20.761719 11.304688 20.96875 9.867188 20.824219 8.402344 " fill-opacity="1" fill-rule="nonzero"/></g><path fill="#000000" d="M 10.976562 9.945312 C 10.617188 9.945312 10.324219 10.230469 10.324219 10.582031 C 10.324219 10.933594 10.617188 11.222656 10.976562 11.222656 C 11.332031 11.222656 11.625 10.933594 11.625 10.582031 C 11.625 10.230469 11.332031 9.945312 10.976562 9.945312 " fill-opacity="1" fill-rule="nonzero"/><path fill="#000000" d="M 12.859375 6.042969 L 12.160156 6.042969 L 12.160156 7.882812 L 12.859375 7.882812 L 12.859375 6.042969 " fill-opacity="1" fill-rule="nonzero"/><path fill="#000000" d="M 11.292969 6.042969 L 9.09375 6.042969 L 9.09375 7.882812 L 11.292969 7.882812 L 11.292969 6.042969 " fill-opacity="1" fill-rule="nonzero"/><path fill="#000000" d="M 10.976562 12.070312 C 10.140625 12.070312 9.460938 11.40625 9.460938 10.582031 C 9.460938 9.761719 10.140625 9.09375 10.976562 9.09375 C 11.808594 9.09375 12.488281 9.761719 12.488281 10.582031 C 12.488281 11.40625 11.808594 12.070312 10.976562 12.070312 Z M 13.722656 8.308594 C 13.722656 8.542969 13.53125 8.734375 13.292969 8.734375 L 8.660156 8.734375 C 8.421875 8.734375 8.226562 8.542969 8.226562 8.308594 L 8.226562 6.046875 L 7.15625 6.042969 L 7.136719 13.566406 L 14.792969 13.585938 C 14.804688 13.585938 14.8125 13.578125 14.8125 13.566406 L 14.8125 6.0625 L 13.722656 6.058594 L 13.722656 8.308594 " fill-opacity="1" fill-rule="nonzero"/></svg>