<svg xmlns="http://www.w3.org/2000/svg" xmlns:xlink="http://www.w3.org/1999/xlink" zoomAndPan="magnify" preserveAspectRatio="xMidYMid meet" version="1.0" viewBox="0.02 0 22.46 22.48"><defs><clipPath id="be448bec15"><path d="M 5 0 L 17 0 L 17 22.476562 L 5 22.476562 Z M 5 0 " clip-rule="nonzero"/></clipPath><clipPath id="0c30ffcac8"><path d="M 15 0 L 22.476562 0 L 22.476562 7 L 15 7 Z M 15 0 " clip-rule="nonzero"/></clipPath></defs><path fill="#000000" d="M 6.546875 4.46875 L 6.171875 3.828125 C 4.898438 4.554688 4.109375 5.902344 4.109375 7.34375 L 4.859375 7.34375 C 4.859375 6.164062 5.507812 5.0625 6.546875 4.46875 Z M 6.546875 4.46875 " fill-opacity="1" fill-rule="nonzero"/><path fill="#000000" d="M 15.96875 11.898438 L 16.355469 12.53125 C 17.378906 11.925781 17.992188 10.859375 17.992188 9.683594 L 17.242188 9.683594 C 17.242188 10.597656 16.765625 11.425781 15.96875 11.898438 Z M 15.96875 11.898438 " fill-opacity="1" fill-rule="nonzero"/><g clip-path="url(#be448bec15)"><path fill="#000000" d="M 14.988281 16.144531 L 14.652344 11.527344 C 14.972656 11.519531 15.292969 11.433594 15.582031 11.261719 C 16.152344 10.925781 16.492188 10.335938 16.492188 9.679688 L 16.492188 7.34375 C 16.492188 5.917969 15.3125 4.761719 13.867188 4.761719 L 13.460938 4.761719 C 13.714844 4.324219 13.867188 3.824219 13.867188 3.285156 C 13.867188 1.65625 12.519531 0.332031 10.863281 0.332031 C 9.207031 0.332031 7.863281 1.65625 7.863281 3.285156 C 7.863281 3.824219 8.011719 4.324219 8.265625 4.761719 L 8.238281 4.761719 C 6.789062 4.761719 5.609375 5.917969 5.609375 7.34375 L 5.609375 11.035156 C 5.609375 12.054688 6.453125 12.882812 7.484375 12.882812 L 7.894531 12.882812 L 8.234375 16.550781 L 7.117188 22.035156 C 7.097656 22.144531 7.125 22.257812 7.195312 22.34375 C 7.265625 22.425781 7.375 22.476562 7.484375 22.476562 L 10.488281 22.476562 C 10.664062 22.476562 10.816406 22.359375 10.855469 22.191406 L 11.746094 18.398438 L 13.136719 22.230469 C 13.191406 22.378906 13.332031 22.476562 13.492188 22.476562 L 16.117188 22.476562 C 16.234375 22.476562 16.34375 22.425781 16.414062 22.335938 C 16.484375 22.246094 16.507812 22.128906 16.480469 22.019531 Z M 10.863281 1.070312 C 12.105469 1.070312 13.113281 2.0625 13.113281 3.285156 C 13.113281 4.507812 12.105469 5.5 10.863281 5.5 C 9.621094 5.5 8.613281 4.507812 8.613281 3.285156 C 8.613281 2.0625 9.621094 1.070312 10.863281 1.070312 Z M 13.753906 21.738281 L 11.988281 16.878906 L 11.988281 13.617188 L 11.238281 13.617188 L 11.238281 17.269531 L 10.191406 21.738281 L 7.945312 21.738281 L 8.980469 16.644531 C 8.988281 16.609375 8.988281 16.574219 8.984375 16.539062 L 8.648438 12.882812 L 10.488281 12.882812 C 10.695312 12.882812 10.863281 12.714844 10.863281 12.511719 L 10.863281 10.296875 C 10.863281 10.09375 10.695312 9.929688 10.488281 9.929688 L 8.613281 9.929688 L 8.613281 7.714844 L 7.863281 7.714844 L 7.863281 10.296875 C 7.863281 10.5 8.027344 10.667969 8.238281 10.667969 L 10.113281 10.667969 L 10.113281 12.144531 L 7.484375 12.144531 C 6.867188 12.144531 6.359375 11.644531 6.359375 11.035156 L 6.359375 7.34375 C 6.359375 6.328125 7.203125 5.5 8.238281 5.5 L 8.882812 5.5 C 9.414062 5.957031 10.105469 6.238281 10.863281 6.238281 C 11.621094 6.238281 12.3125 5.957031 12.84375 5.5 L 13.867188 5.5 C 14.898438 5.5 15.742188 6.328125 15.742188 7.34375 L 15.742188 9.679688 C 15.742188 10.074219 15.539062 10.429688 15.195312 10.628906 C 14.851562 10.832031 14.4375 10.84375 14.085938 10.660156 L 11.011719 9.046875 L 11.757812 7.828125 L 13.699219 8.78125 C 13.816406 8.839844 13.953125 8.832031 14.0625 8.765625 C 14.171875 8.699219 14.242188 8.578125 14.242188 8.453125 L 14.242188 7.34375 L 13.492188 7.34375 L 13.492188 7.855469 L 11.78125 7.015625 C 11.605469 6.929688 11.394531 6.988281 11.292969 7.15625 L 10.167969 9 C 10.113281 9.085938 10.097656 9.191406 10.125 9.289062 C 10.152344 9.386719 10.222656 9.46875 10.3125 9.515625 L 13.734375 11.308594 C 13.785156 11.335938 13.835938 11.359375 13.890625 11.378906 L 14.242188 16.230469 C 14.242188 16.25 14.246094 16.273438 14.253906 16.292969 L 15.636719 21.738281 Z M 13.753906 21.738281 " fill-opacity="1" fill-rule="nonzero"/></g><g clip-path="url(#0c30ffcac8)"><path fill="#000000" d="M 21.515625 3.652344 L 21.785156 4.1875 L 22.457031 3.859375 L 22.164062 3.285156 L 22.457031 2.710938 L 21.785156 2.382812 L 21.515625 2.914062 L 20.023438 2.914062 L 21.078125 1.878906 L 21.652344 2.070312 L 21.890625 1.367188 L 21.273438 1.164062 L 21.066406 0.558594 L 20.355469 0.792969 L 20.546875 1.359375 L 19.496094 2.394531 L 19.496094 0.929688 L 20.039062 0.664062 L 19.703125 0 L 19.121094 0.289062 L 18.535156 0 L 18.199219 0.664062 L 18.742188 0.929688 L 18.742188 2.394531 L 17.691406 1.359375 L 17.882812 0.792969 L 17.171875 0.558594 L 16.964844 1.164062 L 16.347656 1.367188 L 16.585938 2.070312 L 17.160156 1.878906 L 18.214844 2.914062 L 16.722656 2.914062 L 16.453125 2.382812 L 15.78125 2.710938 L 16.074219 3.285156 L 15.78125 3.859375 L 16.453125 4.1875 L 16.722656 3.652344 L 18.214844 3.652344 L 17.160156 4.6875 L 16.585938 4.5 L 16.347656 5.199219 L 16.964844 5.402344 L 17.171875 6.011719 L 17.882812 5.777344 L 17.691406 5.210938 L 18.742188 4.175781 L 18.742188 5.640625 L 18.199219 5.90625 L 18.535156 6.566406 L 19.121094 6.28125 L 19.703125 6.566406 L 20.039062 5.90625 L 19.496094 5.640625 L 19.496094 4.175781 L 20.546875 5.210938 L 20.355469 5.777344 L 21.066406 6.011719 L 21.273438 5.402344 L 21.890625 5.199219 L 21.652344 4.5 L 21.078125 4.6875 L 20.023438 3.652344 Z M 21.515625 3.652344 " fill-opacity="1" fill-rule="nonzero"/></g><path fill="#000000" d="M 6.023438 15.667969 L 5.753906 16.203125 L 4.265625 16.203125 L 5.316406 15.167969 L 5.894531 15.355469 L 6.128906 14.65625 L 5.511719 14.453125 L 5.304688 13.84375 L 4.59375 14.078125 L 4.785156 14.644531 L 3.734375 15.679688 L 3.734375 14.214844 L 4.277344 13.949219 L 3.941406 13.289062 L 3.359375 13.574219 L 2.773438 13.289062 L 2.441406 13.949219 L 2.984375 14.214844 L 2.984375 15.679688 L 1.929688 14.644531 L 2.121094 14.078125 L 1.410156 13.84375 L 1.203125 14.453125 L 0.585938 14.65625 L 0.824219 15.355469 L 1.398438 15.167969 L 2.453125 16.203125 L 0.964844 16.203125 L 0.691406 15.667969 L 0.0195312 16 L 0.3125 16.570312 L 0.0195312 17.144531 L 0.691406 17.476562 L 0.964844 16.941406 L 2.453125 16.941406 L 1.398438 17.976562 L 0.824219 17.789062 L 0.585938 18.488281 L 1.203125 18.691406 L 1.410156 19.296875 L 2.121094 19.066406 L 1.929688 18.5 L 2.984375 17.460938 L 2.984375 18.925781 L 2.441406 19.195312 L 2.773438 19.855469 L 3.359375 19.566406 L 3.941406 19.855469 L 4.277344 19.195312 L 3.734375 18.925781 L 3.734375 17.460938 L 4.785156 18.5 L 4.59375 19.066406 L 5.304688 19.296875 L 5.511719 18.691406 L 6.128906 18.488281 L 5.894531 17.789062 L 5.316406 17.976562 L 4.265625 16.941406 L 5.753906 16.941406 L 6.023438 17.476562 L 6.695312 17.144531 L 6.40625 16.570312 L 6.695312 16 Z M 6.023438 15.667969 " fill-opacity="1" fill-rule="nonzero"/><path fill="#000000" d="M 17.882812 14.097656 L 17.132812 13.359375 L 16.601562 13.878906 L 17.085938 14.355469 L 16.601562 14.835938 C 16.457031 14.980469 16.457031 15.210938 16.601562 15.355469 L 17.085938 15.832031 L 16.601562 16.3125 C 16.457031 16.457031 16.457031 16.6875 16.601562 16.832031 L 17.085938 17.308594 L 16.601562 17.789062 L 17.132812 18.308594 L 17.882812 17.570312 C 18.03125 17.425781 18.03125 17.191406 17.882812 17.050781 L 17.398438 16.570312 L 17.882812 16.09375 C 18.03125 15.949219 18.03125 15.71875 17.882812 15.574219 L 17.398438 15.09375 L 17.882812 14.617188 C 18.03125 14.472656 18.03125 14.242188 17.882812 14.097656 Z M 17.882812 14.097656 " fill-opacity="1" fill-rule="nonzero"/><path fill="#000000" d="M 3.46875 10.558594 L 3.953125 11.035156 L 3.46875 11.511719 L 4 12.035156 L 4.75 11.296875 C 4.894531 11.152344 4.894531 10.917969 4.75 10.773438 L 4.265625 10.296875 L 4.75 9.820312 C 4.894531 9.675781 4.894531 9.441406 4.75 9.296875 L 4.265625 8.820312 L 4.75 8.34375 L 4.21875 7.820312 L 3.46875 8.558594 C 3.320312 8.703125 3.320312 8.9375 3.46875 9.082031 L 3.953125 9.558594 L 3.46875 10.035156 C 3.320312 10.179688 3.320312 10.414062 3.46875 10.558594 Z M 3.46875 10.558594 " fill-opacity="1" fill-rule="nonzero"/></svg>