<svg xmlns="http://www.w3.org/2000/svg" xmlns:xlink="http://www.w3.org/1999/xlink" zoomAndPan="magnify" preserveAspectRatio="xMidYMid meet" version="1.0" viewBox="0 0 21.72 23.23"><defs><clipPath id="6ba23d3ae4"><path d="M 0 0 L 21.71875 0 L 21.71875 23.226562 L 0 23.226562 Z M 0 0 " clip-rule="nonzero"/></clipPath></defs><g clip-path="url(#6ba23d3ae4)"><path fill="#000000" d="M 1.070312 0.015625 C 0.695312 0.0273438 0.375 0.28125 0.285156 0.636719 C -0.0078125 1.742188 0.117188 2.964844 0.734375 4.03125 C 1.179688 4.800781 1.828125 5.386719 2.574219 5.769531 C 2.207031 6.378906 2.003906 7.117188 2.003906 7.972656 C 2.003906 9.652344 3.339844 11.449219 4.945312 13.019531 C 5.25 13.316406 5.5625 13.605469 5.882812 13.882812 C 5.617188 14.078125 5.410156 14.359375 5.320312 14.695312 C 5.222656 15.054688 5.265625 15.421875 5.417969 15.734375 C 5.222656 15.757812 5.035156 15.839844 4.886719 15.984375 C 4.5625 16.304688 4.550781 16.71875 4.75 17.054688 C 4.5625 17.085938 4.382812 17.148438 4.222656 17.238281 C 3.878906 17.433594 3.613281 17.757812 3.5 18.164062 C 3.390625 18.566406 3.457031 18.980469 3.65625 19.316406 C 3.855469 19.65625 4.183594 19.917969 4.597656 20.027344 C 4.886719 20.101562 5.183594 20.09375 5.449219 20.011719 C 5.5 20.414062 5.816406 20.683594 6.109375 20.75 C 6.34375 20.8125 6.585938 20.777344 6.78125 20.667969 C 6.828125 21.085938 7.023438 21.464844 7.308594 21.746094 C 7.640625 22.074219 8.101562 22.273438 8.609375 22.273438 C 9.179688 22.273438 9.710938 22.007812 10.050781 21.585938 L 10.050781 23.015625 C 10.050781 23.125 10.140625 23.210938 10.25 23.210938 L 11.460938 23.210938 C 11.570312 23.210938 11.660156 23.125 11.65625 23.015625 L 11.65625 21.585938 C 12 22.015625 12.507812 22.273438 13.101562 22.273438 C 13.609375 22.273438 14.070312 22.074219 14.402344 21.746094 C 14.6875 21.464844 14.882812 21.085938 14.929688 20.667969 C 15.125 20.777344 15.367188 20.816406 15.601562 20.75 C 15.839844 20.6875 16.03125 20.535156 16.148438 20.339844 C 16.207031 20.242188 16.246094 20.128906 16.261719 20.011719 C 16.527344 20.09375 16.824219 20.101562 17.113281 20.027344 C 17.527344 19.917969 17.855469 19.65625 18.054688 19.316406 C 18.253906 18.980469 18.320312 18.566406 18.210938 18.164062 C 18.097656 17.757812 17.832031 17.433594 17.488281 17.238281 C 17.328125 17.148438 17.148438 17.085938 16.960938 17.054688 C 17.199219 16.652344 17.078125 16.242188 16.824219 15.984375 C 16.675781 15.839844 16.488281 15.757812 16.292969 15.734375 C 16.445312 15.421875 16.488281 15.054688 16.390625 14.699219 C 16.300781 14.359375 16.097656 14.078125 15.832031 13.882812 C 16.152344 13.605469 16.46875 13.3125 16.773438 13.015625 C 18.378906 11.445312 19.707031 9.648438 19.707031 7.972656 C 19.707031 7.125 19.5 6.378906 19.136719 5.769531 C 19.882812 5.386719 20.535156 4.800781 20.976562 4.03125 C 21.59375 2.964844 21.71875 1.742188 21.425781 0.636719 C 21.335938 0.28125 21.015625 0.0273438 20.640625 0.015625 C 20.046875 0.015625 19.671875 0.523438 19.8125 1.050781 C 20.003906 1.761719 19.925781 2.535156 19.53125 3.226562 C 19.148438 3.886719 18.550781 4.324219 17.882812 4.519531 C 16.238281 3.429688 13.710938 3.113281 10.855469 3.113281 C 8.007812 3.113281 5.472656 3.433594 3.832031 4.519531 C 3.164062 4.324219 2.566406 3.886719 2.183594 3.226562 C 1.785156 2.535156 1.707031 1.761719 1.898438 1.050781 C 2.070312 0.414062 1.503906 -0.0078125 1.074219 0.015625 Z M 1.128906 0.410156 C 1.355469 0.410156 1.601562 0.640625 1.519531 0.953125 C 1.300781 1.753906 1.390625 2.636719 1.839844 3.414062 C 2.289062 4.191406 3.003906 4.707031 3.800781 4.921875 C 3.855469 4.9375 3.917969 4.929688 3.964844 4.890625 C 5.472656 3.847656 7.988281 3.5 10.855469 3.5 C 13.730469 3.5 16.242188 3.84375 17.746094 4.890625 C 17.796875 4.925781 17.855469 4.9375 17.910156 4.921875 C 18.707031 4.707031 19.425781 4.191406 19.871094 3.414062 C 20.320312 2.636719 20.410156 1.753906 20.195312 0.953125 C 20.121094 0.683594 20.296875 0.46875 20.5 0.417969 C 20.695312 0.363281 20.96875 0.453125 21.046875 0.734375 C 21.316406 1.742188 21.199219 2.863281 20.636719 3.839844 C 20.195312 4.605469 19.539062 5.175781 18.789062 5.519531 C 18.679688 5.570312 18.640625 5.703125 18.707031 5.804688 C 19.089844 6.367188 19.3125 7.109375 19.3125 7.972656 C 19.3125 9.441406 18.070312 11.199219 16.496094 12.738281 C 14.925781 14.277344 13.042969 15.605469 11.851562 16.28125 C 11.511719 16.472656 11.25 16.792969 11.140625 17.195312 C 11.054688 17.523438 11.050781 17.921875 11.308594 18.359375 C 11.433594 18.515625 11.519531 18.734375 11.519531 18.988281 C 11.519531 19.238281 11.433594 19.457031 11.308594 19.613281 C 11.28125 19.648438 11.265625 19.691406 11.265625 19.734375 C 11.265625 20.765625 11.265625 21.792969 11.265625 22.824219 L 10.445312 22.824219 L 10.445312 19.734375 C 10.445312 19.691406 10.429688 19.648438 10.402344 19.613281 C 10.277344 19.457031 10.195312 19.238281 10.195312 18.988281 C 10.195312 18.734375 10.277344 18.515625 10.402344 18.359375 C 10.660156 17.953125 10.664062 17.539062 10.574219 17.195312 C 10.464844 16.792969 10.199219 16.472656 9.859375 16.28125 C 8.683594 15.613281 6.796875 14.285156 5.222656 12.746094 C 3.648438 11.207031 2.398438 9.441406 2.398438 7.972656 C 2.398438 7.097656 2.613281 6.371094 3.003906 5.804688 C 3.070312 5.707031 3.035156 5.570312 2.921875 5.519531 C 2.171875 5.175781 1.519531 4.605469 1.078125 3.839844 C 0.511719 2.863281 0.394531 1.742188 0.667969 0.734375 C 0.726562 0.519531 0.90625 0.410156 1.128906 0.410156 Z M 10.855469 4.613281 C 8.980469 4.613281 7.273438 4.792969 6.003906 5.355469 C 4.738281 5.925781 3.914062 6.921875 3.914062 8.433594 C 3.914062 10.003906 5.34375 11.738281 6.898438 13.113281 C 7.675781 13.804688 8.488281 14.398438 9.1875 14.828125 C 9.539062 15.039062 9.859375 15.214844 10.140625 15.332031 C 10.417969 15.453125 10.648438 15.527344 10.855469 15.527344 C 11.0625 15.527344 11.292969 15.453125 11.570312 15.332031 C 11.851562 15.214844 12.171875 15.039062 12.523438 14.828125 C 13.222656 14.398438 14.035156 13.804688 14.8125 13.113281 C 16.367188 11.738281 17.796875 10.003906 17.796875 8.433594 C 17.796875 6.921875 16.972656 5.925781 15.707031 5.355469 C 14.4375 4.792969 12.730469 4.613281 10.855469 4.613281 Z M 10.855469 5 C 12.707031 5 14.371094 5.1875 15.542969 5.710938 C 16.71875 6.234375 17.402344 7.050781 17.402344 8.433594 C 17.402344 8.863281 17.265625 9.332031 17.023438 9.816406 C 16.917969 9.773438 16.773438 9.714844 16.613281 9.65625 C 16.28125 9.535156 15.886719 9.410156 15.558594 9.410156 C 15.226562 9.410156 14.945312 9.546875 14.691406 9.660156 C 14.4375 9.777344 14.207031 9.875 13.992188 9.875 C 13.773438 9.875 13.542969 9.777344 13.289062 9.660156 C 13.03125 9.546875 12.75 9.410156 12.421875 9.410156 C 12.09375 9.410156 11.8125 9.546875 11.554688 9.660156 C 11.300781 9.777344 11.070312 9.875 10.855469 9.875 C 10.640625 9.875 10.410156 9.777344 10.152344 9.660156 C 9.898438 9.546875 9.617188 9.410156 9.289062 9.410156 C 8.957031 9.410156 8.675781 9.546875 8.421875 9.660156 C 8.167969 9.777344 7.9375 9.875 7.722656 9.875 C 7.503906 9.875 7.273438 9.777344 7.019531 9.660156 C 6.765625 9.546875 6.484375 9.410156 6.152344 9.410156 C 5.824219 9.410156 5.429688 9.535156 5.097656 9.65625 C 4.9375 9.714844 4.792969 9.773438 4.6875 9.816406 C 4.445312 9.332031 4.308594 8.863281 4.308594 8.433594 C 4.308594 7.050781 4.992188 6.234375 6.167969 5.710938 C 7.339844 5.1875 9.003906 5 10.855469 5 Z M 6.152344 9.796875 C 6.371094 9.796875 6.597656 9.894531 6.855469 10.011719 C 7.109375 10.128906 7.390625 10.261719 7.722656 10.261719 C 8.050781 10.261719 8.332031 10.128906 8.585938 10.011719 C 8.84375 9.894531 9.074219 9.796875 9.289062 9.796875 C 9.503906 9.796875 9.734375 9.894531 9.988281 10.011719 C 10.246094 10.128906 10.527344 10.261719 10.855469 10.261719 C 11.1875 10.261719 11.464844 10.128906 11.722656 10.011719 C 11.976562 9.894531 12.207031 9.796875 12.421875 9.796875 C 12.640625 9.796875 12.867188 9.894531 13.125 10.011719 C 13.378906 10.128906 13.660156 10.261719 13.992188 10.261719 C 14.320312 10.261719 14.601562 10.128906 14.855469 10.011719 C 15.109375 9.894531 15.339844 9.796875 15.558594 9.796875 C 15.773438 9.796875 16.164062 9.90625 16.476562 10.019531 C 16.621094 10.070312 16.742188 10.117188 16.839844 10.160156 C 16.308594 11.070312 15.460938 12.019531 14.546875 12.828125 C 13.789062 13.5 12.992188 14.085938 12.316406 14.5 C 11.976562 14.707031 11.667969 14.867188 11.414062 14.980469 C 11.15625 15.089844 10.949219 15.140625 10.855469 15.140625 C 10.761719 15.140625 10.554688 15.089844 10.296875 14.980469 C 10.042969 14.867188 9.734375 14.707031 9.394531 14.5 C 8.71875 14.085938 7.921875 13.5 7.164062 12.828125 C 6.25 12.019531 5.402344 11.070312 4.871094 10.160156 C 4.96875 10.117188 5.09375 10.070312 5.234375 10.019531 C 5.546875 9.90625 5.9375 9.796875 6.152344 9.796875 Z M 6.1875 14.144531 C 6.753906 14.625 7.332031 15.070312 7.875 15.457031 C 7.796875 15.675781 7.65625 15.855469 7.480469 15.984375 C 7.34375 15.929688 7.1875 15.898438 7.03125 15.902344 C 6.78125 15.910156 6.546875 15.984375 6.351562 16.117188 C 6.121094 16.019531 5.933594 15.851562 5.816406 15.648438 C 5.667969 15.398438 5.617188 15.097656 5.699219 14.796875 C 5.777344 14.515625 5.957031 14.289062 6.1875 14.144531 Z M 15.527344 14.144531 C 15.757812 14.289062 15.933594 14.515625 16.011719 14.796875 C 16.09375 15.097656 16.042969 15.398438 15.894531 15.644531 C 15.777344 15.851562 15.589844 16.015625 15.359375 16.113281 C 15.164062 15.984375 14.929688 15.90625 14.683594 15.902344 C 14.523438 15.902344 14.371094 15.929688 14.230469 15.984375 C 14.054688 15.855469 13.914062 15.675781 13.835938 15.457031 C 14.378906 15.066406 14.957031 14.625 15.527344 14.144531 Z M 8.207031 15.6875 C 8.746094 16.0625 9.246094 16.378906 9.664062 16.613281 C 9.949219 16.777344 10.160156 17.085938 10.203125 17.332031 C 10.199219 17.730469 10.039062 18.085938 9.769531 18.347656 C 9.503906 18.609375 9.140625 18.769531 8.730469 18.769531 C 8.234375 18.769531 7.8125 18.539062 7.539062 18.171875 C 7.957031 17.976562 8.257812 17.566406 8.246094 17.089844 C 8.242188 16.742188 8.082031 16.421875 7.832031 16.199219 C 7.988281 16.058594 8.117188 15.886719 8.207031 15.6875 Z M 13.507812 15.6875 C 13.59375 15.886719 13.722656 16.058594 13.878906 16.199219 C 13.628906 16.421875 13.46875 16.742188 13.464844 17.089844 C 13.453125 17.566406 13.753906 17.976562 14.171875 18.171875 C 14.125 18.234375 14.074219 18.292969 14.019531 18.347656 C 13.75 18.609375 13.386719 18.769531 12.980469 18.769531 C 12.570312 18.769531 12.207031 18.609375 11.941406 18.347656 C 11.757812 18.191406 11.484375 17.730469 11.519531 17.292969 C 11.601562 16.992188 11.796875 16.757812 12.050781 16.613281 C 12.46875 16.375 12.96875 16.0625 13.507812 15.6875 Z M 5.710938 16.148438 C 5.824219 16.253906 5.9375 16.339844 6.050781 16.398438 C 5.917969 16.570312 5.835938 16.777344 5.820312 17.003906 C 5.730469 17.066406 5.625 17.101562 5.519531 17.101562 C 5.390625 17.101562 5.265625 17.054688 5.164062 16.957031 C 4.957031 16.734375 4.988281 16.4375 5.164062 16.257812 C 5.308594 16.117188 5.519531 16.074219 5.710938 16.148438 Z M 16.191406 16.113281 C 16.320312 16.113281 16.449219 16.160156 16.546875 16.257812 C 16.742188 16.464844 16.753906 16.746094 16.546875 16.957031 C 16.449219 17.054688 16.320312 17.101562 16.191406 17.101562 C 16.085938 17.101562 15.980469 17.066406 15.890625 17 C 15.875 16.777344 15.792969 16.570312 15.660156 16.398438 C 15.789062 16.328125 15.898438 16.242188 16 16.144531 C 16.054688 16.121094 16.109375 16.113281 16.191406 16.113281 Z M 7.035156 16.285156 C 7.46875 16.277344 7.847656 16.664062 7.855469 17.097656 C 7.863281 17.523438 7.472656 17.890625 7.03125 17.898438 C 6.597656 17.90625 6.21875 17.523438 6.210938 17.089844 C 6.203125 16.664062 6.59375 16.292969 7.035156 16.285156 Z M 14.675781 16.285156 C 15.117188 16.296875 15.507812 16.664062 15.5 17.089844 C 15.492188 17.523438 15.113281 17.90625 14.683594 17.898438 C 14.238281 17.890625 13.847656 17.523438 13.855469 17.097656 C 13.863281 16.664062 14.242188 16.277344 14.675781 16.285156 Z M 5.871094 17.417969 C 5.898438 17.519531 5.945312 17.617188 6 17.707031 C 5.878906 17.835938 5.785156 17.996094 5.742188 18.179688 C 5.667969 18.476562 5.707031 18.832031 5.902344 19.132812 C 5.703125 19.242188 5.578125 19.414062 5.507812 19.570312 C 5.265625 19.691406 4.980469 19.726562 4.699219 19.652344 C 4.390625 19.570312 4.144531 19.375 3.996094 19.125 C 3.847656 18.871094 3.800781 18.566406 3.882812 18.261719 C 3.964844 17.957031 4.164062 17.71875 4.417969 17.574219 C 4.675781 17.429688 4.988281 17.378906 5.296875 17.460938 C 5.371094 17.472656 5.4375 17.492188 5.519531 17.488281 C 5.644531 17.480469 5.761719 17.46875 5.871094 17.417969 Z M 15.839844 17.417969 C 16.039062 17.496094 16.234375 17.507812 16.414062 17.460938 C 16.761719 17.371094 17.054688 17.4375 17.292969 17.574219 C 17.546875 17.71875 17.746094 17.957031 17.832031 18.261719 C 17.914062 18.566406 17.863281 18.871094 17.714844 19.121094 C 17.566406 19.375 17.320312 19.570312 17.011719 19.652344 C 16.730469 19.726562 16.445312 19.691406 16.203125 19.570312 C 16.117188 19.363281 15.96875 19.214844 15.808594 19.132812 C 16.015625 18.824219 16.039062 18.449219 15.96875 18.179688 C 15.925781 17.996094 15.832031 17.835938 15.710938 17.703125 C 15.773438 17.609375 15.816406 17.507812 15.839844 17.417969 Z M 6.257812 18.003906 C 6.539062 18.226562 6.8125 18.3125 7.140625 18.277344 C 7.285156 18.5 7.457031 18.683594 7.660156 18.824219 C 7.59375 18.972656 7.476562 19.09375 7.328125 19.175781 C 7.140625 19.277344 6.914062 19.316406 6.699219 19.265625 C 6.488281 19.210938 6.320312 19.074219 6.214844 18.890625 C 6.105469 18.707031 6.070312 18.484375 6.125 18.273438 C 6.148438 18.171875 6.195312 18.082031 6.257812 18.003906 Z M 15.453125 18.003906 C 15.515625 18.082031 15.5625 18.175781 15.585938 18.273438 C 15.640625 18.484375 15.605469 18.707031 15.496094 18.890625 C 15.390625 19.074219 15.222656 19.210938 15.011719 19.265625 C 14.796875 19.316406 14.570312 19.277344 14.382812 19.175781 C 14.234375 19.09375 14.117188 18.972656 14.050781 18.824219 C 14.136719 18.761719 14.21875 18.695312 14.296875 18.621094 C 14.402344 18.519531 14.492188 18.40625 14.570312 18.28125 C 14.898438 18.324219 15.261719 18.1875 15.453125 18.003906 Z M 9.808594 18.820312 C 9.761719 19.179688 9.886719 19.53125 10.050781 19.773438 L 10.050781 20.46875 C 10.050781 20.917969 9.867188 21.230469 9.628906 21.472656 C 9.367188 21.726562 9.007812 21.886719 8.609375 21.886719 C 8.210938 21.886719 7.847656 21.726562 7.585938 21.472656 C 7.324219 21.214844 7.164062 20.863281 7.164062 20.46875 C 7.164062 20.144531 7.277344 19.84375 7.464844 19.605469 C 7.5 19.757812 7.578125 19.902344 7.699219 20.019531 C 7.875 20.191406 8.105469 20.277344 8.332031 20.277344 C 8.5625 20.277344 8.792969 20.191406 8.96875 20.019531 C 9.140625 19.847656 9.230469 19.621094 9.230469 19.398438 C 9.230469 19.296875 9.210938 19.199219 9.179688 19.101562 C 9.421875 19.042969 9.628906 18.949219 9.808594 18.820312 Z M 11.902344 18.820312 C 12.089844 18.949219 12.304688 19.046875 12.535156 19.101562 C 12.5 19.199219 12.480469 19.296875 12.480469 19.398438 C 12.480469 19.621094 12.570312 19.847656 12.742188 20.019531 C 12.917969 20.191406 13.148438 20.277344 13.378906 20.277344 C 13.605469 20.277344 13.835938 20.191406 14.011719 20.019531 C 14.132812 19.902344 14.210938 19.757812 14.246094 19.605469 C 14.433594 19.84375 14.546875 20.144531 14.546875 20.46875 C 14.546875 20.863281 14.386719 21.214844 14.125 21.472656 C 13.863281 21.726562 13.503906 21.886719 13.101562 21.886719 C 12.703125 21.886719 12.34375 21.726562 12.082031 21.472656 C 11.820312 21.214844 11.660156 20.863281 11.660156 20.472656 L 11.660156 19.773438 C 11.8125 19.554688 11.910156 19.285156 11.910156 18.984375 C 11.910156 18.929688 11.910156 18.875 11.902344 18.820312 Z M 13.703125 19.011719 C 13.746094 19.09375 13.792969 19.167969 13.851562 19.234375 C 13.871094 19.289062 13.882812 19.339844 13.882812 19.398438 C 13.882812 19.523438 13.832031 19.648438 13.734375 19.746094 C 13.632812 19.84375 13.507812 19.890625 13.378906 19.890625 C 13.25 19.890625 13.121094 19.84375 13.023438 19.746094 C 12.921875 19.648438 12.875 19.523438 12.875 19.398438 C 12.875 19.3125 12.894531 19.230469 12.9375 19.15625 C 13.230469 19.167969 13.492188 19.097656 13.703125 19.011719 Z M 8.007812 19.011719 C 8.253906 19.105469 8.511719 19.171875 8.773438 19.15625 C 8.816406 19.230469 8.835938 19.3125 8.835938 19.398438 C 8.835938 19.523438 8.789062 19.648438 8.691406 19.746094 C 8.589844 19.84375 8.460938 19.890625 8.332031 19.890625 C 8.203125 19.890625 8.074219 19.84375 7.976562 19.746094 C 7.878906 19.648438 7.828125 19.523438 7.828125 19.398438 C 7.828125 19.34375 7.839844 19.289062 7.859375 19.234375 C 7.917969 19.160156 7.96875 19.082031 8.007812 19.011719 Z M 6.175781 19.433594 C 6.300781 19.527344 6.445312 19.597656 6.605469 19.636719 C 6.722656 19.667969 6.84375 19.679688 6.960938 19.671875 C 6.902344 19.785156 6.859375 19.902344 6.828125 20.027344 C 6.75 20.308594 6.464844 20.4375 6.210938 20.375 C 5.914062 20.296875 5.789062 20.007812 5.855469 19.769531 C 5.898438 19.601562 6.03125 19.480469 6.175781 19.429688 Z M 15.535156 19.433594 C 15.703125 19.488281 15.820312 19.625 15.855469 19.773438 C 15.894531 19.902344 15.871094 20.035156 15.804688 20.144531 C 15.742188 20.257812 15.636719 20.339844 15.5 20.375 C 15.367188 20.410156 15.230469 20.390625 15.117188 20.328125 C 15.007812 20.261719 14.921875 20.160156 14.882812 20.027344 C 14.847656 19.882812 14.800781 19.773438 14.75 19.671875 C 14.867188 19.679688 14.988281 19.660156 15.105469 19.636719 C 15.269531 19.597656 15.410156 19.527344 15.535156 19.433594 Z M 15.535156 19.433594 " fill-opacity="1" fill-rule="nonzero"/></g></svg>