<svg xmlns="http://www.w3.org/2000/svg" xmlns:xlink="http://www.w3.org/1999/xlink" zoomAndPan="magnify" preserveAspectRatio="xMidYMid meet" version="1.0" viewBox="0 0 22.47 22.48"><defs><clipPath id="e794f8d4d8"><path d="M 0 0 L 22.472656 0 L 22.472656 22.476562 L 0 22.476562 Z M 0 0 " clip-rule="nonzero"/></clipPath></defs><g clip-path="url(#e794f8d4d8)"><path fill="#000000" d="M 17.761719 2.671875 C 16.867188 2.167969 15.539062 1.964844 15.351562 0.652344 C 15.328125 0.46875 15.246094 0.3125 15.105469 0.1875 C 14.964844 0.0625 14.800781 0 14.613281 0 L 7.847656 0 C 7.660156 0 7.496094 0.0625 7.355469 0.1875 C 7.214844 0.3125 7.132812 0.46875 7.109375 0.652344 C 6.921875 1.964844 5.59375 2.167969 4.699219 2.671875 C -0.0078125 5.328125 0.0390625 8.96875 0.0390625 10.488281 L 0.0390625 21.726562 C 0.0390625 21.933594 0.109375 22.113281 0.257812 22.257812 C 0.402344 22.402344 0.578125 22.476562 0.785156 22.476562 L 21.675781 22.476562 C 21.882812 22.476562 22.058594 22.402344 22.203125 22.257812 C 22.351562 22.113281 22.421875 21.933594 22.421875 21.726562 L 22.421875 10.488281 C 22.421875 8.96875 22.46875 5.328125 17.761719 2.671875 Z M 5.023438 3.351562 C 6.132812 4.414062 6.691406 5.917969 6.738281 6.914062 C 6.761719 7.402344 6.667969 7.792969 6.484375 7.980469 C 6.34375 8.128906 6.15625 8.140625 5.78125 8.152344 C 5.308594 8.167969 4.664062 8.1875 3.933594 8.679688 C 3.460938 9 3.234375 9.328125 3.054688 9.589844 C 2.886719 9.832031 2.765625 10.007812 2.484375 10.152344 C 2 10.398438 1.273438 10.429688 0.785156 10.25 C 0.796875 8.671875 0.996094 5.734375 5.023438 3.351562 Z M 21.675781 10.488281 L 21.675781 21.726562 L 19.695312 21.726562 C 18.183594 17.820312 18.757812 13.167969 19.082031 11.320312 C 19.101562 11.21875 19.082031 11.125 19.023438 11.039062 C 18.960938 10.957031 18.882812 10.902344 18.78125 10.886719 C 18.679688 10.867188 18.585938 10.886719 18.5 10.949219 C 18.417969 11.007812 18.367188 11.085938 18.347656 11.1875 C 18.316406 11.359375 18.289062 11.542969 18.257812 11.738281 C 17.972656 11.488281 17.644531 11.324219 17.273438 11.246094 C 15.503906 10.890625 14.28125 12.898438 14.265625 12.921875 C 13.6875 13.855469 13.5625 14.636719 13.898438 15.183594 C 14.160156 15.605469 14.566406 15.667969 14.925781 15.722656 C 15.226562 15.769531 15.53125 15.816406 15.875 16.046875 C 16.316406 16.339844 16.671875 16.8125 16.984375 17.230469 C 17.332031 17.695312 17.667969 18.136719 18.09375 18.296875 C 18.234375 19.472656 18.503906 20.613281 18.898438 21.726562 L 3.5625 21.726562 C 3.773438 21.152344 3.945312 20.5625 4.082031 19.964844 C 4.960938 19.5625 5.875 19.273438 6.824219 19.097656 C 7.046875 19.054688 7.253906 19.023438 7.4375 18.992188 C 8.222656 18.863281 8.789062 18.773438 9.269531 18.230469 C 9.875 17.550781 10.0625 16.414062 9.707031 15.585938 C 9.136719 14.253906 7.054688 13.648438 4.460938 14.023438 C 4.394531 13.070312 4.277344 12.117188 4.109375 11.175781 C 4.09375 11.070312 4.042969 10.988281 3.957031 10.929688 C 3.875 10.867188 3.78125 10.847656 3.675781 10.863281 C 3.574219 10.882812 3.492188 10.933594 3.433594 11.023438 C 3.375 11.109375 3.355469 11.203125 3.375 11.304688 C 3.703125 13.152344 4.28125 17.816406 2.765625 21.726562 L 0.785156 21.726562 L 0.785156 11.03125 C 1.441406 11.195312 2.222656 11.121094 2.820312 10.824219 C 3.273438 10.589844 3.472656 10.296875 3.667969 10.015625 C 3.835938 9.773438 3.992188 9.542969 4.351562 9.300781 C 4.902344 8.929688 5.359375 8.914062 5.804688 8.902344 C 6.226562 8.886719 6.664062 8.875 7.023438 8.503906 C 7.355469 8.15625 7.515625 7.59375 7.484375 6.882812 C 7.433594 5.765625 6.871094 4.207031 5.75 3.015625 C 6.566406 2.667969 7.671875 2.117188 7.847656 0.75 L 14.613281 0.75 C 14.671875 1.25 14.871094 1.6875 15.210938 2.054688 C 14.328125 2.511719 13.71875 3.191406 13.484375 4.019531 C 13.46875 4.074219 13.09375 5.433594 13.910156 6.585938 C 14.273438 7.230469 15.613281 7.976562 17.21875 7.867188 C 18.476562 7.78125 19.84375 7.238281 20.71875 6.445312 C 21.675781 8.058594 21.675781 9.574219 21.675781 10.488281 Z M 18 17.3125 C 17.863281 17.160156 17.71875 16.96875 17.578125 16.78125 C 17.230469 16.316406 16.835938 15.785156 16.289062 15.421875 C 15.8125 15.097656 15.363281 15.03125 15.039062 14.980469 C 14.714844 14.933594 14.605469 14.90625 14.53125 14.785156 C 14.363281 14.515625 14.5 13.964844 14.90625 13.304688 C 14.917969 13.289062 15.898438 11.738281 17.128906 11.980469 C 17.511719 12.058594 17.84375 12.304688 18.125 12.703125 C 17.9375 14.234375 17.898438 15.773438 18 17.3125 Z M 4.5 14.777344 C 6.996094 14.398438 8.65625 15.027344 9.023438 15.882812 C 9.230469 16.371094 9.171875 17.214844 8.714844 17.734375 C 8.421875 18.0625 8.074219 18.128906 7.320312 18.253906 C 7.125 18.285156 6.914062 18.320312 6.683594 18.363281 C 5.847656 18.515625 5.039062 18.753906 4.253906 19.078125 C 4.503906 17.585938 4.550781 16.109375 4.5 14.777344 Z M 17.183594 7.117188 C 15.914062 7.179688 15.015625 6.855469 14.519531 6.152344 C 13.90625 5.289062 14.199219 4.234375 14.199219 4.222656 C 14.464844 3.304688 15.285156 2.816406 15.847656 2.582031 C 16.355469 2.90625 16.925781 3.066406 17.386719 3.320312 C 18.75 4.085938 19.660156 4.964844 20.292969 5.8125 C 19.558594 6.527344 18.304688 7.066406 17.183594 7.117188 Z M 17.183594 7.117188 " fill-opacity="1" fill-rule="nonzero"/></g><path fill="#000000" d="M 12.460938 7.882812 C 11.578125 7.605469 10.664062 8.144531 10.1875 8.761719 C 10.058594 8.929688 9.664062 9.445312 9.738281 10.152344 C 9.835938 11.195312 10.953125 11.96875 12.007812 11.933594 C 12.691406 11.953125 13.523438 11.617188 13.800781 11.039062 C 14.0625 10.539062 13.929688 10.023438 13.832031 9.644531 C 13.738281 9.289062 13.453125 8.195312 12.460938 7.882812 Z M 13.140625 10.691406 C 13.035156 10.886719 12.800781 11.042969 12.488281 11.125 C 12 11.253906 11.441406 11.175781 11.0625 10.925781 C 10.902344 10.820312 10.53125 10.53125 10.480469 10.074219 C 10.4375 9.664062 10.6875 9.339844 10.78125 9.21875 C 11.046875 8.871094 11.65625 8.414062 12.238281 8.597656 C 12.835938 8.789062 13.035156 9.546875 13.109375 9.835938 C 13.1875 10.136719 13.265625 10.445312 13.140625 10.691406 Z M 13.140625 10.691406 " fill-opacity="1" fill-rule="nonzero"/><path fill="#000000" d="M 3.769531 5.992188 L 5.261719 5.992188 C 5.363281 5.992188 5.453125 5.957031 5.523438 5.882812 C 5.597656 5.8125 5.632812 5.722656 5.632812 5.621094 C 5.632812 5.515625 5.597656 5.425781 5.523438 5.355469 C 5.453125 5.28125 5.363281 5.246094 5.261719 5.246094 L 3.769531 5.246094 C 3.664062 5.246094 3.578125 5.28125 3.503906 5.355469 C 3.433594 5.425781 3.394531 5.515625 3.394531 5.621094 C 3.394531 5.722656 3.433594 5.8125 3.503906 5.882812 C 3.578125 5.957031 3.664062 5.992188 3.769531 5.992188 Z M 3.769531 5.992188 " fill-opacity="1" fill-rule="nonzero"/><path fill="#000000" d="M 2.648438 7.492188 L 5.261719 7.492188 C 5.363281 7.492188 5.453125 7.457031 5.523438 7.382812 C 5.597656 7.308594 5.632812 7.222656 5.632812 7.117188 C 5.632812 7.015625 5.597656 6.925781 5.523438 6.851562 C 5.453125 6.78125 5.363281 6.742188 5.261719 6.742188 L 2.648438 6.742188 C 2.546875 6.742188 2.457031 6.78125 2.386719 6.851562 C 2.3125 6.925781 2.277344 7.015625 2.277344 7.117188 C 2.277344 7.222656 2.3125 7.308594 2.386719 7.382812 C 2.457031 7.457031 2.546875 7.492188 2.648438 7.492188 Z M 2.648438 7.492188 " fill-opacity="1" fill-rule="nonzero"/><path fill="#000000" d="M 17.574219 4.496094 C 17.574219 4.390625 17.535156 4.304688 17.464844 4.230469 C 17.390625 4.15625 17.304688 4.121094 17.199219 4.121094 L 15.335938 4.121094 C 15.230469 4.121094 15.144531 4.15625 15.070312 4.230469 C 14.996094 4.304688 14.960938 4.390625 14.960938 4.496094 C 14.960938 4.597656 14.996094 4.6875 15.070312 4.761719 C 15.144531 4.832031 15.230469 4.871094 15.335938 4.871094 L 17.199219 4.871094 C 17.304688 4.871094 17.390625 4.832031 17.464844 4.761719 C 17.535156 4.6875 17.574219 4.597656 17.574219 4.496094 Z M 17.574219 4.496094 " fill-opacity="1" fill-rule="nonzero"/><path fill="#000000" d="M 17.945312 5.621094 L 16.082031 5.621094 C 15.976562 5.621094 15.890625 5.65625 15.816406 5.730469 C 15.742188 5.800781 15.707031 5.890625 15.707031 5.992188 C 15.707031 6.097656 15.742188 6.1875 15.816406 6.257812 C 15.890625 6.332031 15.976562 6.367188 16.082031 6.367188 L 17.945312 6.367188 C 18.050781 6.367188 18.136719 6.332031 18.210938 6.257812 C 18.28125 6.1875 18.320312 6.097656 18.320312 5.992188 C 18.320312 5.890625 18.28125 5.800781 18.210938 5.730469 C 18.136719 5.65625 18.050781 5.621094 17.945312 5.621094 Z M 17.945312 5.621094 " fill-opacity="1" fill-rule="nonzero"/><path fill="#000000" d="M 6.007812 16.109375 L 7.125 16.109375 C 7.230469 16.109375 7.316406 16.074219 7.390625 16 C 7.464844 15.925781 7.5 15.835938 7.5 15.734375 C 7.5 15.628906 7.464844 15.542969 7.390625 15.46875 C 7.316406 15.394531 7.230469 15.359375 7.125 15.359375 L 6.007812 15.359375 C 5.90625 15.359375 5.816406 15.394531 5.742188 15.46875 C 5.671875 15.542969 5.632812 15.628906 5.632812 15.734375 C 5.632812 15.835938 5.671875 15.925781 5.742188 16 C 5.816406 16.074219 5.90625 16.109375 6.007812 16.109375 Z M 6.007812 16.109375 " fill-opacity="1" fill-rule="nonzero"/><path fill="#000000" d="M 17.199219 12.738281 L 16.082031 12.738281 C 15.976562 12.738281 15.890625 12.773438 15.816406 12.847656 C 15.742188 12.921875 15.707031 13.007812 15.707031 13.113281 C 15.707031 13.214844 15.742188 13.304688 15.816406 13.375 C 15.890625 13.449219 15.976562 13.488281 16.082031 13.488281 L 17.199219 13.488281 C 17.304688 13.488281 17.390625 13.449219 17.464844 13.375 C 17.535156 13.304688 17.574219 13.214844 17.574219 13.113281 C 17.574219 13.007812 17.535156 12.921875 17.464844 12.847656 C 17.390625 12.773438 17.304688 12.738281 17.199219 12.738281 Z M 17.199219 12.738281 " fill-opacity="1" fill-rule="nonzero"/><path fill="#000000" d="M 12.351562 9.367188 L 11.605469 9.367188 C 11.5 9.367188 11.414062 9.402344 11.339844 9.476562 C 11.265625 9.546875 11.230469 9.636719 11.230469 9.742188 C 11.230469 9.84375 11.265625 9.933594 11.339844 10.003906 C 11.414062 10.078125 11.5 10.113281 11.605469 10.113281 L 12.351562 10.113281 C 12.453125 10.113281 12.539062 10.078125 12.613281 10.003906 C 12.6875 9.933594 12.722656 9.84375 12.722656 9.742188 C 12.722656 9.636719 12.6875 9.546875 12.613281 9.476562 C 12.539062 9.402344 12.453125 9.367188 12.351562 9.367188 Z M 12.351562 9.367188 " fill-opacity="1" fill-rule="nonzero"/><path fill="#000000" d="M 17.199219 14.234375 L 16.453125 14.234375 C 16.351562 14.234375 16.261719 14.273438 16.191406 14.34375 C 16.117188 14.417969 16.082031 14.507812 16.082031 14.609375 C 16.082031 14.714844 16.117188 14.800781 16.191406 14.875 C 16.261719 14.949219 16.351562 14.984375 16.453125 14.984375 L 17.199219 14.984375 C 17.304688 14.984375 17.390625 14.949219 17.464844 14.875 C 17.535156 14.800781 17.574219 14.714844 17.574219 14.609375 C 17.574219 14.507812 17.535156 14.417969 17.464844 14.34375 C 17.390625 14.273438 17.304688 14.234375 17.199219 14.234375 Z M 17.199219 14.234375 " fill-opacity="1" fill-rule="nonzero"/><path fill="#000000" d="M 6.007812 17.605469 L 7.125 17.605469 C 7.230469 17.605469 7.316406 17.570312 7.390625 17.496094 C 7.464844 17.425781 7.5 17.335938 7.5 17.234375 C 7.5 17.128906 7.464844 17.042969 7.390625 16.96875 C 7.316406 16.894531 7.230469 16.859375 7.125 16.859375 L 6.007812 16.859375 C 5.90625 16.859375 5.816406 16.894531 5.742188 16.96875 C 5.671875 17.042969 5.632812 17.128906 5.632812 17.234375 C 5.632812 17.335938 5.671875 17.425781 5.742188 17.496094 C 5.816406 17.570312 5.90625 17.605469 6.007812 17.605469 Z M 6.007812 17.605469 " fill-opacity="1" fill-rule="nonzero"/></svg>