<svg xmlns="http://www.w3.org/2000/svg" xmlns:xlink="http://www.w3.org/1999/xlink" zoomAndPan="magnify" preserveAspectRatio="xMidYMid meet" version="1.0" viewBox="0 0 24.73 17.97"><defs><clipPath id="088fb7c29d"><path d="M 0 0 L 24.726562 0 L 24.726562 17.972656 L 0 17.972656 Z M 0 0 " clip-rule="nonzero"/></clipPath></defs><g clip-path="url(#088fb7c29d)"><path fill="#1d1d1b" d="M 22.980469 6.480469 L 21.710938 6.480469 C 21.671875 6.324219 21.597656 6.179688 21.5 6.058594 C 21.554688 6.03125 21.609375 6 21.660156 5.960938 C 21.910156 5.785156 22.132812 5.511719 22.289062 5.1875 C 22.648438 4.441406 22.550781 3.710938 22.058594 3.492188 C 21.804688 3.375 21.492188 3.429688 21.199219 3.632812 C 20.953125 3.808594 20.730469 4.078125 20.574219 4.402344 C 20.214844 3.660156 19.578125 3.269531 19.089844 3.492188 C 18.601562 3.710938 18.5 4.441406 18.859375 5.1875 C 19.058594 5.601562 19.347656 5.910156 19.648438 6.058594 C 19.550781 6.183594 19.476562 6.328125 19.4375 6.480469 L 12.511719 6.480469 C 12.660156 6.257812 12.804688 6.007812 12.941406 5.734375 L 14.476562 2.683594 C 14.691406 2.257812 14.722656 1.777344 14.558594 1.328125 C 14.398438 0.882812 14.066406 0.523438 13.628906 0.320312 C 12.90625 -0.0117188 12.046875 0.203125 11.582031 0.828125 L 8.824219 4.542969 C 8.769531 4.621094 8.691406 4.6875 8.605469 4.734375 L 4.566406 6.921875 C 4.15625 7.140625 3.847656 7.503906 3.699219 7.933594 C 3.589844 8.253906 3.28125 8.472656 2.929688 8.472656 L 0.328125 8.472656 C 0.175781 8.472656 0.0546875 8.589844 0.0546875 8.738281 C 0.0546875 8.882812 0.175781 9.003906 0.328125 9.003906 L 2.929688 9.003906 C 3.515625 9.003906 4.035156 8.640625 4.21875 8.101562 C 4.324219 7.796875 4.542969 7.542969 4.832031 7.386719 L 8.875 5.199219 C 9.03125 5.113281 9.167969 4.996094 9.269531 4.855469 L 12.027344 1.140625 C 12.335938 0.722656 12.910156 0.578125 13.390625 0.800781 C 13.699219 0.941406 13.929688 1.191406 14.042969 1.503906 C 14.15625 1.816406 14.132812 2.152344 13.984375 2.449219 L 12.449219 5.503906 C 11.410156 7.566406 9.960938 8.101562 9.941406 8.109375 C 9.796875 8.160156 9.722656 8.3125 9.773438 8.449219 C 9.828125 8.589844 9.984375 8.660156 10.125 8.609375 C 10.179688 8.59375 11.160156 8.238281 12.132812 7.011719 L 18.316406 7.011719 L 18.316406 9.230469 L 12.609375 9.230469 C 11.679688 9.230469 10.925781 9.964844 10.925781 10.863281 C 10.925781 11.394531 11.1875 11.863281 11.589844 12.160156 C 11.0625 12.4375 10.703125 12.976562 10.703125 13.597656 C 10.703125 14.171875 11.007812 14.675781 11.46875 14.96875 C 11.007812 15.257812 10.703125 15.761719 10.703125 16.335938 C 10.703125 16.757812 10.871094 17.144531 11.148438 17.4375 L 7.40625 17.4375 C 6.777344 17.4375 6.183594 17.140625 5.820312 16.648438 C 5.769531 16.578125 5.6875 16.535156 5.597656 16.535156 L 0.328125 16.535156 C 0.175781 16.535156 0.0546875 16.65625 0.0546875 16.800781 C 0.0546875 16.949219 0.175781 17.066406 0.328125 17.066406 L 5.460938 17.066406 C 5.933594 17.632812 6.648438 17.96875 7.40625 17.96875 L 16.363281 17.96875 C 17.292969 17.96875 18.046875 17.234375 18.046875 16.335938 C 18.046875 15.863281 17.835938 15.4375 17.503906 15.136719 C 18.15625 14.910156 18.625 14.308594 18.625 13.597656 C 18.625 12.964844 18.25 12.417969 17.707031 12.144531 C 18.097656 11.847656 18.347656 11.382812 18.347656 10.863281 C 18.347656 10.4375 18.179688 10.054688 17.902344 9.761719 L 22.980469 9.761719 C 23.910156 9.761719 24.671875 9.027344 24.671875 8.121094 C 24.671875 7.21875 23.910156 6.480469 22.980469 6.480469 Z M 20.539062 9.230469 L 19.914062 7.011719 L 21.164062 7.011719 L 21.164062 9.230469 Z M 21.710938 7.011719 L 22.199219 7.011719 L 22.199219 9.230469 L 21.710938 9.230469 Z M 21.066406 4.632812 C 21.183594 4.390625 21.347656 4.183594 21.519531 4.0625 C 21.613281 3.996094 21.707031 3.960938 21.773438 3.960938 C 21.792969 3.960938 21.8125 3.964844 21.828125 3.972656 C 21.972656 4.039062 22.03125 4.464844 21.792969 4.960938 C 21.675781 5.203125 21.511719 5.410156 21.339844 5.53125 C 21.214844 5.617188 21.101562 5.652344 21.035156 5.621094 C 20.96875 5.59375 20.917969 5.484375 20.910156 5.335938 C 20.894531 5.128906 20.953125 4.875 21.066406 4.632812 Z M 19.320312 3.972656 C 19.339844 3.964844 19.355469 3.960938 19.378906 3.960938 C 19.546875 3.960938 19.871094 4.191406 20.082031 4.632812 C 20.199219 4.875 20.253906 5.128906 20.242188 5.335938 C 20.230469 5.484375 20.183594 5.59375 20.117188 5.621094 C 19.972656 5.6875 19.59375 5.457031 19.355469 4.960938 C 19.117188 4.464844 19.175781 4.039062 19.320312 3.972656 Z M 20.574219 6.144531 C 20.816406 6.144531 21.027344 6.285156 21.128906 6.480469 L 20.019531 6.480469 C 20.121094 6.285156 20.332031 6.144531 20.574219 6.144531 Z M 18.867188 7.011719 L 19.34375 7.011719 L 19.96875 9.230469 L 18.867188 9.230469 Z M 16.363281 17.4375 L 12.386719 17.4375 C 11.761719 17.4375 11.25 16.941406 11.25 16.335938 C 11.25 15.726562 11.761719 15.234375 12.386719 15.234375 L 16.363281 15.234375 C 16.988281 15.234375 17.5 15.726562 17.5 16.335938 C 17.5 16.941406 16.988281 17.4375 16.363281 17.4375 Z M 16.941406 12.496094 C 17.566406 12.496094 18.078125 12.992188 18.078125 13.597656 C 18.078125 14.207031 17.566406 14.703125 16.941406 14.703125 L 12.386719 14.703125 C 11.761719 14.703125 11.25 14.207031 11.25 13.597656 C 11.25 12.992188 11.761719 12.496094 12.386719 12.496094 Z M 17.800781 10.863281 C 17.800781 11.472656 17.289062 11.964844 16.664062 11.964844 L 12.609375 11.964844 C 11.980469 11.964844 11.472656 11.472656 11.472656 10.863281 C 11.472656 10.257812 11.980469 9.761719 12.609375 9.761719 L 16.664062 9.761719 C 17.289062 9.761719 17.800781 10.257812 17.800781 10.863281 Z M 22.980469 9.230469 L 22.746094 9.230469 L 22.746094 7.011719 L 22.980469 7.011719 C 23.609375 7.011719 24.121094 7.511719 24.121094 8.121094 C 24.121094 8.734375 23.609375 9.230469 22.980469 9.230469 Z M 22.980469 9.230469 " fill-opacity="1" fill-rule="nonzero"/></g></svg>