<svg xmlns="http://www.w3.org/2000/svg" xmlns:xlink="http://www.w3.org/1999/xlink" zoomAndPan="magnify" preserveAspectRatio="xMidYMid meet" version="1.0" viewBox="0 0 20.98 25.46"><defs><clipPath id="b2f83475c2"><path d="M 0 0 L 20.980469 0 L 20.980469 25.464844 L 0 25.464844 Z M 0 0 " clip-rule="nonzero"/></clipPath></defs><path fill="#000000" d="M 19.632812 16.046875 C 19.628906 16.042969 19.628906 16.035156 19.625 16.03125 C 19.5 15.652344 19.335938 15.292969 19.140625 14.949219 C 19.136719 14.9375 19.128906 14.925781 19.121094 14.917969 C 19.003906 14.707031 18.871094 14.507812 18.730469 14.3125 C 18.722656 14.300781 18.714844 14.292969 18.707031 14.285156 C 18.523438 14.03125 18.316406 13.792969 18.09375 13.570312 C 18.089844 13.5625 18.082031 13.554688 18.074219 13.550781 C 17.519531 13 16.867188 12.554688 16.144531 12.234375 C 16.132812 12.230469 16.125 12.222656 16.113281 12.21875 C 15.847656 12.105469 15.574219 12.007812 15.292969 11.925781 C 15.285156 11.921875 15.277344 11.921875 15.265625 11.917969 C 14.714844 11.765625 14.132812 11.683594 13.535156 11.683594 C 13.402344 11.683594 13.273438 11.6875 13.144531 11.695312 C 13.140625 11.695312 13.136719 11.695312 13.128906 11.695312 C 9.773438 11.902344 7.105469 14.679688 7.105469 18.0625 C 7.105469 19.066406 7.339844 20.015625 7.753906 20.859375 C 7.757812 20.867188 7.761719 20.875 7.765625 20.882812 C 7.949219 21.25 8.167969 21.601562 8.417969 21.925781 C 8.425781 21.9375 8.433594 21.949219 8.445312 21.957031 C 8.628906 22.195312 8.832031 22.421875 9.046875 22.632812 C 9.058594 22.644531 9.070312 22.652344 9.082031 22.664062 C 9.265625 22.839844 9.457031 23.003906 9.660156 23.152344 C 9.667969 23.160156 9.675781 23.167969 9.683594 23.171875 C 10.5625 23.828125 11.613281 24.261719 12.753906 24.398438 C 12.757812 24.398438 12.757812 24.398438 12.761719 24.398438 C 13.015625 24.429688 13.273438 24.445312 13.535156 24.445312 C 14.347656 24.445312 15.121094 24.292969 15.839844 24.019531 C 15.851562 24.015625 15.863281 24.011719 15.875 24.007812 C 18.265625 23.074219 19.964844 20.765625 19.964844 18.0625 C 19.960938 17.359375 19.84375 16.679688 19.632812 16.046875 Z M 14.9375 23.878906 C 15.691406 21.125 17.003906 18.359375 18.941406 15.433594 C 19.039062 15.632812 19.128906 15.839844 19.203125 16.050781 C 17.488281 18.492188 16.28125 21.054688 15.617188 23.675781 C 15.394531 23.753906 15.167969 23.824219 14.9375 23.878906 Z M 14.128906 24.015625 C 14.980469 20.835938 16.464844 17.726562 18.550781 14.761719 C 18.609375 14.851562 18.667969 14.941406 18.722656 15.03125 C 16.648438 18.128906 15.265625 21.054688 14.492188 23.96875 C 14.371094 23.984375 14.25 24.003906 14.128906 24.015625 Z M 10.035156 22.925781 C 10.152344 22.5625 10.507812 21.546875 11.042969 20.914062 C 11.285156 20.625 11.609375 20.363281 11.945312 20.089844 C 12.546875 19.601562 13.226562 19.046875 13.710938 18.160156 C 14.167969 17.328125 14.332031 16.421875 14.480469 15.621094 C 14.574219 15.105469 14.652344 14.660156 14.796875 14.351562 C 15.09375 13.699219 15.824219 12.925781 16.089844 12.652344 C 16.683594 12.929688 17.222656 13.300781 17.691406 13.746094 C 17.503906 14.140625 16.921875 15.332031 16.472656 15.796875 C 16.316406 15.957031 16.109375 16.121094 15.871094 16.3125 C 15.269531 16.789062 14.523438 17.382812 13.988281 18.390625 C 13.441406 19.425781 13.40625 20.726562 13.382812 21.679688 C 13.371094 22.035156 13.363281 22.34375 13.332031 22.574219 C 13.242188 23.222656 12.839844 23.78125 12.679688 23.980469 C 11.703125 23.84375 10.800781 23.472656 10.035156 22.925781 Z M 9.441406 22.445312 C 10.8125 18.625 12.777344 15.230469 15.289062 12.34375 C 15.425781 12.386719 15.558594 12.433594 15.691406 12.484375 C 15.355469 12.835938 14.71875 13.546875 14.425781 14.183594 C 14.261719 14.539062 14.179688 15.007812 14.078125 15.550781 C 13.941406 16.320312 13.78125 17.191406 13.355469 17.96875 C 12.90625 18.785156 12.289062 19.289062 11.6875 19.777344 C 11.335938 20.066406 11 20.339844 10.730469 20.65625 C 10.203125 21.28125 9.847656 22.203125 9.691406 22.667969 C 9.605469 22.59375 9.523438 22.519531 9.441406 22.445312 Z M 14.003906 12.105469 C 11.71875 14.753906 9.875 17.871094 8.527344 21.382812 C 8.394531 21.1875 8.273438 20.984375 8.164062 20.773438 C 9.542969 17.210938 11.207031 14.371094 13.246094 12.09375 C 13.339844 12.089844 13.4375 12.085938 13.53125 12.085938 C 13.691406 12.085938 13.847656 12.09375 14.003906 12.105469 Z M 12.65625 12.148438 C 10.785156 14.328125 9.234375 16.988281 7.933594 20.257812 C 7.660156 19.578125 7.511719 18.839844 7.511719 18.066406 C 7.511719 15.0625 9.75 12.570312 12.65625 12.148438 Z M 8.8125 21.769531 C 10.1875 18.113281 12.097656 14.878906 14.492188 12.160156 C 14.613281 12.179688 14.734375 12.203125 14.851562 12.230469 C 12.410156 15.078125 10.484375 18.402344 9.121094 22.128906 C 9.015625 22.015625 8.910156 21.894531 8.8125 21.769531 Z M 13.148438 24.03125 C 13.363281 23.726562 13.652344 23.21875 13.734375 22.628906 C 13.769531 22.375 13.777344 22.058594 13.785156 21.6875 C 13.8125 20.777344 13.84375 19.527344 14.347656 18.578125 C 14.84375 17.644531 15.554688 17.082031 16.125 16.628906 C 16.363281 16.4375 16.589844 16.257812 16.765625 16.074219 C 17.214844 15.613281 17.753906 14.554688 17.996094 14.050781 C 18.101562 14.167969 18.203125 14.289062 18.300781 14.414062 C 16.113281 17.492188 14.570312 20.726562 13.703125 24.039062 C 13.644531 24.042969 13.589844 24.042969 13.53125 24.042969 C 13.402344 24.042969 13.277344 24.039062 13.148438 24.03125 Z M 16.085938 23.476562 C 16.730469 21.101562 17.828125 18.769531 19.355469 16.539062 C 19.488281 17.027344 19.554688 17.539062 19.554688 18.066406 C 19.554688 20.457031 18.136719 22.523438 16.085938 23.476562 Z M 16.085938 23.476562 " fill-opacity="1" fill-rule="nonzero"/><g clip-path="url(#b2f83475c2)"><path fill="#000000" d="M 15.113281 10.863281 C 15.007812 10.488281 14.613281 9.34375 13.65625 8.613281 C 13.152344 8.226562 12.539062 7.941406 12 7.691406 C 11.980469 7.683594 11.960938 7.671875 11.941406 7.664062 C 12.289062 7.070312 12.621094 6.414062 12.75 5.660156 C 12.824219 5.660156 12.894531 5.65625 12.964844 5.65625 C 13.324219 5.652344 13.613281 5.363281 13.613281 5.007812 L 13.613281 4.601562 C 13.613281 4.242188 13.320312 3.949219 12.960938 3.949219 L 12.664062 3.949219 C 12.300781 2.578125 11.414062 1.917969 11.039062 1.691406 L 11.140625 1.4375 C 11.203125 1.289062 11.195312 1.125 11.128906 0.980469 C 11.0625 0.839844 10.933594 0.730469 10.78125 0.683594 L 10.597656 0.625 C 10.316406 0.539062 10.015625 0.675781 9.902344 0.945312 L 9.660156 1.523438 C 9.621094 1.613281 9.515625 1.660156 9.417969 1.625 C 9.324219 1.589844 9.273438 1.484375 9.308594 1.386719 L 9.46875 0.929688 C 9.523438 0.777344 9.507812 0.609375 9.433594 0.464844 C 9.359375 0.324219 9.226562 0.214844 9.070312 0.171875 L 8.960938 0.140625 C 8.808594 0.0976562 8.644531 0.117188 8.507812 0.199219 C 8.375 0.277344 8.28125 0.410156 8.246094 0.5625 C 8.179688 0.898438 8.023438 1.300781 7.695312 1.273438 C 7.359375 1.253906 7.207031 0.773438 7.144531 0.488281 C 7.109375 0.304688 6.988281 0.160156 6.816406 0.0859375 C 6.648438 0.0117188 6.449219 0.0195312 6.289062 0.113281 L 5.886719 0.34375 C 5.730469 0.433594 5.625 0.585938 5.597656 0.761719 C 5.570312 0.9375 5.625 1.113281 5.746094 1.246094 C 5.972656 1.496094 6.058594 1.753906 6.003906 2.019531 C 5.960938 2.242188 5.707031 2.695312 5.4375 3.175781 C 5.289062 3.441406 5.132812 3.71875 4.984375 4.003906 C 5.003906 3.324219 4.949219 2.535156 4.640625 2.175781 C 4.269531 1.746094 3.453125 1.597656 2.8125 1.644531 C 2.226562 1.6875 1.785156 1.882812 1.597656 2.179688 C 1.386719 2.507812 1.515625 3.179688 1.746094 4.246094 C 1.949219 5.179688 2.203125 6.347656 1.957031 6.855469 C 1.859375 7.070312 1.710938 7.246094 1.539062 7.457031 C 1.144531 7.9375 0.652344 8.535156 0.339844 9.941406 C -0.0078125 11.507812 0.664062 12.695312 1.15625 13.5625 C 1.308594 13.828125 1.441406 14.058594 1.507812 14.246094 C 1.59375 14.488281 1.632812 14.757812 1.675781 15.039062 C 1.769531 15.695312 1.878906 16.441406 2.597656 17.226562 C 3.5 18.21875 5.636719 18.933594 6.179688 19.101562 C 6.691406 22.679688 9.792969 25.4375 13.53125 25.4375 C 17.628906 25.4375 20.960938 22.128906 20.960938 18.066406 C 20.960938 14.539062 18.453125 11.582031 15.113281 10.863281 Z M 11.828125 8.054688 C 12.375 8.308594 12.941406 8.570312 13.410156 8.929688 C 14.132812 9.484375 14.503906 10.332031 14.660156 10.777344 C 14.292969 10.722656 13.914062 10.691406 13.53125 10.691406 C 12.773438 10.691406 12.039062 10.808594 11.347656 11.019531 C 11.207031 10.789062 10.933594 10.21875 11.042969 9.4375 C 11.097656 9.0625 11.371094 8.613281 11.6875 8.09375 C 11.703125 8.066406 11.71875 8.039062 11.734375 8.011719 C 11.765625 8.027344 11.796875 8.042969 11.828125 8.054688 Z M 11.574219 7.492188 C 10.957031 7.191406 10.480469 6.898438 10.457031 6.492188 C 10.449219 6.339844 10.488281 6.222656 10.585938 6.117188 C 10.871094 5.8125 11.578125 5.707031 12.335938 5.671875 C 12.203125 6.339844 11.894531 6.945312 11.574219 7.492188 Z M 5.792969 3.371094 C 6.101562 2.820312 6.347656 2.382812 6.402344 2.097656 C 6.480469 1.707031 6.359375 1.316406 6.046875 0.976562 C 6.007812 0.933594 5.992188 0.878906 6 0.820312 C 6.003906 0.789062 6.023438 0.730469 6.089844 0.695312 L 6.492188 0.460938 C 6.542969 0.433594 6.601562 0.429688 6.652344 0.453125 C 6.683594 0.464844 6.734375 0.5 6.75 0.570312 C 6.9375 1.449219 7.355469 1.65625 7.671875 1.675781 C 7.953125 1.695312 8.449219 1.585938 8.644531 0.644531 C 8.65625 0.601562 8.679688 0.566406 8.71875 0.542969 C 8.757812 0.519531 8.804688 0.515625 8.847656 0.527344 L 8.960938 0.558594 C 9.011719 0.570312 9.050781 0.605469 9.074219 0.652344 C 9.097656 0.695312 9.101562 0.75 9.085938 0.796875 L 8.921875 1.253906 C 8.816406 1.554688 8.976562 1.890625 9.277344 2.003906 C 9.578125 2.113281 9.910156 1.96875 10.03125 1.679688 L 10.277344 1.101562 C 10.308594 1.027344 10.394531 0.984375 10.476562 1.011719 L 10.664062 1.066406 C 10.707031 1.082031 10.742188 1.113281 10.761719 1.152344 C 10.78125 1.195312 10.78125 1.242188 10.765625 1.285156 L 10.59375 1.707031 C 10.550781 1.804688 10.597656 1.921875 10.695312 1.964844 C 10.746094 1.988281 11.816406 2.496094 12.242188 3.949219 L 9.871094 3.949219 C 9.640625 3.667969 8.90625 2.859375 8.269531 3.171875 C 7.71875 3.449219 7.605469 4.417969 7.492188 5.457031 C 7.488281 5.476562 7.488281 5.496094 7.484375 5.515625 C 7.398438 6.332031 7.296875 7.257812 6.976562 7.449219 C 6.652344 7.644531 6.089844 7.632812 5.546875 7.417969 C 5.082031 7.234375 4.734375 6.945312 4.660156 6.679688 C 4.417969 5.824219 5.210938 4.40625 5.792969 3.371094 Z M 9.359375 3.988281 C 8.84375 4.078125 8.375 4.335938 7.988281 4.746094 C 8.074219 4.164062 8.203125 3.660156 8.453125 3.535156 C 8.695312 3.414062 9.078125 3.703125 9.359375 3.988281 Z M 2.898438 16.957031 C 2.261719 16.261719 2.167969 15.609375 2.078125 14.984375 C 2.03125 14.679688 1.992188 14.390625 1.890625 14.113281 C 1.808594 13.890625 1.671875 13.648438 1.511719 13.367188 C 1.050781 12.554688 0.421875 11.445312 0.738281 10.027344 C 1.027344 8.714844 1.488281 8.160156 1.855469 7.710938 C 2.035156 7.492188 2.203125 7.285156 2.324219 7.03125 C 2.628906 6.398438 2.382812 5.261719 2.144531 4.160156 C 1.996094 3.464844 1.808594 2.601562 1.941406 2.394531 C 2.054688 2.210938 2.398438 2.082031 2.839844 2.046875 C 3.46875 2.003906 4.097656 2.167969 4.332031 2.4375 C 4.664062 2.824219 4.605469 4.246094 4.488281 5.074219 C 4.253906 5.691406 4.128906 6.292969 4.269531 6.789062 C 4.382812 7.183594 4.800781 7.558594 5.394531 7.792969 C 5.402344 7.792969 5.410156 7.796875 5.417969 7.800781 C 5.390625 8.144531 5.265625 9.054688 4.65625 9.644531 C 4.445312 9.847656 4.207031 10.019531 3.953125 10.199219 C 3.265625 10.695312 2.480469 11.253906 2.304688 12.632812 C 2.265625 12.910156 2.277344 13.175781 2.316406 13.425781 C 2.320312 13.429688 2.316406 13.433594 2.316406 13.441406 C 2.320312 13.445312 2.320312 13.449219 2.324219 13.453125 C 2.558594 14.84375 3.785156 15.722656 3.84375 15.765625 C 3.878906 15.792969 3.921875 15.804688 3.960938 15.804688 C 4.027344 15.804688 4.089844 15.773438 4.128906 15.71875 C 4.191406 15.628906 4.171875 15.5 4.078125 15.4375 C 4.066406 15.429688 3.050781 14.703125 2.761719 13.574219 C 3.398438 13.507812 4.046875 13.683594 4.6875 14.105469 C 4.722656 14.128906 4.761719 14.140625 4.796875 14.140625 C 4.863281 14.140625 4.929688 14.105469 4.96875 14.046875 C 5.03125 13.957031 5.003906 13.832031 4.910156 13.769531 C 4.179688 13.289062 3.4375 13.09375 2.699219 13.175781 C 2.683594 13.015625 2.683594 12.851562 2.707031 12.683594 C 2.839844 11.652344 3.332031 11.164062 3.898438 10.738281 L 4.828125 11.417969 C 4.863281 11.445312 4.90625 11.457031 4.949219 11.457031 C 5.011719 11.457031 5.070312 11.429688 5.109375 11.375 C 5.175781 11.285156 5.160156 11.160156 5.066406 11.09375 L 4.242188 10.492188 C 4.449219 10.34375 4.65625 10.191406 4.851562 10.015625 C 5.113281 10.09375 5.367188 10.136719 5.605469 10.136719 C 6.078125 10.136719 6.503906 9.984375 6.875 9.675781 C 6.960938 9.605469 6.972656 9.476562 6.902344 9.390625 C 6.828125 9.304688 6.699219 9.292969 6.613281 9.367188 C 6.207031 9.703125 5.726562 9.804688 5.164062 9.679688 C 5.640625 9.066406 5.777344 8.3125 5.816406 7.917969 C 6 7.960938 6.195312 7.988281 6.390625 7.988281 C 6.671875 7.988281 6.953125 7.933594 7.1875 7.792969 C 7.679688 7.5 7.78125 6.558594 7.890625 5.558594 C 7.890625 5.554688 7.890625 5.550781 7.890625 5.546875 C 8.21875 4.996094 8.808594 4.355469 9.769531 4.355469 L 12.960938 4.355469 C 13.097656 4.355469 13.207031 4.464844 13.207031 4.601562 L 13.207031 5.007812 C 13.207031 5.140625 13.097656 5.253906 12.960938 5.253906 C 11.851562 5.265625 10.757812 5.34375 10.289062 5.84375 C 10.113281 6.027344 10.035156 6.253906 10.050781 6.515625 C 10.085938 7.128906 10.644531 7.488281 11.367188 7.839844 C 11.355469 7.855469 11.347656 7.871094 11.335938 7.886719 C 11 8.445312 10.707031 8.925781 10.640625 9.382812 C 10.523438 10.210938 10.777344 10.835938 10.953125 11.152344 C 8.125 12.195312 6.105469 14.898438 6.105469 18.066406 C 6.105469 18.265625 6.117188 18.464844 6.132812 18.664062 C 5.433594 18.429688 3.652344 17.78125 2.898438 16.957031 Z M 13.53125 25.035156 C 9.664062 25.035156 6.511719 21.90625 6.511719 18.066406 C 6.511719 14.222656 9.664062 11.09375 13.53125 11.09375 C 17.402344 11.09375 20.554688 14.222656 20.554688 18.066406 C 20.554688 21.90625 17.402344 25.035156 13.53125 25.035156 Z M 13.53125 25.035156 " fill-opacity="1" fill-rule="nonzero"/></g></svg>