<svg xmlns="http://www.w3.org/2000/svg" xmlns:xlink="http://www.w3.org/1999/xlink" zoomAndPan="magnify" preserveAspectRatio="xMidYMid meet" version="1.0" viewBox="0 0 24.73 20.98"><defs><clipPath id="088d6a2452"><path d="M 0 0 L 24.726562 0 L 24.726562 9 L 0 9 Z M 0 0 " clip-rule="nonzero"/></clipPath><clipPath id="f901397472"><path d="M 0 4 L 24.726562 4 L 24.726562 9 L 0 9 Z M 0 4 " clip-rule="nonzero"/></clipPath><clipPath id="9bbcd102f8"><path d="M 17 7 L 24.726562 7 L 24.726562 16 L 17 16 Z M 17 7 " clip-rule="nonzero"/></clipPath><clipPath id="71959f4a7d"><path d="M 7 7 L 13 7 L 13 20.96875 L 7 20.96875 Z M 7 7 " clip-rule="nonzero"/></clipPath><clipPath id="e90922af63"><path d="M 12 7 L 18 7 L 18 20.96875 L 12 20.96875 Z M 12 7 " clip-rule="nonzero"/></clipPath><clipPath id="40c99d9de0"><path d="M 18 18 L 21 18 L 21 20.96875 L 18 20.96875 Z M 18 18 " clip-rule="nonzero"/></clipPath></defs><g clip-path="url(#088d6a2452)"><path fill="#131212" d="M 24.433594 8.472656 C 24.386719 8.472656 24.339844 8.460938 24.300781 8.429688 C 24.210938 8.371094 22.109375 6.917969 20.007812 3.566406 C 19.992188 3.535156 18.519531 1.121094 16.246094 0.726562 C 15.011719 0.511719 13.75 0.925781 12.503906 1.960938 C 12.414062 2.035156 12.285156 2.035156 12.199219 1.960938 C 10.949219 0.925781 9.691406 0.511719 8.457031 0.726562 C 6.183594 1.121094 4.707031 3.535156 4.691406 3.5625 C 2.589844 6.917969 0.488281 8.371094 0.402344 8.429688 C 0.289062 8.507812 0.140625 8.476562 0.0664062 8.363281 C -0.0078125 8.25 0.0195312 8.09375 0.132812 8.019531 C 0.152344 8.003906 2.242188 6.558594 4.28125 3.296875 C 4.34375 3.195312 5.878906 0.675781 8.371094 0.238281 C 9.699219 0.0078125 11.035156 0.414062 12.351562 1.453125 C 13.664062 0.414062 15 0.0078125 16.332031 0.238281 C 18.820312 0.675781 20.355469 3.195312 20.417969 3.300781 C 22.464844 6.566406 24.546875 8.003906 24.566406 8.019531 C 24.679688 8.09375 24.710938 8.25 24.636719 8.363281 C 24.589844 8.433594 24.511719 8.472656 24.433594 8.472656 " fill-opacity="1" fill-rule="nonzero"/></g><g clip-path="url(#f901397472)"><path fill="#131212" d="M 22.75 8.636719 C 21.230469 8.636719 19.019531 8.261719 17.386719 6.410156 C 17.300781 6.3125 15.300781 4.097656 12.453125 5.449219 C 12.386719 5.480469 12.3125 5.480469 12.25 5.449219 C 9.390625 4.09375 7.335938 6.386719 7.316406 6.410156 C 4.628906 9.457031 0.390625 8.507812 0.214844 8.464844 C 0.0820312 8.4375 0 8.304688 0.03125 8.171875 C 0.0585938 8.039062 0.191406 7.953125 0.320312 7.984375 C 0.363281 7.992188 4.460938 8.90625 6.953125 6.078125 C 6.976562 6.050781 9.222656 3.546875 12.351562 4.953125 C 15.476562 3.546875 17.722656 6.050781 17.746094 6.078125 C 20.242188 8.910156 24.339844 7.992188 24.378906 7.984375 C 24.507812 7.953125 24.640625 8.035156 24.671875 8.171875 C 24.699219 8.304688 24.617188 8.4375 24.488281 8.464844 C 24.417969 8.484375 23.726562 8.636719 22.75 8.636719 " fill-opacity="1" fill-rule="nonzero"/></g><path fill="#131212" d="M 6.53125 15.269531 C 6.488281 15.269531 6.445312 15.257812 6.402344 15.230469 C 5.347656 14.554688 4.417969 13.652344 3.640625 12.546875 C 1.976562 10.183594 0.121094 8.425781 0.101562 8.40625 C 0.00390625 8.316406 -0.00390625 8.160156 0.0898438 8.058594 C 0.179688 7.957031 0.332031 7.949219 0.429688 8.042969 C 0.449219 8.0625 2.339844 9.851562 4.035156 12.257812 C 4.773438 13.3125 5.65625 14.171875 6.660156 14.8125 C 6.773438 14.882812 6.808594 15.039062 6.738281 15.152344 C 6.691406 15.230469 6.613281 15.269531 6.53125 15.269531 " fill-opacity="1" fill-rule="nonzero"/><g clip-path="url(#9bbcd102f8)"><path fill="#131212" d="M 18.195312 15.253906 C 18.113281 15.253906 18.035156 15.210938 17.992188 15.136719 C 17.917969 15.023438 17.953125 14.867188 18.066406 14.796875 C 19.058594 14.15625 19.933594 13.300781 20.667969 12.257812 C 22.359375 9.851562 24.25 8.0625 24.269531 8.042969 C 24.367188 7.949219 24.519531 7.957031 24.613281 8.058594 C 24.703125 8.160156 24.695312 8.316406 24.597656 8.40625 C 24.578125 8.425781 22.722656 10.183594 21.058594 12.546875 C 20.289062 13.644531 19.371094 14.539062 18.324219 15.214844 C 18.285156 15.242188 18.238281 15.253906 18.195312 15.253906 " fill-opacity="1" fill-rule="nonzero"/></g><path fill="#131212" d="M 6.34375 10.597656 C 6.3125 10.597656 6.277344 10.59375 6.25 10.578125 C 5.714844 10.34375 5.175781 10.066406 4.652344 9.75 C 3.402344 9 2.441406 8.597656 2.433594 8.59375 C 2.308594 8.542969 2.25 8.398438 2.300781 8.273438 C 2.347656 8.144531 2.492188 8.082031 2.613281 8.136719 C 2.65625 8.152344 3.617188 8.554688 4.898438 9.324219 C 5.402344 9.628906 5.921875 9.898438 6.4375 10.125 C 6.5625 10.175781 6.617188 10.324219 6.566406 10.449219 C 6.527344 10.542969 6.4375 10.597656 6.34375 10.597656 " fill-opacity="1" fill-rule="nonzero"/><path fill="#131212" d="M 18.472656 10.546875 C 18.378906 10.546875 18.292969 10.492188 18.25 10.398438 C 18.199219 10.273438 18.253906 10.128906 18.375 10.074219 C 18.851562 9.859375 19.332031 9.605469 19.804688 9.324219 C 21.082031 8.554688 22.046875 8.152344 22.085938 8.136719 C 22.210938 8.082031 22.351562 8.144531 22.402344 8.273438 C 22.453125 8.398438 22.394531 8.542969 22.269531 8.59375 C 22.257812 8.597656 21.296875 9 20.050781 9.75 C 19.5625 10.042969 19.0625 10.304688 18.570312 10.527344 C 18.539062 10.539062 18.503906 10.546875 18.472656 10.546875 " fill-opacity="1" fill-rule="nonzero"/><g clip-path="url(#71959f4a7d)"><path fill="#131212" d="M 12.351562 20.980469 C 12.242188 20.980469 9.71875 20.949219 8.386719 18.0625 C 8.328125 17.945312 6.863281 15.03125 7.152344 10.984375 C 7.246094 9.6875 8.023438 8.554688 9.136719 8.09375 C 10.1875 7.65625 11.3125 7.832031 12.484375 8.621094 C 12.59375 8.695312 12.625 8.851562 12.550781 8.964844 C 12.480469 9.078125 12.328125 9.109375 12.21875 9.035156 C 11.1875 8.34375 10.210938 8.179688 9.316406 8.550781 C 8.375 8.941406 7.714844 9.910156 7.636719 11.019531 C 7.359375 14.925781 8.804688 17.8125 8.820312 17.839844 C 10.023438 20.445312 12.257812 20.484375 12.351562 20.488281 C 12.484375 20.488281 12.59375 20.597656 12.59375 20.734375 C 12.59375 20.871094 12.484375 20.980469 12.351562 20.980469 " fill-opacity="1" fill-rule="nonzero"/></g><g clip-path="url(#e90922af63)"><path fill="#131212" d="M 12.351562 20.980469 C 12.214844 20.980469 12.109375 20.871094 12.109375 20.734375 C 12.109375 20.597656 12.214844 20.488281 12.351562 20.488281 C 12.445312 20.484375 14.679688 20.445312 15.875 17.847656 C 15.894531 17.8125 17.34375 14.917969 17.066406 11.019531 C 16.984375 9.910156 16.328125 8.941406 15.382812 8.550781 C 14.488281 8.179688 13.511719 8.34375 12.484375 9.035156 C 12.371094 9.109375 12.222656 9.078125 12.148438 8.964844 C 12.074219 8.851562 12.105469 8.695312 12.21875 8.621094 C 13.386719 7.832031 14.515625 7.65625 15.566406 8.09375 C 16.679688 8.554688 17.457031 9.6875 17.546875 10.984375 C 17.835938 15.03125 16.375 17.945312 16.3125 18.070312 C 14.980469 20.949219 12.457031 20.980469 12.351562 20.980469 " fill-opacity="1" fill-rule="nonzero"/></g><path fill="#131212" d="M 12.351562 15.945312 C 12.214844 15.945312 12.109375 15.835938 12.109375 15.699219 L 12.109375 8.828125 C 12.109375 8.691406 12.214844 8.582031 12.351562 8.582031 C 12.484375 8.582031 12.59375 8.691406 12.59375 8.828125 L 12.59375 15.699219 C 12.59375 15.835938 12.484375 15.945312 12.351562 15.945312 " fill-opacity="1" fill-rule="nonzero"/><path fill="#131212" d="M 21.796875 19.523438 C 21.746094 19.523438 21.691406 19.507812 21.648438 19.472656 L 19.160156 17.476562 C 19.054688 17.390625 19.035156 17.234375 19.117188 17.128906 C 19.199219 17.019531 19.351562 17 19.457031 17.085938 L 21.949219 19.082031 C 22.054688 19.167969 22.070312 19.324219 21.988281 19.429688 C 21.941406 19.492188 21.871094 19.523438 21.796875 19.523438 " fill-opacity="1" fill-rule="nonzero"/><path fill="#131212" d="M 22.167969 17.320312 C 22.132812 17.320312 22.097656 17.3125 22.066406 17.296875 L 20.105469 16.386719 C 19.984375 16.332031 19.929688 16.183594 19.984375 16.058594 C 20.039062 15.933594 20.183594 15.878906 20.304688 15.9375 L 22.269531 16.847656 C 22.390625 16.902344 22.441406 17.050781 22.386719 17.175781 C 22.347656 17.265625 22.257812 17.320312 22.167969 17.320312 " fill-opacity="1" fill-rule="nonzero"/><g clip-path="url(#40c99d9de0)"><path fill="#131212" d="M 19.816406 20.382812 C 19.746094 20.382812 19.675781 20.351562 19.628906 20.289062 L 18.292969 18.558594 C 18.210938 18.453125 18.226562 18.296875 18.332031 18.210938 C 18.4375 18.128906 18.589844 18.144531 18.675781 18.253906 L 20.007812 19.984375 C 20.089844 20.089844 20.070312 20.246094 19.96875 20.332031 C 19.921875 20.367188 19.871094 20.382812 19.816406 20.382812 " fill-opacity="1" fill-rule="nonzero"/></g><path fill="#131212" d="M 16.128906 17.960938 C 16.078125 17.960938 16.03125 17.945312 15.988281 17.914062 C 15.339844 17.4375 15.039062 16.527344 15.273438 15.746094 C 15.507812 14.964844 16.257812 14.382812 17.058594 14.363281 C 17.195312 14.363281 17.300781 14.46875 17.304688 14.605469 C 17.308594 14.742188 17.203125 14.855469 17.070312 14.859375 C 16.480469 14.875 15.910156 15.316406 15.734375 15.890625 C 15.5625 16.464844 15.792969 17.160156 16.269531 17.511719 C 16.378906 17.589844 16.402344 17.746094 16.328125 17.855469 C 16.277344 17.921875 16.203125 17.960938 16.128906 17.960938 " fill-opacity="1" fill-rule="nonzero"/><path fill="#131212" d="M 8.109375 16.75 C 8 16.75 7.902344 16.671875 7.875 16.558594 C 7.84375 16.425781 7.921875 16.292969 8.054688 16.261719 C 8.394531 16.175781 8.691406 15.902344 8.800781 15.558594 C 8.914062 15.21875 8.839844 14.816406 8.617188 14.539062 C 8.394531 14.261719 8.023438 14.109375 7.675781 14.15625 C 7.542969 14.171875 7.421875 14.078125 7.402344 13.941406 C 7.386719 13.804688 7.480469 13.683594 7.613281 13.664062 C 8.125 13.597656 8.664062 13.816406 8.992188 14.226562 C 9.320312 14.632812 9.425781 15.21875 9.261719 15.71875 C 9.097656 16.214844 8.667969 16.617188 8.167969 16.742188 C 8.148438 16.746094 8.128906 16.75 8.109375 16.75 " fill-opacity="1" fill-rule="nonzero"/><path fill="#131212" d="M 17.914062 6.433594 C 17.839844 6.433594 17.769531 6.402344 17.722656 6.339844 C 17.640625 6.230469 17.65625 6.078125 17.761719 5.992188 C 18.097656 5.71875 18.207031 5.175781 18.011719 4.761719 C 17.816406 4.351562 17.355469 4.082031 16.882812 4.105469 C 16.429688 4.125 15.976562 4.410156 15.71875 4.832031 C 15.648438 4.949219 15.5 4.984375 15.386719 4.914062 C 15.273438 4.839844 15.238281 4.691406 15.308594 4.574219 C 15.648438 4.003906 16.246094 3.636719 16.863281 3.609375 C 17.515625 3.582031 18.171875 3.964844 18.445312 4.546875 C 18.742188 5.171875 18.578125 5.960938 18.0625 6.378906 C 18.019531 6.414062 17.964844 6.433594 17.914062 6.433594 " fill-opacity="1" fill-rule="nonzero"/></svg>