<svg xmlns="http://www.w3.org/2000/svg" xmlns:xlink="http://www.w3.org/1999/xlink" zoomAndPan="magnify" preserveAspectRatio="xMidYMid meet" version="1.0" viewBox="0 0 22.48 22.47"><defs><clipPath id="4a4f1893f1"><path d="M 0 0 L 12 0 L 12 22.472656 L 0 22.472656 Z M 0 0 " clip-rule="nonzero"/></clipPath><clipPath id="58d981a9e0"><path d="M 11 0 L 19 0 L 19 22.472656 L 11 22.472656 Z M 11 0 " clip-rule="nonzero"/></clipPath><clipPath id="79ad885077"><path d="M 11 11 L 17 11 L 17 22.472656 L 11 22.472656 Z M 11 11 " clip-rule="nonzero"/></clipPath><clipPath id="6e1843ce84"><path d="M 21 10 L 22.476562 10 L 22.476562 12 L 21 12 Z M 21 10 " clip-rule="nonzero"/></clipPath><clipPath id="9429a7c390"><path d="M 21 9 L 22.476562 9 L 22.476562 11 L 21 11 Z M 21 9 " clip-rule="nonzero"/></clipPath><clipPath id="50121af235"><path d="M 21 7 L 22.476562 7 L 22.476562 9 L 21 9 Z M 21 7 " clip-rule="nonzero"/></clipPath><clipPath id="7facc56918"><path d="M 21 12 L 22.476562 12 L 22.476562 14 L 21 14 Z M 21 12 " clip-rule="nonzero"/></clipPath></defs><path fill="#000000" d="M 19.421875 10.070312 L 20.121094 9.199219 C 20.179688 9.125 20.203125 9.039062 20.191406 8.945312 C 20.179688 8.855469 20.136719 8.777344 20.0625 8.71875 C 19.988281 8.660156 19.902344 8.636719 19.808594 8.644531 C 19.714844 8.652344 19.636719 8.691406 19.578125 8.765625 L 18.875 9.632812 C 18.8125 9.707031 18.785156 9.792969 18.792969 9.890625 C 18.800781 9.988281 18.84375 10.070312 18.921875 10.132812 C 19 10.191406 19.085938 10.21875 19.1875 10.203125 C 19.285156 10.191406 19.363281 10.148438 19.421875 10.070312 Z M 19.421875 10.070312 " fill-opacity="1" fill-rule="nonzero"/><path fill="#000000" d="M 18.875 12.675781 L 19.578125 13.546875 C 19.636719 13.625 19.714844 13.667969 19.8125 13.679688 C 19.910156 13.695312 20 13.667969 20.074219 13.609375 C 20.152344 13.546875 20.195312 13.46875 20.207031 13.371094 C 20.214844 13.273438 20.1875 13.183594 20.121094 13.109375 L 19.421875 12.242188 C 19.363281 12.164062 19.285156 12.117188 19.1875 12.105469 C 19.085938 12.09375 19 12.117188 18.921875 12.179688 C 18.84375 12.242188 18.800781 12.320312 18.792969 12.417969 C 18.785156 12.515625 18.8125 12.601562 18.875 12.675781 Z M 18.875 12.675781 " fill-opacity="1" fill-rule="nonzero"/><path fill="#000000" d="M 20.726562 11.242188 C 20.726562 11.144531 20.691406 11.0625 20.621094 10.996094 C 20.554688 10.929688 20.472656 10.894531 20.375 10.894531 L 19.324219 10.894531 C 19.226562 10.894531 19.144531 10.929688 19.078125 10.996094 C 19.007812 11.0625 18.972656 11.144531 18.972656 11.242188 C 18.972656 11.339844 19.007812 11.421875 19.078125 11.488281 C 19.144531 11.554688 19.226562 11.589844 19.324219 11.589844 L 20.375 11.589844 C 20.472656 11.589844 20.554688 11.554688 20.621094 11.488281 C 20.691406 11.421875 20.726562 11.339844 20.726562 11.242188 Z M 20.726562 11.242188 " fill-opacity="1" fill-rule="nonzero"/><g clip-path="url(#4a4f1893f1)"><path fill="#000000" d="M 11.511719 13.351562 C 11.785156 12.636719 12.09375 11.828125 11.160156 11.078125 C 10.847656 10.769531 4.167969 3.863281 0.648438 0.222656 C 0.585938 0.140625 0.5 0.09375 0.398438 0.0898438 C 0.292969 0.0820312 0.203125 0.113281 0.128906 0.183594 C 0.0546875 0.257812 0.0195312 0.347656 0.0234375 0.449219 C 0.0273438 0.554688 0.0703125 0.636719 0.152344 0.703125 C 4.917969 5.640625 10.621094 11.539062 10.714844 11.609375 C 11.242188 12.03125 11.144531 12.351562 10.855469 13.105469 C 10.828125 13.183594 10.796875 13.261719 10.765625 13.34375 C 10.152344 15.050781 9.757812 16.804688 9.582031 18.609375 C 9.4375 19.90625 9.308594 20.996094 9.1875 21.976562 C 9.175781 22.074219 9.199219 22.160156 9.261719 22.238281 C 9.320312 22.3125 9.398438 22.355469 9.496094 22.367188 L 9.539062 22.367188 C 9.628906 22.367188 9.707031 22.339844 9.773438 22.28125 C 9.839844 22.222656 9.878906 22.148438 9.890625 22.0625 C 10.007812 21.078125 10.136719 19.988281 10.28125 18.6875 C 10.449219 16.9375 10.832031 15.234375 11.429688 13.582031 C 11.453125 13.5 11.484375 13.425781 11.511719 13.351562 Z M 11.511719 13.351562 " fill-opacity="1" fill-rule="nonzero"/></g><g clip-path="url(#58d981a9e0)"><path fill="#000000" d="M 18.253906 10.386719 C 18.125 8.964844 12.859375 1.160156 12.257812 0.269531 C 12.203125 0.1875 12.128906 0.136719 12.03125 0.117188 C 11.9375 0.0976562 11.847656 0.117188 11.765625 0.167969 C 11.6875 0.222656 11.636719 0.296875 11.617188 0.394531 C 11.601562 0.488281 11.617188 0.578125 11.675781 0.65625 C 13.902344 3.941406 17.472656 9.503906 17.554688 10.449219 C 17.640625 11.4375 17.402344 12.363281 16.753906 13.515625 C 16.566406 13.847656 14.578125 20.03125 13.972656 21.914062 C 13.941406 22.007812 13.945312 22.097656 13.988281 22.183594 C 14.035156 22.273438 14.101562 22.332031 14.199219 22.363281 C 14.292969 22.390625 14.382812 22.382812 14.46875 22.335938 C 14.558594 22.289062 14.613281 22.21875 14.640625 22.125 C 15.644531 18.976562 17.210938 14.171875 17.367188 13.847656 C 17.875 12.941406 18.378906 11.816406 18.253906 10.386719 Z M 18.253906 10.386719 " fill-opacity="1" fill-rule="nonzero"/></g><path fill="#000000" d="M 12.011719 7.898438 C 11.742188 8.273438 11.3125 9.015625 11.480469 9.78125 C 11.617188 10.390625 12.0625 10.871094 12.839844 11.210938 C 12.941406 11.257812 13.039062 11.257812 13.136719 11.210938 C 13.3125 11.128906 13.863281 10.929688 14.199219 11.070312 C 14.253906 11.09375 14.3125 11.101562 14.375 11.09375 C 14.40625 11.09375 15.1875 10.996094 15.515625 10.324219 C 15.796875 9.742188 15.628906 8.953125 15.015625 7.984375 L 15 7.960938 L 9.863281 1.132812 C 9.804688 1.054688 9.730469 1.011719 9.632812 0.996094 C 9.539062 0.984375 9.449219 1.003906 9.371094 1.0625 C 9.296875 1.117188 9.25 1.195312 9.234375 1.289062 C 9.222656 1.386719 9.242188 1.472656 9.300781 1.546875 L 14.417969 8.363281 C 14.875 9.085938 15.035156 9.671875 14.875 10.011719 C 14.757812 10.21875 14.582031 10.339844 14.351562 10.386719 C 13.835938 10.226562 13.253906 10.402344 12.976562 10.511719 C 12.503906 10.277344 12.230469 9.992188 12.15625 9.644531 C 12.007812 8.914062 12.730469 8.113281 12.738281 8.113281 C 12.800781 8.046875 12.832031 7.96875 12.832031 7.875 C 12.832031 7.785156 12.800781 7.703125 12.738281 7.636719 L 5.5625 0.222656 C 5.492188 0.15625 5.410156 0.117188 5.316406 0.117188 C 5.21875 0.113281 5.136719 0.148438 5.066406 0.214844 C 4.996094 0.28125 4.960938 0.359375 4.957031 0.457031 C 4.953125 0.554688 4.988281 0.636719 5.054688 0.707031 Z M 12.011719 7.898438 " fill-opacity="1" fill-rule="nonzero"/><g clip-path="url(#79ad885077)"><path fill="#000000" d="M 14.066406 19.042969 L 15.285156 15.304688 C 15.808594 14.585938 16.308594 13.640625 15.785156 12.648438 C 15.667969 12.429688 15.515625 12.238281 15.324219 12.074219 C 15.132812 11.910156 14.921875 11.785156 14.683594 11.703125 C 14.449219 11.617188 14.203125 11.578125 13.953125 11.585938 C 13.699219 11.59375 13.457031 11.644531 13.226562 11.742188 C 12.785156 11.941406 12.488281 12.265625 12.332031 12.722656 C 12.199219 13.183594 12.308594 13.695312 12.664062 14.242188 C 11.816406 16.789062 11.511719 18.851562 11.085938 21.976562 C 11.074219 22.074219 11.097656 22.160156 11.15625 22.238281 C 11.21875 22.3125 11.296875 22.355469 11.394531 22.367188 L 11.441406 22.367188 C 11.648438 22.371094 11.765625 22.269531 11.792969 22.066406 C 12.214844 18.917969 12.519531 16.851562 13.386719 14.296875 C 13.425781 14.1875 13.410156 14.082031 13.339844 13.984375 C 13.039062 13.570312 12.925781 13.210938 13.007812 12.921875 C 13.097656 12.675781 13.261719 12.496094 13.5 12.382812 C 13.8125 12.261719 14.125 12.253906 14.441406 12.367188 C 14.757812 12.484375 14.996094 12.6875 15.15625 12.980469 C 15.4375 13.511719 15.292969 14.101562 14.675781 14.953125 C 14.65625 14.980469 14.636719 15.015625 14.628906 15.050781 L 13.402344 18.835938 C 13.378906 18.925781 13.390625 19.007812 13.4375 19.089844 C 13.480469 19.167969 13.546875 19.222656 13.636719 19.25 C 13.726562 19.277344 13.808594 19.269531 13.894531 19.230469 C 13.976562 19.191406 14.035156 19.128906 14.066406 19.042969 Z M 14.066406 19.042969 " fill-opacity="1" fill-rule="nonzero"/></g><path fill="#000000" d="M 19.839844 5.203125 C 19.886719 5.296875 19.964844 5.355469 20.066406 5.378906 C 20.167969 5.402344 20.261719 5.386719 20.347656 5.324219 C 20.433594 5.265625 20.484375 5.183594 20.496094 5.082031 C 20.507812 4.976562 20.480469 4.886719 20.410156 4.808594 C 20.339844 4.710938 20.269531 4.617188 20.195312 4.519531 C 20.136719 4.449219 20.058594 4.410156 19.964844 4.398438 C 19.875 4.386719 19.789062 4.410156 19.714844 4.46875 C 19.640625 4.523438 19.597656 4.597656 19.582031 4.691406 C 19.566406 4.78125 19.585938 4.867188 19.640625 4.941406 C 19.707031 5.027344 19.773438 5.113281 19.839844 5.203125 Z M 19.839844 5.203125 " fill-opacity="1" fill-rule="nonzero"/><g clip-path="url(#6e1843ce84)"><path fill="#000000" d="M 22.476562 11.1875 C 22.476562 11.09375 22.441406 11.011719 22.375 10.941406 C 22.304688 10.875 22.222656 10.839844 22.128906 10.839844 C 22.03125 10.839844 21.949219 10.875 21.878906 10.941406 C 21.8125 11.011719 21.777344 11.09375 21.777344 11.1875 L 21.777344 11.242188 C 21.777344 11.339844 21.777344 11.433594 21.777344 11.527344 C 21.773438 11.625 21.804688 11.707031 21.875 11.777344 C 21.941406 11.847656 22.023438 11.882812 22.117188 11.886719 L 22.128906 11.886719 C 22.222656 11.886719 22.304688 11.851562 22.371094 11.785156 C 22.441406 11.71875 22.476562 11.640625 22.476562 11.546875 C 22.476562 11.445312 22.476562 11.34375 22.476562 11.242188 Z M 22.476562 11.1875 " fill-opacity="1" fill-rule="nonzero"/></g><path fill="#000000" d="M 18.574219 18.734375 C 18.496094 18.8125 18.410156 18.890625 18.328125 18.964844 C 18.257812 19.03125 18.21875 19.109375 18.210938 19.207031 C 18.207031 19.304688 18.238281 19.386719 18.300781 19.460938 C 18.367188 19.53125 18.449219 19.570312 18.546875 19.574219 C 18.644531 19.582031 18.726562 19.550781 18.800781 19.488281 C 18.890625 19.40625 18.976562 19.324219 19.0625 19.242188 C 19.136719 19.175781 19.175781 19.09375 19.179688 18.996094 C 19.183594 18.894531 19.152344 18.8125 19.082031 18.738281 C 19.011719 18.667969 18.929688 18.632812 18.828125 18.632812 C 18.730469 18.632812 18.644531 18.671875 18.574219 18.742188 Z M 18.574219 18.734375 " fill-opacity="1" fill-rule="nonzero"/><path fill="#000000" d="M 20.703125 6.648438 C 20.746094 6.738281 20.8125 6.796875 20.90625 6.832031 C 21 6.863281 21.089844 6.859375 21.179688 6.816406 C 21.265625 6.773438 21.328125 6.703125 21.355469 6.609375 C 21.386719 6.519531 21.378906 6.429688 21.332031 6.339844 C 21.28125 6.234375 21.226562 6.128906 21.167969 6.023438 C 21.125 5.933594 21.054688 5.878906 20.960938 5.847656 C 20.867188 5.820312 20.777344 5.828125 20.691406 5.871094 C 20.605469 5.917969 20.546875 5.988281 20.519531 6.082031 C 20.492188 6.175781 20.503906 6.261719 20.550781 6.347656 C 20.605469 6.445312 20.65625 6.546875 20.703125 6.648438 Z M 20.703125 6.648438 " fill-opacity="1" fill-rule="nonzero"/><path fill="#000000" d="M 18.75 3.917969 C 18.816406 3.988281 18.898438 4.019531 18.996094 4.023438 C 19.09375 4.023438 19.175781 3.988281 19.246094 3.921875 C 19.3125 3.855469 19.347656 3.773438 19.347656 3.675781 C 19.351562 3.582031 19.316406 3.496094 19.25 3.429688 C 19.164062 3.34375 19.078125 3.261719 18.992188 3.179688 C 18.921875 3.113281 18.835938 3.082031 18.742188 3.082031 C 18.644531 3.085938 18.5625 3.121094 18.496094 3.191406 C 18.429688 3.261719 18.398438 3.34375 18.398438 3.441406 C 18.402344 3.535156 18.4375 3.617188 18.507812 3.683594 C 18.585938 3.761719 18.664062 3.839844 18.75 3.917969 Z M 18.75 3.917969 " fill-opacity="1" fill-rule="nonzero"/><g clip-path="url(#9429a7c390)"><path fill="#000000" d="M 21.921875 9.117188 C 21.828125 9.132812 21.75 9.179688 21.695312 9.257812 C 21.636719 9.335938 21.617188 9.421875 21.632812 9.515625 C 21.652344 9.632812 21.667969 9.742188 21.683594 9.847656 C 21.710938 10.054688 21.828125 10.152344 22.035156 10.152344 L 22.082031 10.152344 C 22.175781 10.140625 22.253906 10.09375 22.3125 10.019531 C 22.371094 9.941406 22.394531 9.855469 22.382812 9.761719 C 22.367188 9.644531 22.347656 9.527344 22.328125 9.414062 C 22.316406 9.316406 22.269531 9.238281 22.1875 9.179688 C 22.109375 9.121094 22.019531 9.101562 21.921875 9.117188 Z M 21.921875 9.117188 " fill-opacity="1" fill-rule="nonzero"/></g><g clip-path="url(#50121af235)"><path fill="#000000" d="M 21.222656 7.886719 C 21.257812 7.992188 21.292969 8.101562 21.324219 8.207031 C 21.351562 8.300781 21.410156 8.367188 21.496094 8.414062 C 21.582031 8.460938 21.667969 8.46875 21.761719 8.441406 C 21.855469 8.414062 21.921875 8.355469 21.96875 8.273438 C 22.015625 8.1875 22.023438 8.097656 21.996094 8.007812 C 21.960938 7.890625 21.925781 7.773438 21.886719 7.660156 C 21.855469 7.566406 21.796875 7.5 21.707031 7.457031 C 21.621094 7.417969 21.53125 7.410156 21.441406 7.441406 C 21.347656 7.472656 21.28125 7.53125 21.238281 7.617188 C 21.195312 7.703125 21.191406 7.789062 21.222656 7.882812 Z M 21.222656 7.886719 " fill-opacity="1" fill-rule="nonzero"/></g><g clip-path="url(#7facc56918)"><path fill="#000000" d="M 22.050781 12.578125 C 21.953125 12.5625 21.867188 12.585938 21.789062 12.640625 C 21.710938 12.699219 21.664062 12.773438 21.648438 12.867188 C 21.632812 12.984375 21.613281 13.09375 21.589844 13.199219 C 21.574219 13.296875 21.589844 13.382812 21.644531 13.460938 C 21.699219 13.542969 21.773438 13.589844 21.871094 13.609375 C 21.890625 13.609375 21.914062 13.609375 21.9375 13.609375 C 22.132812 13.609375 22.25 13.515625 22.285156 13.324219 C 22.308594 13.207031 22.328125 13.09375 22.347656 12.976562 C 22.363281 12.882812 22.339844 12.792969 22.28125 12.714844 C 22.226562 12.636719 22.148438 12.59375 22.050781 12.578125 Z M 22.050781 12.578125 " fill-opacity="1" fill-rule="nonzero"/></g><path fill="#000000" d="M 21.074219 15.902344 C 20.988281 15.859375 20.902344 15.851562 20.808594 15.878906 C 20.714844 15.90625 20.648438 15.964844 20.601562 16.050781 C 20.550781 16.148438 20.496094 16.25 20.441406 16.347656 C 20.394531 16.429688 20.382812 16.519531 20.40625 16.609375 C 20.433594 16.703125 20.488281 16.773438 20.570312 16.820312 C 20.65625 16.871094 20.746094 16.882812 20.839844 16.855469 C 20.933594 16.832031 21.003906 16.777344 21.050781 16.695312 C 21.109375 16.589844 21.167969 16.484375 21.226562 16.378906 C 21.273438 16.292969 21.28125 16.203125 21.253906 16.109375 C 21.222656 16.015625 21.164062 15.945312 21.074219 15.902344 Z M 21.074219 15.902344 " fill-opacity="1" fill-rule="nonzero"/><path fill="#000000" d="M 17.191406 2.625 C 17.285156 2.691406 17.375 2.753906 17.46875 2.820312 C 17.546875 2.878906 17.632812 2.898438 17.726562 2.882812 C 17.824219 2.871094 17.898438 2.824219 17.957031 2.746094 C 18.015625 2.667969 18.035156 2.582031 18.019531 2.488281 C 18.003906 2.390625 17.957031 2.316406 17.878906 2.257812 C 17.785156 2.1875 17.683594 2.121094 17.585938 2.054688 C 17.507812 1.996094 17.417969 1.976562 17.320312 1.996094 C 17.226562 2.011719 17.152344 2.0625 17.09375 2.140625 C 17.039062 2.21875 17.023438 2.308594 17.039062 2.402344 C 17.058594 2.5 17.109375 2.574219 17.191406 2.625 Z M 17.191406 2.625 " fill-opacity="1" fill-rule="nonzero"/><path fill="#000000" d="M 17.269531 19.804688 C 17.175781 19.867188 17.082031 19.929688 16.988281 19.992188 C 16.902344 20.042969 16.847656 20.113281 16.828125 20.210938 C 16.804688 20.308594 16.820312 20.398438 16.875 20.480469 C 16.929688 20.5625 17.003906 20.613281 17.101562 20.632812 C 17.199219 20.648438 17.289062 20.628906 17.371094 20.574219 C 17.472656 20.507812 17.570312 20.441406 17.671875 20.375 C 17.75 20.320312 17.796875 20.242188 17.8125 20.148438 C 17.832031 20.054688 17.8125 19.96875 17.757812 19.890625 C 17.699219 19.8125 17.625 19.761719 17.53125 19.746094 C 17.433594 19.730469 17.347656 19.75 17.269531 19.804688 Z M 17.269531 19.804688 " fill-opacity="1" fill-rule="nonzero"/><path fill="#000000" d="M 20.1875 17.402344 C 20.109375 17.34375 20.023438 17.324219 19.925781 17.335938 C 19.828125 17.351562 19.753906 17.398438 19.695312 17.472656 C 19.628906 17.5625 19.558594 17.652344 19.488281 17.738281 C 19.429688 17.816406 19.40625 17.898438 19.417969 17.996094 C 19.429688 18.089844 19.472656 18.164062 19.546875 18.226562 C 19.621094 18.285156 19.707031 18.308594 19.804688 18.296875 C 19.898438 18.289062 19.976562 18.246094 20.035156 18.171875 C 20.113281 18.078125 20.183594 17.984375 20.257812 17.890625 C 20.316406 17.8125 20.335938 17.726562 20.324219 17.632812 C 20.308594 17.535156 20.261719 17.460938 20.1875 17.402344 Z M 20.1875 17.402344 " fill-opacity="1" fill-rule="nonzero"/><path fill="#000000" d="M 21.695312 14.277344 C 21.605469 14.25 21.515625 14.253906 21.425781 14.296875 C 21.339844 14.339844 21.28125 14.410156 21.25 14.5 C 21.214844 14.609375 21.179688 14.714844 21.140625 14.820312 C 21.105469 14.910156 21.109375 15 21.148438 15.089844 C 21.1875 15.175781 21.253906 15.238281 21.34375 15.273438 C 21.4375 15.304688 21.527344 15.304688 21.617188 15.261719 C 21.707031 15.222656 21.765625 15.15625 21.800781 15.066406 C 21.84375 14.949219 21.882812 14.835938 21.921875 14.71875 C 21.949219 14.628906 21.945312 14.539062 21.898438 14.453125 C 21.855469 14.367188 21.789062 14.308594 21.695312 14.277344 Z M 21.695312 14.277344 " fill-opacity="1" fill-rule="nonzero"/><path fill="#000000" d="M 15.71875 1.792969 C 15.824219 1.839844 15.925781 1.890625 16.023438 1.941406 C 16.113281 1.984375 16.199219 1.992188 16.292969 1.960938 C 16.386719 1.933594 16.453125 1.875 16.5 1.789062 C 16.542969 1.703125 16.550781 1.613281 16.519531 1.523438 C 16.488281 1.429688 16.433594 1.363281 16.34375 1.320312 C 16.238281 1.265625 16.128906 1.210938 16.019531 1.160156 C 15.933594 1.117188 15.839844 1.113281 15.75 1.144531 C 15.65625 1.175781 15.589844 1.238281 15.546875 1.324219 C 15.507812 1.414062 15.503906 1.503906 15.535156 1.59375 C 15.570312 1.683594 15.632812 1.75 15.722656 1.789062 Z M 15.71875 1.792969 " fill-opacity="1" fill-rule="nonzero"/><path fill="#000000" d="M 14.132812 1.203125 C 14.242188 1.234375 14.351562 1.265625 14.457031 1.300781 C 14.550781 1.332031 14.640625 1.324219 14.726562 1.277344 C 14.8125 1.234375 14.871094 1.167969 14.898438 1.074219 C 14.929688 0.984375 14.921875 0.894531 14.875 0.808594 C 14.832031 0.722656 14.761719 0.667969 14.671875 0.636719 C 14.554688 0.601562 14.4375 0.566406 14.320312 0.535156 C 14.226562 0.507812 14.136719 0.519531 14.054688 0.5625 C 13.96875 0.609375 13.914062 0.679688 13.886719 0.773438 C 13.863281 0.867188 13.871094 0.953125 13.917969 1.039062 C 13.964844 1.121094 14.035156 1.175781 14.128906 1.203125 Z M 14.132812 1.203125 " fill-opacity="1" fill-rule="nonzero"/></svg>