<svg xmlns="http://www.w3.org/2000/svg" xmlns:xlink="http://www.w3.org/1999/xlink" zoomAndPan="magnify" preserveAspectRatio="xMidYMid meet" version="1.0" viewBox="0 0.05 28.45 18.66"><defs><clipPath id="0156207871"><path d="M 0 13 L 28.453125 13 L 28.453125 16 L 0 16 Z M 0 13 " clip-rule="nonzero"/></clipPath><clipPath id="dab85a961a"><path d="M 0.046875 16.113281 L 28.386719 16.113281 L 28.386719 18.710938 L 0.046875 18.710938 Z M 0.046875 16.113281 " clip-rule="nonzero"/></clipPath></defs><path fill="#040606" d="M 8.65625 4.476562 L 1.925781 5.277344 L 7.136719 6.4375 Z M 8.65625 4.476562 " fill-opacity="1" fill-rule="nonzero"/><path fill="#040606" d="M 26.464844 5.277344 L 19.738281 4.476562 L 21.253906 6.4375 Z M 26.464844 5.277344 " fill-opacity="1" fill-rule="nonzero"/><path fill="#040606" d="M 13.601562 7.894531 L 13.601562 0.046875 L 8.417969 6.734375 Z M 13.601562 7.894531 " fill-opacity="1" fill-rule="nonzero"/><path fill="#040606" d="M 14.792969 0.046875 L 14.792969 7.894531 L 19.972656 6.734375 Z M 14.792969 0.046875 " fill-opacity="1" fill-rule="nonzero"/><path fill="#040606" d="M 5.558594 12.648438 C 6.183594 12.945312 6.898438 12.945312 7.527344 12.648438 C 9.3125 11.757812 11.457031 11.757812 13.210938 12.648438 C 13.839844 12.945312 14.554688 12.945312 15.175781 12.648438 C 16.964844 11.757812 19.109375 11.757812 20.867188 12.648438 C 21.492188 12.945312 22.207031 12.945312 22.835938 12.648438 C 22.980469 12.589844 23.101562 12.527344 23.25 12.472656 L 27 6.378906 L 14.195312 9.261719 L 1.386719 6.378906 L 5.144531 12.441406 C 5.292969 12.5 5.441406 12.558594 5.558594 12.648438 " fill-opacity="1" fill-rule="nonzero"/><g clip-path="url(#0156207871)"><path fill="#040606" d="M 1.152344 15.175781 C 2.132812 14.667969 3.324219 14.667969 4.308594 15.175781 C 5.707031 15.886719 7.40625 15.886719 8.804688 15.175781 C 9.789062 14.667969 10.976562 14.667969 11.960938 15.175781 C 12.675781 15.53125 13.453125 15.710938 14.226562 15.710938 C 15 15.710938 15.773438 15.53125 16.488281 15.175781 C 17.472656 14.667969 18.664062 14.667969 19.644531 15.175781 C 21.046875 15.886719 22.742188 15.886719 24.144531 15.175781 C 25.125 14.667969 26.316406 14.667969 27.296875 15.175781 C 27.65625 15.355469 28.132812 15.203125 28.3125 14.847656 C 28.492188 14.460938 28.34375 14.015625 27.984375 13.835938 C 26.585938 13.125 24.886719 13.125 23.488281 13.835938 C 22.503906 14.339844 21.316406 14.339844 20.332031 13.835938 C 18.933594 13.125 17.234375 13.125 15.835938 13.835938 C 14.851562 14.339844 13.660156 14.339844 12.675781 13.835938 C 11.277344 13.125 9.578125 13.125 8.179688 13.835938 C 7.195312 14.339844 6.003906 14.339844 5.023438 13.835938 C 3.621094 13.125 1.925781 13.125 0.527344 13.835938 C 0.136719 14.015625 -0.0117188 14.488281 0.199219 14.847656 C 0.316406 15.207031 0.765625 15.355469 1.152344 15.175781 " fill-opacity="1" fill-rule="nonzero"/></g><g clip-path="url(#dab85a961a)"><path fill="#040606" d="M 27.925781 16.835938 C 26.527344 16.125 24.828125 16.125 23.429688 16.835938 C 22.445312 17.34375 21.253906 17.34375 20.273438 16.835938 C 18.871094 16.125 17.175781 16.125 15.773438 16.835938 C 14.792969 17.34375 13.601562 17.34375 12.617188 16.835938 C 11.21875 16.125 9.519531 16.125 8.121094 16.835938 C 7.136719 17.34375 5.949219 17.34375 4.964844 16.835938 C 3.566406 16.125 1.867188 16.125 0.46875 16.835938 C 0.0820312 17.015625 -0.0664062 17.492188 0.136719 17.847656 C 0.316406 18.234375 0.792969 18.382812 1.152344 18.175781 C 2.132812 17.671875 3.324219 17.671875 4.308594 18.175781 C 5.707031 18.886719 7.40625 18.886719 8.804688 18.175781 C 9.789062 17.671875 10.980469 17.671875 11.960938 18.175781 C 12.675781 18.53125 13.453125 18.710938 14.226562 18.710938 C 15 18.710938 15.773438 18.53125 16.488281 18.175781 C 17.472656 17.671875 18.664062 17.671875 19.644531 18.175781 C 21.046875 18.886719 22.742188 18.886719 24.144531 18.175781 C 25.125 17.671875 26.316406 17.671875 27.296875 18.175781 C 27.65625 18.355469 28.132812 18.207031 28.3125 17.847656 C 28.460938 17.492188 28.3125 17.046875 27.925781 16.835938 " fill-opacity="1" fill-rule="nonzero"/></g></svg>