<svg xmlns="http://www.w3.org/2000/svg" xmlns:xlink="http://www.w3.org/1999/xlink" zoomAndPan="magnify" preserveAspectRatio="xMidYMid meet" version="1.0" viewBox="0 0 22.47 23.23"><defs><clipPath id="3dbabb9d81"><path d="M 0 0 L 22.46875 0 L 22.46875 23.226562 L 0 23.226562 Z M 0 0 " clip-rule="nonzero"/></clipPath></defs><g clip-path="url(#3dbabb9d81)"><path fill="#000000" d="M 21.957031 8.078125 C 22.464844 7.257812 22.191406 6.464844 21.527344 6.035156 C 21.652344 4.625 20.535156 4.273438 19.546875 4.464844 C 18.917969 3.761719 18.160156 3.894531 17.664062 4.484375 C 16.691406 3.996094 16.015625 4.453125 15.84375 5.3125 C 15.765625 5.308594 15.683594 5.3125 15.605469 5.320312 C 15.277344 5.097656 14.933594 4.90625 14.570312 4.75 C 14.570312 4.742188 14.570312 3.429688 14.570312 3.425781 C 14.550781 3.050781 14.40625 2.730469 14.136719 2.460938 L 14.136719 1.308594 C 14.113281 0.59375 13.464844 0.0195312 12.734375 0.0273438 L 9.722656 0.0273438 C 8.992188 0.0195312 8.34375 0.59375 8.320312 1.308594 L 8.320312 2.460938 C 8.050781 2.730469 7.90625 3.050781 7.886719 3.425781 C 7.886719 3.429688 7.886719 4.742188 7.886719 4.75 C 7.523438 4.90625 7.179688 5.097656 6.855469 5.320312 C 6.773438 5.3125 6.695312 5.308594 6.613281 5.3125 C 6.441406 4.453125 5.765625 3.996094 4.792969 4.484375 C 4.296875 3.890625 3.539062 3.765625 2.910156 4.464844 C 1.917969 4.273438 0.804688 4.628906 0.929688 6.035156 C 0.265625 6.464844 -0.0078125 7.257812 0.5 8.078125 C 0.0625 8.636719 0.0546875 9.398438 0.679688 9.980469 C 0.441406 10.492188 0.390625 11.25 0.992188 11.691406 C 0.617188 12.460938 0.84375 13.3125 1.800781 13.726562 C 1.605469 14.613281 1.855469 15.710938 3.113281 15.84375 C 3.300781 16.503906 3.871094 17.316406 4.820312 17.039062 C 5.332031 17.445312 6.160156 17.648438 6.789062 17.039062 C 7.421875 17.382812 8.230469 17.34375 8.707031 16.601562 L 8.714844 16.601562 L 8.714844 19.457031 C 8.535156 19.714844 8.34375 20.097656 8.34375 20.558594 L 8.34375 21.097656 C 8.375 22.398438 9.453125 23.195312 11.226562 23.210938 C 13.003906 23.195312 14.082031 22.398438 14.113281 21.097656 L 14.113281 20.558594 C 14.113281 20.097656 13.921875 19.714844 13.742188 19.457031 L 13.742188 16.601562 L 13.75 16.601562 C 14.226562 17.34375 15.035156 17.382812 15.667969 17.039062 C 16.292969 17.644531 17.117188 17.449219 17.636719 17.039062 C 18.589844 17.3125 19.15625 16.503906 19.34375 15.84375 C 20.601562 15.710938 20.851562 14.609375 20.65625 13.726562 C 21.617188 13.3125 21.835938 12.460938 21.464844 11.691406 C 22.066406 11.25 22.015625 10.492188 21.777344 9.980469 C 22.402344 9.398438 22.394531 8.636719 21.957031 8.078125 Z M 11.230469 6.867188 C 11.003906 6.253906 10.597656 5.414062 9.886719 4.675781 C 10.328125 4.601562 10.773438 4.558594 11.222656 4.558594 C 11.226562 4.558594 11.230469 4.558594 11.234375 4.558594 C 11.683594 4.558594 12.128906 4.597656 12.570312 4.675781 C 11.859375 5.414062 11.453125 6.253906 11.230469 6.867188 Z M 11.476562 7.789062 C 11.515625 7.597656 11.882812 5.957031 13.152344 4.796875 C 13.796875 4.945312 14.402344 5.179688 14.976562 5.503906 C 14.480469 5.761719 14.261719 6.386719 14.238281 6.765625 C 13.445312 6.792969 13.007812 7.375 12.953125 8.019531 C 12.421875 8.074219 12.019531 8.335938 11.835938 8.777344 C 11.726562 8.695312 11.609375 8.636719 11.476562 8.601562 Z M 8.855469 1.113281 C 8.921875 0.933594 9.03125 0.785156 9.191406 0.675781 C 9.351562 0.566406 9.527344 0.515625 9.722656 0.515625 L 12.734375 0.515625 C 13.199219 0.511719 13.613281 0.863281 13.640625 1.3125 L 13.640625 2.121094 C 13.429688 2.03125 13.207031 1.984375 12.976562 1.984375 L 9.480469 1.984375 C 9.25 1.984375 9.027344 2.03125 8.816406 2.121094 L 8.816406 1.3125 C 8.820312 1.242188 8.832031 1.175781 8.855469 1.113281 Z M 8.382812 3.4375 C 8.417969 2.894531 8.917969 2.46875 9.480469 2.472656 L 12.976562 2.472656 C 13.539062 2.46875 14.042969 2.894531 14.074219 3.4375 L 14.074219 4.554688 C 13.765625 4.449219 13.453125 4.359375 13.136719 4.289062 C 11.863281 3.992188 10.59375 3.992188 9.320312 4.289062 C 9.003906 4.359375 8.691406 4.449219 8.382812 4.554688 Z M 8.230469 5.136719 L 8.234375 5.136719 C 8.582031 4.996094 8.9375 4.882812 9.304688 4.796875 C 10.578125 5.957031 10.941406 7.597656 10.980469 7.789062 L 10.980469 8.601562 C 10.847656 8.636719 10.730469 8.695312 10.621094 8.777344 C 10.4375 8.335938 10.035156 8.074219 9.503906 8.019531 C 9.449219 7.371094 9.011719 6.792969 8.21875 6.765625 C 8.195312 6.386719 7.976562 5.757812 7.480469 5.503906 C 7.722656 5.363281 7.972656 5.242188 8.230469 5.136719 Z M 9.210938 17.941406 C 10.300781 18.441406 12.160156 18.4375 13.246094 17.941406 L 13.246094 19.457031 C 13.246094 19.582031 13.1875 19.671875 13.070312 19.722656 C 12.082031 20.175781 10.371094 20.175781 9.386719 19.722656 C 9.269531 19.671875 9.210938 19.582031 9.210938 19.457031 Z M 13.246094 16.597656 L 13.246094 17.21875 C 13.246094 17.347656 13.1875 17.433594 13.070312 17.484375 C 12.695312 17.644531 12.078125 17.832031 11.230469 17.832031 C 10.378906 17.832031 9.761719 17.644531 9.386719 17.484375 C 9.269531 17.433594 9.210938 17.347656 9.210938 17.21875 L 9.210938 16.5625 C 9.621094 16.464844 10.0625 16.191406 10.308594 15.582031 C 10.914062 15.949219 11.542969 15.945312 12.148438 15.582031 C 12.394531 16.191406 12.835938 16.464844 13.246094 16.5625 Z M 13.617188 21.097656 C 13.621094 23.003906 10.1875 23.136719 9.199219 22.027344 C 8.953125 21.765625 8.835938 21.453125 8.839844 21.097656 L 8.839844 20.558594 C 8.839844 20.371094 8.882812 20.191406 8.960938 20.019531 C 9.839844 20.722656 12.617188 20.722656 13.496094 20.019531 C 13.574219 20.191406 13.617188 20.371094 13.617188 20.558594 Z M 21.308594 9.734375 C 21.203125 9.824219 21.183594 9.929688 21.257812 10.050781 C 21.414062 10.320312 21.691406 11.054688 21.015625 11.394531 C 20.953125 11.429688 20.914062 11.484375 20.894531 11.554688 C 20.878906 11.621094 20.890625 11.6875 20.929688 11.746094 C 21.269531 12.300781 21.28125 12.996094 20.277344 13.351562 C 20.132812 13.40625 20.082031 13.507812 20.128906 13.65625 C 20.273438 14.15625 20.410156 15.335938 19.136719 15.371094 C 19.007812 15.378906 18.929688 15.445312 18.90625 15.570312 C 18.863281 15.765625 18.679688 16.324219 18.316406 16.523438 C 18.132812 16.625 17.921875 16.628906 17.667969 16.535156 C 17.574219 16.5 17.488281 16.519531 17.410156 16.589844 C 17.117188 16.851562 16.433594 17.222656 15.898438 16.570312 C 15.800781 16.453125 15.6875 16.441406 15.5625 16.53125 C 15.175781 16.792969 14.503906 16.976562 14.09375 16.21875 C 14.035156 16.113281 13.945312 16.070312 13.824219 16.097656 C 13.78125 16.105469 12.804688 16.296875 12.527344 15.132812 C 12.507812 15.039062 12.449219 14.980469 12.359375 14.953125 C 12.269531 14.925781 12.1875 14.941406 12.117188 15.007812 C 12.113281 15.007812 11.71875 15.359375 11.230469 15.371094 C 10.738281 15.359375 10.34375 15.007812 10.339844 15.007812 C 10.269531 14.945312 10.191406 14.925781 10.097656 14.953125 C 10.007812 14.980469 9.953125 15.039062 9.929688 15.132812 C 9.664062 16.269531 8.738281 16.117188 8.632812 16.097656 C 8.515625 16.070312 8.425781 16.113281 8.363281 16.21875 C 7.953125 16.980469 7.28125 16.789062 6.894531 16.53125 C 6.769531 16.441406 6.65625 16.453125 6.558594 16.570312 C 6.355469 16.804688 6.140625 16.921875 5.902344 16.9375 C 5.445312 16.960938 5.050781 16.59375 5.046875 16.589844 C 4.972656 16.519531 4.886719 16.5 4.789062 16.535156 C 4.023438 16.847656 3.65625 16.023438 3.554688 15.570312 C 3.527344 15.445312 3.449219 15.378906 3.320312 15.371094 C 2.050781 15.335938 2.183594 14.164062 2.328125 13.65625 C 2.375 13.507812 2.324219 13.40625 2.179688 13.351562 C 1.179688 12.996094 1.183594 12.304688 1.527344 11.75 C 1.566406 11.6875 1.578125 11.625 1.5625 11.554688 C 1.546875 11.484375 1.503906 11.429688 1.441406 11.394531 C 0.769531 11.058594 1.042969 10.320312 1.199219 10.050781 C 1.273438 9.929688 1.257812 9.824219 1.148438 9.734375 C 0.503906 9.222656 0.617188 8.65625 0.980469 8.273438 C 1.082031 8.179688 1.09375 8.074219 1.011719 7.960938 C 0.484375 7.21875 0.785156 6.667969 1.300781 6.386719 C 1.410156 6.332031 1.453125 6.25 1.441406 6.132812 C 1.261719 4.910156 2.136719 4.800781 2.9375 4.972656 C 3.039062 5 3.125 4.972656 3.195312 4.890625 C 3.714844 4.242188 4.164062 4.4375 4.507812 4.925781 C 4.589844 5.0625 4.703125 5.09375 4.84375 5.011719 C 5.636719 4.550781 6.058594 4.777344 6.152344 5.582031 C 6.15625 5.652344 6.1875 5.710938 6.238281 5.757812 C 6.292969 5.800781 6.359375 5.820312 6.429688 5.8125 C 7.457031 5.683594 7.738281 6.386719 7.730469 6.996094 C 7.726562 7.070312 7.75 7.132812 7.804688 7.183594 C 7.855469 7.234375 7.917969 7.261719 7.996094 7.253906 C 8.824219 7.1875 9.027344 7.777344 9.011719 8.230469 C 9.007812 8.300781 9.03125 8.363281 9.078125 8.414062 C 9.128906 8.46875 9.1875 8.492188 9.257812 8.496094 C 10.015625 8.488281 10.269531 8.945312 10.234375 9.417969 C 10.199219 9.71875 10.632812 9.804688 10.71875 9.515625 C 10.78125 9.273438 10.960938 9.054688 11.230469 9.058594 C 11.496094 9.054688 11.675781 9.273438 11.738281 9.515625 C 11.824219 9.804688 12.253906 9.71875 12.222656 9.421875 C 12.1875 8.945312 12.441406 8.488281 13.199219 8.496094 C 13.269531 8.492188 13.328125 8.46875 13.378906 8.414062 C 13.425781 8.363281 13.449219 8.300781 13.445312 8.230469 C 13.429688 7.773438 13.632812 7.1875 14.460938 7.253906 C 14.539062 7.261719 14.601562 7.234375 14.652344 7.183594 C 14.707031 7.132812 14.730469 7.070312 14.726562 6.996094 C 14.714844 6.421875 14.980469 5.675781 16.027344 5.8125 C 16.097656 5.820312 16.164062 5.804688 16.21875 5.757812 C 16.269531 5.710938 16.300781 5.652344 16.304688 5.582031 C 16.398438 4.78125 16.816406 4.550781 17.613281 5.011719 C 17.753906 5.089844 17.863281 5.0625 17.949219 4.925781 C 18.277344 4.453125 18.734375 4.230469 19.261719 4.890625 C 19.332031 4.972656 19.417969 5 19.519531 4.972656 C 19.75 4.914062 20.425781 4.820312 20.777344 5.121094 C 21 5.3125 21.082031 5.652344 21.019531 6.132812 C 21.003906 6.25 21.050781 6.332031 21.15625 6.382812 C 21.628906 6.644531 22 7.183594 21.445312 7.960938 C 21.363281 8.074219 21.375 8.179688 21.476562 8.273438 C 21.8125 8.625 21.980469 9.203125 21.308594 9.734375 Z M 21.308594 9.734375 " fill-opacity="1" fill-rule="nonzero"/></g><path fill="#000000" d="M 12.078125 10.847656 C 12.019531 10.695312 11.914062 10.648438 11.757812 10.707031 C 11.40625 10.835938 11.050781 10.835938 10.699219 10.707031 C 10.390625 10.601562 10.222656 11.039062 10.527344 11.164062 C 10.996094 11.335938 11.464844 11.335938 11.929688 11.164062 C 12.085938 11.105469 12.136719 11 12.078125 10.847656 Z M 12.078125 10.847656 " fill-opacity="1" fill-rule="nonzero"/><path fill="#000000" d="M 14.410156 10.988281 C 14.445312 10.828125 14.382812 10.730469 14.21875 10.695312 C 13.898438 10.625 13.613281 10.667969 13.375 10.816406 C 12.988281 11.066406 12.886719 11.503906 12.875 11.554688 C 12.863281 11.621094 12.875 11.683594 12.914062 11.738281 C 12.949219 11.796875 13.003906 11.832031 13.070312 11.84375 C 13.136719 11.859375 13.199219 11.847656 13.257812 11.808594 C 13.3125 11.773438 13.351562 11.71875 13.363281 11.652344 C 13.363281 11.652344 13.433594 11.363281 13.644531 11.230469 C 13.769531 11.148438 13.921875 11.132812 14.113281 11.171875 C 14.273438 11.210938 14.371094 11.148438 14.410156 10.988281 Z M 14.410156 10.988281 " fill-opacity="1" fill-rule="nonzero"/><path fill="#000000" d="M 18.527344 7.367188 C 17.792969 6.964844 17.15625 7.285156 16.824219 7.59375 C 15.847656 7.195312 15.25 8.039062 15.101562 8.511719 C 15.011719 8.820312 15.464844 8.964844 15.574219 8.660156 C 15.703125 8.3125 16.074219 7.726562 16.769531 8.105469 C 16.894531 8.167969 16.996094 8.148438 17.082031 8.039062 C 17.101562 8.015625 17.585938 7.414062 18.285156 7.792969 C 18.574219 7.941406 18.808594 7.53125 18.527344 7.367188 Z M 18.527344 7.367188 " fill-opacity="1" fill-rule="nonzero"/><path fill="#000000" d="M 19.851562 6.160156 C 19.585938 5.972656 19.296875 6.34375 19.550781 6.546875 C 19.621094 6.605469 20.242188 7.113281 19.6875 7.859375 C 19.644531 7.914062 19.628906 7.972656 19.640625 8.039062 C 19.648438 8.109375 19.679688 8.164062 19.738281 8.203125 C 19.792969 8.242188 19.855469 8.257812 19.921875 8.246094 C 19.992188 8.238281 20.046875 8.203125 20.085938 8.148438 C 20.773438 7.230469 20.234375 6.445312 19.851562 6.160156 Z M 19.851562 6.160156 " fill-opacity="1" fill-rule="nonzero"/><path fill="#000000" d="M 17.953125 10.554688 C 17.492188 10.375 16.960938 10.550781 16.738281 10.640625 C 15.894531 10.324219 15.296875 10.855469 15.105469 11.347656 C 15.050781 11.5 15.097656 11.605469 15.253906 11.660156 C 15.410156 11.71875 15.515625 11.667969 15.574219 11.515625 C 15.574219 11.511719 15.695312 11.207031 15.976562 11.085938 C 16.164062 11.007812 16.386719 11.023438 16.648438 11.132812 C 16.71875 11.164062 16.789062 11.160156 16.855469 11.125 C 17.046875 11.035156 17.882812 10.710938 18.097656 11.378906 C 18.21875 11.679688 18.664062 11.523438 18.566406 11.214844 C 18.445312 10.890625 18.242188 10.667969 17.953125 10.554688 Z M 17.953125 10.554688 " fill-opacity="1" fill-rule="nonzero"/><path fill="#000000" d="M 17.558594 13.886719 C 16.804688 14.496094 16.082031 13.890625 16.054688 13.863281 C 15.960938 13.78125 15.863281 13.773438 15.757812 13.835938 C 14.914062 14.339844 14.421875 13.714844 14.367188 13.640625 C 14.273438 13.507812 14.15625 13.484375 14.023438 13.578125 C 13.886719 13.671875 13.867188 13.789062 13.960938 13.921875 C 14.21875 14.28125 14.929688 14.804688 15.863281 14.339844 C 16.417969 14.726562 17.253906 14.792969 17.875 14.261719 C 18.121094 14.050781 17.816406 13.6875 17.558594 13.886719 Z M 17.558594 13.886719 " fill-opacity="1" fill-rule="nonzero"/><path fill="#000000" d="M 12.226562 12.921875 C 11.933594 12.777344 11.703125 13.1875 11.988281 13.351562 C 12.140625 13.445312 12.226562 13.582031 12.242188 13.757812 C 12.277344 14.082031 12.753906 14.050781 12.738281 13.726562 C 12.703125 13.179688 12.246094 12.929688 12.226562 12.921875 Z M 12.226562 12.921875 " fill-opacity="1" fill-rule="nonzero"/><path fill="#000000" d="M 9.082031 10.816406 C 8.84375 10.667969 8.558594 10.625 8.238281 10.695312 C 7.917969 10.777344 8.023438 11.234375 8.34375 11.171875 C 8.816406 11.054688 9.03125 11.40625 9.09375 11.65625 C 9.171875 11.96875 9.636719 11.871094 9.582031 11.554688 C 9.570312 11.503906 9.46875 11.066406 9.082031 10.816406 Z M 9.082031 10.816406 " fill-opacity="1" fill-rule="nonzero"/><path fill="#000000" d="M 4.171875 7.792969 C 4.851562 7.425781 5.324219 7.976562 5.375 8.039062 C 5.460938 8.148438 5.5625 8.167969 5.6875 8.105469 C 6.386719 7.726562 6.753906 8.3125 6.882812 8.660156 C 6.933594 8.8125 7.035156 8.867188 7.191406 8.816406 C 7.347656 8.765625 7.402344 8.664062 7.355469 8.511719 C 7.203125 8.035156 6.609375 7.199219 5.632812 7.59375 C 5.300781 7.285156 4.664062 6.964844 3.933594 7.367188 C 3.871094 7.398438 3.832031 7.445312 3.8125 7.511719 C 3.792969 7.578125 3.800781 7.640625 3.832031 7.699219 C 3.867188 7.757812 3.917969 7.796875 3.984375 7.816406 C 4.050781 7.835938 4.113281 7.828125 4.171875 7.792969 Z M 4.171875 7.792969 " fill-opacity="1" fill-rule="nonzero"/><path fill="#000000" d="M 2.605469 6.160156 C 2.222656 6.445312 1.683594 7.230469 2.371094 8.148438 C 2.574219 8.402344 2.957031 8.125 2.769531 7.859375 C 2.214844 7.117188 2.835938 6.605469 2.90625 6.546875 C 3.160156 6.34375 2.875 5.972656 2.605469 6.160156 Z M 2.605469 6.160156 " fill-opacity="1" fill-rule="nonzero"/><path fill="#000000" d="M 4.683594 11.011719 C 5 10.886719 5.453125 11.050781 5.601562 11.125 C 5.667969 11.160156 5.738281 11.164062 5.808594 11.132812 C 6.375 10.882812 6.734375 11.164062 6.882812 11.515625 C 7.007812 11.816406 7.453125 11.652344 7.351562 11.347656 C 7.160156 10.855469 6.5625 10.328125 5.71875 10.640625 C 5.132812 10.390625 4.203125 10.332031 3.890625 11.214844 C 3.789062 11.523438 4.238281 11.683594 4.359375 11.378906 C 4.429688 11.191406 4.535156 11.070312 4.683594 11.011719 Z M 4.683594 11.011719 " fill-opacity="1" fill-rule="nonzero"/><path fill="#000000" d="M 8.433594 13.582031 C 8.300781 13.488281 8.183594 13.507812 8.089844 13.640625 C 8.035156 13.714844 7.542969 14.34375 6.699219 13.835938 C 6.59375 13.773438 6.496094 13.785156 6.402344 13.863281 C 6.375 13.890625 5.660156 14.503906 4.898438 13.886719 C 4.640625 13.6875 4.335938 14.050781 4.582031 14.265625 C 5.207031 14.792969 6.035156 14.726562 6.59375 14.339844 C 7.527344 14.804688 8.238281 14.28125 8.496094 13.921875 C 8.589844 13.789062 8.570312 13.675781 8.433594 13.582031 Z M 8.433594 13.582031 " fill-opacity="1" fill-rule="nonzero"/><path fill="#000000" d="M 10.230469 12.921875 C 10.210938 12.929688 9.753906 13.179688 9.71875 13.726562 C 9.707031 14.050781 10.179688 14.082031 10.214844 13.757812 C 10.230469 13.582031 10.316406 13.445312 10.472656 13.351562 C 10.753906 13.1875 10.523438 12.777344 10.230469 12.921875 Z M 10.230469 12.921875 " fill-opacity="1" fill-rule="nonzero"/></svg>