<svg xmlns="http://www.w3.org/2000/svg" xmlns:xlink="http://www.w3.org/1999/xlink" zoomAndPan="magnify" preserveAspectRatio="xMidYMid meet" version="1.0" viewBox="0 0 23.96 21"><defs><clipPath id="31e390ac79"><path d="M 0 0 L 23.964844 0 L 23.964844 21 L 0 21 Z M 0 0 " clip-rule="nonzero"/></clipPath></defs><g clip-path="url(#31e390ac79)"><path fill="#100f0d" d="M 20.230469 7.140625 L 18.980469 7.664062 C 18.945312 7.679688 18.910156 7.6875 18.875 7.6875 C 18.765625 7.6875 18.667969 7.621094 18.621094 7.519531 C 18.566406 7.378906 18.628906 7.21875 18.769531 7.160156 L 20.019531 6.636719 C 20.160156 6.578125 20.316406 6.644531 20.375 6.785156 C 20.433594 6.921875 20.367188 7.082031 20.230469 7.140625 Z M 19.210938 11.46875 C 18.316406 11.847656 16.5625 11.007812 16.085938 9.101562 C 15.578125 7.082031 17.0625 6.625 17.589844 7.867188 C 17.828125 8.433594 17.890625 9.117188 18.359375 9.511719 C 18.582031 9.695312 18.859375 9.785156 19.121094 9.914062 C 20.183594 10.425781 19.714844 11.257812 19.210938 11.46875 Z M 13.378906 17.738281 C 12.667969 17.898438 11.148438 17.851562 11.433594 16.726562 C 11.695312 15.707031 13.25 16.121094 13.964844 15.65625 C 14.632812 15.226562 14.695312 14.277344 15.234375 13.714844 C 15.808594 13.117188 16.648438 13.300781 16.769531 14.121094 C 17.027344 15.898438 14.871094 17.40625 13.378906 17.738281 Z M 17.257812 5.9375 L 17.78125 4.683594 C 17.835938 4.542969 17.996094 4.476562 18.136719 4.535156 C 18.273438 4.59375 18.339844 4.753906 18.28125 4.894531 L 17.757812 6.148438 C 17.714844 6.253906 17.613281 6.316406 17.507812 6.316406 C 17.472656 6.316406 17.4375 6.308594 17.402344 6.292969 C 17.265625 6.234375 17.199219 6.078125 17.257812 5.9375 Z M 19.648438 5.265625 C 19.753906 5.371094 19.753906 5.542969 19.648438 5.652344 L 18.382812 6.921875 C 18.332031 6.972656 18.261719 7 18.191406 7 C 18.121094 7 18.050781 6.972656 18 6.921875 C 17.894531 6.8125 17.894531 6.640625 18 6.535156 L 19.265625 5.265625 C 19.371094 5.160156 19.542969 5.160156 19.648438 5.265625 Z M 20.125 1.398438 C 19.421875 0.953125 18.589844 0.726562 17.757812 0.769531 C 16.230469 0.847656 15.589844 1.789062 15.328125 2.695312 C 15.128906 3.378906 14.191406 3.460938 13.886719 2.820312 C 13.433594 1.867188 13.234375 1.070312 13.148438 -0.00390625 L 10.265625 0.046875 C 10.386719 3.800781 12.121094 6.648438 12.121094 6.648438 C 12.121094 6.648438 13.152344 8.445312 12.949219 10.457031 C 12.675781 13.148438 10.257812 14.859375 7.402344 14.121094 C 6.71875 13.945312 5.933594 13.644531 5.113281 13.222656 C 4.695312 13.011719 4.429688 12.585938 4.429688 12.117188 L 4.429688 9.367188 L 2.207031 9.367188 L 2.207031 12.320312 C 2.207031 12.730469 2.003906 13.113281 1.671875 13.355469 C 1.019531 13.832031 0.00390625 14.84375 0.00390625 16.496094 L 0.00390625 20 L 2.757812 20 C 2.757812 19.1875 2.742188 18.003906 2.832031 17.09375 C 2.894531 16.417969 3.746094 16.164062 4.167969 16.691406 C 4.460938 17.058594 4.753906 17.394531 5.050781 17.699219 C 8.097656 20.886719 12.917969 21.714844 16.746094 19.535156 C 21.847656 16.628906 22.945312 10.191406 22.945312 10.191406 C 23.960938 5.050781 21.5625 2.300781 20.125 1.398438 " fill-opacity="1" fill-rule="nonzero"/></g><path fill="#100f0d" d="M 7.507812 12.714844 C 7.421875 12.839844 7.453125 13.011719 7.574219 13.097656 C 7.621094 13.128906 7.675781 13.144531 7.730469 13.144531 C 7.816406 13.144531 7.902344 13.105469 7.953125 13.027344 L 10.539062 9.308594 L 8.257812 9.308594 L 10.238281 6.523438 C 10.328125 6.398438 10.300781 6.230469 10.175781 6.140625 C 10.054688 6.054688 9.886719 6.082031 9.796875 6.207031 L 7.203125 9.851562 L 9.5 9.851562 L 7.507812 12.714844 " fill-opacity="1" fill-rule="nonzero"/></svg>