<svg width="167" height="83" viewBox="0 0 167 83" fill="none" xmlns="http://www.w3.org/2000/svg">
<path d="M165.999 0.965874C165.981 0.41391 165.518 -0.018265 164.966 0.000582457L155.971 0.307721C155.419 0.326568 154.987 0.789302 155.006 1.34126C155.025 1.89323 155.487 2.3254 156.039 2.30656L164.035 2.03354L164.308 10.0289C164.327 10.5808 164.789 11.013 165.341 10.9942C165.893 10.9753 166.325 10.5126 166.307 9.96063L165.999 0.965874ZM0 82.5C41.6671 82.5 73.1893 72.933 99.2714 58.0181C125.334 43.1146 145.918 22.8959 165.731 1.68256L164.269 0.317436C144.482 21.5041 124.066 41.5354 98.2786 56.2819C72.5107 71.017 41.3329 80.5 0 80.5V82.5Z" fill="#2DCA73"/>
</svg>
