<svg xmlns="http://www.w3.org/2000/svg" xmlns:xlink="http://www.w3.org/1999/xlink" width="100" zoomAndPan="magnify" viewBox="0 0 75 74.999997" height="100" preserveAspectRatio="xMidYMid meet" version="1.0"><defs><g/></defs><g fill="#4ec61b" fill-opacity="1"><g transform="translate(18.157484, 55.578832)"><g><path d="M 6.695312 0.523438 C 7.304688 0.523438 7.824219 0.433594 8.433594 0.175781 C 13.304688 -1.476562 20.605469 -1.738281 25.300781 -2.261719 C 28.257812 -2.609375 30.78125 -6 29.738281 -6.609375 C 25.648438 -9.042969 17.042969 -7.390625 12.78125 -7.476562 C 20.695312 -15.652344 28.085938 -24.171875 28.085938 -31.214844 C 28.085938 -31.824219 28 -32.34375 27.910156 -32.867188 C 27.214844 -35.996094 26.78125 -33.5625 25.214844 -36.867188 C 24.605469 -38.171875 23.390625 -38.691406 21.910156 -38.691406 C 16.695312 -38.691406 7.914062 -32.085938 7.914062 -27.648438 C 7.914062 -26 9.214844 -24.519531 12.609375 -24 C 14.347656 -24 13.476562 -27.5625 14.78125 -28.867188 C 17.476562 -31.5625 21.652344 -33.042969 22.085938 -33.042969 C 22.695312 -33.042969 23.042969 -32.695312 23.042969 -31.824219 C 23.042969 -31.300781 22.867188 -30.605469 22.605469 -29.648438 C 19.5625 -18.78125 1.914062 -7.652344 1.914062 -2.433594 C 1.914062 -1.390625 2.523438 -0.609375 4.085938 -0.0859375 C 4.957031 0.261719 5.824219 0.523438 6.695312 0.523438 Z M 6.695312 0.523438 "/></g></g></g></svg>