<svg xmlns="http://www.w3.org/2000/svg" xmlns:xlink="http://www.w3.org/1999/xlink" width="100" zoomAndPan="magnify" viewBox="0 0 75 74.999997" height="100" preserveAspectRatio="xMidYMid meet" version="1.0"><defs><g/></defs><g fill="#4ec61b" fill-opacity="1"><g transform="translate(20.368037, 55.728833)"><g><path d="M 13.652344 0.609375 C 20.695312 0.609375 28.867188 -2.609375 28.867188 -10.519531 C 28.867188 -13.652344 27.824219 -17.042969 26.519531 -18.347656 C 25.128906 -19.738281 24.171875 -20.347656 22.953125 -21.042969 C 26.953125 -25.042969 27.648438 -28.519531 27.648438 -30.78125 C 27.648438 -36.867188 24.347656 -39.039062 20.433594 -39.039062 C 14.171875 -39.039062 6.261719 -33.5625 7.21875 -29.996094 C 7.566406 -28.519531 9.042969 -27.300781 10.347656 -27.300781 C 10.957031 -27.300781 11.476562 -27.5625 11.914062 -28.085938 C 14 -30.953125 19.390625 -33.476562 21.738281 -33.476562 C 22.433594 -33.476562 22.867188 -33.300781 22.867188 -32.78125 C 23.390625 -30.78125 15.910156 -22.347656 10.433594 -20.953125 C 7.652344 -20.085938 6.78125 -19.738281 6.78125 -18.085938 C 6.78125 -16.957031 7.566406 -15.910156 9.214844 -15.128906 C 9.914062 -14.609375 10.609375 -14.433594 11.304688 -14.433594 C 13.5625 -14.433594 15.738281 -16.433594 18.605469 -16.433594 C 19.476562 -16.433594 20.433594 -16.257812 21.476562 -15.738281 C 23.042969 -14.957031 23.738281 -13.910156 23.738281 -12.78125 C 23.738281 -9.214844 17.476562 -4.519531 11.5625 -4.519531 C 9.824219 -4.519531 8.171875 -4.871094 6.695312 -5.738281 C 5.824219 -6.347656 5.042969 -6.695312 4.519531 -6.695312 C 3.914062 -6.695312 3.566406 -6.347656 3.566406 -5.652344 C 3.566406 -5.042969 3.824219 -4.171875 4.347656 -3.128906 C 4.957031 -1.304688 10.085938 0.609375 13.652344 0.609375 Z M 13.652344 0.609375 "/></g></g></g></svg>