<svg xmlns="http://www.w3.org/2000/svg" xmlns:xlink="http://www.w3.org/1999/xlink" zoomAndPan="magnify" preserveAspectRatio="xMidYMid meet" version="1.0" viewBox="135.75 159.92 135.44 54.56"><defs><g/></defs><g fill="#666666" fill-opacity="1"><g transform="translate(134.183411, 190.013688)"><g><path d="M 1.5625 -7.484375 C 1.613281 -6.265625 1.925781 -5.160156 2.5 -4.171875 C 3.082031 -3.191406 3.875 -2.359375 4.875 -1.671875 C 5.875 -0.984375 7.050781 -0.445312 8.40625 -0.0625 C 9.757812 0.3125 11.238281 0.5 12.84375 0.5 C 14.476562 0.5 15.953125 0.304688 17.265625 -0.078125 C 18.578125 -0.472656 19.695312 -1.035156 20.625 -1.765625 C 21.550781 -2.503906 22.269531 -3.394531 22.78125 -4.4375 C 23.289062 -5.476562 23.546875 -6.632812 23.546875 -7.90625 C 23.546875 -9.65625 23.109375 -11.082031 22.234375 -12.1875 C 21.359375 -13.300781 20.265625 -14.234375 18.953125 -14.984375 C 17.640625 -15.734375 16.21875 -16.359375 14.6875 -16.859375 C 13.15625 -17.367188 11.734375 -17.90625 10.421875 -18.46875 C 9.109375 -19.03125 8.015625 -19.675781 7.140625 -20.40625 C 6.265625 -21.144531 5.828125 -22.117188 5.828125 -23.328125 C 5.828125 -24.003906 5.972656 -24.640625 6.265625 -25.234375 C 6.566406 -25.828125 7.003906 -26.34375 7.578125 -26.78125 C 8.160156 -27.21875 8.875 -27.566406 9.71875 -27.828125 C 10.5625 -28.097656 11.535156 -28.234375 12.640625 -28.234375 C 14.472656 -28.234375 16.03125 -27.84375 17.3125 -27.0625 C 18.59375 -26.289062 19.34375 -25.078125 19.5625 -23.421875 L 22.4375 -23.421875 C 22.269531 -24.460938 21.890625 -25.394531 21.296875 -26.21875 C 20.710938 -27.050781 19.96875 -27.753906 19.0625 -28.328125 C 18.15625 -28.910156 17.128906 -29.347656 15.984375 -29.640625 C 14.847656 -29.941406 13.660156 -30.09375 12.421875 -30.09375 C 11.128906 -30.09375 9.894531 -29.921875 8.71875 -29.578125 C 7.550781 -29.242188 6.523438 -28.753906 5.640625 -28.109375 C 4.753906 -27.460938 4.050781 -26.644531 3.53125 -25.65625 C 3.007812 -24.664062 2.75 -23.539062 2.75 -22.28125 C 2.75 -20.613281 3.171875 -19.269531 4.015625 -18.25 C 4.859375 -17.238281 5.921875 -16.394531 7.203125 -15.71875 C 8.484375 -15.039062 9.867188 -14.460938 11.359375 -13.984375 C 12.859375 -13.503906 14.25 -12.960938 15.53125 -12.359375 C 16.8125 -11.753906 17.875 -11.015625 18.71875 -10.140625 C 19.5625 -9.265625 19.984375 -8.097656 19.984375 -6.640625 C 19.984375 -4.804688 19.3125 -3.46875 17.96875 -2.625 C 16.632812 -1.78125 14.859375 -1.359375 12.640625 -1.359375 C 10.859375 -1.359375 9.429688 -1.585938 8.359375 -2.046875 C 7.296875 -2.515625 6.484375 -3.070312 5.921875 -3.71875 C 5.359375 -4.363281 4.976562 -5.03125 4.78125 -5.71875 C 4.582031 -6.414062 4.46875 -7.003906 4.4375 -7.484375 Z M 1.5625 -7.484375 "/></g></g></g><g fill="#666666" fill-opacity="1"><g transform="translate(160.594565, 190.013688)"><g><path d="M 11.578125 -4.9375 L 4.265625 -21.140625 L 0.421875 -21.140625 L 9.890625 -0.25 L 7.65625 5.234375 C 7.394531 5.890625 7.0625 6.410156 6.65625 6.796875 C 6.25 7.191406 5.773438 7.390625 5.234375 7.390625 C 4.734375 7.390625 4.25 7.242188 3.78125 6.953125 C 3.3125 6.660156 2.953125 6.226562 2.703125 5.65625 L 0.84375 9.171875 C 1.375 9.648438 1.960938 10 2.609375 10.21875 C 3.265625 10.445312 3.875 10.5625 4.4375 10.5625 C 5.226562 10.5625 5.914062 10.363281 6.5 9.96875 C 7.09375 9.582031 7.613281 9.070312 8.0625 8.4375 C 8.519531 7.800781 8.914062 7.09375 9.25 6.3125 C 9.59375 5.539062 9.921875 4.773438 10.234375 4.015625 L 20.453125 -21.140625 L 18.390625 -21.140625 L 11.75 -4.9375 Z M 11.578125 -4.9375 "/></g></g></g><g fill="#666666" fill-opacity="1"><g transform="translate(181.892522, 190.013688)"><g><path d="M 2.53125 -1.78125 C 2.53125 -1.15625 2.753906 -0.617188 3.203125 -0.171875 C 3.660156 0.273438 4.195312 0.5 4.8125 0.5 C 5.4375 0.5 5.972656 0.273438 6.421875 -0.171875 C 6.867188 -0.617188 7.09375 -1.15625 7.09375 -1.78125 C 7.09375 -2.394531 6.867188 -2.925781 6.421875 -3.375 C 5.972656 -3.832031 5.4375 -4.0625 4.8125 -4.0625 C 4.195312 -4.0625 3.660156 -3.832031 3.203125 -3.375 C 2.753906 -2.925781 2.53125 -2.394531 2.53125 -1.78125 Z M 2.53125 -19.3125 C 2.53125 -18.695312 2.753906 -18.160156 3.203125 -17.703125 C 3.660156 -17.253906 4.195312 -17.03125 4.8125 -17.03125 C 5.4375 -17.03125 5.972656 -17.253906 6.421875 -17.703125 C 6.867188 -18.160156 7.09375 -18.695312 7.09375 -19.3125 C 7.09375 -19.9375 6.867188 -20.472656 6.421875 -20.921875 C 5.972656 -21.367188 5.4375 -21.59375 4.8125 -21.59375 C 4.195312 -21.59375 3.660156 -21.367188 3.203125 -20.921875 C 2.753906 -20.472656 2.53125 -19.9375 2.53125 -19.3125 Z M 2.53125 -19.3125 "/></g></g></g><g fill="#666666" fill-opacity="1"><g transform="translate(191.527314, 190.013688)"><g><path d="M 13.984375 -1.6875 C 12.972656 -1.6875 11.992188 -1.84375 11.046875 -2.15625 C 10.109375 -2.46875 9.269531 -2.96875 8.53125 -3.65625 C 7.800781 -4.34375 7.21875 -5.253906 6.78125 -6.390625 C 6.34375 -7.535156 6.125 -8.941406 6.125 -10.609375 C 6.125 -12.328125 6.363281 -13.785156 6.84375 -14.984375 C 7.320312 -16.179688 7.921875 -17.140625 8.640625 -17.859375 C 9.359375 -18.578125 10.15625 -19.097656 11.03125 -19.421875 C 11.90625 -19.742188 12.738281 -19.90625 13.53125 -19.90625 C 14.820312 -19.90625 15.945312 -19.566406 16.90625 -18.890625 C 17.863281 -18.210938 18.5 -17.382812 18.8125 -16.40625 L 21.71875 -16.40625 C 21.4375 -17.414062 20.984375 -18.25 20.359375 -18.90625 C 19.742188 -19.570312 19.035156 -20.109375 18.234375 -20.515625 C 17.429688 -20.929688 16.570312 -21.210938 15.65625 -21.359375 C 14.738281 -21.515625 13.859375 -21.59375 13.015625 -21.59375 C 11.242188 -21.59375 9.679688 -21.300781 8.328125 -20.71875 C 6.972656 -20.144531 5.832031 -19.363281 4.90625 -18.375 C 3.976562 -17.394531 3.28125 -16.242188 2.8125 -14.921875 C 2.34375 -13.597656 2.109375 -12.1875 2.109375 -10.6875 C 2.109375 -9.113281 2.363281 -7.644531 2.875 -6.28125 C 3.382812 -4.914062 4.109375 -3.726562 5.046875 -2.71875 C 5.992188 -1.71875 7.128906 -0.929688 8.453125 -0.359375 C 9.773438 0.210938 11.269531 0.5 12.9375 0.5 C 14.789062 0.5 16.414062 0.191406 17.8125 -0.421875 C 19.207031 -1.046875 20.382812 -1.722656 21.34375 -2.453125 L 20.125 -4.0625 C 19.132812 -3.238281 18.148438 -2.632812 17.171875 -2.25 C 16.203125 -1.875 15.140625 -1.6875 13.984375 -1.6875 Z M 13.984375 -1.6875 "/></g></g></g><g fill="#666666" fill-opacity="1"><g transform="translate(160.948499, 211.46341)"><g><path d="M 8.703125 -1.5625 C 7.878906 -0.789062 6.90625 -0.40625 5.78125 -0.40625 C 5.15625 -0.40625 4.597656 -0.507812 4.109375 -0.71875 C 3.628906 -0.9375 3.226562 -1.226562 2.90625 -1.59375 C 2.582031 -1.957031 2.335938 -2.375 2.171875 -2.84375 C 2.015625 -3.320312 1.9375 -3.820312 1.9375 -4.34375 C 1.9375 -4.882812 2.019531 -5.378906 2.1875 -5.828125 C 2.363281 -6.285156 2.609375 -6.679688 2.921875 -7.015625 C 3.234375 -7.347656 3.601562 -7.601562 4.03125 -7.78125 C 4.46875 -7.96875 4.941406 -8.0625 5.453125 -8.0625 C 5.796875 -8.0625 6.109375 -8.019531 6.390625 -7.9375 C 6.679688 -7.863281 6.9375 -7.757812 7.15625 -7.625 C 7.375 -7.5 7.550781 -7.351562 7.6875 -7.1875 C 7.832031 -7.019531 7.9375 -6.851562 8 -6.6875 L 8.890625 -6.6875 C 8.765625 -6.96875 8.609375 -7.222656 8.421875 -7.453125 C 8.234375 -7.679688 8 -7.878906 7.71875 -8.046875 C 7.4375 -8.222656 7.101562 -8.359375 6.71875 -8.453125 C 6.34375 -8.546875 5.914062 -8.59375 5.4375 -8.59375 C 4.738281 -8.59375 4.097656 -8.492188 3.515625 -8.296875 C 2.941406 -8.097656 2.445312 -7.8125 2.03125 -7.4375 C 1.625 -7.0625 1.304688 -6.609375 1.078125 -6.078125 C 0.859375 -5.554688 0.75 -4.96875 0.75 -4.3125 C 0.75 -3.75 0.835938 -3.195312 1.015625 -2.65625 C 1.203125 -2.125 1.484375 -1.648438 1.859375 -1.234375 C 2.234375 -0.816406 2.710938 -0.484375 3.296875 -0.234375 C 3.890625 0.015625 4.59375 0.140625 5.40625 0.140625 C 5.925781 0.140625 6.390625 0.09375 6.796875 0 C 7.203125 -0.09375 7.554688 -0.207031 7.859375 -0.34375 C 8.160156 -0.488281 8.410156 -0.640625 8.609375 -0.796875 C 8.804688 -0.960938 8.960938 -1.109375 9.078125 -1.234375 Z M 8.703125 -1.5625 "/></g></g></g><g fill="#666666" fill-opacity="1"><g transform="translate(171.945148, 211.46341)"><g><path d="M 2 -0.71875 L 2 -6.03125 L 0.96875 -6.03125 L 0.96875 0 L 2.171875 0 L 5.25 -5.296875 L 5.25 0 L 6.28125 0 L 6.28125 -6.03125 L 5.078125 -6.03125 Z M 2 -0.71875 "/></g></g></g><g fill="#666666" fill-opacity="1"><g transform="translate(180.757074, 211.46341)"><g><path d="M 1.921875 -6.03125 L 0.96875 -6.03125 L 0.96875 0 L 1.375 0 L 1.375 -4.765625 L 1.421875 -4.765625 L 3.8125 0.140625 L 3.9375 0.140625 L 6.171875 -4.765625 L 6.21875 -4.765625 L 6.21875 0 L 7.25 0 L 7.25 -6.03125 L 6.3125 -6.03125 L 4.21875 -1.421875 L 4.15625 -1.421875 Z M 1.921875 -6.03125 "/></g></g></g><g fill="#666666" fill-opacity="1"><g transform="translate(190.534627, 211.46341)"><g><path d="M 2 -5.5625 L 4.8125 -5.5625 L 4.8125 0 L 5.828125 0 L 5.828125 -6.03125 L 0.96875 -6.03125 L 0.96875 0 L 2 0 Z M 2 -5.5625 "/></g></g></g><g fill="#666666" fill-opacity="1"><g transform="translate(198.89996, 211.46341)"><g><path d="M 2.65625 0 L 3.6875 0 L 3.6875 -5.5625 L 6.09375 -5.5625 L 6.09375 -6.03125 L 0.234375 -6.03125 L 0.234375 -5.5625 L 2.65625 -5.5625 Z M 2.65625 0 "/></g></g></g><g fill="#666666" fill-opacity="1"><g transform="translate(206.806614, 211.46341)"><g><path d="M 6.859375 -3 C 6.859375 -2.582031 6.785156 -2.179688 6.640625 -1.796875 C 6.492188 -1.421875 6.285156 -1.085938 6.015625 -0.796875 C 5.742188 -0.503906 5.414062 -0.273438 5.03125 -0.109375 C 4.65625 0.0546875 4.226562 0.140625 3.75 0.140625 C 3.269531 0.140625 2.832031 0.0546875 2.4375 -0.109375 C 2.050781 -0.285156 1.722656 -0.519531 1.453125 -0.8125 C 1.179688 -1.101562 0.972656 -1.4375 0.828125 -1.8125 C 0.679688 -2.195312 0.609375 -2.59375 0.609375 -3 C 0.609375 -3.425781 0.679688 -3.828125 0.828125 -4.203125 C 0.972656 -4.585938 1.179688 -4.925781 1.453125 -5.21875 C 1.722656 -5.507812 2.050781 -5.738281 2.4375 -5.90625 C 2.832031 -6.082031 3.269531 -6.171875 3.75 -6.171875 C 4.226562 -6.171875 4.65625 -6.082031 5.03125 -5.90625 C 5.414062 -5.738281 5.742188 -5.507812 6.015625 -5.21875 C 6.285156 -4.925781 6.492188 -4.585938 6.640625 -4.203125 C 6.785156 -3.828125 6.859375 -3.425781 6.859375 -3 Z M 5.71875 -3 C 5.71875 -3.570312 5.65625 -4.03125 5.53125 -4.375 C 5.40625 -4.726562 5.242188 -5 5.046875 -5.1875 C 4.859375 -5.382812 4.644531 -5.515625 4.40625 -5.578125 C 4.175781 -5.648438 3.957031 -5.6875 3.75 -5.6875 C 3.53125 -5.6875 3.300781 -5.648438 3.0625 -5.578125 C 2.832031 -5.515625 2.617188 -5.382812 2.421875 -5.1875 C 2.222656 -5 2.0625 -4.726562 1.9375 -4.375 C 1.8125 -4.03125 1.75 -3.570312 1.75 -3 C 1.75 -2.445312 1.8125 -1.992188 1.9375 -1.640625 C 2.0625 -1.296875 2.222656 -1.023438 2.421875 -0.828125 C 2.617188 -0.640625 2.832031 -0.507812 3.0625 -0.4375 C 3.300781 -0.375 3.53125 -0.34375 3.75 -0.34375 C 3.957031 -0.34375 4.175781 -0.375 4.40625 -0.4375 C 4.644531 -0.507812 4.859375 -0.640625 5.046875 -0.828125 C 5.242188 -1.023438 5.40625 -1.296875 5.53125 -1.640625 C 5.65625 -1.992188 5.71875 -2.445312 5.71875 -3 Z M 5.71875 -3 "/></g></g></g><g fill="#666666" fill-opacity="1"><g transform="translate(215.835808, 211.46341)"><g><path d="M 1.921875 -6.03125 L 0.96875 -6.03125 L 0.96875 0 L 1.375 0 L 1.375 -4.765625 L 1.421875 -4.765625 L 3.8125 0.140625 L 3.9375 0.140625 L 6.171875 -4.765625 L 6.21875 -4.765625 L 6.21875 0 L 7.25 0 L 7.25 -6.03125 L 6.3125 -6.03125 L 4.21875 -1.421875 L 4.15625 -1.421875 Z M 1.921875 -6.03125 "/></g></g></g><g fill="#666666" fill-opacity="1"><g transform="translate(225.613364, 211.46341)"><g><path d="M 3.703125 -3.6875 L 3.703125 -2.78125 L 0.71875 -2.78125 L 0.71875 -3.6875 Z M 3.703125 -3.6875 "/></g></g></g><g fill="#666666" fill-opacity="1"><g transform="translate(231.612918, 211.46341)"><g><path d="M 4.09375 -2.96875 C 4.03125 -2.957031 3.945312 -2.941406 3.84375 -2.921875 C 3.738281 -2.898438 3.625 -2.878906 3.5 -2.859375 C 3.382812 -2.835938 3.269531 -2.816406 3.15625 -2.796875 C 3.039062 -2.785156 2.9375 -2.78125 2.84375 -2.78125 C 2.539062 -2.78125 2.304688 -2.816406 2.140625 -2.890625 C 1.984375 -2.960938 1.863281 -3.050781 1.78125 -3.15625 C 1.707031 -3.269531 1.660156 -3.382812 1.640625 -3.5 C 1.628906 -3.625 1.625 -3.722656 1.625 -3.796875 L 1.625 -6.03125 L 0.609375 -6.03125 L 0.609375 -3.796875 C 0.609375 -3.703125 0.613281 -3.566406 0.625 -3.390625 C 0.644531 -3.222656 0.703125 -3.054688 0.796875 -2.890625 C 0.898438 -2.722656 1.0625 -2.578125 1.28125 -2.453125 C 1.5 -2.328125 1.804688 -2.265625 2.203125 -2.265625 C 2.472656 -2.265625 2.769531 -2.285156 3.09375 -2.328125 C 3.425781 -2.378906 3.757812 -2.457031 4.09375 -2.5625 L 4.09375 0 L 5.125 0 L 5.125 -6.03125 L 4.09375 -6.03125 Z M 4.09375 -2.96875 "/></g></g></g><g fill="#666666" fill-opacity="1"><g transform="translate(239.266096, 211.46341)"><g><path d="M 6.328125 -2.75 L 6.328125 -3 C 6.328125 -3.539062 6.25 -4.007812 6.09375 -4.40625 C 5.945312 -4.800781 5.738281 -5.125 5.46875 -5.375 C 5.207031 -5.632812 4.90625 -5.828125 4.5625 -5.953125 C 4.21875 -6.085938 3.851562 -6.15625 3.46875 -6.15625 C 3.050781 -6.15625 2.671875 -6.082031 2.328125 -5.9375 C 1.984375 -5.800781 1.679688 -5.597656 1.421875 -5.328125 C 1.160156 -5.054688 0.957031 -4.726562 0.8125 -4.34375 C 0.675781 -3.96875 0.609375 -3.539062 0.609375 -3.0625 C 0.609375 -2.65625 0.671875 -2.257812 0.796875 -1.875 C 0.921875 -1.488281 1.109375 -1.144531 1.359375 -0.84375 C 1.609375 -0.550781 1.925781 -0.3125 2.3125 -0.125 C 2.707031 0.0507812 3.171875 0.140625 3.703125 0.140625 C 4.222656 0.140625 4.695312 0.0507812 5.125 -0.125 C 5.5625 -0.3125 5.941406 -0.570312 6.265625 -0.90625 L 5.875 -1.296875 C 5.707031 -1.148438 5.550781 -1.015625 5.40625 -0.890625 C 5.257812 -0.773438 5.109375 -0.675781 4.953125 -0.59375 C 4.796875 -0.507812 4.632812 -0.445312 4.46875 -0.40625 C 4.3125 -0.363281 4.128906 -0.34375 3.921875 -0.34375 C 3.703125 -0.34375 3.460938 -0.375 3.203125 -0.4375 C 2.953125 -0.507812 2.71875 -0.632812 2.5 -0.8125 C 2.28125 -0.988281 2.097656 -1.234375 1.953125 -1.546875 C 1.804688 -1.859375 1.734375 -2.257812 1.734375 -2.75 Z M 1.734375 -3.234375 C 1.734375 -3.554688 1.765625 -3.867188 1.828125 -4.171875 C 1.898438 -4.472656 2.007812 -4.738281 2.15625 -4.96875 C 2.300781 -5.207031 2.476562 -5.394531 2.6875 -5.53125 C 2.90625 -5.675781 3.164062 -5.75 3.46875 -5.75 C 4.039062 -5.75 4.484375 -5.523438 4.796875 -5.078125 C 5.117188 -4.628906 5.28125 -4.015625 5.28125 -3.234375 Z M 1.734375 -3.234375 "/></g></g></g><g fill="#666666" fill-opacity="1"><g transform="translate(247.764204, 211.46341)"><g><path d="M 2 -2.921875 L 2 -6.03125 L 0.96875 -6.03125 L 0.96875 0 L 2 0 L 2 -2.125 L 2.65625 -2.828125 L 4.15625 -0.859375 C 4.25 -0.734375 4.347656 -0.609375 4.453125 -0.484375 C 4.554688 -0.367188 4.664062 -0.265625 4.78125 -0.171875 C 4.90625 -0.078125 5.039062 -0.00390625 5.1875 0.046875 C 5.332031 0.109375 5.484375 0.140625 5.640625 0.140625 C 5.785156 0.140625 5.925781 0.125 6.0625 0.09375 C 6.195312 0.0625 6.316406 0.03125 6.421875 0 L 6.421875 -0.484375 L 6.09375 -0.484375 C 5.988281 -0.484375 5.882812 -0.507812 5.78125 -0.5625 C 5.675781 -0.625 5.566406 -0.703125 5.453125 -0.796875 C 5.347656 -0.890625 5.242188 -0.988281 5.140625 -1.09375 C 5.046875 -1.195312 4.957031 -1.300781 4.875 -1.40625 L 3.296875 -3.484375 L 5.75 -6.03125 L 4.984375 -6.03125 Z M 2 -2.921875 "/></g></g></g><g fill="#666666" fill-opacity="1"><g transform="translate(255.996762, 211.46341)"><g><path d="M 6.328125 -2.75 L 6.328125 -3 C 6.328125 -3.539062 6.25 -4.007812 6.09375 -4.40625 C 5.945312 -4.800781 5.738281 -5.125 5.46875 -5.375 C 5.207031 -5.632812 4.90625 -5.828125 4.5625 -5.953125 C 4.21875 -6.085938 3.851562 -6.15625 3.46875 -6.15625 C 3.050781 -6.15625 2.671875 -6.082031 2.328125 -5.9375 C 1.984375 -5.800781 1.679688 -5.597656 1.421875 -5.328125 C 1.160156 -5.054688 0.957031 -4.726562 0.8125 -4.34375 C 0.675781 -3.96875 0.609375 -3.539062 0.609375 -3.0625 C 0.609375 -2.65625 0.671875 -2.257812 0.796875 -1.875 C 0.921875 -1.488281 1.109375 -1.144531 1.359375 -0.84375 C 1.609375 -0.550781 1.925781 -0.3125 2.3125 -0.125 C 2.707031 0.0507812 3.171875 0.140625 3.703125 0.140625 C 4.222656 0.140625 4.695312 0.0507812 5.125 -0.125 C 5.5625 -0.3125 5.941406 -0.570312 6.265625 -0.90625 L 5.875 -1.296875 C 5.707031 -1.148438 5.550781 -1.015625 5.40625 -0.890625 C 5.257812 -0.773438 5.109375 -0.675781 4.953125 -0.59375 C 4.796875 -0.507812 4.632812 -0.445312 4.46875 -0.40625 C 4.3125 -0.363281 4.128906 -0.34375 3.921875 -0.34375 C 3.703125 -0.34375 3.460938 -0.375 3.203125 -0.4375 C 2.953125 -0.507812 2.71875 -0.632812 2.5 -0.8125 C 2.28125 -0.988281 2.097656 -1.234375 1.953125 -1.546875 C 1.804688 -1.859375 1.734375 -2.257812 1.734375 -2.75 Z M 1.734375 -3.234375 C 1.734375 -3.554688 1.765625 -3.867188 1.828125 -4.171875 C 1.898438 -4.472656 2.007812 -4.738281 2.15625 -4.96875 C 2.300781 -5.207031 2.476562 -5.394531 2.6875 -5.53125 C 2.90625 -5.675781 3.164062 -5.75 3.46875 -5.75 C 4.039062 -5.75 4.484375 -5.523438 4.796875 -5.078125 C 5.117188 -4.628906 5.28125 -4.015625 5.28125 -3.234375 Z M 1.734375 -3.234375 "/></g></g></g><g fill="#666666" fill-opacity="1"><g transform="translate(264.494864, 211.46341)"><g><path d="M 0.96875 3.015625 L 2 3.015625 L 2 -0.984375 L 2.046875 -0.984375 C 2.117188 -0.773438 2.222656 -0.597656 2.359375 -0.453125 C 2.492188 -0.304688 2.644531 -0.1875 2.8125 -0.09375 C 2.976562 -0.0078125 3.15625 0.046875 3.34375 0.078125 C 3.539062 0.117188 3.734375 0.140625 3.921875 0.140625 C 4.328125 0.140625 4.695312 0.0664062 5.03125 -0.078125 C 5.375 -0.222656 5.664062 -0.429688 5.90625 -0.703125 C 6.15625 -0.984375 6.347656 -1.316406 6.484375 -1.703125 C 6.617188 -2.097656 6.6875 -2.53125 6.6875 -3 C 6.6875 -3.488281 6.617188 -3.925781 6.484375 -4.3125 C 6.347656 -4.695312 6.15625 -5.023438 5.90625 -5.296875 C 5.664062 -5.578125 5.375 -5.789062 5.03125 -5.9375 C 4.695312 -6.09375 4.328125 -6.171875 3.921875 -6.171875 C 2.960938 -6.171875 2.335938 -5.800781 2.046875 -5.0625 L 2 -5.0625 L 2 -6.03125 L 0.96875 -6.03125 Z M 2 -3.625 C 2 -3.882812 2.039062 -4.132812 2.125 -4.375 C 2.207031 -4.613281 2.320312 -4.816406 2.46875 -4.984375 C 2.625 -5.160156 2.804688 -5.300781 3.015625 -5.40625 C 3.222656 -5.507812 3.441406 -5.5625 3.671875 -5.5625 C 3.921875 -5.5625 4.160156 -5.515625 4.390625 -5.421875 C 4.617188 -5.328125 4.816406 -5.175781 4.984375 -4.96875 C 5.148438 -4.769531 5.285156 -4.507812 5.390625 -4.1875 C 5.492188 -3.863281 5.546875 -3.476562 5.546875 -3.03125 C 5.546875 -2.570312 5.492188 -2.179688 5.390625 -1.859375 C 5.285156 -1.535156 5.144531 -1.269531 4.96875 -1.0625 C 4.800781 -0.863281 4.601562 -0.71875 4.375 -0.625 C 4.15625 -0.53125 3.921875 -0.484375 3.671875 -0.484375 C 3.441406 -0.484375 3.226562 -0.53125 3.03125 -0.625 C 2.832031 -0.71875 2.65625 -0.851562 2.5 -1.03125 C 2.34375 -1.207031 2.21875 -1.425781 2.125 -1.6875 C 2.039062 -1.945312 2 -2.242188 2 -2.578125 Z M 2 -3.625 "/></g></g></g></svg>